<svg width="24" height="24" viewBox="0 0 24 24" fill="none" xmlns="http://www.w3.org/2000/svg">
<path d="M22 14.0005V11.9756C22 10.1299 22 9.20712 21.6078 8.51747C21.3409 8.04816 20.9523 7.65957 20.483 7.39268C19.7934 7.00049 18.8706 7.00049 17.0249 7.00049H16.7454C16.6224 7.00049 16.561 7.00049 16.5042 6.99399C16.2083 6.9601 15.943 6.79608 15.7803 6.54658C15.7491 6.49876 15.7216 6.44378 15.6667 6.33382C15.5567 6.11394 15.5017 6.00394 15.4394 5.90831C15.1141 5.4093 14.5833 5.08126 13.9915 5.01348C13.8781 5.00049 13.7552 5.00049 13.5093 5.00049H10.4907C10.2448 5.00049 10.1219 5.00049 10.0085 5.01348C9.41668 5.08126 8.8859 5.4093 8.56062 5.90831C8.49827 6.00395 8.44329 6.11391 8.33333 6.33382C8.27836 6.44377 8.25086 6.49876 8.21969 6.54658C8.05705 6.79608 7.79166 6.9601 7.49576 6.99399C7.43905 7.00049 7.37758 7.00049 7.25464 7.00049H6.97508C5.12945 7.00049 4.20663 7.00049 3.51698 7.39268C3.04767 7.65957 2.65908 8.04816 2.39219 8.51747C2 9.20712 2 10.1299 2 11.9756V14.0005C2 16.8289 2 18.2431 2.87868 19.1218C3.75736 20.0005 5.17157 20.0005 8 20.0005H16C18.8284 20.0005 20.2426 20.0005 21.1213 19.1218C22 18.2431 22 16.8289 22 14.0005Z" stroke="#1C274C" stroke-width="1.5"/>
<path d="M7 7.00049V6.00049C7 5.05768 7 4.58627 6.70711 4.29338C6.41421 4.00049 5.94281 4.00049 5 4.00049C4.05719 4.00049 3.58579 4.00049 3.29289 4.29338C3 4.58627 3 5.05768 3 6.00049V7.50049" stroke="#1C274C" stroke-width="1.5"/>
<path d="M21 8.00049V6.00049C21 5.05768 21 4.58627 20.7071 4.29338C20.4142 4.00049 19.9428 4.00049 19 4.00049C18.0572 4.00049 17.5858 4.00049 17.2929 4.29338C17 4.58627 17 5.05768 17 6.00049V7.00049" stroke="#1C274C" stroke-width="1.5"/>
<path d="M9 13.5005H6" stroke="#1C274C" stroke-width="1.5" stroke-linecap="round"/>
<path d="M18 13.5005L16.5 13.5005M16.5 13.5005L15 13.5005M16.5 13.5005L16.5 12.0005M16.5 13.5005L16.5 15.0005" stroke="#1C274C" stroke-width="1.5" stroke-linecap="round"/>
</svg>
