<svg width="24" height="24" viewBox="0 0 24 24" fill="none" xmlns="http://www.w3.org/2000/svg">
<path d="M12.765 20.4158L3.58447 11.2352M12.765 20.4158C14.8777 22.5284 18.3029 22.5284 20.4155 20.4158C22.5282 18.3032 22.5282 14.8779 20.4155 12.7653M12.765 20.4158L20.4155 12.7653M20.4155 12.7653L11.235 3.58471M11.235 3.58471C9.12233 1.47209 5.69709 1.47209 3.58447 3.58471C1.47184 5.69733 1.47184 9.12257 3.58447 11.2352M11.235 3.58471L3.58447 11.2352" stroke="#1C274C" stroke-width="1.5" stroke-linecap="round"/>
<circle cx="9.17154" cy="12.0002" r="1" transform="rotate(-45 9.17154 12.0002)" fill="#1C274C"/>
<circle cx="12" cy="14.8287" r="1" transform="rotate(-45 12 14.8287)" fill="#1C274C"/>
<circle cx="12" cy="9.17181" r="1" transform="rotate(-45 12 9.17181)" fill="#1C274C"/>
<circle cx="14.8284" cy="12.0002" r="1" transform="rotate(-45 14.8284 12.0002)" fill="#1C274C"/>
</svg>
