<svg width="24" height="24" viewBox="0 0 24 24" fill="none" xmlns="http://www.w3.org/2000/svg">
<path d="M2.90565 13.793C2.48385 10.6294 2.27294 9.04765 3.16932 8.02383C4.0657 7 5.66147 7 8.85302 7H15.1468C18.3384 7 19.9341 7 20.8305 8.02383C21.7269 9.04765 21.516 10.6294 21.0942 13.793L20.6942 16.793C20.3634 19.2739 20.198 20.5143 19.3495 21.2572C18.5011 22 17.2497 22 14.7468 22H9.25302C6.75018 22 5.49877 22 4.6503 21.2572C3.80183 20.5143 3.63644 19.2739 3.30565 16.793L2.90565 13.793Z" stroke="#1C274C" stroke-width="1.5"/>
<path d="M19.562 7C19.7906 5.69523 18.7866 4.5 17.4619 4.5H6.53812C5.21347 4.5 4.20946 5.69523 4.43809 7" stroke="#1C274C" stroke-width="1.5"/>
<path d="M17.4999 4.5C17.5283 4.24092 17.5425 4.11135 17.5427 4.00435C17.545 2.98072 16.7739 2.12064 15.7561 2.01142C15.6497 2 15.5194 2 15.2588 2H8.74099C8.48035 2 8.35002 2 8.24362 2.01142C7.22584 2.12064 6.45481 2.98072 6.45704 4.00434C6.45727 4.11135 6.47146 4.2409 6.49983 4.5" stroke="#1C274C" stroke-width="1.5"/>
<circle cx="16.5" cy="11.5" r="1.5" stroke="#1C274C" stroke-width="1.5"/>
<path d="M19.9999 20L17.1157 17.8514C16.1856 17.1586 14.8004 17.0896 13.7766 17.6851L13.5098 17.8403C12.7984 18.2542 11.8304 18.1848 11.2156 17.6758L7.37738 14.4989C6.6113 13.8648 5.38245 13.8309 4.5671 14.4214L3.24316 15.3803" stroke="#1C274C" stroke-width="1.5" stroke-linecap="round"/>
</svg>
