<svg width="24" height="24" viewBox="0 0 24 24" fill="none" xmlns="http://www.w3.org/2000/svg">
<path d="M2 12.0004C2 7.28632 2 4.9293 3.46447 3.46483C4.92893 2.00037 7.28595 2.00037 12 2.00037C16.714 2.00037 19.0711 2.00037 20.5355 3.46483C22 4.9293 22 7.28632 22 12.0004" stroke="#1C274C" stroke-width="1.5"/>
<path d="M2 14.0004C2 11.2001 2 9.79997 2.54497 8.73041C3.02433 7.7896 3.78924 7.0247 4.73005 6.54533C5.79961 6.00037 7.19974 6.00037 10 6.00037H14C16.8003 6.00037 18.2004 6.00037 19.27 6.54533C20.2108 7.0247 20.9757 7.7896 21.455 8.73041C22 9.79997 22 11.2001 22 14.0004C22 16.8006 22 18.2008 21.455 19.2703C20.9757 20.2111 20.2108 20.976 19.27 21.4554C18.2004 22.0004 16.8003 22.0004 14 22.0004H10C7.19974 22.0004 5.79961 22.0004 4.73005 21.4554C3.78924 20.976 3.02433 20.2111 2.54497 19.2703C2 18.2008 2 16.8006 2 14.0004Z" stroke="#1C274C" stroke-width="1.5"/>
<path d="M12 17.0004L12 11.0004M12 11.0004L14 13.5004M12 11.0004L10 13.5004" stroke="#1C274C" stroke-width="1.5" stroke-linecap="round" stroke-linejoin="round"/>
</svg>
