<svg width="24" height="24" viewBox="0 0 24 24" fill="none" xmlns="http://www.w3.org/2000/svg">
<path d="M12 21.0004L12 12.0004M12 12.0004L15 15.3337M12 12.0004L9 15.3337" stroke="#1C274C" stroke-width="1.5" stroke-linecap="round" stroke-linejoin="round"/>
<path d="M20.5 7.00037V13.0004C20.5 16.7716 20.5 18.6572 19.3284 19.8288C18.1569 21.0004 16.2712 21.0004 12.5 21.0004H11.5C7.72876 21.0004 5.84315 21.0004 4.67157 19.8288C3.5 18.6572 3.5 16.7716 3.5 13.0004V7.00037" stroke="#1C274C" stroke-width="1.5" stroke-linecap="round"/>
<path d="M2 5.00037C2 4.05756 2 3.58615 2.29289 3.29326C2.58579 3.00037 3.05719 3.00037 4 3.00037H20C20.9428 3.00037 21.4142 3.00037 21.7071 3.29326C22 3.58615 22 4.05756 22 5.00037C22 5.94318 22 6.41458 21.7071 6.70747C21.4142 7.00037 20.9428 7.00037 20 7.00037H4C3.05719 7.00037 2.58579 7.00037 2.29289 6.70747C2 6.41458 2 5.94318 2 5.00037Z" stroke="#1C274C" stroke-width="1.5"/>
</svg>
