<svg width="24" height="24" viewBox="0 0 24 24" fill="none" xmlns="http://www.w3.org/2000/svg">
<path d="M6.88633 18.0001H16.5332C17.1502 18.0001 17.4587 18.0001 17.7354 17.9612C18.8608 17.8029 19.8348 17.1757 20.3588 16.2718C20.4876 16.0495 20.5852 15.788 20.7803 15.265L21.8997 12.2645C22.3153 11.1505 21.3873 10.0001 20.0731 10.0001C19.2628 10.0001 18.5392 10.4534 18.263 11.1341L17.2623 13.6001C17.0683 14.0781 16.9713 14.3172 16.787 14.4836C16.6864 14.5745 16.5683 14.6485 16.4383 14.702C16.2004 14.8001 15.9158 14.8001 15.3467 14.8001H8.36757C8.07437 14.8001 7.92777 14.8001 7.79716 14.7736C7.49217 14.7117 7.22656 14.5453 7.05744 14.3102C6.98502 14.2095 6.93505 14.0864 6.83511 13.8401L5.73699 11.1341C5.46079 10.4534 4.7372 10.0001 3.92689 10.0001C2.61268 10.0001 1.68469 11.1505 2.10028 12.2645L3.40329 15.7571C3.42288 15.8096 3.43267 15.8359 3.44197 15.8595C3.93869 17.1245 5.26517 17.9787 6.76531 17.9997C6.7934 18.0001 6.82438 18.0001 6.88633 18.0001Z" stroke="#000000" stroke-width="1.5"/>
<path d="M6 12.0001V8.57155C6 6.41656 6 5.33906 6.70294 4.66959C7.40589 4.00012 8.53726 4.00012 10.8 4.00012H13.2C15.4627 4.00012 16.5941 4.00012 17.2971 4.66959C18 5.33906 18 6.41656 18 8.57155V12.0001" stroke="#000000" stroke-width="1.5"/>
<path d="M18 20.0001V18.0001M6 20.0001V18.6668" stroke="#000000" stroke-width="1.5" stroke-linecap="round"/>
</svg>
