<svg width="24" height="24" viewBox="0 0 24 24" fill="none" xmlns="http://www.w3.org/2000/svg">
<path d="M6.82143 21.0001H17.1786C18.1745 21.0001 18.6725 21.0001 19.0845 20.8998C20.4888 20.5579 21.5854 19.3882 21.906 17.8902C22 17.4508 22 16.9196 22 15.8573V11.2457C22 10.0055 21.0574 9.00012 19.8947 9.00012C18.732 9.00012 17.7895 10.0055 17.7895 11.2457V16.3335H6.21053V11.2457C6.21053 10.0055 5.26797 9.00012 4.10526 9.00012C2.94256 9.00012 2 10.0055 2 11.2457V15.8573C2 16.9196 2 17.4508 2.09402 17.8902C2.41456 19.3882 3.51119 20.5579 4.91555 20.8998C5.32748 21.0001 5.82546 21.0001 6.82143 21.0001Z" stroke="#000000" stroke-width="1.5" stroke-linejoin="round"/>
<path d="M6 10.0001V8.15397C6 5.85338 6 4.70308 6.48231 3.84628C6.79827 3.28497 7.25273 2.81887 7.8 2.4948C8.63538 2.00012 9.75692 2.00012 12 2.00012C14.2431 2.00012 15.3646 2.00012 16.2 2.4948C16.7473 2.81887 17.2017 3.28497 17.5177 3.84628C18 4.70308 18 5.85338 18 8.15397V10.0001" stroke="#000000" stroke-width="1.5"/>
<path d="M19 22.0001V21.0001M4 22.0001V21.0001" stroke="#000000" stroke-width="1.5" stroke-linecap="round"/>
</svg>
