<svg width="24" height="24" viewBox="0 0 24 24" fill="none" xmlns="http://www.w3.org/2000/svg">
<path d="M11.142 20.0005C8.91458 20.0005 7.80085 20.0005 6.87114 19.4991C5.94144 18.9976 5.35117 18.0786 4.17061 16.2405L3.48981 15.1805C2.4966 13.6341 2 12.8609 2 12.0005C2 11.1401 2.4966 10.3669 3.48981 8.8205L4.17061 7.7605C5.35117 5.9224 5.94144 5.00335 6.87114 4.50192C7.80085 4.00049 8.91458 4.00049 11.142 4.00049L13.779 4.00049C17.6544 4.00049 19.5921 4.00049 20.7961 5.17206C22 6.34363 22 8.22925 22 12.0005C22 15.7717 22 17.6573 20.7961 18.8289C19.5921 20.0005 17.6544 20.0005 13.779 20.0005H11.142Z" stroke="#000000" stroke-width="1.5"/>
<path d="M15.5 9.50051L10.5 14.5005M10.5 9.50049L15.5 14.5005" stroke="#000000" stroke-width="1.5" stroke-linecap="round"/>
</svg>
