<svg width="24" height="24" viewBox="0 0 24 24" fill="none" xmlns="http://www.w3.org/2000/svg">
<path d="M2 12.0002C2 6.4774 6.47715 2.00024 12 2.00024C17.5228 2.00024 22 6.4774 22 12.0002C22 17.5231 17.5228 22.0002 12 22.0002C6.47715 22.0002 2 17.5231 2 12.0002Z" stroke="#000000" stroke-width="1.5"/>
<path d="M6 15.0002C6 13.3434 7.34315 12.0002 9 12.0002C10.6569 12.0002 12 13.3434 12 15.0002C12 16.6571 10.6569 18.0002 9 18.0002C7.34315 18.0002 6 16.6571 6 15.0002Z" stroke="#000000" stroke-width="1.5"/>
<path d="M4.5 11.5002L4.91406 10.5002" stroke="#000000" stroke-width="1.5" stroke-linecap="round"/>
<path d="M14.4648 7.17164C14.4648 7.17164 15.7077 7.00026 16.5862 7.87875C17.4647 8.75724 17.2933 10.0001 17.2933 10.0001" stroke="#000000" stroke-width="1.5" stroke-linecap="round"/>
<path d="M9.00001 9.29321C9.00001 9.29321 7.75718 9.4646 6.87869 8.5861C6.0002 7.70761 6.17158 6.46478 6.17158 6.46478" stroke="#000000" stroke-width="1.5" stroke-linecap="round"/>
<path d="M19 13.1365C19 13.1365 17.8379 13.6095 17.5164 14.8095C17.1948 16.0096 17.9647 17.0002 17.9647 17.0002" stroke="#000000" stroke-width="1.5" stroke-linecap="round"/>
<path d="M13.4209 17.7722L14.9995 19.0002" stroke="#000000" stroke-width="1.5" stroke-linecap="round"/>
<path d="M14.5 14.0002V12.0002" stroke="#000000" stroke-width="1.5" stroke-linecap="round"/>
<path d="M12 5.00024L10 5.00024" stroke="#000000" stroke-width="1.5" stroke-linecap="round"/>
<path d="M12.5 9.50024L11.5 8.50024" stroke="#000000" stroke-width="1.5" stroke-linecap="round"/>
</svg>
