<svg width="24" height="24" viewBox="0 0 24 24" fill="none" xmlns="http://www.w3.org/2000/svg">
<path d="M3.79424 12.0296C4.33141 9.34377 4.59999 8.00085 5.48746 7.13592C5.65149 6.97606 5.82894 6.83059 6.01786 6.7011C7.04004 6.00049 8.40956 6.00049 11.1486 6.00049H12.8515C15.5906 6.00049 16.9601 6.00049 17.9823 6.7011C18.1712 6.83059 18.3486 6.97606 18.5127 7.13592C19.4001 8.00085 19.6687 9.34377 20.2059 12.0296C20.9771 15.8856 21.3627 17.8136 20.475 19.1798C20.3143 19.4272 20.1267 19.656 19.9157 19.8621C18.7501 21.0005 16.7839 21.0005 12.8515 21.0005H11.1486C7.21622 21.0005 5.25004 21.0005 4.08447 19.8621C3.87342 19.656 3.68582 19.4272 3.5251 19.1798C2.63744 17.8136 3.02304 15.8856 3.79424 12.0296Z" stroke="#1C274C" stroke-width="1.5"/>
<circle cx="15" cy="9.00049" r="1" fill="#1C274C"/>
<circle cx="9" cy="9.00049" r="1" fill="#1C274C"/>
<path d="M9 6.00049V5.00049C9 3.34363 10.3431 2.00049 12 2.00049C13.6569 2.00049 15 3.34363 15 5.00049V6.00049" stroke="#1C274C" stroke-width="1.5" stroke-linecap="round"/>
</svg>
