<svg width="24" height="24" viewBox="0 0 24 24" fill="none" xmlns="http://www.w3.org/2000/svg">
<path d="M3.74157 20.555C4.94119 22.0005 7.17389 22.0005 11.6393 22.0005H12.3605C16.8259 22.0005 19.0586 22.0005 20.2582 20.555M3.74157 20.555C2.54194 19.1096 2.9534 16.9151 3.77633 12.5262C4.36155 9.405 4.65416 7.84441 5.76506 6.92245M3.74157 20.555C3.74156 20.555 3.74157 20.555 3.74157 20.555ZM20.2582 20.555C21.4578 19.1096 21.0464 16.9151 20.2235 12.5262C19.6382 9.405 19.3456 7.84441 18.2347 6.92245M20.2582 20.555C20.2582 20.555 20.2582 20.555 20.2582 20.555ZM18.2347 6.92245C17.1238 6.00049 15.5361 6.00049 12.3605 6.00049H11.6393C8.46374 6.00049 6.87596 6.00049 5.76506 6.92245M18.2347 6.92245C18.2347 6.92245 18.2347 6.92245 18.2347 6.92245ZM5.76506 6.92245C5.76506 6.92245 5.76506 6.92245 5.76506 6.92245Z" stroke="#000000" stroke-width="1.5"/>
<path d="M12 12.1918L11.4813 12.7336C11.7713 13.0113 12.2287 13.0113 12.5187 12.7336L12 12.1918ZM11.0429 15.8661L10.5992 16.4707L11.0429 15.8661ZM12.9571 15.8661L12.5135 15.2614L12.9571 15.8661ZM12 16.328L12 17.078L12 16.328ZM11.4865 15.2614C11.0686 14.9547 10.6081 14.5717 10.2595 14.1686C9.89122 13.7428 9.75 13.4118 9.75 13.1972H8.25C8.25 13.9671 8.6912 14.6483 9.1249 15.1498C9.57819 15.674 10.1391 16.1332 10.5992 16.4707L11.4865 15.2614ZM9.75 13.1972C9.75 12.6212 10.0126 12.3705 10.2419 12.2901C10.4922 12.2024 10.9558 12.2303 11.4813 12.7336L12.5187 11.6501C11.6943 10.8608 10.6579 10.5548 9.74566 10.8746C8.81245 11.2017 8.25 12.1 8.25 13.1972H9.75ZM13.4008 16.4708C13.8609 16.1332 14.4218 15.674 14.8751 15.1498C15.3088 14.6483 15.75 13.9671 15.75 13.1972H14.25C14.25 13.4118 14.1088 13.7428 13.7405 14.1686C13.3919 14.5717 12.9314 14.9547 12.5135 15.2614L13.4008 16.4708ZM15.75 13.1972C15.75 12.1 15.1875 11.2017 14.2543 10.8746C13.3421 10.5548 12.3057 10.8608 11.4813 11.6501L12.5187 12.7336C13.0442 12.2303 13.5078 12.2024 13.7581 12.2901C13.9874 12.3705 14.25 12.6212 14.25 13.1972H15.75ZM10.5992 16.4707C10.9678 16.7412 11.3816 17.078 12 17.078L12 15.578C11.9756 15.578 11.9605 15.578 11.9061 15.5493C11.8202 15.5039 11.7128 15.4274 11.4865 15.2614L10.5992 16.4707ZM12.5135 15.2614C12.2872 15.4274 12.1798 15.5039 12.0939 15.5493C12.0395 15.578 12.0244 15.578 12 15.578L12 17.078C12.6184 17.078 13.0322 16.7412 13.4008 16.4708L12.5135 15.2614Z" fill="#000000"/>
<path d="M9 6.00049V5.00049C9 3.34363 10.3431 2.00049 12 2.00049C13.6569 2.00049 15 3.34363 15 5.00049V6.00049" stroke="#000000" stroke-width="1.5" stroke-linecap="round"/>
</svg>
