<svg width="24" height="24" viewBox="0 0 24 24" fill="none" xmlns="http://www.w3.org/2000/svg">
<path d="M3.79424 14.9714C4.33141 17.6572 4.59999 19.0001 5.48746 19.8651C5.65149 20.0249 5.82894 20.1704 6.01786 20.2999C7.04004 21.0005 8.40956 21.0005 11.1486 21.0005H12.8515C15.5906 21.0005 16.9601 21.0005 17.9823 20.2999C18.1712 20.1704 18.3486 20.0249 18.5127 19.8651C19.4001 19.0001 19.6687 17.6572 20.2059 14.9714C20.9771 11.1154 21.3627 9.18735 20.475 7.82116C20.3143 7.57379 20.1267 7.34496 19.9157 7.13884C18.7501 6.00049 16.7839 6.00049 12.8515 6.00049H11.1486C7.21622 6.00049 5.25004 6.00049 4.08447 7.13884C3.87342 7.34496 3.68582 7.57379 3.5251 7.82116C2.63744 9.18735 3.02304 11.1154 3.79424 14.9714Z" stroke="#000000" stroke-width="1.5"/>
<circle cx="15" cy="10.0005" r="1" fill="#000000"/>
<circle cx="9" cy="10.0005" r="1" fill="#000000"/>
<path d="M9 6.00049V5.00049C9 3.34363 10.3431 2.00049 12 2.00049C13.6569 2.00049 15 3.34363 15 5.00049V6.00049" stroke="#000000" stroke-width="1.5" stroke-linecap="round"/>
</svg>
