<svg width="24" height="24" viewBox="0 0 24 24" fill="none" xmlns="http://www.w3.org/2000/svg">
<path d="M3.74157 20.555C4.94119 22.0005 7.17389 22.0005 11.6393 22.0005H12.3605C16.8259 22.0005 19.0586 22.0005 20.2582 20.555M3.74157 20.555C2.54194 19.1096 2.9534 16.9151 3.77633 12.5262C4.36155 9.405 4.65416 7.84441 5.76506 6.92245M3.74157 20.555C3.74156 20.555 3.74157 20.555 3.74157 20.555ZM20.2582 20.555C21.4578 19.1096 21.0464 16.9151 20.2235 12.5262C19.6382 9.405 19.3456 7.84441 18.2347 6.92245M20.2582 20.555C20.2582 20.555 20.2582 20.555 20.2582 20.555ZM18.2347 6.92245C17.1238 6.00049 15.5361 6.00049 12.3605 6.00049H11.6393C8.46374 6.00049 6.87596 6.00049 5.76506 6.92245M18.2347 6.92245C18.2347 6.92245 18.2347 6.92245 18.2347 6.92245ZM5.76506 6.92245C5.76506 6.92245 5.76506 6.92245 5.76506 6.92245Z" stroke="#1C274C" stroke-width="1.5"/>
<path d="M15 11.0005L16 17.0005" stroke="#1C274C" stroke-width="1.5" stroke-linecap="round"/>
<path d="M9 11.0005L8 17.0005" stroke="#1C274C" stroke-width="1.5" stroke-linecap="round"/>
<path d="M9 6.00049V5.00049C9 3.34363 10.3431 2.00049 12 2.00049C13.6569 2.00049 15 3.34363 15 5.00049V6.00049" stroke="#1C274C" stroke-width="1.5" stroke-linecap="round"/>
</svg>
