<svg width="24" height="24" viewBox="0 0 24 24" fill="none" xmlns="http://www.w3.org/2000/svg">
<path d="M3.74157 18.555C4.94119 20.0005 7.17389 20.0005 11.6393 20.0005H12.3605C16.8259 20.0005 19.0586 20.0005 20.2582 18.555M3.74157 18.555C2.54194 17.1096 2.9534 14.9151 3.77633 10.5262C4.36155 7.405 4.65416 5.84441 5.76506 4.92245M3.74157 18.555C3.74156 18.555 3.74157 18.555 3.74157 18.555ZM20.2582 18.555C21.4578 17.1096 21.0464 14.9151 20.2235 10.5262C19.6382 7.405 19.3456 5.84441 18.2347 4.92245M20.2582 18.555C20.2582 18.555 20.2582 18.555 20.2582 18.555ZM18.2347 4.92245C17.1238 4.00049 15.5361 4.00049 12.3605 4.00049H11.6393C8.46374 4.00049 6.87596 4.00049 5.76506 4.92245M18.2347 4.92245C18.2347 4.92245 18.2347 4.92245 18.2347 4.92245ZM5.76506 4.92245C5.76506 4.92245 5.76506 4.92245 5.76506 4.92245Z" stroke="#1C274C" stroke-width="1.5"/>
<path d="M9.1709 8.00049C9.58273 9.16568 10.694 10.0005 12.0002 10.0005C13.3064 10.0005 14.4177 9.16568 14.8295 8.00049" stroke="#1C274C" stroke-width="1.5" stroke-linecap="round"/>
</svg>
