<svg width="24" height="24" viewBox="0 0 24 24" fill="none" xmlns="http://www.w3.org/2000/svg">
<path d="M3.74157 20.555C4.94119 22.0005 7.17389 22.0005 11.6393 22.0005H12.3605C16.8259 22.0005 19.0586 22.0005 20.2582 20.555M3.74157 20.555C2.54194 19.1096 2.9534 16.9151 3.77633 12.5262C4.36155 9.405 4.65416 7.84441 5.76506 6.92245M3.74157 20.555C3.74156 20.555 3.74157 20.555 3.74157 20.555ZM20.2582 20.555C21.4578 19.1096 21.0464 16.9151 20.2235 12.5262C19.6382 9.405 19.3456 7.84441 18.2347 6.92245M20.2582 20.555C20.2582 20.555 20.2582 20.555 20.2582 20.555ZM18.2347 6.92245C17.1238 6.00049 15.5361 6.00049 12.3605 6.00049H11.6393C8.46374 6.00049 6.87596 6.00049 5.76506 6.92245M18.2347 6.92245C18.2347 6.92245 18.2347 6.92245 18.2347 6.92245ZM5.76506 6.92245C5.76506 6.92245 5.76506 6.92245 5.76506 6.92245Z" stroke="#1C274C" stroke-width="1.5"/>
<path d="M9 6.00049V5.00049C9 3.34363 10.3431 2.00049 12 2.00049C13.6569 2.00049 15 3.34363 15 5.00049V6.00049" stroke="#1C274C" stroke-width="1.5" stroke-linecap="round"/>
<path d="M12 17.0005C12 18.1051 11.1046 19.0005 10 19.0005C8.89543 19.0005 8 18.1051 8 17.0005C8 15.8959 8.89543 15.0005 10 15.0005C11.1046 15.0005 12 15.8959 12 17.0005ZM12 17.0005V12.0005" stroke="#1C274C" stroke-width="1.5"/>
<path d="M14.0584 9.97136L12.7416 10.6297C12.5592 10.721 12.468 10.7666 12.3926 10.8242C12.1974 10.9734 12.064 11.1893 12.0178 11.4306C12 11.5237 12 11.6257 12 11.8297C12 12.3153 12 12.558 12.0598 12.7231C12.2178 13.1593 12.6551 13.4295 13.1159 13.3758C13.2902 13.3554 13.5074 13.2469 13.9416 13.0297L15.2584 12.3714C15.4408 12.2801 15.532 12.2345 15.6074 12.1769C15.8026 12.0277 15.936 11.8118 15.9822 11.5705C16 11.4774 16 11.3754 16 11.1714C16 10.6858 16 10.443 15.9402 10.278C15.7822 9.8418 15.3449 9.57156 14.8841 9.62531C14.7098 9.64565 14.4926 9.75422 14.0584 9.97136Z" stroke="#1C274C" stroke-width="1.5" stroke-linecap="round"/>
</svg>
