<svg width="24" height="24" viewBox="0 0 24 24" fill="none" xmlns="http://www.w3.org/2000/svg">
<path d="M16.0201 8.07732C14.0016 8.27151 11.8566 8.87678 10.3665 10.3669C8.87629 11.8571 8.27102 14.0021 8.07683 16.0205M16.0201 8.07732C17.1891 7.96485 18.3157 7.99028 19.248 8.06157C20.7038 8.17288 21.8276 9.29667 21.9389 10.7525C22.0102 11.6848 22.0356 12.8114 21.9232 13.9804M16.0201 8.07732L21.9232 13.9804M21.9232 13.9804C21.729 15.9989 21.1237 18.1439 19.6336 19.634C18.1434 21.1242 15.9984 21.7295 13.9799 21.9237M13.9799 21.9237C12.8109 22.0361 11.6843 22.0107 10.752 21.9394C9.29618 21.8281 8.17239 20.7043 8.06108 19.2485C7.9898 18.3162 7.96436 17.1896 8.07683 16.0205M13.9799 21.9237L8.07683 16.0205" stroke="#000000" stroke-width="1.5" stroke-linecap="round"/>
<path d="M14.9955 8.25252C14.9573 7.22906 14.6759 6.1997 14.1282 5.25103C13.0651 3.40968 11.237 2.28538 9.27713 2.04782C7.92854 1.88436 6.51758 2.14074 5.25054 2.87226C2.14216 4.66689 1.07715 8.64156 2.87177 11.7499C4.01322 13.727 6.03658 14.8774 8.15803 14.9912" stroke="#000000" stroke-width="1.5"/>
<path d="M9.21514 2.00049C9.21514 2.00049 9.07658 4.35642 10.5717 7.19117C11.0294 8.05901 11.5282 8.75925 12 9.31318M3 5.92844C3 5.92844 4.93315 6.97505 6.42829 9.80981C7.92342 12.6446 7.78486 15.0005 7.78486 15.0005" stroke="#000000" stroke-width="1.5"/>
<path d="M12.5 17.5005L17.5 12.5005" stroke="#000000" stroke-width="1.5" stroke-linecap="round"/>
<path d="M15.5 12.5005L17.5 14.5005" stroke="#000000" stroke-width="1.5" stroke-linecap="round"/>
<path d="M12.5 15.5005L14.5 17.5005" stroke="#000000" stroke-width="1.5" stroke-linecap="round"/>
<path d="M14 14.0005L16 16.0005" stroke="#000000" stroke-width="1.5" stroke-linecap="round"/>
</svg>
