<svg width="24" height="24" viewBox="0 0 24 24" fill="none" xmlns="http://www.w3.org/2000/svg">
<path d="M11.9999 17.9998C16.1419 18.0343 19.5936 14.0798 19.5602 9.8043C19.5267 5.52875 16.1419 2.03476 11.9999 2.00026C7.85788 1.96576 4.52722 5.4038 4.56064 9.67936C4.59407 13.9549 7.85788 17.9653 11.9999 17.9998Z" stroke="#000000" stroke-width="1.5" stroke-linecap="round"/>
<path d="M15.5 9C15.4867 7.35641 14.1436 6.01326 12.5 6" stroke="#000000" stroke-width="1.5" stroke-linecap="round"/>
<path d="M12 20.3502C12.3212 20.3502 12.4818 20.3502 12.5933 20.3283C13.2466 20.1999 13.6441 19.5557 13.4511 18.9384C13.4181 18.833 13.342 18.6962 13.1896 18.4227M12 20.3502C11.6788 20.3502 11.5182 20.3502 11.4067 20.3283C10.7534 20.1999 10.3559 19.5557 10.5489 18.9384C10.5819 18.833 10.658 18.6962 10.8104 18.4227M12 20.3502V22.5" stroke="#000000" stroke-width="1.5" stroke-linecap="round"/>
</svg>
