<svg width="24" height="24" viewBox="0 0 24 24" fill="none" xmlns="http://www.w3.org/2000/svg">
<path d="M2 11.0005C2 8.17206 2 6.75785 2.87868 5.87917C3.75736 5.00049 5.17157 5.00049 8 5.00049H13C15.8284 5.00049 17.2426 5.00049 18.1213 5.87917C19 6.75785 19 8.17206 19 11.0005C19 13.8289 19 15.2431 18.1213 16.1218C17.2426 17.0005 15.8284 17.0005 13 17.0005H8C5.17157 17.0005 3.75736 17.0005 2.87868 16.1218C2 15.2431 2 13.8289 2 11.0005Z" stroke="#000000" stroke-width="1.5"/>
<path d="M19.0003 8.07666C19.9754 8.17257 20.6317 8.38933 21.1216 8.87922C22.0003 9.7579 22.0003 11.1721 22.0003 14.0005C22.0003 16.829 22.0003 18.2432 21.1216 19.1219C20.2429 20.0005 18.8287 20.0005 16.0003 20.0005H11.0003C8.17187 20.0005 6.75766 20.0005 5.87898 19.1219C5.38909 18.632 5.17233 17.9756 5.07642 17.0005" stroke="#000000" stroke-width="1.5"/>
<path d="M13 11.0005C13 12.3812 11.8807 13.5005 10.5 13.5005C9.11929 13.5005 8 12.3812 8 11.0005C8 9.61978 9.11929 8.50049 10.5 8.50049C11.8807 8.50049 13 9.61978 13 11.0005Z" stroke="#000000" stroke-width="1.5"/>
<path d="M16 13.0005L16 9.00049" stroke="#000000" stroke-width="1.5" stroke-linecap="round"/>
<path d="M5 13.0005L5 9.00049" stroke="#000000" stroke-width="1.5" stroke-linecap="round"/>
</svg>
