<svg width="24" height="24" viewBox="0 0 24 24" fill="none" xmlns="http://www.w3.org/2000/svg">
<path d="M3.33946 17.0002C6.10089 21.7831 12.2168 23.4219 16.9997 20.6605C18.9493 19.5349 20.3765 17.8519 21.1962 15.929C22.3875 13.1346 22.2958 9.83352 20.66 7.00021C19.0242 4.16689 16.2112 2.43691 13.1955 2.07137C11.1204 1.81984 8.94932 2.21434 6.99972 3.33995C2.21679 6.10137 0.578039 12.2173 3.33946 17.0002Z" stroke="#000000" stroke-width="1.5"/>
<path d="M16.9498 20.5737C16.9498 20.5737 16.0108 13.9825 14.0005 10.5005C11.9901 7.01847 7.05029 3.42725 7.05029 3.42725" stroke="#000000" stroke-width="1.5" stroke-linecap="round"/>
<path d="M21.8635 12.5806C16.4526 11.3936 9.05879 16.3482 7.57715 20.818" stroke="#000000" stroke-width="1.5" stroke-linecap="round"/>
<path d="M16.4141 3.20933C14.9262 7.63038 7.67443 12.5127 2.28877 11.452" stroke="#000000" stroke-width="1.5" stroke-linecap="round"/>
</svg>
