<svg width="24" height="24" viewBox="0 0 24 24" fill="none" xmlns="http://www.w3.org/2000/svg">
<path d="M3 13.0828C3 13.006 3 12.9676 3.00211 12.9352C3.0347 12.4341 3.43395 12.0348 3.93511 12.0022C3.96752 12.0001 4.00591 12.0001 4.08268 12.0001H19.9173C19.9941 12.0001 20.0325 12.0001 20.0649 12.0022C20.5661 12.0348 20.9653 12.4341 20.9979 12.9352C21 12.9676 21 13.006 21 13.0828C21 13.4785 21 13.6763 20.9859 13.8978C20.7773 17.1856 17.983 20.0868 14.7053 20.4188C14.4845 20.4411 14.3558 20.446 14.0982 20.4556C13.364 20.4832 12.6493 20.5001 12 20.5001C11.3507 20.5001 10.636 20.4832 9.90183 20.4556C9.64425 20.446 9.51545 20.4411 9.29467 20.4188C6.01705 20.0868 3.22272 17.1856 3.01406 13.8978C3 13.6763 3 13.4785 3 13.0828Z" stroke="#000000" stroke-width="1.5"/>
<path d="M6 20.0001L5 22.0001" stroke="#000000" stroke-width="1.5" stroke-linecap="round"/>
<path d="M18 20.0001L19 22.0001" stroke="#000000" stroke-width="1.5" stroke-linecap="round"/>
<path d="M2 12.0001H22" stroke="#000000" stroke-width="1.5" stroke-linecap="round"/>
<path d="M2.25 13.0001C2.25 13.4143 2.58579 13.7501 3 13.7501C3.41421 13.7501 3.75 13.4143 3.75 13.0001H2.25ZM7.59973 3.49946L8.29609 3.22092L8.29609 3.22092L7.59973 3.49946ZM7.97885 4.44726L8.30713 5.1216L7.97885 4.44726ZM6.36212 6.19245L7.05701 6.47463L6.36212 6.19245ZM10.577 4.37795L10.2824 5.06765L10.577 4.37795ZM6.34559 8.74168L5.6478 9.01663C5.72221 9.20547 5.86997 9.35608 6.05735 9.43409C6.24473 9.51209 6.45572 9.51082 6.64215 9.43056L6.34559 8.74168ZM12.3063 6.1756L12.6029 6.86448C12.975 6.70429 13.1526 6.27757 13.0041 5.90066L12.3063 6.1756ZM3.75 13.0001V4.38529H2.25V13.0001H3.75ZM5.38516 2.75012C6.05379 2.75012 6.65506 3.1572 6.90338 3.778L8.29609 3.22092C7.81998 2.03062 6.66715 1.25012 5.38516 1.25012V2.75012ZM3.75 4.38529C3.75 3.48221 4.48209 2.75012 5.38516 2.75012V1.25012C3.65366 1.25012 2.25 2.65378 2.25 4.38529H3.75ZM6.90338 3.778L7.2825 4.7258L8.67521 4.16871L8.29609 3.22092L6.90338 3.778ZM7.04337 8.46674C6.80167 7.85334 6.78638 7.14104 7.05701 6.47463L5.66723 5.91026C5.24692 6.94527 5.26959 8.05677 5.6478 9.01663L7.04337 8.46674ZM12.0098 5.48673L6.04903 8.05281L6.64215 9.43056L12.6029 6.86448L12.0098 5.48673ZM10.2824 5.06765C10.9039 5.3332 11.367 5.83753 11.6086 6.45055L13.0041 5.90066C12.6258 4.94041 11.887 4.12201 10.8717 3.68826L10.2824 5.06765ZM7.05701 6.47463C7.31118 5.84872 7.76827 5.38392 8.30713 5.1216L7.65058 3.77292C6.78337 4.19508 6.06253 4.93683 5.66723 5.91026L7.05701 6.47463ZM8.30713 5.1216C8.91452 4.82591 9.62506 4.78684 10.2824 5.06765L10.8717 3.68826C9.79386 3.22781 8.62874 3.29674 7.65058 3.77292L8.30713 5.1216Z" fill="#000000"/>
</svg>
