<svg width="24" height="24" viewBox="0 0 24 24" fill="none" xmlns="http://www.w3.org/2000/svg">
<path d="M19 20.0001V18.5001M5 20.0001V18.5001" stroke="#1C274C" stroke-width="1.5" stroke-linecap="round"/>
<path d="M2 15.0001C2 14.0682 2 13.6023 2.15224 13.2348C2.35523 12.7447 2.74458 12.3554 3.23463 12.1524C3.60218 12.0001 4.06812 12.0001 5 12.0001H19C19.9319 12.0001 20.3978 12.0001 20.7654 12.1524C21.2554 12.3554 21.6448 12.7447 21.8478 13.2348C22 13.6023 22 14.0682 22 15.0001C22 15.932 22 16.3979 21.8478 16.7655C21.6448 17.2555 21.2554 17.6449 20.7654 17.8479C20.3978 18.0001 19.9319 18.0001 19 18.0001H5C4.06812 18.0001 3.60218 18.0001 3.23463 17.8479C2.74458 17.6449 2.35523 17.2555 2.15224 16.7655C2 16.3979 2 15.932 2 15.0001Z" stroke="#1C274C" stroke-width="1.5"/>
<path d="M21 12.0001C21 8.22889 21 6.34327 19.8284 5.17169C18.6569 4.00012 16.7712 4.00012 13 4.00012H11C7.22876 4.00012 5.34315 4.00012 4.17157 5.17169C3 6.34327 3 8.22889 3 12.0001" stroke="#1C274C" stroke-width="1.5"/>
<path d="M18.5 12.0001V10.5001C18.5 8.6145 18.5 7.67169 17.9142 7.08591C17.3284 6.50012 16.3856 6.50012 14.5 6.50012H9.5C7.61438 6.50012 6.67157 6.50012 6.08579 7.08591C5.5 7.67169 5.5 8.6145 5.5 10.5001V12.0001" stroke="#1C274C" stroke-width="1.5"/>
<path d="M12 7.00012V12.0001" stroke="#1C274C" stroke-width="1.5"/>
</svg>
