<svg width="24" height="24" viewBox="0 0 24 24" fill="none" xmlns="http://www.w3.org/2000/svg">
<path d="M19.0001 9.70447V9.00037C19.0001 5.13437 15.8661 2.00037 12.0001 2.00037C8.13407 2.00037 5.00006 5.13437 5.00006 9.00037V9.70447C5.00006 10.5495 4.74995 11.3755 4.28123 12.0786L3.13263 13.8015C2.08349 15.3752 2.88442 17.5143 4.70913 18.0119C9.48258 19.3138 14.5175 19.3138 19.291 18.0119C21.1157 17.5143 21.9166 15.3752 20.8675 13.8015L19.7189 12.0786C19.2502 11.3755 19.0001 10.5495 19.0001 9.70447Z" stroke="#1C274C" stroke-width="1.5"/>
<path d="M10 9.00037H14L10 13.0004H14" stroke="#1C274C" stroke-width="1.5" stroke-linecap="round" stroke-linejoin="round"/>
<path d="M7.5 19.0004C8.15503 20.7482 9.92246 22.0004 12 22.0004C14.0775 22.0004 15.845 20.7482 16.5 19.0004" stroke="#1C274C" stroke-width="1.5" stroke-linecap="round"/>
</svg>
