<svg width="24" height="24" viewBox="0 0 24 24" fill="none" xmlns="http://www.w3.org/2000/svg">
<path d="M9.97927 4.87955C10.9655 4.29335 11.4585 4.00024 12 4.00024C12.5415 4.00024 13.0345 4.29335 14.0207 4.87955L16.9793 6.63816C17.9655 7.22437 18.4585 7.51747 18.7293 8.00024C19 8.48302 19 9.06922 19 10.2416V13.7589C19 14.9313 19 15.5175 18.7293 16.0002C18.4585 16.483 17.9655 16.7761 16.9793 17.3623L14.0207 19.1209C13.0345 19.7071 12.5415 20.0002 12 20.0002C11.4585 20.0002 10.9655 19.7071 9.97927 19.1209L7.02073 17.3623C6.03454 16.7761 5.54145 16.483 5.27073 16.0002C5 15.5175 5 14.9313 5 13.7589V10.2416C5 9.06922 5 8.48302 5.27073 8.00024C5.54145 7.51747 6.03454 7.22437 7.02073 6.63816L9.97927 4.87955Z" stroke="#1C274C" stroke-width="1.5"/>
<path d="M5 8.00024L2 6.00024" stroke="#1C274C" stroke-width="1.5" stroke-linecap="round" stroke-linejoin="round"/>
<path d="M19 8.00024L22 6.00024" stroke="#1C274C" stroke-width="1.5" stroke-linecap="round" stroke-linejoin="round"/>
<path d="M5 16.0002L2 18.0002" stroke="#1C274C" stroke-width="1.5" stroke-linecap="round" stroke-linejoin="round"/>
<path d="M12 16.8843L16 14.5002" stroke="#1C274C" stroke-width="1.5" stroke-linecap="round"/>
</svg>
