<svg width="24" height="24" viewBox="0 0 24 24" fill="none" xmlns="http://www.w3.org/2000/svg">
<circle cx="15" cy="4.00049" r="2" stroke="#1C274C" stroke-width="1.5"/>
<circle cx="6" cy="18.0005" r="3" stroke="#1C274C" stroke-width="1.5"/>
<circle cx="18" cy="18.0005" r="3" stroke="#1C274C" stroke-width="1.5"/>
<path d="M18.5 10.0005H16.4744C15.2534 10.0005 14.6429 10.0005 14.0934 9.7739C13.544 9.54731 13.111 9.11694 12.2449 8.25622L11.6676 7.68243C10.8828 6.9025 10.4904 6.51253 10.0257 6.55487C9.56102 6.59722 9.24559 7.05168 8.61471 7.96061L7.38809 9.72787C6.74573 10.6534 6.42454 11.1161 6.55348 11.5708C6.68242 12.0255 7.1987 12.2508 8.23125 12.7014L9.70695 13.3453C11.0709 13.9404 11.7529 14.238 12.081 14.8379C12.4091 15.4377 12.2918 16.1725 12.0572 17.642L12 18.0005" stroke="#1C274C" stroke-width="1.5" stroke-linecap="round"/>
</svg>
