<svg width="24" height="24" viewBox="0 0 24 24" fill="none" xmlns="http://www.w3.org/2000/svg">
<path d="M17.625 21.0005C18.2666 20.4302 19.2334 20.4302 19.875 21.0005C20.3109 21.3879 21 21.0785 21 20.4953V3.50549C21 2.92227 20.3109 2.61282 19.875 3.0003C19.2334 3.57059 18.2666 3.57059 17.625 3.00029C16.9834 2.43 16.0166 2.43 15.375 3.00029C14.7334 3.57059 13.7666 3.57059 13.125 3.00029C12.4834 2.43 11.5166 2.43 10.875 3.00029C10.2334 3.57059 9.26659 3.57059 8.625 3.00029C7.98341 2.43 7.01659 2.43 6.375 3.00029C5.73341 3.57059 4.76659 3.57059 4.125 3.0003C3.68909 2.61282 3 2.92227 3 3.50549V20.4953C3 21.0785 3.68909 21.3879 4.125 21.0005C4.76659 20.4302 5.73341 20.4302 6.375 21.0005C7.01659 21.5708 7.98341 21.5708 8.625 21.0005C9.26659 20.4302 10.2334 20.4302 10.875 21.0005C11.5166 21.5708 12.4834 21.5708 13.125 21.0005C13.7666 20.4302 14.7334 20.4302 15.375 21.0005C16.0166 21.5708 16.9834 21.5708 17.625 21.0005Z" stroke="#000000" stroke-width="1.5"/>
<path d="M7.5 15.5005H16.5" stroke="#000000" stroke-width="1.5" stroke-linecap="round"/>
<path d="M7.5 12.0005H16.5" stroke="#000000" stroke-width="1.5" stroke-linecap="round"/>
<path d="M7.5 8.50049H16.5" stroke="#000000" stroke-width="1.5" stroke-linecap="round"/>
</svg>
