<svg width="24" height="24" viewBox="0 0 24 24" fill="none" xmlns="http://www.w3.org/2000/svg">
<path d="M16.755 2.00049H7.24502C6.08614 2.00049 5.50671 2.00049 5.03939 2.1631C4.15322 2.47144 3.45748 3.18768 3.15795 4.09995C3 4.58104 3 5.17754 3 6.37055V20.3747C3 21.2329 3.985 21.6883 4.6081 21.1181C4.97417 20.7831 5.52583 20.7831 5.8919 21.1181L6.375 21.5602C7.01659 22.1473 7.98341 22.1473 8.625 21.5602C9.26659 20.9731 10.2334 20.9731 10.875 21.5602C11.5166 22.1473 12.4834 22.1473 13.125 21.5602C13.7666 20.9731 14.7334 20.9731 15.375 21.5602C16.0166 22.1473 16.9834 22.1473 17.625 21.5602L18.1081 21.1181C18.4742 20.7831 19.0258 20.7831 19.3919 21.1181C20.015 21.6883 21 21.2329 21 20.3747V6.37055C21 5.17754 21 4.58104 20.842 4.09995C20.5425 3.18768 19.8468 2.47144 18.9606 2.1631C18.4933 2.00049 17.9139 2.00049 16.755 2.00049Z" stroke="#1C274C" stroke-width="1.5"/>
<path d="M9.5 10.4005L10.9286 12.0005L14.5 8.00049" stroke="#1C274C" stroke-width="1.5" stroke-linecap="round" stroke-linejoin="round"/>
<path d="M7.5 15.5005H16.5" stroke="#1C274C" stroke-width="1.5" stroke-linecap="round"/>
</svg>
