<svg width="24" height="24" viewBox="0 0 24 24" fill="none" xmlns="http://www.w3.org/2000/svg">
<path d="M17.6667 2.00049H6.33333C6.02379 2.00049 5.86902 2.00049 5.73853 2.01247C4.28819 2.14559 3.1383 3.35203 3.01142 4.8737C3 5.0106 3 5.17299 3 5.49776V20.2603C3 21.1328 4.05871 21.5031 4.55769 20.805C4.90385 20.3208 5.59615 20.3208 5.94231 20.805L6.375 21.4103C6.9375 22.1972 8.0625 22.1972 8.625 21.4103C9.1875 20.6234 10.3125 20.6234 10.875 21.4103C11.4375 22.1972 12.5625 22.1972 13.125 21.4103C13.6875 20.6234 14.8125 20.6234 15.375 21.4103C15.9375 22.1972 17.0625 22.1972 17.625 21.4103L18.0577 20.805C18.4038 20.3208 19.0962 20.3208 19.4423 20.805C19.9413 21.5031 21 21.1328 21 20.2603V5.49776C21 5.17299 21 5.0106 20.9886 4.8737C20.8617 3.35203 19.7118 2.14559 18.2615 2.01247C18.131 2.00049 17.9762 2.00049 17.6667 2.00049Z" stroke="#1C274C" stroke-width="1.5"/>
<path d="M7.5 15.5005H16.5" stroke="#1C274C" stroke-width="1.5" stroke-linecap="round"/>
<path d="M14 8.00052L10 12.0005M10 8.0005L14 12.0005" stroke="#1C274C" stroke-width="1.5" stroke-linecap="round"/>
</svg>
