<svg width="24" height="24" viewBox="0 0 24 24" fill="none" xmlns="http://www.w3.org/2000/svg">
<path d="M20 2.00049C20 2.00049 18 6.68888 18 10.5719C18 11.8152 18.426 12.8555 19 13.8916C19.6606 15.0841 20.5171 16.2709 21.1457 17.7548C21.6446 18.9325 22 20.2973 22 22.0005" stroke="#000000" stroke-width="1.5" stroke-linecap="round" stroke-linejoin="round"/>
<path d="M4 2.00049C4 2.00049 6 6.68888 6 10.5719C6 11.8152 5.57398 12.8555 5.00001 13.8916C4.33945 15.0841 3.48291 16.2709 2.85426 17.7548C2.35537 18.9325 2 20.2973 2 22.0005" stroke="#000000" stroke-width="1.5" stroke-linecap="round" stroke-linejoin="round"/>
<path d="M6 13.0005H18" stroke="#000000" stroke-width="1.5" stroke-linecap="round"/>
<path d="M12 22.0005C12.5 20.5005 15 17.5005 21 17.5005" stroke="#000000" stroke-width="1.5" stroke-linecap="round"/>
<path d="M12 22.0005C11.5 20.5005 9 17.5005 3 17.5005" stroke="#000000" stroke-width="1.5" stroke-linecap="round"/>
</svg>
