<svg width="24" height="24" viewBox="0 0 24 24" fill="none" xmlns="http://www.w3.org/2000/svg">
<path d="M9.4809 2.04565V4.06084C9.4809 4.61732 9.00457 5.05936 8.52039 5.33365C7.60566 5.85186 6.96191 7.04015 6.96191 8.09123C6.96191 9.48242 8.0897 10.6102 9.4809 10.6102C10.8721 10.6102 11.9999 9.48242 11.9999 8.09123C11.9999 9.48242 13.1277 10.6102 14.5189 10.6102C15.9101 10.6102 17.0379 9.48242 17.0379 8.09123C17.0379 7.04015 16.3941 5.85186 15.4794 5.33365C14.9952 5.05936 14.5189 4.61733 14.5189 4.06085L14.5189 2.04566" stroke="#000000" stroke-width="1.5" stroke-linecap="round" stroke-linejoin="round"/>
<path d="M9.51899 22.0002V19.9851C9.51899 19.4286 9.04266 18.9865 8.55848 18.7122C7.64375 18.194 7 17.0057 7 15.9547C7 14.5635 8.12779 13.4357 9.51899 13.4357C10.9102 13.4357 12.038 14.5635 12.038 15.9547C12.038 14.5635 13.1658 13.4357 14.557 13.4357C15.9482 13.4357 17.076 14.5635 17.076 15.9547C17.076 17.0057 16.4322 18.194 15.5175 18.7122C15.0333 18.9865 14.557 19.4286 14.557 19.9851L14.557 22.0002" stroke="#000000" stroke-width="1.5" stroke-linecap="round" stroke-linejoin="round"/>
<path d="M2 12.0002C2 7.2862 2 4.92918 3.46447 3.46471C4.92893 2.00024 7.28595 2.00024 12 2.00024C16.714 2.00024 19.0711 2.00024 20.5355 3.46471C22 4.92918 22 7.2862 22 12.0002C22 16.7143 22 19.0713 20.5355 20.5358C19.0711 22.0002 16.714 22.0002 12 22.0002C7.28595 22.0002 4.92893 22.0002 3.46447 20.5358C2 19.0713 2 16.7143 2 12.0002Z" stroke="#000000" stroke-width="1.5"/>
</svg>
