<svg width="24" height="24" viewBox="0 0 24 24" fill="none" xmlns="http://www.w3.org/2000/svg">
<path d="M14.1374 2.7381C13.3942 3.48132 13.0092 4.77677 13.2895 5.79001C13.438 6.32633 13.4622 6.97571 13.0687 7.3692L7.3689 13.069C6.97541 13.4625 6.32603 13.4383 5.7897 13.2899C4.77646 13.0095 3.48102 13.3945 2.73779 14.1377C1.75407 15.1215 1.75407 16.7164 2.73779 17.7001C3.72152 18.6839 5.31646 18.6838 6.30018 17.7001C5.31646 18.6838 5.31646 20.2788 6.30018 21.2625C7.28391 22.2462 8.87884 22.2462 9.86257 21.2625C10.6058 20.5193 10.9908 19.2238 10.7105 18.2106C10.562 17.6743 10.5378 17.0249 10.9313 16.6314L16.6311 10.9316C17.0246 10.5381 17.674 10.5623 18.2103 10.7108C19.2235 10.9911 20.519 10.6061 21.2622 9.86287C22.2459 8.87915 22.2459 7.28421 21.2622 6.30049C20.2785 5.31676 18.6835 5.31676 17.6998 6.30049C18.6835 5.31676 18.6835 3.72183 17.6998 2.7381C16.7161 1.75437 15.1212 1.75437 14.1374 2.7381Z" stroke="#1C274C" stroke-width="1.5" stroke-linecap="round" stroke-linejoin="round"/>
<path d="M10.2322 10.2325V12.3538L12.3535 11.6467V13.0609L14.9996 12.5002" stroke="#1C274C" stroke-width="1.5" stroke-linecap="round" stroke-linejoin="round"/>
</svg>
