<svg width="24" height="24" viewBox="0 0 24 24" fill="none" xmlns="http://www.w3.org/2000/svg">
<path d="M14.1374 2.73804C13.3942 3.48126 13.0092 4.77671 13.2895 5.78995C13.438 6.32627 13.4622 6.97565 13.0687 7.36914L11.7892 8.64861C11.7196 8.7183 11.7423 8.83632 11.8329 8.87514C13.3123 9.50917 14.4911 10.688 15.1251 12.1674C15.1639 12.258 15.2819 12.2807 15.3516 12.211L16.6311 10.9315C17.0246 10.538 17.674 10.5623 18.2103 10.7107C19.2235 10.9911 20.519 10.606 21.2622 9.86281C22.2459 8.87909 22.2459 7.28415 21.2622 6.30043C20.2785 5.3167 18.6835 5.3167 17.6998 6.30043C18.6835 5.3167 18.6835 3.72176 17.6998 2.73804C16.7161 1.75431 15.1212 1.75431 14.1374 2.73804Z" stroke="#000000" stroke-width="1.5" stroke-linecap="round" stroke-linejoin="round"/>
<path d="M2.73779 17.7001C3.72152 18.6838 5.31646 18.6838 6.30018 17.7001C5.31646 18.6838 5.31645 20.2787 6.30018 21.2624C7.28391 22.2462 8.87884 22.2462 9.86257 21.2624C10.6058 20.5192 10.9908 19.2238 10.7105 18.2105C10.562 17.6742 10.5378 17.0248 10.9313 16.6313L12.2108 15.3519C12.2804 15.2822 12.2577 15.1642 12.1671 15.1253C10.6877 14.4913 9.50892 13.3125 8.8749 11.8331C8.83608 11.7425 8.71805 11.7198 8.64837 11.7895L7.3689 13.069C6.97541 13.4625 6.32603 13.4382 5.7897 13.2898C4.77646 13.0094 3.48101 13.3945 2.73779 14.1377C1.75407 15.1214 1.75407 16.7163 2.73779 17.7001Z" stroke="#000000" stroke-width="1.5" stroke-linecap="round" stroke-linejoin="round"/>
<path d="M17.6572 17.657L19.0714 19.0712" stroke="#000000" stroke-width="1.5" stroke-linecap="round"/>
<path d="M6.34314 6.34338L4.92893 4.92917" stroke="#000000" stroke-width="1.5" stroke-linecap="round"/>
<path d="M15 19.0002V20.0002" stroke="#000000" stroke-width="1.5" stroke-linecap="round"/>
<path d="M5 9.00024L4 9.00024" stroke="#000000" stroke-width="1.5" stroke-linecap="round"/>
<path d="M19 15.0002H20" stroke="#000000" stroke-width="1.5" stroke-linecap="round"/>
<path d="M9 5.00024L9 4.00024" stroke="#000000" stroke-width="1.5" stroke-linecap="round"/>
</svg>
