<svg width="24" height="24" viewBox="0 0 24 24" fill="none" xmlns="http://www.w3.org/2000/svg">
<path d="M18 8.80781C18 13.7619 13.7333 15.0004 11.6 15.0004C9.73333 15.0004 6 13.7619 6 8.80781C6 6.71053 7.20839 5.35863 8.26099 4.65311C8.79638 4.29425 9.48354 4.55238 9.57296 5.17661C9.75127 6.42136 10.8777 7.3498 11.5596 6.28034C12.1424 5.36651 12.3529 4.13205 12.3529 3.38933C12.3529 2.29001 13.503 1.59145 14.4009 2.26497C16.1512 3.57777 18 5.77636 18 8.80781Z" stroke="#000000" stroke-width="1.5"/>
<path d="M20 15.0004L4 22.0004" stroke="#000000" stroke-width="1.5" stroke-linecap="round"/>
<path d="M4 15.0004L9 17.1879M20 22.0004L14.5 19.5941" stroke="#000000" stroke-width="1.5" stroke-linecap="round"/>
<path d="M15 10.0004C14.8 10.667 13.92 12.0004 12 12.0004" stroke="#000000" stroke-width="1.5" stroke-linecap="round"/>
</svg>
