<svg width="24" height="24" viewBox="0 0 24 24" fill="none" xmlns="http://www.w3.org/2000/svg">
<path d="M2 12.0006C2 7.28657 2 4.92954 3.46447 3.46508C4.92893 2.00061 7.28595 2.00061 12 2.00061C16.714 2.00061 19.0711 2.00061 20.5355 3.46508C22 4.92954 22 7.28657 22 12.0006C22 16.7147 22 19.0717 20.5355 20.5361C19.0711 22.0006 16.714 22.0006 12 22.0006C7.28595 22.0006 4.92893 22.0006 3.46447 20.5361C2 19.0717 2 16.7147 2 12.0006Z" stroke="#1C274C" stroke-width="1.5"/>
<path d="M17 2.00061V8.80821C17 9.78314 17 10.2706 16.8709 10.5613C16.5766 11.2239 15.8506 11.5812 15.1461 11.4101C14.8369 11.335 14.4507 11.0376 13.6782 10.4429C13.2421 10.107 13.024 9.93911 12.797 9.84046C12.2886 9.6196 11.7114 9.6196 11.203 9.84046C10.976 9.93911 10.7579 10.107 10.3218 10.4429C9.5493 11.0376 9.16307 11.335 8.85391 11.4101C8.14942 11.5812 7.42342 11.2239 7.12914 10.5613C7 10.2706 7 9.78314 7 8.80821V2.00061" stroke="#1C274C" stroke-width="1.5"/>
</svg>
