<svg width="24" height="24" viewBox="0 0 24 24" fill="none" xmlns="http://www.w3.org/2000/svg">
<path d="M2 12.0006C2 7.28657 2 4.92954 3.46447 3.46508C4.92893 2.00061 7.28595 2.00061 12 2.00061C16.714 2.00061 19.0711 2.00061 20.5355 3.46508C22 4.92954 22 7.28657 22 12.0006C22 16.7147 22 19.0717 20.5355 20.5361C19.0711 22.0006 16.714 22.0006 12 22.0006C7.28595 22.0006 4.92893 22.0006 3.46447 20.5361C2 19.0717 2 16.7147 2 12.0006Z" stroke="#000000" stroke-width="1.5"/>
<path d="M17 2.00061V11.8082C17 12.7831 17 13.2706 16.8709 13.5613C16.5766 14.2239 15.8506 14.5812 15.1461 14.4101C14.8369 14.335 14.4507 14.0376 13.6782 13.4429C13.2421 13.107 13.024 12.9391 12.797 12.8405C12.2886 12.6196 11.7114 12.6196 11.203 12.8405C10.976 12.9391 10.7579 13.107 10.3218 13.4429C9.5493 14.0376 9.16307 14.335 8.85391 14.4101C8.14942 14.5812 7.42342 14.2239 7.12914 13.5613C7 13.2706 7 12.7831 7 11.8082V2.00061" stroke="#000000" stroke-width="1.5"/>
<path d="M17 18.0006H7" stroke="#000000" stroke-width="1.5" stroke-linecap="round"/>
</svg>
