<svg width="24" height="24" viewBox="0 0 24 24" fill="none" xmlns="http://www.w3.org/2000/svg">
<path d="M16 14.0461V11.5494C16 9.40506 16 8.33291 15.4142 7.66676C14.8284 7.00061 13.8856 7.00061 12 7.00061C10.1144 7.00061 9.17157 7.00061 8.58579 7.66676C8 8.33291 8 9.40506 8 11.5494V14.0461C8 15.5943 8 16.3685 8.32627 16.7068C8.48187 16.8681 8.67829 16.9694 8.88752 16.9964C9.32623 17.0529 9.83855 16.5431 10.8632 15.5235C11.3161 15.0729 11.5426 14.8475 11.8046 14.7881C11.9336 14.7589 12.0664 14.7589 12.1954 14.7881C12.4574 14.8475 12.6839 15.0729 13.1368 15.5235C14.1615 16.5431 14.6738 17.0529 15.1125 16.9964C15.3217 16.9694 15.5181 16.8681 15.6737 16.7068C16 16.3685 16 15.5943 16 14.0461Z" stroke="#000000" stroke-width="1.5"/>
<path d="M22 12.0006C22 17.5235 17.5228 22.0006 12 22.0006C6.47715 22.0006 2 17.5235 2 12.0006C2 6.47776 6.47715 2.00061 12 2.00061C17.5228 2.00061 22 6.47776 22 12.0006Z" stroke="#000000" stroke-width="1.5"/>
</svg>
