<svg width="24" height="24" viewBox="0 0 24 24" fill="none" xmlns="http://www.w3.org/2000/svg">
<path d="M21 16.0915V11.0981C21 6.80952 21 4.66521 19.682 3.33291C18.364 2.00061 16.2426 2.00061 12 2.00061C7.75736 2.00061 5.63604 2.00061 4.31802 3.33291C3 4.66521 3 6.80952 3 11.0981V16.0915C3 19.1881 3 20.7364 3.73411 21.4129C4.08421 21.7356 4.52615 21.9383 4.99692 21.9921C5.98402 22.1051 7.13673 21.0855 9.44216 19.0464C10.4612 18.1451 10.9708 17.6944 11.5603 17.5757C11.8506 17.5172 12.1494 17.5172 12.4397 17.5757C13.0292 17.6944 13.5388 18.1451 14.5578 19.0464C16.8633 21.0855 18.016 22.1051 19.0031 21.9921C19.4739 21.9383 19.9158 21.7356 20.2659 21.4129C21 20.7364 21 19.1881 21 16.0915Z" stroke="#1C274C" stroke-width="1.5"/>
<path d="M15 6.00061H9" stroke="#1C274C" stroke-width="1.5" stroke-linecap="round"/>
</svg>
