<svg width="24" height="24" viewBox="0 0 24 24" fill="none" xmlns="http://www.w3.org/2000/svg">
<path d="M2 12.0002C2 7.2862 2 4.92918 3.46447 3.46471C4.92893 2.00024 7.28595 2.00024 12 2.00024C16.714 2.00024 19.0711 2.00024 20.5355 3.46471C22 4.92918 22 7.2862 22 12.0002C22 16.7143 22 19.0713 20.5355 20.5358C19.0711 22.0002 16.714 22.0002 12 22.0002C7.28595 22.0002 4.92893 22.0002 3.46447 20.5358C2 19.0713 2 16.7143 2 12.0002Z" stroke="#1C274C" stroke-width="1.5"/>
<path d="M11.25 18.0002C11.25 18.4145 11.5858 18.7502 12 18.7502C12.4142 18.7502 12.75 18.4145 12.75 18.0002H11.25ZM18 8.00024L18.5303 8.53057C18.8232 8.23768 18.8232 7.76281 18.5303 7.46991L18 8.00024ZM17.0303 5.96991C16.7374 5.67702 16.2626 5.67702 15.9697 5.96991C15.6768 6.26281 15.6768 6.73768 15.9697 7.03057L17.0303 5.96991ZM15.9697 8.96991C15.6768 9.26281 15.6768 9.73768 15.9697 10.0306C16.2626 10.3235 16.7374 10.3235 17.0303 10.0306L15.9697 8.96991ZM12.75 18.0002V12.0002H11.25V18.0002H12.75ZM16 8.75024H18V7.25024H16V8.75024ZM18.5303 7.46991L17.0303 5.96991L15.9697 7.03057L17.4697 8.53057L18.5303 7.46991ZM17.4697 7.46991L15.9697 8.96991L17.0303 10.0306L18.5303 8.53057L17.4697 7.46991ZM12.75 12.0002C12.75 10.2053 14.2051 8.75024 16 8.75024V7.25024C13.3766 7.25024 11.25 9.37689 11.25 12.0002H12.75Z" fill="#1C274C"/>
<path d="M11.25 18.0002C11.25 18.4145 11.5858 18.7502 12 18.7502C12.4142 18.7502 12.75 18.4145 12.75 18.0002H11.25ZM6 8.00024L5.46967 7.46991C5.17678 7.76281 5.17678 8.23768 5.46967 8.53057L6 8.00024ZM8.03033 7.03057C8.32322 6.73768 8.32322 6.26281 8.03033 5.96991C7.73744 5.67702 7.26256 5.67702 6.96967 5.96991L8.03033 7.03057ZM6.96967 10.0306C7.26256 10.3235 7.73744 10.3235 8.03033 10.0306C8.32322 9.73768 8.32322 9.26281 8.03033 8.96991L6.96967 10.0306ZM12.75 18.0002V12.0002H11.25V18.0002H12.75ZM8 7.25024H6V8.75024H8V7.25024ZM6.53033 8.53057L8.03033 7.03057L6.96967 5.96991L5.46967 7.46991L6.53033 8.53057ZM5.46967 8.53057L6.96967 10.0306L8.03033 8.96991L6.53033 7.46991L5.46967 8.53057ZM12.75 12.0002C12.75 9.37689 10.6234 7.25024 8 7.25024V8.75024C9.79493 8.75024 11.25 10.2053 11.25 12.0002H12.75Z" fill="#1C274C"/>
</svg>
