<svg width="24" height="24" viewBox="0 0 24 24" fill="none" xmlns="http://www.w3.org/2000/svg">
<path d="M2 12.0002C2 7.2862 2 4.92918 3.46447 3.46471C4.92893 2.00024 7.28595 2.00024 12 2.00024C16.714 2.00024 19.0711 2.00024 20.5355 3.46471C22 4.92918 22 7.2862 22 12.0002C22 16.7143 22 19.0713 20.5355 20.5358C19.0711 22.0002 16.714 22.0002 12 22.0002C7.28595 22.0002 4.92893 22.0002 3.46447 20.5358C2 19.0713 2 16.7143 2 12.0002Z" stroke="#1C274C" stroke-width="1.5"/>
<path d="M12.75 6.50024C12.75 6.08603 12.4142 5.75024 12 5.75024C11.5858 5.75024 11.25 6.08603 11.25 6.50024H12.75ZM18 16.5002L18.5303 17.0306C18.8232 16.7377 18.8232 16.2628 18.5303 15.9699L18 16.5002ZM15.9697 17.4699C15.6768 17.7628 15.6768 18.2377 15.9697 18.5306C16.2626 18.8235 16.7374 18.8235 17.0303 18.5306L15.9697 17.4699ZM17.0303 14.4699C16.7374 14.177 16.2626 14.177 15.9697 14.4699C15.6768 14.7628 15.6768 15.2377 15.9697 15.5306L17.0303 14.4699ZM11.25 6.50024V12.5002H12.75V6.50024H11.25ZM16 17.2502H18V15.7502H16V17.2502ZM17.4697 15.9699L15.9697 17.4699L17.0303 18.5306L18.5303 17.0306L17.4697 15.9699ZM18.5303 15.9699L17.0303 14.4699L15.9697 15.5306L17.4697 17.0306L18.5303 15.9699ZM11.25 12.5002C11.25 15.1236 13.3766 17.2502 16 17.2502V15.7502C14.2051 15.7502 12.75 14.2952 12.75 12.5002H11.25Z" fill="#1C274C"/>
<path d="M12.75 6.50024C12.75 6.08603 12.4142 5.75024 12 5.75024C11.5858 5.75024 11.25 6.08603 11.25 6.50024H12.75ZM6 16.5002L5.46967 15.9699C5.17678 16.2628 5.17678 16.7377 5.46967 17.0306L6 16.5002ZM6.96967 18.5306C7.26256 18.8235 7.73744 18.8235 8.03033 18.5306C8.32322 18.2377 8.32322 17.7628 8.03033 17.4699L6.96967 18.5306ZM8.03033 15.5306C8.32322 15.2377 8.32322 14.7628 8.03033 14.4699C7.73744 14.177 7.26256 14.177 6.96967 14.4699L8.03033 15.5306ZM11.25 6.50024V12.5002H12.75V6.50024H11.25ZM8 15.7502H6V17.2502H8V15.7502ZM5.46967 17.0306L6.96967 18.5306L8.03033 17.4699L6.53033 15.9699L5.46967 17.0306ZM6.53033 17.0306L8.03033 15.5306L6.96967 14.4699L5.46967 15.9699L6.53033 17.0306ZM11.25 12.5002C11.25 14.2952 9.79493 15.7502 8 15.7502V17.2502C10.6234 17.2502 12.75 15.1236 12.75 12.5002H11.25Z" fill="#1C274C"/>
</svg>
