<svg width="24" height="24" viewBox="0 0 24 24" fill="none" xmlns="http://www.w3.org/2000/svg">
<path d="M4 10.0005C4 6.22925 4 4.34363 5.17157 3.17206C6.34315 2.00049 8.22876 2.00049 12 2.00049C15.7712 2.00049 17.6569 2.00049 18.8284 3.17206C20 4.34363 20 6.22925 20 10.0005V12.0005C20 15.7717 20 17.6573 18.8284 18.8289C17.6569 20.0005 15.7712 20.0005 12 20.0005C8.22876 20.0005 6.34315 20.0005 5.17157 18.8289C4 17.6573 4 15.7717 4 12.0005V10.0005Z" stroke="#1C274C" stroke-width="1.5"/>
<path d="M4 13.0005H20" stroke="#1C274C" stroke-width="1.5" stroke-linecap="round" stroke-linejoin="round"/>
<path d="M15.5 16.0005H17" stroke="#1C274C" stroke-width="1.5" stroke-linecap="round" stroke-linejoin="round"/>
<path d="M7 16.0005H8.5" stroke="#1C274C" stroke-width="1.5" stroke-linecap="round" stroke-linejoin="round"/>
<path d="M6 19.5005V21.0005C6 21.5528 6.44772 22.0005 7 22.0005H8.5C9.05228 22.0005 9.5 21.5528 9.5 21.0005V20.0005" stroke="#1C274C" stroke-width="1.5" stroke-linecap="round" stroke-linejoin="round"/>
<path d="M18 19.5005V21.0005C18 21.5528 17.5523 22.0005 17 22.0005H15.5C14.9477 22.0005 14.5 21.5528 14.5 21.0005V20.0005" stroke="#1C274C" stroke-width="1.5" stroke-linecap="round" stroke-linejoin="round"/>
<path d="M20 9.00049H21C21.5523 9.00049 22 9.4482 22 10.0005V11.0005C22 11.3152 21.8518 11.6116 21.6 11.8005L20 13.0005" stroke="#1C274C" stroke-width="1.5" stroke-linecap="round" stroke-linejoin="round"/>
<path d="M4 9.00049H3C2.44772 9.00049 2 9.4482 2 10.0005V11.0005C2 11.3152 2.14819 11.6116 2.4 11.8005L4 13.0005" stroke="#1C274C" stroke-width="1.5" stroke-linecap="round" stroke-linejoin="round"/>
<path d="M19.5 5.00049H4.5" stroke="#1C274C" stroke-width="1.5" stroke-linecap="round"/>
</svg>
