<svg width="24" height="24" viewBox="0 0 24 24" fill="none" xmlns="http://www.w3.org/2000/svg">
<path d="M4.31802 20.5361C5.63604 22.0006 7.75736 22.0006 12 22.0006C16.2426 22.0006 18.364 22.0006 19.682 20.5361C21 19.0717 21 16.7147 21 12.0006C21 7.28657 21 4.92954 19.682 3.46508C18.364 2.00061 16.2426 2.00061 12 2.00061C7.75736 2.00061 5.63604 2.00061 4.31802 3.46508C3 4.92954 3 7.28657 3 12.0006C3 16.7147 3 19.0717 4.31802 20.5361Z" stroke="#000000" stroke-width="1.5"/>
<path d="M7 8.00061C7 7.53562 7 7.30313 7.05111 7.11238C7.18981 6.59474 7.59413 6.19042 8.11177 6.05172C8.30252 6.00061 8.53501 6.00061 9 6.00061H15C15.465 6.00061 15.6975 6.00061 15.8882 6.05172C16.4059 6.19042 16.8102 6.59474 16.9489 7.11238C17 7.30313 17 7.53562 17 8.00061C17 8.4656 17 8.69809 16.9489 8.88884C16.8102 9.40648 16.4059 9.8108 15.8882 9.9495C15.6975 10.0006 15.465 10.0006 15 10.0006H9C8.53501 10.0006 8.30252 10.0006 8.11177 9.9495C7.59413 9.8108 7.18981 9.40648 7.05111 8.88884C7 8.69809 7 8.4656 7 8.00061Z" stroke="#000000" stroke-width="1.5"/>
<circle cx="8" cy="13.0006" r="1" fill="#000000"/>
<circle cx="8" cy="17.0006" r="1" fill="#000000"/>
<circle cx="12" cy="13.0006" r="1" fill="#000000"/>
<circle cx="12" cy="17.0006" r="1" fill="#000000"/>
<circle cx="16" cy="13.0006" r="1" fill="#000000"/>
<circle cx="16" cy="17.0006" r="1" fill="#000000"/>
</svg>
