<svg width="24" height="24" viewBox="0 0 24 24" fill="none" xmlns="http://www.w3.org/2000/svg">
<path d="M3.46447 20.5361C4.92893 22.0006 7.28595 22.0006 12 22.0006C16.714 22.0006 19.0711 22.0006 20.5355 20.5361C22 19.0717 22 16.7147 22 12.0006C22 7.28657 22 4.92954 20.5355 3.46508C19.0711 2.00061 16.714 2.00061 12 2.00061C7.28595 2.00061 4.92893 2.00061 3.46447 3.46508C2 4.92954 2 7.28657 2 12.0006C2 16.7147 2 19.0717 3.46447 20.5361Z" stroke="#000000" stroke-width="1.5"/>
<path d="M18 8.50059H14M18 14.5006H14M18 17.5006H14M10 8.5006H8M8 8.5006L6 8.5006M8 8.5006L8 6.50059M8 8.5006L8 10.5006M9.5 14.5006L8.00001 16.0006M8.00001 16.0006L6.50001 17.5006M8.00001 16.0006L6.5 14.5006M8.00001 16.0006L9.49999 17.5006" stroke="#000000" stroke-width="1.5" stroke-linecap="round"/>
</svg>
