<svg width="24" height="24" viewBox="0 0 24 24" fill="none" xmlns="http://www.w3.org/2000/svg">
<path d="M2 12.0005C2 8.22925 2 6.34363 3.17157 5.17206C4.34315 4.00049 6.22876 4.00049 10 4.00049H14C17.7712 4.00049 19.6569 4.00049 20.8284 5.17206C22 6.34363 22 8.22925 22 12.0005V14.0005C22 17.7717 22 19.6573 20.8284 20.8289C19.6569 22.0005 17.7712 22.0005 14 22.0005H10C6.22876 22.0005 4.34315 22.0005 3.17157 20.8289C2 19.6573 2 17.7717 2 14.0005V12.0005Z" stroke="#000000" stroke-width="1.5"/>
<path d="M7 4.00049V2.50049" stroke="#000000" stroke-width="1.5" stroke-linecap="round"/>
<path d="M17 4.00049V2.50049" stroke="#000000" stroke-width="1.5" stroke-linecap="round"/>
<path d="M2.5 9.00049H21.5" stroke="#000000" stroke-width="1.5" stroke-linecap="round"/>
<path d="M18 17.0005C18 17.5528 17.5523 18.0005 17 18.0005C16.4477 18.0005 16 17.5528 16 17.0005C16 16.4482 16.4477 16.0005 17 16.0005C17.5523 16.0005 18 16.4482 18 17.0005Z" fill="#000000"/>
<path d="M18 13.0005C18 13.5528 17.5523 14.0005 17 14.0005C16.4477 14.0005 16 13.5528 16 13.0005C16 12.4482 16.4477 12.0005 17 12.0005C17.5523 12.0005 18 12.4482 18 13.0005Z" fill="#000000"/>
<path d="M13 17.0005C13 17.5528 12.5523 18.0005 12 18.0005C11.4477 18.0005 11 17.5528 11 17.0005C11 16.4482 11.4477 16.0005 12 16.0005C12.5523 16.0005 13 16.4482 13 17.0005Z" fill="#000000"/>
<path d="M13 13.0005C13 13.5528 12.5523 14.0005 12 14.0005C11.4477 14.0005 11 13.5528 11 13.0005C11 12.4482 11.4477 12.0005 12 12.0005C12.5523 12.0005 13 12.4482 13 13.0005Z" fill="#000000"/>
<path d="M8 17.0005C8 17.5528 7.55228 18.0005 7 18.0005C6.44772 18.0005 6 17.5528 6 17.0005C6 16.4482 6.44772 16.0005 7 16.0005C7.55228 16.0005 8 16.4482 8 17.0005Z" fill="#000000"/>
<path d="M8 13.0005C8 13.5528 7.55228 14.0005 7 14.0005C6.44772 14.0005 6 13.5528 6 13.0005C6 12.4482 6.44772 12.0005 7 12.0005C7.55228 12.0005 8 12.4482 8 13.0005Z" fill="#000000"/>
</svg>
