<svg width="24" height="24" viewBox="0 0 24 24" fill="none" xmlns="http://www.w3.org/2000/svg">
<path d="M22 14.0005V12.0005C22 8.22925 22 6.34363 20.8284 5.17206C19.6569 4.00049 17.7712 4.00049 14 4.00049H10C6.22876 4.00049 4.34315 4.00049 3.17157 5.17206C2 6.34363 2 8.22925 2 12.0005V14.0005C2 17.7717 2 19.6573 3.17157 20.8289C4.34315 22.0005 6.22876 22.0005 10 22.0005H14" stroke="#000000" stroke-width="1.5" stroke-linecap="round"/>
<path d="M7 4.00049V2.50049" stroke="#000000" stroke-width="1.5" stroke-linecap="round"/>
<path d="M17 4.00049V2.50049" stroke="#000000" stroke-width="1.5" stroke-linecap="round"/>
<circle cx="18" cy="18.0005" r="3" stroke="#000000" stroke-width="1.5"/>
<path d="M20.5 20.5005L22 22.0005" stroke="#000000" stroke-width="1.5" stroke-linecap="round"/>
<path d="M2.5 9.00049H21.5" stroke="#000000" stroke-width="1.5" stroke-linecap="round"/>
</svg>
