<svg width="24" height="24" viewBox="0 0 24 24" fill="none" xmlns="http://www.w3.org/2000/svg">
<path d="M15.0002 4V5C15.0002 6.88562 15.0002 7.82843 15.586 8.41421C16.1718 9 17.1146 9 19.0002 9H20.5002M20.5002 9L18.0002 7M20.5002 9L18.0002 11" stroke="#1C274C" stroke-width="1.5" stroke-linecap="round" stroke-linejoin="round"/>
<path d="M10.0376 5.31617L10.6866 6.4791C11.2723 7.52858 11.0372 8.90533 10.1147 9.8278C10.1147 9.8278 8.99578 10.9467 11.0245 12.9755C13.0532 15.0042 14.1722 13.8853 14.1722 13.8853C15.0947 12.9628 16.4714 12.7277 17.5209 13.3134L18.6838 13.9624C20.2686 14.8468 20.4557 17.0692 19.0628 18.4622C18.2258 19.2992 17.2004 19.9505 16.0669 19.9934C14.1588 20.0658 10.9183 19.5829 7.6677 16.3323C4.41713 13.0817 3.93421 9.84122 4.00655 7.93309C4.04952 6.7996 4.7008 5.77423 5.53781 4.93723C6.93076 3.54428 9.15317 3.73144 10.0376 5.31617Z" stroke="#1C274C" stroke-width="1.5" stroke-linecap="round"/>
</svg>
