<svg width="24" height="24" viewBox="0 0 24 24" fill="none" xmlns="http://www.w3.org/2000/svg">
<path d="M2 12.0005C2 8.22925 2 6.34363 3.17157 5.17206C4.34315 4.00049 6.22876 4.00049 10 4.00049H14C17.7712 4.00049 19.6569 4.00049 20.8284 5.17206C22 6.34363 22 8.22925 22 12.0005C22 15.7717 22 17.6573 20.8284 18.8289C19.6569 20.0005 17.7712 20.0005 14 20.0005H10C6.22876 20.0005 4.34315 20.0005 3.17157 18.8289C2 17.6573 2 15.7717 2 12.0005Z" stroke="#000000" stroke-width="1.5"/>
<path d="M10 16.0005H6" stroke="#000000" stroke-width="1.5" stroke-linecap="round"/>
<path d="M14 16.0005H12.5" stroke="#000000" stroke-width="1.5" stroke-linecap="round"/>
<path d="M2 10.0005L22 10.0005" stroke="#000000" stroke-width="1.5" stroke-linecap="round"/>
</svg>
