<svg width="24" height="24" viewBox="0 0 24 24" fill="none" xmlns="http://www.w3.org/2000/svg">
<path d="M21.9991 11.0005C21.99 7.88618 21.8915 6.23515 20.8284 5.17206C19.6569 4.00049 17.7712 4.00049 14 4.00049H10C6.22876 4.00049 4.34315 4.00049 3.17157 5.17206C2 6.34363 2 8.22925 2 12.0005C2 15.7717 2 17.6573 3.17157 18.8289C4.34315 20.0005 6.22876 20.0005 10 20.0005H11.5" stroke="#1C274C" stroke-width="1.5" stroke-linecap="round"/>
<path d="M15.5 14.0005V20.0005M15.5 20.0005L17.5 18.0005M15.5 20.0005L13.5 18.0005M20 20.0005V14.0005M20 14.0005L22 16.0005M20 14.0005L18 16.0005" stroke="#1C274C" stroke-width="1.5" stroke-linecap="round" stroke-linejoin="round"/>
<path d="M10 16.0005H6" stroke="#1C274C" stroke-width="1.5" stroke-linecap="round"/>
<path d="M2 10.0005L22 10.0005" stroke="#1C274C" stroke-width="1.5" stroke-linecap="round"/>
</svg>
