<svg width="24" height="24" viewBox="0 0 24 24" fill="none" xmlns="http://www.w3.org/2000/svg">
<path d="M2 12.0005C2 7.28644 2 4.92942 3.46447 3.46495C4.92893 2.00049 7.28595 2.00049 12 2.00049C16.714 2.00049 19.0711 2.00049 20.5355 3.46495C22 4.92942 22 7.28644 22 12.0005C22 16.7145 22 19.0716 20.5355 20.536C19.0711 22.0005 16.714 22.0005 12 22.0005C7.28595 22.0005 4.92893 22.0005 3.46447 20.536C2 19.0716 2 16.7145 2 12.0005Z" stroke="#000000" stroke-width="1.5"/>
<path d="M17 11.0005V10.0005C17 8.11487 17 7.17206 16.4142 6.58627C15.8284 6.00049 14.8856 6.00049 13 6.00049H11C9.11438 6.00049 8.17157 6.00049 7.58579 6.58627C7 7.17206 7 8.11487 7 10.0005V11.0005" stroke="#000000" stroke-width="1.5"/>
<path d="M5 11.0005H19" stroke="#000000" stroke-width="1.5" stroke-linecap="round"/>
<path d="M8 16.0005H16" stroke="#000000" stroke-width="1.5" stroke-linecap="round"/>
</svg>
