<svg width="24" height="24" viewBox="0 0 24 24" fill="none" xmlns="http://www.w3.org/2000/svg">
<path d="M2 3.00049L2.26491 3.08879C3.58495 3.5288 4.24497 3.74881 4.62248 4.27259C5 4.79636 5 5.49208 5 6.88353V9.50049C5 12.3289 5 13.7431 5.87868 14.6218C6.75736 15.5005 8.17157 15.5005 11 15.5005H19" stroke="#000000" stroke-width="1.5" stroke-linecap="round"/>
<path d="M7.5 18.0005C8.32843 18.0005 9 18.6721 9 19.5005C9 20.3289 8.32843 21.0005 7.5 21.0005C6.67157 21.0005 6 20.3289 6 19.5005C6 18.6721 6.67157 18.0005 7.5 18.0005Z" stroke="#000000" stroke-width="1.5"/>
<path d="M16.5 18.0006C17.3284 18.0006 18 18.6721 18 19.5006C18 20.329 17.3284 21.0006 16.5 21.0006C15.6716 21.0006 15 20.329 15 19.5006C15 18.6721 15.6716 18.0006 16.5 18.0006Z" stroke="#000000" stroke-width="1.5"/>
<path d="M11 9.00049H8" stroke="#000000" stroke-width="1.5" stroke-linecap="round"/>
<path d="M5 6.00049H16.4504C18.5054 6.00049 19.5328 6.00049 19.9775 6.67475C20.4221 7.34902 20.0173 8.29343 19.2078 10.1822L18.7792 11.1822C18.4013 12.0641 18.2123 12.505 17.8366 12.7527C17.4609 13.0005 16.9812 13.0005 16.0218 13.0005H5" stroke="#000000" stroke-width="1.5"/>
</svg>
