<svg width="24" height="24" viewBox="0 0 24 24" fill="none" xmlns="http://www.w3.org/2000/svg">
<path d="M3.55514 14.2577C2.83668 10.9048 2.47745 9.22842 3.378 8.11446C4.27855 7.00049 5.99302 7.00049 9.42196 7.00049H14.5781C18.0071 7.00049 19.7215 7.00049 20.6221 8.11446C21.5226 9.22842 21.1634 10.9048 20.4449 14.2577L20.0164 16.2577C19.5294 18.5302 19.2859 19.6665 18.4608 20.3335C17.6357 21.0005 16.4737 21.0005 14.1495 21.0005H9.85053C7.52639 21.0005 6.36432 21.0005 5.53925 20.3335C4.71418 19.6665 4.47069 18.5302 3.98372 16.2577L3.55514 14.2577Z" stroke="#1C274C" stroke-width="1.5"/>
<path d="M8 12.0005H16" stroke="#1C274C" stroke-width="1.5" stroke-linecap="round" stroke-linejoin="round"/>
<path d="M10 15.0005H14" stroke="#1C274C" stroke-width="1.5" stroke-linecap="round" stroke-linejoin="round"/>
<path d="M18 9.00049L15 3.00049" stroke="#1C274C" stroke-width="1.5" stroke-linecap="round" stroke-linejoin="round"/>
<path d="M6 9.00049L9 3.00049" stroke="#1C274C" stroke-width="1.5" stroke-linecap="round" stroke-linejoin="round"/>
</svg>
