<svg width="24" height="24" viewBox="0 0 24 24" fill="none" xmlns="http://www.w3.org/2000/svg">
<path d="M3.86376 16.4557C3.00581 13.0239 2.57684 11.308 3.47767 10.1543C4.3785 9.00049 6.14721 9.00049 9.68462 9.00049H14.3153C17.8527 9.00049 19.6214 9.00049 20.5222 10.1543C21.4231 11.308 20.9941 13.0239 20.1362 16.4557C19.5905 18.6384 19.3176 19.7297 18.5039 20.3651C17.6901 21.0005 16.5652 21.0005 14.3153 21.0005H9.68462C7.43476 21.0005 6.30983 21.0005 5.49605 20.3651C4.68227 19.7297 4.40943 18.6384 3.86376 16.4557Z" stroke="#1C274C" stroke-width="1.5"/>
<path d="M19.5 9.50049L18.7896 6.89514C18.5157 5.89054 18.3787 5.38824 18.0978 5.00995C17.818 4.63322 17.4378 4.34283 17.0008 4.17201C16.5619 4.00049 16.0413 4.00049 15 4.00049M4.5 9.50049L5.2104 6.89514C5.48432 5.89053 5.62128 5.38823 5.90221 5.00995C6.18199 4.63322 6.56216 4.34283 6.99922 4.17201C7.43808 4.00049 7.95872 4.00049 9 4.00049" stroke="#1C274C" stroke-width="1.5"/>
<path d="M9 4.00049C9 3.4482 9.44772 3.00049 10 3.00049H14C14.5523 3.00049 15 3.4482 15 4.00049C15 4.55277 14.5523 5.00049 14 5.00049H10C9.44772 5.00049 9 4.55277 9 4.00049Z" stroke="#1C274C" stroke-width="1.5"/>
</svg>
