<svg width="24" height="24" viewBox="0 0 24 24" fill="none" xmlns="http://www.w3.org/2000/svg">
<path d="M7.5 18.0005C8.32843 18.0005 9 18.6721 9 19.5005C9 20.3289 8.32843 21.0005 7.5 21.0005C6.67157 21.0005 6 20.3289 6 19.5005C6 18.6721 6.67157 18.0005 7.5 18.0005Z" stroke="#000000" stroke-width="1.5"/>
<path d="M16.5 18.0006C17.3284 18.0006 18 18.6721 18 19.5006C18 20.329 17.3284 21.0006 16.5 21.0006C15.6716 21.0006 15 20.329 15 19.5006C15 18.6721 15.6716 18.0006 16.5 18.0006Z" stroke="#000000" stroke-width="1.5"/>
<path d="M2.26121 3.09232L2.50997 2.38478H2.50997L2.26121 3.09232ZM2.24876 2.29294C1.85799 2.15556 1.42984 2.36096 1.29246 2.75173C1.15507 3.1425 1.36048 3.57065 1.75124 3.70803L2.24876 2.29294ZM4.58584 4.32347L5.20507 3.90032V3.90032L4.58584 4.32347ZM5.88772 14.5867L5.34345 15.1027H5.34345L5.88772 14.5867ZM20.6578 9.88324L21.3923 10.0346L21.3933 10.03L20.6578 9.88324ZM20.158 12.308L20.8926 12.4594L20.158 12.308ZM20.7345 6.69757L20.1401 7.15487L20.7345 6.69757ZM19.1336 15.0509L18.6598 14.4695L19.1336 15.0509ZM5.70808 9.76049V7.03885H4.20808V9.76049H5.70808ZM2.50997 2.38478L2.24876 2.29294L1.75124 3.70803L2.01245 3.79987L2.50997 2.38478ZM10.9375 16.2505H16.2404V14.7505H10.9375V16.2505ZM5.70808 7.03885C5.70808 6.33169 5.7091 5.74158 5.65719 5.26206C5.60346 4.76568 5.48705 4.31296 5.20507 3.90032L3.96661 4.74662C4.05687 4.87871 4.12657 5.06013 4.1659 5.42348C4.20706 5.80368 4.20808 6.2989 4.20808 7.03885H5.70808ZM2.01245 3.79987C2.68006 4.03459 3.11881 4.19014 3.44166 4.34854C3.74488 4.49733 3.87855 4.61776 3.96661 4.74662L5.20507 3.90032C4.92089 3.48446 4.54304 3.21812 4.10241 3.00192C3.68139 2.79534 3.14395 2.60768 2.50997 2.38478L2.01245 3.79987ZM4.20808 9.76049C4.20808 11.213 4.22171 12.2604 4.35876 13.0606C4.50508 13.9149 4.79722 14.5265 5.34345 15.1027L6.43198 14.0706C6.11182 13.733 5.93913 13.4023 5.83723 12.8074C5.72607 12.1583 5.70808 11.2495 5.70808 9.76049H4.20808ZM10.9375 14.7505C9.52069 14.7505 8.53763 14.7487 7.79696 14.6437C7.08215 14.5423 6.70452 14.3581 6.43198 14.0706L5.34345 15.1027C5.93731 15.729 6.69012 16.0017 7.58636 16.1288C8.45674 16.2523 9.56535 16.2505 10.9375 16.2505V14.7505ZM4.95808 6.87049H17.0888V5.37049H4.95808V6.87049ZM19.9232 9.73184L19.4235 12.1566L20.8926 12.4594L21.3923 10.0346L19.9232 9.73184ZM17.0888 6.87049C17.9452 6.87049 18.6989 6.87149 19.2937 6.93798C19.5893 6.97102 19.8105 7.01692 19.9659 7.07153C20.1273 7.12825 20.153 7.17176 20.1401 7.15487L21.329 6.24027C21.094 5.93484 20.7636 5.76194 20.4632 5.65636C20.1567 5.54866 19.8101 5.48636 19.4604 5.44727C18.7646 5.36949 17.9174 5.37049 17.0888 5.37049V6.87049ZM21.3933 10.03C21.5625 9.18215 21.7062 8.47073 21.7414 7.90087C21.7775 7.31467 21.7108 6.73666 21.329 6.24027L20.1401 7.15487C20.2021 7.23557 20.2706 7.38086 20.2442 7.80846C20.2168 8.2524 20.1002 8.84527 19.9223 9.73644L21.3933 10.03ZM16.2404 16.2505C17.0021 16.2505 17.6413 16.2518 18.1566 16.1887C18.6923 16.1232 19.1809 15.9798 19.6074 15.6323L18.6598 14.4695C18.5346 14.5715 18.3571 14.653 17.9744 14.6998C17.5712 14.7492 17.0397 14.7505 16.2404 14.7505V16.2505ZM19.4235 12.1566C19.2621 12.9394 19.1535 13.4598 19.0238 13.8446C18.9007 14.21 18.785 14.3674 18.6598 14.4695L19.6074 15.6323C20.0339 15.2847 20.2729 14.8351 20.4453 14.3237C20.6111 13.8317 20.7388 13.2054 20.8926 12.4594L19.4235 12.1566Z" fill="#000000"/>
<path d="M11 10.8005L12.1429 12.0005L15 9.00049" stroke="#000000" stroke-width="1.5" stroke-linecap="round" stroke-linejoin="round"/>
</svg>
