<svg width="24" height="24" viewBox="0 0 24 24" fill="none" xmlns="http://www.w3.org/2000/svg">
<path d="M3 12.0006C3 15.7718 3 19.6575 4.31802 20.829C5.63604 22.0006 7.75736 22.0006 12 22.0006C16.2426 22.0006 18.364 22.0006 19.682 20.829C21 19.6575 21 15.7718 21 12.0006" stroke="#1C274C" stroke-width="1.5"/>
<path d="M14.6603 14.2025L20.8579 12.3432C21.2688 12.22 21.4743 12.1583 21.6264 12.0361C21.7592 11.9294 21.8626 11.7904 21.9266 11.6325C22 11.4517 22 11.2372 22 10.8083C22 9.12088 22 8.27719 21.6703 7.63329C21.3834 7.07303 20.9276 6.6172 20.3673 6.33033C19.7234 6.00061 18.8797 6.00061 17.1923 6.00061H6.80765C5.12027 6.00061 4.27658 6.00061 3.63268 6.33032C3.07242 6.6172 2.61659 7.07303 2.32971 7.63329C2 8.27719 2 9.12088 2 10.8083C2 11.2372 2 11.4517 2.07336 11.6325C2.13743 11.7904 2.24079 11.9294 2.37363 12.0361C2.52574 12.1583 2.73118 12.22 3.14206 12.3432L9.33968 14.2025" stroke="#1C274C" stroke-width="1.5"/>
<path d="M14 12.5006H10C9.72386 12.5006 9.5 12.7245 9.5 13.0006V15.1621C9.5 15.3665 9.62448 15.5504 9.8143 15.6263L10.5144 15.9064C11.4681 16.2878 12.5319 16.2878 13.4856 15.9064L14.1857 15.6263C14.3755 15.5504 14.5 15.3665 14.5 15.1621V13.0006C14.5 12.7245 14.2761 12.5006 14 12.5006Z" stroke="#1C274C" stroke-width="1.5" stroke-linecap="round"/>
<path d="M9.1709 4.00061C9.58273 2.83542 10.694 2.00061 12.0002 2.00061C13.3064 2.00061 14.4177 2.83542 14.8295 4.00061" stroke="#1C274C" stroke-width="1.5" stroke-linecap="round"/>
</svg>
