<svg width="24" height="24" viewBox="0 0 24 24" fill="none" xmlns="http://www.w3.org/2000/svg">
<path d="M3 12.0006C3 15.7718 3 19.6575 4.31802 20.829C5.63604 22.0006 7.75736 22.0006 12 22.0006C16.2426 22.0006 18.364 22.0006 19.682 20.829C21 19.6575 21 15.7718 21 12.0006" stroke="#000000" stroke-width="1.5"/>
<path d="M14.6603 14.2025L20.6676 12.4003C21.2631 12.2217 21.5609 12.1324 21.7498 11.9183C21.7866 11.8766 21.8199 11.8319 21.8492 11.7846C22 11.5421 22 11.2313 22 10.6095C22 8.15938 22 6.93431 21.327 6.1072C21.1977 5.94824 21.0524 5.80294 20.8934 5.67359C20.0663 5.00061 18.8412 5.00061 16.3911 5.00061H7.60893C5.15877 5.00061 3.9337 5.00061 3.10659 5.67359C2.94763 5.80294 2.80233 5.94824 2.67298 6.1072C2 6.93431 2 8.15938 2 10.6095C2 11.2313 2 11.5421 2.15078 11.7846C2.18015 11.8319 2.21341 11.8766 2.25021 11.9183C2.43915 12.1324 2.7369 12.2217 3.3324 12.4003L9.33968 14.2025" stroke="#000000" stroke-width="1.5"/>
<path d="M6.5 5.00061C7.32344 4.97974 8.15925 4.45552 8.43944 3.68093C8.44806 3.6571 8.4569 3.6306 8.47457 3.57759L8.50023 3.50061C8.54241 3.37405 8.56351 3.31075 8.58608 3.25461C8.87427 2.53773 9.54961 2.05098 10.3208 2.00427C10.3812 2.00061 10.4479 2.00061 10.5814 2.00061H13.4191C13.5525 2.00061 13.6192 2.00061 13.6796 2.00427C14.4508 2.05098 15.1262 2.53773 15.4144 3.25461C15.4369 3.31075 15.458 3.37404 15.5002 3.50061L15.5259 3.57759C15.5435 3.63029 15.5524 3.65717 15.561 3.68093C15.8412 4.45552 16.6766 4.97974 17.5 5.00061" stroke="#000000" stroke-width="1.5"/>
<path d="M14 12.5006H10C9.72386 12.5006 9.5 12.7245 9.5 13.0006V15.1621C9.5 15.3665 9.62448 15.5504 9.8143 15.6263L10.5144 15.9064C11.4681 16.2878 12.5319 16.2878 13.4856 15.9064L14.1857 15.6263C14.3755 15.5504 14.5 15.3665 14.5 15.1621V13.0006C14.5 12.7245 14.2761 12.5006 14 12.5006Z" stroke="#000000" stroke-width="1.5" stroke-linecap="round"/>
</svg>
