<svg width="24" height="24" viewBox="0 0 24 24" fill="none" xmlns="http://www.w3.org/2000/svg">
<path d="M2 14.0005C2 10.2293 2 8.34363 3.17157 7.17206C4.34315 6.00049 6.22876 6.00049 10 6.00049H14C17.7712 6.00049 19.6569 6.00049 20.8284 7.17206C22 8.34363 22 10.2293 22 14.0005C22 17.7717 22 19.6573 20.8284 20.8289C19.6569 22.0005 17.7712 22.0005 14 22.0005H10C6.22876 22.0005 4.34315 22.0005 3.17157 20.8289C2 19.6573 2 17.7717 2 14.0005Z" stroke="#000000" stroke-width="1.5"/>
<path d="M21.6618 8.72021C18.6519 10.6766 17.147 11.6548 15.5605 12.1477C13.2416 12.8682 10.7586 12.8682 8.43963 12.1477C6.85313 11.6548 5.34822 10.6766 2.33838 8.72021" stroke="#000000" stroke-width="1.5" stroke-linecap="round"/>
<path d="M8 11.0005V13.0005" stroke="#000000" stroke-width="1.5" stroke-linecap="round"/>
<path d="M16 11.0005V13.0005" stroke="#000000" stroke-width="1.5" stroke-linecap="round"/>
<path d="M9.17065 4.00049C9.58249 2.8353 10.6937 2.00049 11.9999 2.00049C13.3062 2.00049 14.4174 2.8353 14.8292 4.00049" stroke="#000000" stroke-width="1.5" stroke-linecap="round"/>
</svg>
