<svg width="24" height="24" viewBox="0 0 24 24" fill="none" xmlns="http://www.w3.org/2000/svg">
<path d="M14 6.00061H10C8.64413 6.00061 7.53199 6.00061 6.60915 6.05506C4.96519 6.15205 3.92193 6.42183 3.17157 7.17218C2 8.34376 2 10.2294 2 14.0006C2 17.7718 2 19.6575 3.17157 20.829C4.34315 22.0006 6.22876 22.0006 10 22.0006H14C17.7712 22.0006 19.6569 22.0006 20.8284 20.829C22 19.6575 22 17.7718 22 14.0006C22 10.2294 22 8.34376 20.8284 7.17218C20.0781 6.42183 19.0348 6.15205 17.3909 6.05506C16.468 6.00061 15.3559 6.00061 14 6.00061Z" stroke="#1C274C" stroke-width="1.5"/>
<path d="M6.60938 6.05506C7.43282 6.03419 8.15925 5.45552 8.43944 4.68093C8.44806 4.6571 8.4569 4.6306 8.47457 4.57759L8.50023 4.50061C8.54241 4.37405 8.56351 4.31075 8.58608 4.25461C8.87427 3.53773 9.54961 3.05098 10.3208 3.00427C10.3812 3.00061 10.4479 3.00061 10.5814 3.00061H13.4191C13.5525 3.00061 13.6192 3.00061 13.6796 3.00427C14.4508 3.05098 15.1262 3.53773 15.4144 4.25461C15.4369 4.31075 15.458 4.37404 15.5002 4.50061L15.5259 4.57759C15.5435 4.63053 15.5524 4.65712 15.561 4.68093C15.8412 5.45552 16.5676 6.03419 17.3911 6.05506" stroke="#1C274C" stroke-width="1.5"/>
<path d="M21.6618 8.72034C18.6519 10.6767 17.147 11.6549 15.5605 12.1478C13.2416 12.8683 10.7586 12.8683 8.43963 12.1478C6.85313 11.6549 5.34822 10.6767 2.33838 8.72034" stroke="#1C274C" stroke-width="1.5" stroke-linecap="round"/>
<path d="M8 11.0006V13.0006" stroke="#1C274C" stroke-width="1.5" stroke-linecap="round"/>
<path d="M16 11.0006V13.0006" stroke="#1C274C" stroke-width="1.5" stroke-linecap="round"/>
</svg>
