<svg width="24" height="24" viewBox="0 0 24 24" fill="none" xmlns="http://www.w3.org/2000/svg">
<path d="M18.6667 11.0005C20.5513 10.7218 22 9.04623 22 7.02085C22 4.80046 20.2589 3.00049 18.1111 3.00049H5.88889C3.74112 3.00049 2 4.80046 2 7.02085C2 9.04623 3.44873 10.7218 5.33333 11.0005" stroke="#1C274C" stroke-width="1.5"/>
<path d="M12 6.00049V13.0005M12 13.0005L14 10.6672M12 13.0005L10 10.6672" stroke="#1C274C" stroke-width="1.5" stroke-linecap="round" stroke-linejoin="round"/>
<path d="M5 10.0005C5 8.11487 5 7.17206 5.58579 6.58627C6.17157 6.00049 7.11438 6.00049 9 6.00049H15C16.8856 6.00049 17.8284 6.00049 18.4142 6.58627C19 7.17206 19 8.11487 19 10.0005V16.0005C19 17.8861 19 18.8289 18.4142 19.4147C17.8284 20.0005 16.8856 20.0005 15 20.0005H9C7.11438 20.0005 6.17157 20.0005 5.58579 19.4147C5 18.8289 5 17.8861 5 16.0005V10.0005Z" stroke="#1C274C" stroke-width="1.5"/>
<path d="M5 17.0005H19" stroke="#1C274C" stroke-width="1.5" stroke-linecap="round" stroke-linejoin="round"/>
</svg>
