<svg width="24" height="24" viewBox="0 0 24 24" fill="none" xmlns="http://www.w3.org/2000/svg">
<path d="M6 15.5001C6 14.9478 6.44772 14.5001 7 14.5001H17C17.5523 14.5001 18 14.9478 18 15.5001C18 16.6047 17.1046 17.5001 16 17.5001H8C6.89543 17.5001 6 16.6047 6 15.5001Z" stroke="#000000" stroke-width="1.5"/>
<path d="M6.628 6.76593C6.86937 4.75454 6.99006 3.74884 7.57174 3.06174C7.75634 2.84368 7.97115 2.6531 8.20965 2.4958C8.96117 2.00012 9.97408 2.00012 11.9999 2.00012C14.0257 2.00012 15.0386 2.00012 15.7902 2.4958C16.0287 2.6531 16.2435 2.84368 16.4281 3.06174C17.0097 3.74884 17.1304 4.75454 17.3718 6.76593L17.4627 7.52354C17.7132 9.61099 17.8385 10.6547 17.2416 11.3274C16.6448 12.0001 15.5936 12.0001 13.4912 12.0001H10.5086C8.40618 12.0001 7.35497 12.0001 6.75816 11.3274C6.16135 10.6547 6.2866 9.61099 6.53709 7.52354L6.628 6.76593Z" stroke="#000000" stroke-width="1.5"/>
<path d="M12 12.0001V14.0001" stroke="#000000" stroke-width="1.5"/>
<path d="M12 22.0001V20.0001M12 20.0001V17.5001M12 20.0001L12.4661 20.1166C13.4214 20.3555 14.1886 21.0659 14.5 22.0001M12 20.0001L11.5339 20.1166C10.5786 20.3555 9.81142 21.0659 9.5 22.0001M6 16.0001L5.13484 13.4046C5.06173 13.1853 5.02518 13.0757 4.95424 12.9226C4.8833 12.7696 4.85413 12.7216 4.79579 12.6257C4.33942 11.8753 3.7325 11.5001 2 11.5001M18 16.0001L18.8652 13.4046C18.9383 13.1853 18.9748 13.0757 19.0458 12.9226C19.1167 12.7696 19.1459 12.7216 19.2042 12.6257C19.6606 11.8753 20.2675 11.5001 22 11.5001" stroke="#000000" stroke-width="1.5" stroke-linecap="round"/>
</svg>
