<svg width="24" height="24" viewBox="0 0 24 24" fill="none" xmlns="http://www.w3.org/2000/svg">
<path d="M17 21.0001V16.0001M7 21.0001V16.0001" stroke="#1C274C" stroke-width="1.5" stroke-linecap="round"/>
<path d="M15.5 12.0001H8.50001C6.8501 12.0001 6.02514 12.0001 5.51257 12.5859C5.22669 12.9126 5.10026 13.3504 5.04435 14.0009C4.9669 14.9019 4.92818 15.3524 5.22538 15.6763C5.52259 16.0001 6.01506 16.0001 7.00001 16.0001H17C17.985 16.0001 18.4774 16.0001 18.7746 15.6763C19.0718 15.3524 19.0331 14.9019 18.9557 14.0009C18.8998 13.3504 18.7733 12.9126 18.4874 12.5859C17.9749 12.0001 17.1499 12.0001 15.5 12.0001Z" stroke="#1C274C" stroke-width="1.5"/>
<path d="M7 8.00012C7 6.13089 7 5.19627 7.40192 4.50012C7.66523 4.04406 8.04394 3.66535 8.5 3.40205C9.19615 3.00012 10.1308 3.00012 12 3.00012C13.8692 3.00012 14.8038 3.00012 15.5 3.40205C15.9561 3.66535 16.3348 4.04406 16.5981 4.50012C17 5.19627 17 6.13089 17 8.00012V12.0001H7V8.00012Z" stroke="#1C274C" stroke-width="1.5"/>
</svg>
