<svg width="24" height="24" viewBox="0 0 24 24" fill="none" xmlns="http://www.w3.org/2000/svg">
<path d="M9 4.00012H15" stroke="#000000" stroke-width="1.5" stroke-linecap="round"/>
<path d="M12 4.00012V16.5001C12 18.4331 13.567 20.0001 15.5 20.0001C17.433 20.0001 19 18.4331 19 16.5001V16.4446" stroke="#000000" stroke-width="1.5" stroke-linecap="round"/>
<path d="M16 11.2001C16 10.5374 16.5373 10.0001 17.2 10.0001H20.8C21.4627 10.0001 22 10.5374 22 11.2001V13.0001C22 14.657 20.6569 16.0001 19 16.0001C17.3431 16.0001 16 14.657 16 13.0001V11.2001Z" stroke="#000000" stroke-width="1.5"/>
<path d="M12 4.00012V16.5001C12 18.4331 10.433 20.0001 8.5 20.0001C6.567 20.0001 5 18.4331 5 16.5001V16.4446" stroke="#000000" stroke-width="1.5" stroke-linecap="round"/>
<path d="M8 10.8573C8 10.3839 7.61624 10.0001 7.14286 10.0001H2.85714C2.38376 10.0001 2 10.3839 2 10.8573V13.0001C2 14.657 3.34315 16.0001 5 16.0001C6.65685 16.0001 8 14.657 8 13.0001V10.8573Z" stroke="#000000" stroke-width="1.5"/>
</svg>
