<svg width="24" height="24" viewBox="0 0 24 24" fill="none" xmlns="http://www.w3.org/2000/svg">
<path d="M12.978 21.456L13.6213 21.8416L12.978 21.456ZM13.4659 20.6419L12.8226 20.2564L13.4659 20.6419ZM10.5341 20.6419L9.89077 21.0275H9.89077L10.5341 20.6419ZM11.022 21.456L11.6653 21.0705L11.022 21.456ZM12 4.22249L11.473 3.68887C11.3303 3.82978 11.25 4.02196 11.25 4.22249C11.25 4.42301 11.3303 4.61519 11.473 4.7561L12 4.22249ZM20.25 11.778C20.25 12.1922 20.5858 12.528 21 12.528C21.4142 12.528 21.75 12.1922 21.75 11.778H20.25ZM3.34254 16.59L4.03418 16.2999H4.03418L3.34254 16.59ZM8.21062 19.326L8.19786 20.0759L8.21062 19.326ZM5.77792 18.9953L5.49394 19.6895H5.49394L5.77792 18.9953ZM20.6575 16.59L21.3491 16.88L21.3491 16.88L20.6575 16.59ZM15.7893 19.326L15.7766 18.5761H15.7766L15.7893 19.326ZM18.2221 18.9953L18.5061 19.6895H18.5061L18.2221 18.9953ZM18.8512 4.87732L18.4629 5.51896L18.8512 4.87732ZM20.3369 6.34463L20.9742 5.94922V5.94922L20.3369 6.34463ZM5.14876 4.87732L4.76041 4.23569H4.76041L5.14876 4.87732ZM3.66312 6.34463L3.02582 5.94922H3.02582L3.66312 6.34463ZM9.66251 19.5202L10.0361 18.8698L10.0361 18.8698L9.66251 19.5202ZM14.777 2.53386C15.0717 2.24279 15.0747 1.76792 14.7836 1.47322C14.4925 1.17851 14.0177 1.17556 13.723 1.46663L14.777 2.53386ZM13.723 6.97834C14.0177 7.26941 14.4925 7.26646 14.7836 6.97176C15.0747 6.67705 15.0717 6.20219 14.777 5.91112L13.723 6.97834ZM9.3023 4.97333C9.71651 4.97207 10.0513 4.63525 10.05 4.22104C10.0487 3.80683 9.71191 3.47207 9.2977 3.47334L9.3023 4.97333ZM21.7365 14.4649C21.7476 14.0508 21.4209 13.7062 21.0068 13.6951C20.5928 13.684 20.2481 14.0107 20.237 14.4247L21.7365 14.4649ZM13.6213 21.8416L14.1092 21.0275L12.8226 20.2564L12.3347 21.0705L13.6213 21.8416ZM9.89077 21.0275L10.3787 21.8416L11.6653 21.0705L11.1774 20.2564L9.89077 21.0275ZM12.3347 21.0705C12.2671 21.1833 12.1458 21.2502 12 21.2502C11.8541 21.2502 11.7329 21.1833 11.6653 21.0705L10.3787 21.8416C11.1047 23.0531 12.8952 23.0531 13.6213 21.8416L12.3347 21.0705ZM3.75 12.6669V11.778H2.25V12.6669H3.75ZM2.25 12.6669C2.25 13.692 2.24958 14.4988 2.2946 15.1504C2.3401 15.809 2.43455 16.3641 2.6509 16.88L4.03418 16.2999C3.908 15.999 3.83117 15.6281 3.79103 15.047C3.75042 14.4591 3.75 13.7127 3.75 12.6669H2.25ZM8.22338 18.5761C7.09333 18.5569 6.51282 18.4856 6.06191 18.3012L5.49394 19.6895C6.23158 19.9912 7.06826 20.0567 8.19786 20.0759L8.22338 18.5761ZM2.6509 16.88C3.18531 18.1543 4.20905 19.1638 5.49394 19.6895L6.06191 18.3012C5.14155 17.9246 4.41322 17.2037 4.03418 16.2999L2.6509 16.88ZM15.8021 20.0759C16.9317 20.0567 17.7684 19.9912 18.5061 19.6895L17.9381 18.3012C17.4872 18.4856 16.9067 18.5569 15.7766 18.5761L15.8021 20.0759ZM19.9658 16.2999C19.5868 17.2037 18.8585 17.9246 17.9381 18.3012L18.5061 19.6895C19.791 19.1638 20.8147 18.1543 21.3491 16.88L19.9658 16.2999ZM12 4.97249C13.4807 4.97249 14.8952 4.97282 16.074 5.05259C16.6621 5.0924 17.1733 5.15094 17.5922 5.23429C18.0215 5.3197 18.3018 5.42143 18.4629 5.51896L19.2396 4.23569C18.8597 4.00575 18.3813 3.86189 17.8849 3.76312C17.378 3.66228 16.7964 3.59805 16.1753 3.55602C14.9354 3.47211 13.4654 3.47249 12 3.47249V4.97249ZM21.75 11.778C21.75 10.3378 21.7508 9.20439 21.6637 8.29908C21.5754 7.38222 21.3915 6.62189 20.9742 5.94922L19.6996 6.74005C19.9453 7.13614 20.093 7.63763 20.1706 8.44282C20.2492 9.25958 20.25 10.3084 20.25 11.778H21.75ZM18.4629 5.51896C18.9677 5.82451 19.3913 6.24317 19.6996 6.74005L20.9742 5.94922C20.5404 5.25003 19.9457 4.66309 19.2396 4.23569L18.4629 5.51896ZM3.75 11.778C3.75 10.3084 3.75081 9.25958 3.82944 8.44282C3.90695 7.63763 4.05466 7.13614 4.30042 6.74005L3.02582 5.94922C2.60846 6.62189 2.42461 7.38222 2.33634 8.29908C2.24919 9.20439 2.25 10.3378 2.25 11.778H3.75ZM4.76041 4.23569C4.05426 4.66309 3.45964 5.25003 3.02582 5.94922L4.30042 6.74005C4.6087 6.24317 5.03225 5.82451 5.5371 5.51896L4.76041 4.23569ZM11.1774 20.2564C10.9955 19.9528 10.8327 19.6797 10.6738 19.4644C10.5054 19.2362 10.3094 19.0268 10.0361 18.8698L9.28893 20.1705C9.3196 20.1881 9.37008 20.2239 9.46688 20.355C9.57318 20.4991 9.69425 20.6996 9.89077 21.0275L11.1774 20.2564ZM8.19786 20.0759C8.59427 20.0827 8.841 20.0876 9.02805 20.1081C9.20155 20.127 9.26024 20.154 9.28893 20.1705L10.0361 18.8698C9.76085 18.7117 9.47626 18.6481 9.19112 18.617C8.91953 18.5873 8.59228 18.5824 8.22338 18.5761L8.19786 20.0759ZM14.1092 21.0275C14.3057 20.6996 14.4268 20.4991 14.5331 20.355C14.6299 20.2239 14.6804 20.1881 14.711 20.1705L13.9639 18.8698C13.6906 19.0268 13.4945 19.2362 13.3261 19.4644C13.1672 19.6797 13.0045 19.9528 12.8226 20.2564L14.1092 21.0275ZM15.7766 18.5761C15.4077 18.5824 15.0804 18.5873 14.8088 18.617C14.5237 18.6481 14.2391 18.7117 13.9639 18.8698L14.711 20.1705C14.7397 20.154 14.7984 20.127 14.9719 20.1081C15.159 20.0876 15.4057 20.0827 15.8021 20.0759L15.7766 18.5761ZM12.527 4.7561L14.777 2.53386L13.723 1.46663L11.473 3.68887L12.527 4.7561ZM11.473 4.7561L13.723 6.97834L14.777 5.91112L12.527 3.68887L11.473 4.7561ZM9.2977 3.47334C7.0617 3.48019 5.93013 3.52773 4.76041 4.23569L5.5371 5.51896C6.29497 5.06026 6.99727 4.9804 9.3023 4.97333L9.2977 3.47334ZM20.237 14.4247C20.2114 15.3807 20.1349 15.8967 19.9658 16.2999L21.3491 16.88C21.6333 16.2024 21.7102 15.446 21.7365 14.4649L20.237 14.4247Z" fill="#1C274C"/>
</svg>
