<svg width="24" height="24" viewBox="0 0 24 24" fill="none" xmlns="http://www.w3.org/2000/svg">
<path d="M13.0867 21.3879L13.7321 21.77L13.0867 21.3879ZM13.6288 20.4721L12.9833 20.0901L13.6288 20.4721ZM10.3712 20.4721L9.72579 20.8541H9.72579L10.3712 20.4721ZM10.9133 21.3879L11.5587 21.0059L10.9133 21.3879ZM2.3806 15.9137L3.07351 15.6266V15.6266L2.3806 15.9137ZM7.78958 18.9917L7.77666 19.7416L7.78958 18.9917ZM5.08658 18.6196L4.79957 19.3126H4.79957L5.08658 18.6196ZM21.6194 15.9137L22.3123 16.2007V16.2007L21.6194 15.9137ZM16.2104 18.9917L16.1975 18.2418L16.2104 18.9917ZM18.9134 18.6196L19.2004 19.3126H19.2004L18.9134 18.6196ZM19.6125 2.73704L19.2206 3.37652L19.6125 2.73704ZM21.2632 4.38775L21.9027 3.99588V3.99588L21.2632 4.38775ZM4.38751 2.73704L3.99563 2.09756V2.09756L4.38751 2.73704ZM2.7368 4.38775L2.09732 3.99588H2.09732L2.7368 4.38775ZM9.40279 19.2101L9.77986 18.5618L9.77986 18.5618L9.40279 19.2101ZM13.7321 21.77L14.2742 20.8541L12.9833 20.0901L12.4412 21.0059L13.7321 21.77ZM9.72579 20.8541L10.2679 21.77L11.5587 21.0059L11.0166 20.0901L9.72579 20.8541ZM12.4412 21.0059C12.2485 21.3316 11.7515 21.3316 11.5587 21.0059L10.2679 21.77C11.0415 23.0769 12.9585 23.0769 13.7321 21.77L12.4412 21.0059ZM10.5 2.75024H13.5V1.25024H10.5V2.75024ZM21.25 10.5002V11.5002H22.75V10.5002H21.25ZM2.75 11.5002V10.5002H1.25V11.5002H2.75ZM1.25 11.5002C1.25 12.6548 1.24959 13.5583 1.29931 14.2871C1.3495 15.0225 1.45323 15.6346 1.68769 16.2007L3.07351 15.6266C2.92737 15.2738 2.84081 14.8441 2.79584 14.185C2.75041 13.5191 2.75 12.6754 2.75 11.5002H1.25ZM7.8025 18.2418C6.54706 18.2202 5.88923 18.1403 5.37359 17.9267L4.79957 19.3126C5.60454 19.646 6.52138 19.72 7.77666 19.7416L7.8025 18.2418ZM1.68769 16.2007C2.27128 17.6096 3.39066 18.729 4.79957 19.3126L5.3736 17.9267C4.33223 17.4954 3.50486 16.668 3.07351 15.6266L1.68769 16.2007ZM21.25 11.5002C21.25 12.6754 21.2496 13.5191 21.2042 14.185C21.1592 14.8441 21.0726 15.2738 20.9265 15.6266L22.3123 16.2007C22.5468 15.6346 22.6505 15.0225 22.7007 14.2871C22.7504 13.5583 22.75 12.6548 22.75 11.5002H21.25ZM16.2233 19.7416C17.4786 19.72 18.3955 19.646 19.2004 19.3126L18.6264 17.9267C18.1108 18.1403 17.4529 18.2202 16.1975 18.2418L16.2233 19.7416ZM20.9265 15.6266C20.4951 16.668 19.6678 17.4954 18.6264 17.9267L19.2004 19.3126C20.6093 18.729 21.7287 17.6096 22.3123 16.2007L20.9265 15.6266ZM13.5 2.75024C15.1512 2.75024 16.337 2.75104 17.2619 2.83898C18.1757 2.92586 18.7571 3.09247 19.2206 3.37652L20.0044 2.09756C19.2655 1.64481 18.4274 1.44303 17.4039 1.34571C16.3915 1.24945 15.1222 1.25024 13.5 1.25024V2.75024ZM22.75 10.5002C22.75 8.87805 22.7508 7.60874 22.6545 6.59635C22.5572 5.5728 22.3554 4.7347 21.9027 3.99588L20.6237 4.77962C20.9078 5.24315 21.0744 5.82458 21.1613 6.73833C21.2492 7.66325 21.25 8.84901 21.25 10.5002H22.75ZM19.2206 3.37652C19.7925 3.72696 20.2733 4.20776 20.6237 4.77963L21.9027 3.99588C21.4286 3.22218 20.7781 2.57168 20.0044 2.09756L19.2206 3.37652ZM10.5 1.25024C8.87781 1.25024 7.6085 1.24945 6.59611 1.34571C5.57256 1.44303 4.73445 1.64481 3.99563 2.09756L4.77938 3.37652C5.24291 3.09247 5.82434 2.92586 6.73809 2.83898C7.663 2.75104 8.84876 2.75024 10.5 2.75024V1.25024ZM2.75 10.5002C2.75 8.84901 2.75079 7.66325 2.83873 6.73833C2.92561 5.82458 3.09223 5.24315 3.37628 4.77963L2.09732 3.99588C1.64457 4.7347 1.44279 5.5728 1.34547 6.59635C1.24921 7.60874 1.25 8.87805 1.25 10.5002H2.75ZM3.99563 2.09756C3.22194 2.57168 2.57144 3.22218 2.09732 3.99588L3.37628 4.77963C3.72672 4.20776 4.20752 3.72696 4.77938 3.37652L3.99563 2.09756ZM11.0166 20.0901C10.8136 19.747 10.6354 19.4444 10.4621 19.2066C10.2795 18.9562 10.0702 18.7306 9.77986 18.5618L9.02572 19.8584C9.07313 19.886 9.13772 19.9362 9.24985 20.0901C9.37122 20.2566 9.50835 20.4867 9.72579 20.8541L11.0166 20.0901ZM7.77666 19.7416C8.21575 19.7492 8.49387 19.7547 8.70588 19.7782C8.90399 19.8001 8.98078 19.8323 9.02572 19.8584L9.77986 18.5618C9.4871 18.3915 9.18246 18.3218 8.87097 18.2873C8.57339 18.2543 8.21375 18.2489 7.8025 18.2418L7.77666 19.7416ZM14.2742 20.8541C14.4916 20.4867 14.6287 20.2566 14.7501 20.0901C14.8622 19.9362 14.9268 19.886 14.9742 19.8584L14.2201 18.5618C13.9298 18.7306 13.7204 18.9562 13.5379 19.2066C13.3646 19.4444 13.1864 19.747 12.9833 20.0901L14.2742 20.8541ZM16.1975 18.2418C15.7862 18.2489 15.4266 18.2543 15.129 18.2873C14.8175 18.3218 14.5129 18.3915 14.2201 18.5618L14.9742 19.8584C15.0192 19.8323 15.096 19.8001 15.2941 19.7782C15.5061 19.7547 15.7842 19.7492 16.2233 19.7416L16.1975 18.2418Z" fill="#1C274C"/>
<path d="M10.9901 14.3085L11.435 13.7047H11.435L10.9901 14.3085ZM12 8.1064L11.4641 8.63111C11.6052 8.77519 11.7983 8.8564 12 8.8564C12.2017 8.8564 12.3948 8.77519 12.5359 8.63111L12 8.1064ZM13.0099 14.3085L12.565 13.7047L12.565 13.7047L13.0099 14.3085ZM12 14.8106L12 14.0606H12L12 14.8106ZM11.435 13.7047C10.7914 13.2304 9.96746 12.5571 9.31176 11.8082C8.63279 11.0328 8.25 10.3066 8.25 9.71501H6.75C6.75 10.876 7.44886 11.9576 8.18323 12.7964C8.94088 13.6616 9.86191 14.4087 10.5451 14.9122L11.435 13.7047ZM8.25 9.71501C8.25 8.60727 8.74454 8.02398 9.25333 7.83373C9.77052 7.64034 10.5951 7.74356 11.4641 8.63111L12.5359 7.58169C11.38 6.40115 9.95456 5.97009 8.72797 6.42874C7.49299 6.89052 6.75 8.14557 6.75 9.71501H8.25ZM13.4549 14.9122C14.1381 14.4087 15.0591 13.6617 15.8168 12.7964C16.5511 11.9577 17.25 10.876 17.25 9.71499H15.75C15.75 10.3066 15.3672 11.0328 14.6882 11.8082C14.0325 12.5571 13.2086 13.2304 12.565 13.7047L13.4549 14.9122ZM17.25 9.71499C17.25 8.14556 16.507 6.89052 15.272 6.42873C14.0454 5.97009 12.62 6.40115 11.4641 7.58169L12.5359 8.63111C13.4049 7.74356 14.2295 7.64034 14.7467 7.83373C15.2555 8.02397 15.75 8.60727 15.75 9.71499H17.25ZM10.5451 14.9122C10.9368 15.2009 11.3752 15.5606 12 15.5606L12 14.0606C11.9852 14.0606 11.9682 14.0629 11.899 14.0254C11.8008 13.9723 11.678 13.8838 11.435 13.7047L10.5451 14.9122ZM12.565 13.7047C12.322 13.8838 12.1992 13.9723 12.101 14.0254C12.0318 14.0629 12.0148 14.0606 12 14.0606L12 15.5606C12.6248 15.5606 13.0632 15.2009 13.4549 14.9122L12.565 13.7047Z" fill="#1C274C"/>
</svg>
