<svg width="24" height="24" viewBox="0 0 24 24" fill="none" xmlns="http://www.w3.org/2000/svg">
<path d="M9 12.0002C9 12.5525 8.55228 13.0002 8 13.0002C7.44772 13.0002 7 12.5525 7 12.0002C7 11.448 7.44772 11.0002 8 11.0002C8.55228 11.0002 9 11.448 9 12.0002Z" fill="#1C274C"/>
<path d="M13 12.0002C13 12.5525 12.5523 13.0002 12 13.0002C11.4477 13.0002 11 12.5525 11 12.0002C11 11.448 11.4477 11.0002 12 11.0002C12.5523 11.0002 13 11.448 13 12.0002Z" fill="#1C274C"/>
<path d="M17 12.0002C17 12.5525 16.5523 13.0002 16 13.0002C15.4477 13.0002 15 12.5525 15 12.0002C15 11.448 15.4477 11.0002 16 11.0002C16.5523 11.0002 17 11.448 17 12.0002Z" fill="#1C274C"/>
<path d="M12 22.0002C17.5228 22.0002 22 17.5231 22 12.0002C22 6.4774 17.5228 2.00024 12 2.00024C6.47715 2.00024 2 6.4774 2 12.0002C2 13.5999 2.37562 15.1119 3.04346 16.4527C3.22094 16.809 3.28001 17.2163 3.17712 17.6009L2.58151 19.8269C2.32295 20.7932 3.20701 21.6773 4.17335 21.4187L6.39939 20.8231C6.78393 20.7202 7.19121 20.7793 7.54753 20.9568C8.88837 21.6246 10.4003 22.0002 12 22.0002Z" stroke="#1C274C" stroke-width="1.5"/>
</svg>
