<svg width="24" height="24" viewBox="0 0 24 24" fill="none" xmlns="http://www.w3.org/2000/svg">
<path d="M16 4.00037C18.175 4.01247 19.3529 4.10892 20.1213 4.87731C21 5.75599 21 7.1702 21 9.99863V15.9986C21 18.8271 21 20.2413 20.1213 21.1199C19.2426 21.9986 17.8284 21.9986 15 21.9986H9C6.17157 21.9986 4.75736 21.9986 3.87868 21.1199C3 20.2413 3 18.8271 3 15.9986V9.99863C3 7.1702 3 5.75599 3.87868 4.87731C4.64706 4.10892 5.82497 4.01247 8 4.00037" stroke="#000000" stroke-width="1.5"/>
<path d="M12 11.6917L11.4813 12.2334C11.7713 12.5111 12.2287 12.5111 12.5187 12.2334L12 11.6917ZM12 15.8279L12 15.0779L12 15.8279ZM11.4865 14.7612C11.0686 14.4546 10.6081 14.0716 10.2595 13.6685C9.89122 13.2427 9.75 12.9117 9.75 12.6971H8.25C8.25 13.4669 8.6912 14.1482 9.1249 14.6497C9.57819 15.1738 10.1391 15.6331 10.5992 15.9706L11.4865 14.7612ZM9.75 12.6971C9.75 12.121 10.0126 11.8704 10.2419 11.79C10.4922 11.7023 10.9558 11.7302 11.4813 12.2334L12.5187 11.15C11.6943 10.3606 10.6579 10.0547 9.74566 10.3745C8.81245 10.7016 8.25 11.5999 8.25 12.6971H9.75ZM13.4008 15.9706C13.8609 15.6331 14.4218 15.1738 14.8751 14.6497C15.3088 14.1482 15.75 13.4669 15.75 12.6971H14.25C14.25 12.9117 14.1088 13.2427 13.7405 13.6685C13.3919 14.0716 12.9314 14.4546 12.5135 14.7613L13.4008 15.9706ZM15.75 12.6971C15.75 11.5999 15.1875 10.7016 14.2543 10.3745C13.3421 10.0547 12.3057 10.3606 11.4813 11.15L12.5187 12.2334C13.0442 11.7302 13.5078 11.7023 13.7581 11.79C13.9874 11.8704 14.25 12.121 14.25 12.6971H15.75ZM10.5992 15.9706C10.9678 16.2411 11.3816 16.5779 12 16.5779L12 15.0779C11.9756 15.0779 11.9605 15.0779 11.9061 15.0491C11.8202 15.0038 11.7128 14.9272 11.4865 14.7612L10.5992 15.9706ZM12.5135 14.7613C12.2872 14.9272 12.1798 15.0038 12.0939 15.0491C12.0395 15.0779 12.0244 15.0779 12 15.0779L12 16.5779C12.6184 16.5779 13.0322 16.2411 13.4008 15.9706L12.5135 14.7613Z" fill="#000000"/>
<path d="M8 3.50037C8 2.67194 8.67157 2.00037 9.5 2.00037H14.5C15.3284 2.00037 16 2.67194 16 3.50037V4.50037C16 5.32879 15.3284 6.00037 14.5 6.00037H9.5C8.67157 6.00037 8 5.32879 8 4.50037V3.50037Z" stroke="#000000" stroke-width="1.5"/>
</svg>
