<svg width="24" height="24" viewBox="0 0 24 24" fill="none" xmlns="http://www.w3.org/2000/svg">
<path d="M16 4.00208C18.175 4.01418 19.3529 4.11063 20.1213 4.87902C21 5.7577 21 7.17191 21 10.0003V16.0003C21 18.8288 21 20.243 20.1213 21.1217C19.2426 22.0003 17.8284 22.0003 15 22.0003H9C6.17157 22.0003 4.75736 22.0003 3.87868 21.1217C3 20.243 3 18.8288 3 16.0003V10.0003C3 7.17191 3 5.7577 3.87868 4.87902C4.64706 4.11063 5.82497 4.01418 8 4.00208" stroke="#1C274C" stroke-width="1.5"/>
<path d="M8 14.0004H16" stroke="#1C274C" stroke-width="1.5" stroke-linecap="round"/>
<path d="M7 10.5004H17" stroke="#1C274C" stroke-width="1.5" stroke-linecap="round"/>
<path d="M9 17.5004H15" stroke="#1C274C" stroke-width="1.5" stroke-linecap="round"/>
<path d="M8 3.50037C8 2.67194 8.67157 2.00037 9.5 2.00037H14.5C15.3284 2.00037 16 2.67194 16 3.50037V4.50037C16 5.32879 15.3284 6.00037 14.5 6.00037H9.5C8.67157 6.00037 8 5.32879 8 4.50037V3.50037Z" stroke="#1C274C" stroke-width="1.5"/>
</svg>
