<svg width="24" height="24" viewBox="0 0 24 24" fill="none" xmlns="http://www.w3.org/2000/svg">
<path d="M16 4.00037C18.175 4.01247 19.3529 4.10892 20.1213 4.87731C21 5.75599 21 7.1702 21 9.99863V15.9986C21 18.8271 21 20.2413 20.1213 21.1199C19.2426 21.9986 17.8284 21.9986 15 21.9986H9C6.17157 21.9986 4.75736 21.9986 3.87868 21.1199C3 20.2413 3 18.8271 3 15.9986V9.99863C3 7.1702 3 5.75599 3.87868 4.87731C4.64706 4.10892 5.82497 4.01247 8 4.00037" stroke="#000000" stroke-width="1.5"/>
<path d="M9 13.4004L10.7143 15.0004L15 11.0004" stroke="#000000" stroke-width="1.5" stroke-linecap="round" stroke-linejoin="round"/>
<path d="M8 3.50037C8 2.67194 8.67157 2.00037 9.5 2.00037H14.5C15.3284 2.00037 16 2.67194 16 3.50037V4.50037C16 5.32879 15.3284 6.00037 14.5 6.00037H9.5C8.67157 6.00037 8 5.32879 8 4.50037V3.50037Z" stroke="#000000" stroke-width="1.5"/>
</svg>
