<svg width="24" height="24" viewBox="0 0 24 24" fill="none" xmlns="http://www.w3.org/2000/svg">
<path d="M19 22.0001V20.5001M5 22.0001V20.5001" stroke="#1C274C" stroke-width="1.5" stroke-linecap="round"/>
<path d="M12 20.0001V2.00012" stroke="#1C274C" stroke-width="1.5" stroke-linecap="round"/>
<path d="M15 9.00012V13.0001" stroke="#1C274C" stroke-width="1.5" stroke-linecap="round"/>
<path d="M9 9.00012V13.0001" stroke="#1C274C" stroke-width="1.5" stroke-linecap="round"/>
<path d="M2 10.0001C2 6.22889 2 4.34327 3.17157 3.17169C4.34315 2.00012 6.22876 2.00012 10 2.00012H14C17.7712 2.00012 19.6569 2.00012 20.8284 3.17169C22 4.34327 22 6.22889 22 10.0001V12.0001C22 15.7714 22 17.657 20.8284 18.8285C19.6569 20.0001 17.7712 20.0001 14 20.0001H10C6.22876 20.0001 4.34315 20.0001 3.17157 18.8285C2 17.657 2 15.7714 2 12.0001V10.0001Z" stroke="#1C274C" stroke-width="1.5"/>
</svg>
