<svg width="24" height="24" viewBox="0 0 24 24" fill="none" xmlns="http://www.w3.org/2000/svg">
<path d="M19 22.0001V21.5001M5 22.0001V21.5001" stroke="#000000" stroke-width="1.5" stroke-linecap="round"/>
<path d="M12 21.0001V2.00012" stroke="#000000" stroke-width="1.5" stroke-linecap="round"/>
<path d="M15 8.00012V10.0001" stroke="#000000" stroke-width="1.5" stroke-linecap="round"/>
<path d="M2 10.0001C2 6.22889 2 4.34327 3.17157 3.17169C4.34315 2.00012 6.22876 2.00012 10 2.00012H14C17.7712 2.00012 19.6569 2.00012 20.8284 3.17169C22 4.34327 22 6.22889 22 10.0001V13.0001C22 16.7714 22 18.657 20.8284 19.8285C19.6569 21.0001 17.7712 21.0001 14 21.0001H10C6.22876 21.0001 4.34315 21.0001 3.17157 19.8285C2 18.657 2 16.7714 2 13.0001V10.0001Z" stroke="#000000" stroke-width="1.5"/>
<path d="M2 8.00012H12" stroke="#000000" stroke-width="1.5" stroke-linecap="round"/>
<path d="M2 15.0001H22" stroke="#000000" stroke-width="1.5" stroke-linecap="round"/>
<path d="M15 18.0001L17 18.0001" stroke="#000000" stroke-width="1.5" stroke-linecap="round"/>
<path d="M7 18.0001L9 18.0001" stroke="#000000" stroke-width="1.5" stroke-linecap="round"/>
</svg>
