<svg width="24" height="24" viewBox="0 0 24 24" fill="none" xmlns="http://www.w3.org/2000/svg">
<path d="M5.5 15.5005C5.5 14.5577 5.5 14.0863 5.79289 13.7934C6.08579 13.5005 6.55719 13.5005 7.5 13.5005H8.5C9.44281 13.5005 9.91421 13.5005 10.2071 13.7934C10.5 14.0863 10.5 14.5577 10.5 15.5005V16.5005C10.5 17.4433 10.5 17.9147 10.2071 18.2076C9.91421 18.5005 9.44281 18.5005 8.5 18.5005C7.08579 18.5005 6.37868 18.5005 5.93934 18.0611C5.5 17.6218 5.5 16.9147 5.5 15.5005Z" stroke="#000000" stroke-width="1.5"/>
<path d="M5.5 8.50049C5.5 7.08627 5.5 6.37917 5.93934 5.93983C6.37868 5.50049 7.08579 5.50049 8.5 5.50049C9.44281 5.50049 9.91421 5.50049 10.2071 5.79338C10.5 6.08627 10.5 6.55768 10.5 7.50049V8.50049C10.5 9.4433 10.5 9.9147 10.2071 10.2076C9.91421 10.5005 9.44281 10.5005 8.5 10.5005H7.5C6.55719 10.5005 6.08579 10.5005 5.79289 10.2076C5.5 9.9147 5.5 9.4433 5.5 8.50049Z" stroke="#000000" stroke-width="1.5"/>
<path d="M13.5 15.5005C13.5 14.5577 13.5 14.0863 13.7929 13.7934C14.0858 13.5005 14.5572 13.5005 15.5 13.5005H16.5C17.4428 13.5005 17.9142 13.5005 18.2071 13.7934C18.5 14.0863 18.5 14.5577 18.5 15.5005C18.5 16.9147 18.5 17.6218 18.0607 18.0611C17.6213 18.5005 16.9142 18.5005 15.5 18.5005C14.5572 18.5005 14.0858 18.5005 13.7929 18.2076C13.5 17.9147 13.5 17.4433 13.5 16.5005V15.5005Z" stroke="#000000" stroke-width="1.5"/>
<path d="M13.5 7.50049C13.5 6.55768 13.5 6.08627 13.7929 5.79338C14.0858 5.50049 14.5572 5.50049 15.5 5.50049C16.9142 5.50049 17.6213 5.50049 18.0607 5.93983C18.5 6.37917 18.5 7.08627 18.5 8.50049C18.5 9.4433 18.5 9.9147 18.2071 10.2076C17.9142 10.5005 17.4428 10.5005 16.5 10.5005H15.5C14.5572 10.5005 14.0858 10.5005 13.7929 10.2076C13.5 9.9147 13.5 9.4433 13.5 8.50049V7.50049Z" stroke="#000000" stroke-width="1.5"/>
<path d="M22 14.0005C22 17.7717 22 19.6573 20.8284 20.8289C19.6569 22.0005 17.7712 22.0005 14 22.0005" stroke="#000000" stroke-width="1.5" stroke-linecap="round"/>
<path d="M10 22.0005C6.22876 22.0005 4.34315 22.0005 3.17157 20.8289C2 19.6573 2 17.7717 2 14.0005" stroke="#000000" stroke-width="1.5" stroke-linecap="round"/>
<path d="M10 2.00049C6.22876 2.00049 4.34315 2.00049 3.17157 3.17206C2 4.34363 2 6.22925 2 10.0005" stroke="#000000" stroke-width="1.5" stroke-linecap="round"/>
<path d="M14 2.00049C17.7712 2.00049 19.6569 2.00049 20.8284 3.17206C22 4.34363 22 6.22925 22 10.0005" stroke="#000000" stroke-width="1.5" stroke-linecap="round"/>
</svg>
