<svg width="24" height="24" viewBox="0 0 24 24" fill="none" xmlns="http://www.w3.org/2000/svg">
<path d="M8 8.00037H16V16.0004H8V8.00037Z" stroke="#000000" stroke-width="1.5"/>
<path d="M16 16.0013L19 16.0009C20.6569 16.0006 22.0002 17.3435 22.0005 19.0004C22.0007 20.6572 20.6578 22.0006 19.0009 22.0009C17.3441 22.0011 16.0007 20.6582 16.0005 19.0013L16 16.0013Z" stroke="#000000" stroke-width="1.5"/>
<path d="M8.00098 16.0013L5.00098 16.0009C3.34412 16.0006 2.00076 17.3435 2.0005 19.0004C2.00024 20.6572 3.34318 22.0006 5.00003 22.0009C6.65689 22.0011 8.00024 20.6582 8.0005 19.0013L8.00098 16.0013Z" stroke="#000000" stroke-width="1.5"/>
<path d="M16 8.00038L19 8.00085C20.6569 8.00112 22.0002 6.65818 22.0005 5.00133C22.0007 3.34447 20.6578 2.00112 19.0009 2.00085C17.3441 2.00059 16.0007 3.34353 16.0005 5.00038L16 8.00038Z" stroke="#000000" stroke-width="1.5"/>
<path d="M8.00098 8.00038L5.00098 8.00085C3.34412 8.00112 2.00076 6.65818 2.0005 5.00133C2.00024 3.34447 3.34318 2.00112 5.00003 2.00085C6.65689 2.00059 8.00024 3.34353 8.0005 5.00038L8.00098 8.00038Z" stroke="#000000" stroke-width="1.5"/>
</svg>
