<svg width="24" height="24" viewBox="0 0 24 24" fill="none" xmlns="http://www.w3.org/2000/svg">
<circle cx="12" cy="12.0002" r="10" stroke="#1C274C" stroke-width="1.5"/>
<path d="M13.024 14.5603C10.7142 15.4842 9.5593 15.9462 8.89964 15.4979C8.74324 15.3917 8.60834 15.2568 8.50206 15.1004C8.0538 14.4407 8.51575 13.2858 9.43967 10.976C9.63673 10.4834 9.73527 10.237 9.90474 10.0438C9.94792 9.99453 9.99429 9.94817 10.0435 9.90498C10.2368 9.73551 10.4831 9.63698 10.9758 9.43991C13.2856 8.516 14.4405 8.05404 15.1001 8.5023C15.2565 8.60858 15.3914 8.74348 15.4977 8.89989C15.946 9.55954 15.484 10.7144 14.5601 13.0242C14.363 13.5169 14.2645 13.7632 14.095 13.9565C14.0518 14.0057 14.0055 14.0521 13.9562 14.0953C13.763 14.2647 13.5166 14.3633 13.024 14.5603Z" stroke="#1C274C" stroke-width="1.5"/>
</svg>
