<svg width="24" height="24" viewBox="0 0 24 24" fill="none" xmlns="http://www.w3.org/2000/svg">
<path d="M13.0241 14.5605C10.7143 15.4844 9.55942 15.9463 8.89976 15.4981C8.74336 15.3918 8.60846 15.2569 8.50218 15.1005C8.05392 14.4408 8.51588 13.2859 9.43979 10.9762C9.63686 10.4835 9.73539 10.2372 9.90486 10.0439C9.94804 9.99465 9.99441 9.94829 10.0437 9.9051C10.2369 9.73563 10.4832 9.6371 10.9759 9.44003C13.2857 8.51612 14.4406 8.05416 15.1002 8.50242C15.2566 8.60871 15.3915 8.7436 15.4978 8.90001C15.9461 9.55966 15.4841 10.7146 14.5602 13.0243C14.3631 13.517 14.2646 13.7633 14.0951 13.9566C14.052 14.0058 14.0056 14.0522 13.9563 14.0954C13.7631 14.2649 13.5168 14.3634 13.0241 14.5605Z" stroke="#1C274C" stroke-width="1.5"/>
<path d="M2 12.0002C2 7.2862 2 4.92918 3.46447 3.46471C4.92893 2.00024 7.28595 2.00024 12 2.00024C16.714 2.00024 19.0711 2.00024 20.5355 3.46471C22 4.92918 22 7.2862 22 12.0002C22 16.7143 22 19.0713 20.5355 20.5358C19.0711 22.0002 16.714 22.0002 12 22.0002C7.28595 22.0002 4.92893 22.0002 3.46447 20.5358C2 19.0713 2 16.7143 2 12.0002Z" stroke="#1C274C" stroke-width="1.5"/>
</svg>
