<svg width="24" height="24" viewBox="0 0 24 24" fill="none" xmlns="http://www.w3.org/2000/svg">
<path d="M14.7898 18.9748C8.49749 21.4918 5.35132 22.7502 3.55428 21.5291C3.1282 21.2395 2.76071 20.872 2.47117 20.446C1.25001 18.6489 2.50848 15.5028 5.02542 9.21041C5.56228 7.86827 5.8307 7.19719 6.29238 6.67073C6.41002 6.53657 6.53633 6.41027 6.67048 6.29262C7.19695 5.83095 7.86802 5.56252 9.21017 5.02566C15.5025 2.50872 18.6487 1.25026 20.4457 2.47141C20.8718 2.76095 21.2393 3.12844 21.5288 3.55452C22.75 5.35157 21.4915 8.49774 18.9746 14.7901C18.4377 16.1322 18.1693 16.8033 17.7076 17.3298C17.59 17.4639 17.4637 17.5902 17.3295 17.7079C16.8031 18.1695 16.132 18.438 14.7898 18.9748Z" stroke="#1C274C" stroke-width="1.5"/>
<circle cx="12" cy="12.0002" r="3" stroke="#1C274C" stroke-width="1.5"/>
</svg>
