<svg width="24" height="24" viewBox="0 0 24 24" fill="none" xmlns="http://www.w3.org/2000/svg">
<path d="M2 7.57155C2 5.15744 2 3.95038 2.65451 3.12965C2.79456 2.95403 2.9539 2.79469 3.12953 2.65463C3.95025 2.00012 5.15731 2.00012 7.57143 2.00012H16.4286C18.8427 2.00012 20.0497 2.00012 20.8705 2.65463C21.0461 2.79469 21.2054 2.95403 21.3455 3.12965C22 3.95038 22 5.15743 22 7.57155C22 10.7904 22 12.3998 21.1273 13.4941C20.9406 13.7283 20.7281 13.9407 20.494 14.1274C19.3997 15.0001 17.7903 15.0001 14.5714 15.0001H9.42857C6.20975 15.0001 4.60034 15.0001 3.50604 14.1274C3.27187 13.9407 3.05942 13.7283 2.87267 13.4941C2 12.3998 2 10.7904 2 7.57155Z" stroke="#000000" stroke-width="1.5"/>
<path d="M7.00008 17.5001L6.69345 17.9601C6.30444 18.5436 6.43904 19.3293 7.00008 19.7501C7.56111 20.1709 7.69571 20.9567 7.3067 21.5402L7.00008 22.0001M12.0001 17.5001L11.6935 17.9601C11.3044 18.5436 11.439 19.3293 12.0001 19.7501C12.5611 20.1709 12.6957 20.9567 12.3067 21.5402L12.0001 22.0001M17.0001 17.5001L16.6935 17.9601C16.3044 18.5436 16.439 19.3293 17.0001 19.7501C17.5611 20.1709 17.6957 20.9567 17.3067 21.5402L17.0001 22.0001" stroke="#000000" stroke-width="1.5" stroke-linecap="round"/>
<path d="M18.0001 14.5001C18.0001 14.0355 18.0001 13.8031 17.9616 13.6099C17.8038 12.8166 17.1836 12.1964 16.3902 12.0386C16.197 12.0001 15.9647 12.0001 15.5001 12.0001H9.00005C8.06817 12.0001 7.60223 12.0001 7.23468 12.1524C6.74463 12.3554 6.35528 12.7447 6.15229 13.2348C6.03009 13.5298 6.00598 13.8882 6.00122 14.5001" stroke="#000000" stroke-width="1.5" stroke-linecap="round"/>
<path d="M6 8.50012H18" stroke="#000000" stroke-width="1.5" stroke-linecap="round"/>
<path d="M6 6.00012H18" stroke="#000000" stroke-width="1.5" stroke-linecap="round"/>
</svg>
