<svg width="24" height="24" viewBox="0 0 24 24" fill="none" xmlns="http://www.w3.org/2000/svg">
<path d="M2 11.0001C2 8.17169 2 6.75748 2.87868 5.8788C3.75736 5.00012 5.17157 5.00012 8 5.00012H16C18.8284 5.00012 20.2426 5.00012 21.1213 5.8788C22 6.75748 22 8.17169 22 11.0001C22 14.7714 22 16.657 20.8284 17.8286C19.6569 19.0001 17.7712 19.0001 14 19.0001H10C6.22876 19.0001 4.34315 19.0001 3.17157 17.8286C2 16.657 2 14.7714 2 11.0001Z" stroke="#000000" stroke-width="1.5"/>
<path d="M18 18.5001C18 17.0957 18 16.3934 17.6629 15.889C17.517 15.6706 17.3295 15.4831 17.1111 15.3372C16.6067 15.0001 15.9045 15.0001 14.5 15.0001H9.5C8.09554 15.0001 7.39331 15.0001 6.88886 15.3372C6.67048 15.4831 6.48298 15.6706 6.33706 15.889C6 16.3934 6 17.0957 6 18.5001" stroke="#000000" stroke-width="1.5" stroke-linecap="round"/>
<path d="M6 11.5001H18" stroke="#000000" stroke-width="1.5" stroke-linecap="round"/>
<path d="M6 9.00012H18" stroke="#000000" stroke-width="1.5" stroke-linecap="round"/>
</svg>
