<svg width="24" height="24" viewBox="0 0 24 24" fill="none" xmlns="http://www.w3.org/2000/svg">
<path d="M4.01207 15.7618L5.70156 10.6933C6.46758 8.39525 6.85059 7.24623 7.75684 7.03229C8.6631 6.81835 9.51953 7.67478 11.2324 9.38764L14.6114 12.7666C16.3242 14.4795 17.1807 15.3359 16.9667 16.2422C16.7528 17.1484 15.6038 17.5314 13.3057 18.2975L8.23724 19.987C5.47183 20.9088 4.08912 21.3697 3.35924 20.6398C2.62936 19.9099 3.09026 18.5272 4.01207 15.7618Z" stroke="#1C274C" stroke-width="1.5" stroke-linecap="round"/>
<path d="M12.2351 18.3463C12.2351 18.3463 11.477 16.0652 11.477 14.5554C11.477 13.0457 12.2351 10.7646 12.2351 10.7646M8.06517 19.4836C8.06517 19.4836 7.42484 16.7317 7.307 14.9345C7.11229 11.9653 8.06517 7.35278 8.06517 7.35278" stroke="#1C274C" stroke-width="1.5" stroke-linecap="round"/>
<path d="M14.5093 10.0061L14.6533 9.28614C14.7986 8.55924 15.3224 7.96597 16.0256 7.73155C16.7289 7.49714 17.2526 6.90387 17.398 6.17697L17.542 5.45703" stroke="#1C274C" stroke-width="1.5" stroke-linecap="round"/>
<path d="M17.5691 12.2536L17.7819 12.3765C18.4391 12.7558 19.2652 12.6722 19.8329 12.1688C20.347 11.7129 21.0792 11.5973 21.7087 11.8725L22.0002 12" stroke="#1C274C" stroke-width="1.5" stroke-linecap="round"/>
<path d="M10.5352 3C10.1977 3.55206 10.2823 4.26344 10.7399 4.72097L10.8377 4.81885C11.2309 5.21201 11.3759 5.78959 11.215 6.32182" stroke="#1C274C" stroke-width="1.5" stroke-linecap="round"/>
<path d="M13.561 4.39623C13.7621 4.19518 13.8626 4.09465 13.9788 4.0578C14.0772 4.02663 14.1827 4.02663 14.281 4.0578C14.3973 4.09465 14.4978 4.19518 14.6989 4.39623C14.8999 4.59729 15.0004 4.69782 15.0373 4.81405C15.0685 4.91237 15.0685 5.01792 15.0373 5.11624C15.0004 5.23248 14.8999 5.33301 14.6989 5.53406C14.4978 5.73512 14.3973 5.83565 14.281 5.8725C14.1827 5.90366 14.0772 5.90366 13.9788 5.8725C13.8626 5.83565 13.7621 5.73512 13.561 5.53406C13.36 5.33301 13.2594 5.23248 13.2226 5.11624C13.1914 5.01792 13.1914 4.91237 13.2226 4.81405C13.2594 4.69782 13.36 4.59729 13.561 4.39623Z" fill="#1C274C"/>
<path d="M19.4682 7.46822C19.7136 7.22283 19.8363 7.10014 19.9747 7.04681C20.1367 6.9844 20.3161 6.9844 20.4781 7.04681C20.6165 7.10014 20.7392 7.22283 20.9846 7.46822C21.23 7.71362 21.3527 7.83631 21.406 7.97472C21.4684 8.1367 21.4684 8.31609 21.406 8.47807C21.3527 8.61649 21.23 8.73918 20.9846 8.98457C20.7392 9.22996 20.6165 9.35266 20.4781 9.40599C20.3161 9.4684 20.1367 9.4684 19.9747 9.40599C19.8363 9.35266 19.7136 9.22996 19.4682 8.98457C19.2228 8.73918 19.1001 8.61649 19.0468 8.47807C18.9844 8.31609 18.9844 8.1367 19.0468 7.97472C19.1001 7.83631 19.2228 7.71362 19.4682 7.46822Z" fill="#1C274C"/>
<path d="M6.92737 3.94079C7.13683 3.73132 7.47645 3.73132 7.68592 3.94079C7.89539 4.15026 7.89539 4.48988 7.68592 4.69935C7.47645 4.90882 7.13683 4.90882 6.92737 4.69935C6.7179 4.48988 6.7179 4.15026 6.92737 3.94079Z" fill="#1C274C"/>
<path d="M19.0582 15.3134C19.2677 15.1039 19.6073 15.1039 19.8168 15.3134C20.0262 15.5228 20.0262 15.8624 19.8168 16.0719C19.6073 16.2814 19.2677 16.2814 19.0582 16.0719C18.8488 15.8624 18.8488 15.5228 19.0582 15.3134Z" fill="#1C274C"/>
<path d="M17.5 9.74145C17.7095 9.53198 18.0491 9.53198 18.2586 9.74145C18.468 9.95092 18.468 10.2905 18.2586 10.5C18.0491 10.7095 17.7095 10.7095 17.5 10.5C17.2905 10.2905 17.2905 9.95092 17.5 9.74145Z" fill="#1C274C"/>
</svg>
