<svg width="24" height="24" viewBox="0 0 24 24" fill="none" xmlns="http://www.w3.org/2000/svg">
<path d="M18.2612 13.4824L18.7915 12.952L18.2612 13.4824ZM10.5177 5.73897L9.98742 6.2693L10.5177 5.73897ZM13.6151 2.64161L13.0848 3.17194L13.6151 2.64161ZM21.3585 10.385L21.8888 9.85468L21.3585 10.385ZM1.46967 21.4698C1.17678 21.7627 1.17678 22.2376 1.46967 22.5305C1.76256 22.8233 2.23744 22.8233 2.53033 22.5305L1.46967 21.4698ZM4.55227 19.4479L4.02194 18.9175L4.55227 19.4479ZM4.767 18.2053L4.08919 18.5264H4.08919L4.767 18.2053ZM3.81775 16.2013L3.13994 16.5224L3.13994 16.5224L3.81775 16.2013ZM4.60611 15.5047L4.20405 16.1379L4.20405 16.1379L4.60611 15.5047ZM11.3132 19.764L11.7152 19.1309H11.7152L11.3132 19.764ZM12.0559 18.9887L11.4406 19.4175L12.0559 18.9887ZM6.46344 10.9647L5.84814 11.3935L6.46344 10.9647ZM7.22572 10.2024L7.65457 9.58711H7.65457L7.22572 10.2024ZM12.7735 14.069L12.3446 14.6843V14.6843L12.7735 14.069ZM13.5529 13.3329L12.9141 13.7259V13.7259L13.5529 13.3329ZM12.9069 12.2832L13.5457 11.8901H13.5457L12.9069 12.2832ZM14.9198 10.141C15.2127 9.84811 15.2127 9.37324 14.9198 9.08034C14.6269 8.78745 14.152 8.78745 13.8591 9.08034L14.9198 10.141ZM21.8888 9.85468L14.1454 2.11128L13.0848 3.17194L20.8282 10.9153L21.8888 9.85468ZM9.98742 6.2693L17.7308 14.0127L18.7915 12.952L11.0481 5.20864L9.98742 6.2693ZM17.7308 14.0127C18.879 15.1609 20.7406 15.1609 21.8888 14.0127L20.8282 12.952C20.2658 13.5145 19.3539 13.5145 18.7915 12.952L17.7308 14.0127ZM9.98742 2.11128C8.83921 3.25948 8.83921 5.12109 9.98742 6.2693L11.0481 5.20864C10.4857 4.64622 10.4857 3.73436 11.0481 3.17194L9.98742 2.11128ZM14.1454 2.11128C12.9972 0.963071 11.1356 0.963071 9.98742 2.11128L11.0481 3.17194C11.6105 2.60952 12.5224 2.60952 13.0848 3.17194L14.1454 2.11128ZM20.8282 10.9153C21.3906 11.4778 21.3906 12.3896 20.8282 12.952L21.8888 14.0127C23.0371 12.8645 23.0371 11.0029 21.8888 9.85468L20.8282 10.9153ZM2.53033 22.5305L5.0826 19.9782L4.02194 18.9175L1.46967 21.4698L2.53033 22.5305ZM5.4448 17.8843L4.49555 15.8803L3.13994 16.5224L4.08919 18.5264L5.4448 17.8843ZM4.20405 16.1379L10.9111 20.3971L11.7152 19.1309L5.00816 14.8716L4.20405 16.1379ZM12.6712 18.5598L7.07874 10.5358L5.84814 11.3935L11.4406 19.4175L12.6712 18.5598ZM6.79688 10.8177L12.3446 14.6843L13.2023 13.4537L7.65457 9.58711L6.79688 10.8177ZM14.1916 12.9398L13.5457 11.8901L12.2682 12.6762L12.9141 13.7259L14.1916 12.9398ZM13.5955 11.4652L14.9198 10.141L13.8591 9.08034L12.5349 10.4046L13.5955 11.4652ZM13.5457 11.8901C13.4619 11.754 13.4826 11.5782 13.5955 11.4652L12.5349 10.4046C11.9307 11.0087 11.8204 11.9486 12.2682 12.6762L13.5457 11.8901ZM12.3446 14.6843C13.499 15.4889 14.929 14.1381 14.1916 12.9398L12.9141 13.7259C12.8971 13.6983 12.8811 13.6441 12.8917 13.5823C12.9007 13.5292 12.9252 13.4938 12.9475 13.4726C12.9699 13.4515 13.0067 13.4291 13.0602 13.4231C13.1226 13.416 13.1757 13.4352 13.2023 13.4537L12.3446 14.6843ZM7.07874 10.5358C7.0968 10.5618 7.11677 10.6166 7.10832 10.6816C7.10113 10.7369 7.07711 10.7735 7.0558 10.7948C7.03449 10.8161 6.99789 10.8401 6.94266 10.8473C6.87765 10.8557 6.82279 10.8358 6.79688 10.8177L7.65457 9.58711C6.46624 8.75888 5.01991 10.2052 5.84814 11.3935L7.07874 10.5358ZM10.9111 20.3971C12.1075 21.1568 13.4816 19.7225 12.6712 18.5598L11.4406 19.4175C11.4222 19.391 11.4028 19.3375 11.4102 19.2745C11.4166 19.2206 11.4393 19.1838 11.4605 19.1617C11.4817 19.1396 11.5174 19.1153 11.5711 19.1066C11.6337 19.0965 11.688 19.1136 11.7152 19.1309L10.9111 20.3971ZM4.49555 15.8803C4.51012 15.911 4.51904 15.962 4.50603 16.0163C4.49456 16.0643 4.47046 16.0976 4.44664 16.1187C4.42281 16.1397 4.38677 16.1595 4.33777 16.165C4.28222 16.1712 4.23278 16.1561 4.20405 16.1379L5.00816 14.8716C3.91 14.1742 2.58305 15.3467 3.13994 16.5224L4.49555 15.8803ZM5.0826 19.9782C5.63444 19.4263 5.77831 18.5883 5.4448 17.8843L4.08919 18.5264C4.15191 18.6588 4.12458 18.8149 4.02194 18.9175L5.0826 19.9782Z" fill="#000000"/>
<path d="M22.0002 12.0002C22.0002 13.1877 21.0376 14.1502 19.8502 14.1502C18.6628 14.1502 17.7002 13.1877 17.7002 12.0002C17.7002 10.8128 18.6628 9.85024 19.8502 9.85024C21.0376 9.85024 22.0002 10.8128 22.0002 12.0002Z" stroke="#000000" stroke-width="1.5"/>
</svg>
