<svg width="24" height="24" viewBox="0 0 24 24" fill="none" xmlns="http://www.w3.org/2000/svg">
<path d="M3.2844 11.2662C3.15112 9.26699 3.08448 8.26739 3.67727 7.63375C4.27007 7.00012 5.27189 7.00012 7.27554 7.00012H12.7244C14.7281 7.00012 15.7299 7.00012 16.3227 7.63375C16.9155 8.26739 16.8489 9.26699 16.7156 11.2662L16.3734 16.3992C16.1964 19.0541 16.1079 20.3816 15.2429 21.1909C14.3779 22.0001 13.0475 22.0001 10.3867 22.0001H9.61331C6.95251 22.0001 5.62211 22.0001 4.7571 21.1909C3.89209 20.3816 3.80359 19.0541 3.6266 16.3992L3.2844 11.2662Z" stroke="#000000" stroke-width="1.5"/>
<path d="M17 17.0001H18C20.2091 17.0001 22 15.2093 22 13.0001C22 10.791 20.2091 9.00012 18 9.00012H17" stroke="#000000" stroke-width="1.5"/>
<path d="M16 18.0001H4" stroke="#000000" stroke-width="1.5"/>
<path d="M6.05068 5.06147L6.4613 4.4858C6.68808 4.16787 6.61419 3.72629 6.29626 3.49951C5.97832 3.27273 5.90443 2.83116 6.13121 2.51323L6.54183 1.93756M14.0507 5.06147L14.4613 4.4858C14.6881 4.16787 14.6142 3.72629 14.2963 3.49951C13.9783 3.27273 13.9044 2.83116 14.1312 2.51323L14.5418 1.93756M10.0507 5.06147L10.4613 4.4858C10.6881 4.16787 10.6142 3.72629 10.2963 3.49951C9.97832 3.27273 9.90443 2.83116 10.1312 2.51323L10.5418 1.93756" stroke="#000000" stroke-width="1.5" stroke-linecap="round"/>
</svg>
