<svg width="24" height="24" viewBox="0 0 24 24" fill="none" xmlns="http://www.w3.org/2000/svg">
<path d="M3 7.00012C3 5.1145 3 4.17169 3.58579 3.58591C4.17157 3.00012 5.11438 3.00012 7 3.00012H13C14.8856 3.00012 15.8284 3.00012 16.4142 3.58591C17 4.17169 17 5.1145 17 7.00012V12.0001C17 14.8285 17 16.2428 16.1213 17.1214C15.2426 18.0001 13.8284 18.0001 11 18.0001H9C6.17157 18.0001 4.75736 18.0001 3.87868 17.1214C3 16.2428 3 14.8285 3 12.0001V7.00012Z" stroke="#1C274C" stroke-width="1.5"/>
<path d="M17 13.0001H18C20.2091 13.0001 22 11.2093 22 9.00012C22 6.79098 20.2091 5.00012 18 5.00012H17" stroke="#1C274C" stroke-width="1.5"/>
<path d="M17 13.0001H3" stroke="#1C274C" stroke-width="1.5"/>
<path d="M22 21.0001L2 21.0001" stroke="#1C274C" stroke-width="1.5" stroke-linecap="round"/>
</svg>
