<svg width="24" height="24" viewBox="0 0 24 24" fill="none" xmlns="http://www.w3.org/2000/svg">
<path d="M10.8693 21.5105L11.5147 21.8925L10.8693 21.5105ZM11.1288 21.0722L10.4833 20.6901L11.1288 21.0722ZM8.87121 21.0722L9.51663 20.6901L9.51662 20.6901L8.87121 21.0722ZM9.13064 21.5105L8.48523 21.8925L9.13064 21.5105ZM2.30448 17.131L2.99739 16.844H2.99739L2.30448 17.131ZM6.28931 19.5852L6.31328 18.8356L6.28931 19.5852ZM4.46927 19.2958L4.18225 19.9887H4.18225L4.46927 19.2958ZM17.6955 17.131L18.3884 17.418L18.3884 17.418L17.6955 17.131ZM13.7107 19.5852L13.6867 18.8356L13.7107 19.5852ZM15.5307 19.2958L15.8177 19.9887L15.5307 19.2958ZM16.09 6.58969L16.4819 5.95021V5.95021L16.09 6.58969ZM17.4106 7.91026L18.05 7.51838V7.51838L17.4106 7.91026ZM3.91001 6.58969L3.51813 5.95021V5.95021L3.91001 6.58969ZM2.58944 7.91026L1.94996 7.51838H1.94996L2.58944 7.91026ZM7.91637 19.8226L7.53453 20.4681H7.53453L7.91637 19.8226ZM11.5147 21.8925L11.7742 21.4542L10.4833 20.6901L10.2239 21.1284L11.5147 21.8925ZM8.22579 21.4542L8.48523 21.8925L9.77606 21.1284L9.51663 20.6901L8.22579 21.4542ZM10.2239 21.1284C10.1785 21.2052 10.0992 21.2502 9.99998 21.2502C9.90074 21.2502 9.82147 21.2052 9.77606 21.1284L8.48523 21.8925C9.16217 23.0362 10.8378 23.0362 11.5147 21.8925L10.2239 21.1284ZM8.8 6.75024H11.2V5.25024H8.8V6.75024ZM17.25 12.8003V13.6003H18.75V12.8003H17.25ZM2.75 13.6003V12.8003H1.25V13.6003H2.75ZM1.25 13.6003C1.25 14.5219 1.24959 15.2507 1.2898 15.84C1.33047 16.436 1.41517 16.9439 1.61157 17.418L2.99739 16.844C2.88931 16.5831 2.82178 16.2575 2.78632 15.7379C2.75041 15.2115 2.75 14.5424 2.75 13.6003H1.25ZM6.31328 18.8356C5.52102 18.8103 5.09046 18.7413 4.75628 18.6029L4.18225 19.9887C4.77912 20.236 5.43744 20.3084 6.26533 20.3349L6.31328 18.8356ZM1.61157 17.418C2.09367 18.5819 3.01837 19.5066 4.18225 19.9887L4.75628 18.6029C3.95994 18.2731 3.32725 17.6404 2.99739 16.844L1.61157 17.418ZM17.25 13.6003C17.25 14.5424 17.2496 15.2115 17.2137 15.7379C17.1782 16.2575 17.1107 16.5831 17.0026 16.844L18.3884 17.418C18.5848 16.9439 18.6695 16.436 18.7102 15.84C18.7504 15.2507 18.75 14.5219 18.75 13.6003H17.25ZM13.7346 20.3349C14.5625 20.3084 15.2209 20.236 15.8177 19.9887L15.2437 18.6029C14.9095 18.7413 14.479 18.8103 13.6867 18.8356L13.7346 20.3349ZM17.0026 16.844C16.6728 17.6404 16.0401 18.2731 15.2437 18.6029L15.8177 19.9887C16.9816 19.5066 17.9063 18.5819 18.3884 17.418L17.0026 16.844ZM11.2 6.75024C12.5239 6.75024 13.4641 6.75104 14.1953 6.82056C14.9154 6.88902 15.3548 7.0188 15.6981 7.22917L16.4819 5.95021C15.8633 5.57113 15.1671 5.40619 14.3373 5.32729C13.5187 5.24945 12.4949 5.25024 11.2 5.25024V6.75024ZM18.75 12.8003C18.75 11.5054 18.7508 10.4816 18.673 9.66295C18.5941 8.83312 18.4291 8.13697 18.05 7.51838L16.7711 8.30213C16.9814 8.64542 17.1112 9.0849 17.1797 9.80493C17.2492 10.5361 17.25 11.4764 17.25 12.8003H18.75ZM15.6981 7.22917C16.1354 7.49715 16.5031 7.86482 16.7711 8.30213L18.05 7.51838C17.6584 6.87924 17.121 6.34187 16.4819 5.95021L15.6981 7.22917ZM8.8 5.25024C7.50515 5.25024 6.48135 5.24945 5.66269 5.32729C4.83287 5.40619 4.13672 5.57113 3.51813 5.95021L4.30188 7.22917C4.64517 7.0188 5.08465 6.88902 5.80467 6.82056C6.53585 6.75104 7.47611 6.75024 8.8 6.75024V5.25024ZM2.75 12.8003C2.75 11.4764 2.75079 10.5361 2.82031 9.80493C2.88877 9.0849 3.01855 8.64542 3.22892 8.30213L1.94996 7.51838C1.57089 8.13697 1.40595 8.83312 1.32705 9.66295C1.24921 10.4816 1.25 11.5054 1.25 12.8003H2.75ZM3.51813 5.95021C2.87899 6.34187 2.34162 6.87924 1.94996 7.51838L3.22892 8.30213C3.4969 7.86482 3.86458 7.49715 4.30188 7.22917L3.51813 5.95021ZM9.51662 20.6901C9.31582 20.3509 9.13969 20.0518 8.96888 19.8167C8.78917 19.5692 8.58327 19.3457 8.29822 19.1771L7.53453 20.4681C7.58064 20.4954 7.64427 20.5454 7.75524 20.6982C7.87511 20.8632 8.01082 21.091 8.2258 21.4542L9.51662 20.6901ZM6.26533 20.3349C6.71078 20.3491 6.99552 20.3589 7.21182 20.3853C7.41631 20.4102 7.49305 20.4436 7.53453 20.4681L8.29822 19.1771C8.00853 19.0057 7.70371 18.9342 7.39344 18.8963C7.09498 18.8599 6.73177 18.849 6.31328 18.8356L6.26533 20.3349ZM11.7742 21.4542C11.9891 21.091 12.1249 20.8632 12.2447 20.6982C12.3557 20.5454 12.4193 20.4954 12.4654 20.4681L11.7018 19.1771C11.4167 19.3457 11.2108 19.5692 11.0311 19.8167C10.8603 20.0518 10.6841 20.3509 10.4833 20.6901L11.7742 21.4542ZM13.6867 18.8356C13.2682 18.849 12.905 18.8599 12.6065 18.8963C12.2963 18.9342 11.9914 19.0057 11.7018 19.1771L12.4654 20.4681C12.5069 20.4436 12.5837 20.4102 12.7881 20.3853C13.0044 20.3589 13.2892 20.3491 13.7346 20.3349L13.6867 18.8356Z" fill="#000000"/>
<path d="M21.7145 12.4354L22.4074 12.7224V12.7224L21.7145 12.4354ZM19.685 14.4648L19.972 15.1578H19.972L19.685 14.4648ZM20.2093 2.55285L19.8174 3.19233V3.19233L20.2093 2.55285ZM21.4473 3.79088L22.0868 3.39901V3.39901L21.4473 3.79088ZM8.79058 2.55285L8.3987 1.91337V1.91337L8.79058 2.55285ZM7.55255 3.79088L6.91307 3.39901H6.91307L7.55255 3.79088ZM13.3749 2.75024H15.6249V1.25024H13.3749V2.75024ZM21.2499 8.37527V9.12527H22.7499V8.37527H21.2499ZM21.2499 9.12527C21.2499 10.0092 21.2495 10.6345 21.216 11.1261C21.1829 11.6108 21.1201 11.9104 21.0216 12.1483L22.4074 12.7224C22.5943 12.2712 22.6742 11.7893 22.7125 11.2282C22.7504 10.6738 22.7499 9.98866 22.7499 9.12527H21.2499ZM21.0216 12.1483C20.7171 12.8834 20.1331 13.4675 19.398 13.7719L19.972 15.1578C21.0747 14.701 21.9507 13.825 22.4074 12.7224L21.0216 12.1483ZM15.6249 2.75024C16.867 2.75024 17.7459 2.75104 18.4286 2.81595C19.1002 2.87981 19.5042 3.00038 19.8174 3.19233L20.6012 1.91337C20.0127 1.55271 19.352 1.39698 18.5706 1.32269C17.8004 1.24945 16.838 1.25024 15.6249 1.25024V2.75024ZM22.7499 8.37527C22.7499 7.16225 22.7507 6.19982 22.6775 5.42959C22.6032 4.6482 22.4475 3.98754 22.0868 3.39901L20.8079 4.18275C20.9998 4.49599 21.1204 4.89998 21.1842 5.57157C21.2492 6.25433 21.2499 7.13321 21.2499 8.37527H22.7499ZM19.8174 3.19233C20.2211 3.43969 20.5605 3.77909 20.8079 4.18275L22.0868 3.39901C21.7158 2.79351 21.2067 2.28442 20.6012 1.91337L19.8174 3.19233ZM13.3749 1.25024C12.1619 1.25024 11.1995 1.24945 10.4293 1.32269C9.64789 1.39698 8.98723 1.55271 8.3987 1.91337L9.18245 3.19233C9.49568 3.00038 9.89967 2.87981 10.5713 2.81595C11.254 2.75104 12.1329 2.75024 13.3749 2.75024V1.25024ZM8.3987 1.91337C7.7932 2.28442 7.28412 2.79351 6.91307 3.39901L8.19203 4.18275C8.43939 3.77909 8.77879 3.43969 9.18245 3.19233L8.3987 1.91337ZM7.78219 6.0392C7.83215 5.07882 7.95706 4.56619 8.19203 4.18275L6.91307 3.39901C6.47594 4.11234 6.33747 4.93741 6.28422 5.96128L7.78219 6.0392ZM18.0249 15.4851C18.7916 15.4596 19.4094 15.3908 19.972 15.1578L19.398 13.7719C19.096 13.897 18.7039 13.9617 17.9751 13.9859L18.0249 15.4851Z" fill="#000000"/>
<path d="M7.5 13.0002C7.5 13.5525 7.05228 14.0002 6.5 14.0002C5.94772 14.0002 5.5 13.5525 5.5 13.0002C5.5 12.448 5.94772 12.0002 6.5 12.0002C7.05228 12.0002 7.5 12.448 7.5 13.0002Z" fill="#000000"/>
<path d="M11 13.0002C11 13.5525 10.5523 14.0002 10 14.0002C9.44772 14.0002 9 13.5525 9 13.0002C9 12.448 9.44772 12.0002 10 12.0002C10.5523 12.0002 11 12.448 11 13.0002Z" fill="#000000"/>
<path d="M14.5 13.0002C14.5 13.5525 14.0523 14.0002 13.5 14.0002C12.9477 14.0002 12.5 13.5525 12.5 13.0002C12.5 12.448 12.9477 12.0002 13.5 12.0002C14.0523 12.0002 14.5 12.448 14.5 13.0002Z" fill="#000000"/>
</svg>
