<svg width="24" height="24" viewBox="0 0 24 24" fill="none" xmlns="http://www.w3.org/2000/svg">
<path d="M10 22.0002C14.4183 22.0002 18 18.4185 18 14.0002C18 9.58197 14.4183 6.00024 10 6.00024C5.58172 6.00024 2 9.58197 2 14.0002C2 15.2357 2.28008 16.4058 2.7802 17.4505C2.95209 17.8095 3.01245 18.2163 2.90955 18.6009L2.58151 19.8269C2.32295 20.7932 3.20701 21.6773 4.17335 21.4187L5.39939 21.0907C5.78393 20.9878 6.19071 21.0482 6.54976 21.22C7.5944 21.7202 8.76449 22.0002 10 22.0002Z" stroke="#1C274C" stroke-width="1.5"/>
<path d="M18 14.5021C18.0665 14.4744 18.1324 14.4456 18.1977 14.4157C18.5598 14.2503 18.9661 14.1885 19.3506 14.2914L19.8267 14.4187C20.793 14.6773 21.677 13.7932 21.4185 12.8269L21.2911 12.3509C21.1882 11.9663 21.2501 11.5601 21.4155 11.198C21.7908 10.3762 22 9.46266 22 8.50024C22 4.91039 19.0899 2.00024 15.5 2.00024C12.7977 2.00024 10.4806 3.64923 9.5 5.99584" stroke="#1C274C" stroke-width="1.5"/>
<path d="M7.5 14.0002C7.5 14.5525 7.05228 15.0002 6.5 15.0002C5.94772 15.0002 5.5 14.5525 5.5 14.0002C5.5 13.448 5.94772 13.0002 6.5 13.0002C7.05228 13.0002 7.5 13.448 7.5 14.0002Z" fill="#1C274C"/>
<path d="M11 14.0002C11 14.5525 10.5523 15.0002 10 15.0002C9.44772 15.0002 9 14.5525 9 14.0002C9 13.448 9.44772 13.0002 10 13.0002C10.5523 13.0002 11 13.448 11 14.0002Z" fill="#1C274C"/>
<path d="M14.5 14.0002C14.5 14.5525 14.0523 15.0002 13.5 15.0002C12.9477 15.0002 12.5 14.5525 12.5 14.0002C12.5 13.448 12.9477 13.0002 13.5 13.0002C14.0523 13.0002 14.5 13.448 14.5 14.0002Z" fill="#1C274C"/>
</svg>
