<svg width="24" height="24" viewBox="0 0 24 24" fill="none" xmlns="http://www.w3.org/2000/svg">
<circle cx="12" cy="16.0005" r="3" stroke="#000000" stroke-width="1.5"/>
<path d="M12 19.2605L9.73713 21.4299C9.41306 21.7406 9.25102 21.8959 9.1138 21.9497C8.80111 22.0722 8.45425 21.9674 8.28977 21.7006C8.21758 21.5836 8.19509 21.3725 8.1501 20.9503C8.1247 20.7119 8.112 20.5927 8.07345 20.4928C7.98715 20.2693 7.80579 20.0955 7.57266 20.0127C7.46853 19.9758 7.3442 19.9636 7.09553 19.9392C6.65512 19.8961 6.43491 19.8745 6.31283 19.8053C6.03463 19.6476 5.92529 19.3151 6.05306 19.0153C6.10913 18.8838 6.27116 18.7284 6.59523 18.4177L8.07345 17.0006L9.1138 15.9602" stroke="#000000" stroke-width="1.5"/>
<path d="M12 19.2604L14.2629 21.4299C14.5869 21.7406 14.749 21.8959 14.8862 21.9497C15.1989 22.0722 15.5457 21.9673 15.7102 21.7006C15.7824 21.5836 15.8049 21.3725 15.8499 20.9502C15.8753 20.7118 15.888 20.5926 15.9265 20.4928C16.0129 20.2693 16.1942 20.0954 16.4273 20.0127C16.5315 19.9757 16.6558 19.9636 16.9045 19.9392C17.3449 19.8961 17.5651 19.8745 17.6872 19.8053C17.9654 19.6476 18.0747 19.3151 17.9469 19.0153C17.8909 18.8837 17.7288 18.7284 17.4048 18.4177L15.9265 17.0005L15 16.074" stroke="#000000" stroke-width="1.5"/>
<path d="M17.3197 17.9962C19.2921 17.9753 20.3915 17.8517 21.1213 17.1218C22 16.2431 22 14.8289 22 12.0005V8.00049C22 5.17206 22 3.75785 21.1213 2.87917C20.2426 2.00049 18.8284 2.00049 16 2.00049L8 2.00049C5.17157 2.00049 3.75736 2.00049 2.87868 2.87917C2 3.75785 2 5.17206 2 8.00049L2 12.0005C2 14.8289 2 16.2431 2.87868 17.1218C3.64706 17.8902 4.82497 17.9866 7 17.9987" stroke="#000000" stroke-width="1.5"/>
<path d="M9 6.00049L15 6.00049" stroke="#000000" stroke-width="1.5" stroke-linecap="round"/>
<path d="M7 9.50049H17" stroke="#000000" stroke-width="1.5" stroke-linecap="round"/>
</svg>
