<svg width="24" height="24" viewBox="0 0 24 24" fill="none" xmlns="http://www.w3.org/2000/svg">
<path d="M7 17.9987C4.82497 17.9866 3.64706 17.8902 2.87868 17.1218C2 16.2431 2 14.8289 2 12.0005L2 8.00049C2 5.17206 2 3.75785 2.87868 2.87917C3.75736 2.00049 5.17157 2.00049 8 2.00049L16 2.00049C18.8284 2.00049 20.2426 2.00049 21.1213 2.87917C22 3.75785 22 5.17206 22 8.00049V12.0005C22 14.8289 22 16.2431 21.1213 17.1218C20.3915 17.8517 19.2921 17.9753 17.3197 17.9962L16.5 17.9987" stroke="#000000" stroke-width="1.5"/>
<path d="M9 6.00049L15 6.00049" stroke="#000000" stroke-width="1.5" stroke-linecap="round"/>
<path d="M7 9.50049H17" stroke="#000000" stroke-width="1.5" stroke-linecap="round"/>
<path d="M10.8907 13.9459C11.53 13.4012 12.4702 13.4012 13.1094 13.9459C13.3833 14.1794 13.7239 14.3204 14.0827 14.3491C14.9199 14.4159 15.5847 15.0807 15.6515 15.9179C15.6802 16.2767 15.8212 16.6173 16.0547 16.8912C16.5994 17.5305 16.5994 18.4706 16.0547 19.1099C15.8212 19.3838 15.6802 19.7244 15.6515 20.0832C15.5847 20.9204 14.9199 21.5852 14.0827 21.652C13.7239 21.6807 13.3833 21.8217 13.1094 22.0552C12.4702 22.5999 11.53 22.5999 10.8907 22.0552C10.6168 21.8217 10.2762 21.6807 9.91743 21.652C9.08021 21.5852 8.41539 20.9204 8.34858 20.0832C8.31995 19.7244 8.17888 19.3838 7.94543 19.1099C7.40068 18.4706 7.40068 17.5305 7.94543 16.8912C8.17888 16.6173 8.31995 16.2767 8.34858 15.9179C8.4154 15.0807 9.08021 14.4159 9.91743 14.3491C10.2762 14.3204 10.6168 14.1794 10.8907 13.9459Z" stroke="#000000" stroke-width="1.5"/>
<path d="M10.5 18.2005L11.3571 19.0005L13.5 17.0005" stroke="#000000" stroke-width="1.5" stroke-linecap="round" stroke-linejoin="round"/>
</svg>
