<svg width="24" height="24" viewBox="0 0 24 24" fill="none" xmlns="http://www.w3.org/2000/svg">
<path d="M20.9752 11.8152L20.2361 11.943L20.9752 11.8152ZM20.2696 7.73541L19.5306 7.86322L20.2696 7.73541ZM6.93777 3.52329L6.19056 3.45868L6.93777 3.52329ZM6.12561 12.916L6.87282 12.9806L6.12561 12.916ZM13.995 18.7789L14.7351 18.6577V18.6577L13.995 18.7789ZM13.3323 14.7344L14.0724 14.6131V14.6131L13.3323 14.7344ZM6.69814 14.3229L6.20855 14.891H6.20855L6.69814 14.3229ZM8.13688 15.5627L8.62647 14.9945H8.62647L8.13688 15.5627ZM10.5181 19.2166L9.79208 19.4049L10.5181 19.2166ZM10.9938 21.0505L11.7197 20.8622V20.8622L10.9938 21.0505ZM12.6676 21.936L12.4382 21.222L12.4382 21.222L12.6676 21.936ZM12.8126 21.8894L13.042 22.6035L13.042 22.6035L12.8126 21.8894ZM9.86195 17.5378L10.5235 17.1844V17.1844L9.86195 17.5378ZM13.9047 20.7528L13.1787 20.5645V20.5645L13.9047 20.7528ZM11.6742 21.868L11.3486 22.5436V22.5436L11.6742 21.868ZM3.9716 2.52965L3.22439 2.46504L3.9716 2.52965ZM3 13.7662L3.74721 13.8308C3.71261 14.2309 3.36893 14.5328 2.96767 14.5155C2.5664 14.4982 2.25 14.1678 2.25 13.7662H3ZM20.2361 11.943L19.5306 7.86322L21.0087 7.60761L21.7142 11.6874L20.2361 11.943ZM13.245 2.75037H8.59635V1.25037H13.245V2.75037ZM7.68498 3.5879L6.87282 12.9806L5.3784 12.8514L6.19056 3.45868L7.68498 3.5879ZM19.5306 7.86322C19.0238 4.93263 16.3813 2.75037 13.245 2.75037V1.25037C17.0712 1.25037 20.3708 3.91932 21.0087 7.60761L19.5306 7.86322ZM13.2548 18.9002L12.5921 14.8557L14.0724 14.6131L14.7351 18.6577L13.2548 18.9002ZM7.18773 13.7547L8.62647 14.9945L7.64729 16.1308L6.20855 14.891L7.18773 13.7547ZM11.244 19.0283L11.7197 20.8622L10.2678 21.2388L9.79208 19.4049L11.244 19.0283ZM12.4382 21.222L12.5832 21.1754L13.042 22.6035L12.897 22.6501L12.4382 21.222ZM10.5235 17.1844C10.8354 17.7684 11.0777 18.387 11.244 19.0283L9.79208 19.4049C9.65573 18.8793 9.45699 18.3714 9.20042 17.8911L10.5235 17.1844ZM12.5832 21.1754C12.8896 21.0769 13.1072 20.8403 13.1787 20.5645L14.6307 20.9412C14.4252 21.7332 13.819 22.3539 13.042 22.6035L12.5832 21.1754ZM11.7197 20.8622C11.7548 20.9972 11.8523 21.1212 11.9998 21.1923L11.3486 22.5436C10.8166 22.2873 10.417 21.8141 10.2678 21.2388L11.7197 20.8622ZM11.9998 21.1923C12.1345 21.2573 12.2931 21.2686 12.4382 21.222L12.897 22.6501C12.3873 22.8138 11.8312 22.7762 11.3486 22.5436L11.9998 21.1923ZM14.1537 13.0162H19.3348V14.5162H14.1537V13.0162ZM4.71881 2.59426L3.74721 13.8308L2.25279 13.7016L3.22439 2.46504L4.71881 2.59426ZM3.75 2.48763V13.7662H2.25V2.48763H3.75ZM3.22439 2.46504C3.2112 2.61758 3.33146 2.75037 3.48671 2.75037V1.25037C4.21268 1.25037 4.78122 1.87246 4.71881 2.59426L3.22439 2.46504ZM14.7351 18.6577C14.8596 19.4178 14.8241 20.1956 14.6307 20.9412L13.1787 20.5645C13.3197 20.0211 13.3456 19.4542 13.2548 18.9002L14.7351 18.6577ZM8.59635 2.75037C8.12244 2.75037 7.72601 3.11339 7.68498 3.5879L6.19056 3.45868C6.29852 2.21012 7.3427 1.25037 8.59635 1.25037V2.75037ZM8.62647 14.9945C9.30632 15.5804 10.0392 16.2777 10.5235 17.1844L9.20042 17.8911C8.85404 17.2427 8.3025 16.6954 7.64729 16.1308L8.62647 14.9945ZM21.7142 11.6874C21.9695 13.1639 20.8341 14.5162 19.3348 14.5162V13.0162C19.9014 13.0162 20.3332 12.5045 20.2361 11.943L21.7142 11.6874ZM3.48671 2.75037C3.63292 2.75037 3.75 2.63193 3.75 2.48763H2.25C2.25 1.80511 2.80289 1.25037 3.48671 1.25037V2.75037ZM12.5921 14.8557C12.4344 13.8928 13.1766 13.0162 14.1537 13.0162V14.5162C14.1038 14.5162 14.0639 14.5614 14.0724 14.6131L12.5921 14.8557ZM6.87282 12.9806C6.8474 13.2745 6.96475 13.5626 7.18773 13.7547L6.20855 14.891C5.62022 14.3841 5.31149 13.6251 5.3784 12.8514L6.87282 12.9806Z" fill="#000000"/>
</svg>
