<svg width="24" height="24" viewBox="0 0 24 24" fill="none" xmlns="http://www.w3.org/2000/svg">
<path d="M11.8476 12.1527L12.0462 12.2211C15.3052 13.343 19.2301 12.2702 22 9.50024M11.8476 12.1527L11.2902 11.9608C8.24848 10.9137 4.58525 11.915 2 14.5002M11.8476 12.1527L11.7792 11.954C10.6572 8.69505 11.7301 4.77016 14.5 2.00024M11.8476 12.1527L12.0394 12.7101C13.0866 15.7518 12.0853 19.415 9.5 22.0002" stroke="#000000" stroke-width="1.5" stroke-linecap="round"/>
<path d="M6.76465 11.8435L11.8431 16.922" stroke="#000000" stroke-width="1.5" stroke-linecap="round"/>
<path d="M11.8438 6.76489L16.9222 11.8434" stroke="#000000" stroke-width="1.5" stroke-linecap="round"/>
<path d="M3.99976 13.0005L7.49976 16.5005" stroke="#000000" stroke-width="1.5" stroke-linecap="round"/>
<path d="M19.7783 10.8909L16.2783 7.39087" stroke="#000000" stroke-width="1.5" stroke-linecap="round"/>
<path d="M9.30469 18.1917L10.8917 19.7787" stroke="#000000" stroke-width="1.5" stroke-linecap="round"/>
<path d="M14.5869 5.58716L12.9999 4.00014" stroke="#000000" stroke-width="1.5" stroke-linecap="round"/>
</svg>
