<svg width="24" height="24" viewBox="0 0 24 24" fill="none" xmlns="http://www.w3.org/2000/svg">
<path d="M18.18 8.0397L18.6435 7.57626C19.4113 6.8084 20.6563 6.8084 21.4241 7.57626C22.192 8.34411 22.192 9.58904 21.4241 10.3569L20.9607 10.8203M18.18 8.0397C18.18 8.0397 18.238 9.0245 19.1069 9.89345C19.9759 10.7624 20.9607 10.8203 20.9607 10.8203M18.18 8.0397L13.9194 12.3003C13.6308 12.5889 13.4865 12.7332 13.3624 12.8923C13.2161 13.08 13.0906 13.283 12.9882 13.4979C12.9014 13.68 12.8368 13.8736 12.7078 14.2608L12.2946 15.5004L12.1609 15.9014M20.9607 10.8203L16.7001 15.081C16.4115 15.3695 16.2672 15.5138 16.1081 15.6379C15.9204 15.7843 15.7173 15.9098 15.5025 16.0122C15.3203 16.099 15.1268 16.1635 14.7396 16.2926L13.5 16.7058L13.099 16.8395M13.099 16.8395L12.6979 16.9731C12.5074 17.0367 12.2973 16.9871 12.1553 16.845C12.0133 16.703 11.9637 16.493 12.0272 16.3024L12.1609 15.9014M13.099 16.8395L12.1609 15.9014" stroke="#1C274C" stroke-width="1.5"/>
<path d="M8 13.0004H10.5" stroke="#1C274C" stroke-width="1.5" stroke-linecap="round"/>
<path d="M8 9.00037H14.5" stroke="#1C274C" stroke-width="1.5" stroke-linecap="round"/>
<path d="M8 17.0004H9.5" stroke="#1C274C" stroke-width="1.5" stroke-linecap="round"/>
<path d="M19.8284 3.17194C18.6569 2.00037 16.7712 2.00037 13 2.00037H11C7.22876 2.00037 5.34315 2.00037 4.17157 3.17194C3 4.34351 3 6.22913 3 10.0004V14.0004C3 17.7716 3 19.6572 4.17157 20.8288C5.34315 22.0004 7.22876 22.0004 11 22.0004H13C16.7712 22.0004 18.6569 22.0004 19.8284 20.8288C20.7715 19.8857 20.9554 18.4799 20.9913 16.0004" stroke="#1C274C" stroke-width="1.5" stroke-linecap="round"/>
</svg>
