<svg width="24" height="24" viewBox="0 0 24 24" fill="none" xmlns="http://www.w3.org/2000/svg">
<path d="M5 8.00049C5 5.17206 5 3.75785 5.87868 2.87917C6.75736 2.00049 8.17157 2.00049 11 2.00049H13C15.8284 2.00049 17.2426 2.00049 18.1213 2.87917C19 3.75785 19 5.17206 19 8.00049V16.0005C19 18.8289 19 20.2431 18.1213 21.1218C17.2426 22.0005 15.8284 22.0005 13 22.0005H11C8.17157 22.0005 6.75736 22.0005 5.87868 21.1218C5 20.2431 5 18.8289 5 16.0005V8.00049Z" stroke="#000000" stroke-width="1.5"/>
<path d="M9 13.0005H15" stroke="#000000" stroke-width="1.5" stroke-linecap="round"/>
<path d="M9 9.00049H15" stroke="#000000" stroke-width="1.5" stroke-linecap="round"/>
<path d="M9 17.0005H12" stroke="#000000" stroke-width="1.5" stroke-linecap="round"/>
<path d="M2 19.0005V5.00049" stroke="#000000" stroke-width="1.5" stroke-linecap="round"/>
<path d="M22 19.0005V5.00049" stroke="#000000" stroke-width="1.5" stroke-linecap="round"/>
</svg>
