<svg width="24" height="24" viewBox="0 0 24 24" fill="none" xmlns="http://www.w3.org/2000/svg">
<path d="M5 8.00049C5 5.17206 5 3.75785 5.87868 2.87917C6.75736 2.00049 8.17157 2.00049 11 2.00049H13C15.8284 2.00049 17.2426 2.00049 18.1213 2.87917C19 3.75785 19 5.17206 19 8.00049V16.0005C19 18.8289 19 20.2431 18.1213 21.1218C17.2426 22.0005 15.8284 22.0005 13 22.0005H11C8.17157 22.0005 6.75736 22.0005 5.87868 21.1218C5 20.2431 5 18.8289 5 16.0005V8.00049Z" stroke="#000000" stroke-width="1.5"/>
<path d="M5 4.07666C4.02491 4.17257 3.36857 4.38933 2.87868 4.87922C2 5.7579 2 7.17211 2 10.0005V14.0005C2 16.829 2 18.2432 2.87868 19.1219C3.36857 19.6117 4.02491 19.8285 5 19.9244" stroke="#000000" stroke-width="1.5"/>
<path d="M19 4.07666C19.9751 4.17257 20.6314 4.38933 21.1213 4.87922C22 5.7579 22 7.17211 22 10.0005V14.0005C22 16.829 22 18.2432 21.1213 19.1219C20.6314 19.6117 19.9751 19.8285 19 19.9244" stroke="#000000" stroke-width="1.5"/>
<path d="M9 13.0005H15" stroke="#000000" stroke-width="1.5" stroke-linecap="round"/>
<path d="M9 9.00049H15" stroke="#000000" stroke-width="1.5" stroke-linecap="round"/>
<path d="M9 17.0005H12" stroke="#000000" stroke-width="1.5" stroke-linecap="round"/>
</svg>
