<svg width="24" height="24" viewBox="0 0 24 24" fill="none" xmlns="http://www.w3.org/2000/svg">
<circle cx="12" cy="12.0001" r="3" stroke="#1C274C" stroke-width="1.5"/>
<path d="M14.5 7.00012L16 5.00012" stroke="#1C274C" stroke-width="1.5" stroke-linecap="round"/>
<path d="M19 7.00012L20 6.00012" stroke="#1C274C" stroke-width="1.5" stroke-linecap="round"/>
<path d="M12 5.00012L11 4.00012" stroke="#1C274C" stroke-width="1.5" stroke-linecap="round"/>
<path d="M10.5 7.00012L9.13397 7.36615" stroke="#1C274C" stroke-width="1.5" stroke-linecap="round"/>
<path d="M7 5.00012L6 4.00012" stroke="#1C274C" stroke-width="1.5" stroke-linecap="round"/>
<path d="M6.79245 9.14398L6.20722 7.85653" stroke="#1C274C" stroke-width="1.5" stroke-linecap="round"/>
<path d="M12.5 22.0001L12.5343 22.7493C12.811 22.7367 13.0582 22.5725 13.1772 22.3224C13.2963 22.0722 13.2677 21.7769 13.103 21.5542L12.5 22.0001ZM12.944 19.6277L13.3899 20.2308L12.944 19.6277ZM19.4787 14.7951L19.0327 14.192L19.4787 14.7951ZM14.6191 18.8553L15.2221 18.4094L15.2221 18.4094L14.6191 18.8553ZM15.3194 16.0054L15.7654 16.6084L15.3194 16.0054ZM18.2495 16.1705L18.8525 15.7245L18.8525 15.7245L18.2495 16.1705ZM21.6265 14.7169L21.14 15.2877C21.3346 15.4535 21.6002 15.5088 21.8447 15.4345C22.0893 15.3601 22.2792 15.1663 22.3484 14.9202L21.6265 14.7169ZM18.584 16.6228L17.9809 17.0687C18.1107 17.2442 18.3106 17.3545 18.5283 17.3707C18.746 17.3869 18.9599 17.3075 19.1143 17.1531L18.584 16.6228ZM18.6854 16.5213L19.2157 17.0517C19.3871 16.8803 19.4651 16.6366 19.4251 16.3975L18.6854 16.5213ZM14.6191 19.2911L14.3938 20.0065C14.6605 20.0905 14.9517 20.0192 15.1494 19.8215L14.6191 19.2911ZM14.8044 19.1059L15.3347 19.6362C15.5973 19.3736 15.6282 18.9585 15.4074 18.6599L14.8044 19.1059ZM12 21.2501C6.89137 21.2501 2.75 17.1088 2.75 12.0001H1.25C1.25 17.9372 6.06294 22.7501 12 22.7501V21.2501ZM2.75 12.0001C2.75 6.89149 6.89137 2.75012 12 2.75012V1.25012C6.06294 1.25012 1.25 6.06306 1.25 12.0001H2.75ZM12 2.75012C17.1086 2.75012 21.25 6.89149 21.25 12.0001H22.75C22.75 6.06306 17.9371 1.25012 12 1.25012V2.75012ZM13.103 21.5542C12.8699 21.239 12.9028 20.591 13.3899 20.2308L12.498 19.0247C11.3811 19.8507 11.1449 21.4291 11.897 22.4461L13.103 21.5542ZM15.2221 18.4094C14.9266 18.0098 14.9862 17.1846 15.7654 16.6084L14.8735 15.4024C13.6476 16.3089 13.0801 18.0357 14.0161 19.3013L15.2221 18.4094ZM15.7654 16.6084C16.5445 16.0322 17.351 16.2169 17.6465 16.6165L18.8525 15.7245C17.9165 14.4589 16.0993 14.4958 14.8735 15.4024L15.7654 16.6084ZM19.9246 15.3981C20.4213 15.0307 20.9259 15.1052 21.14 15.2877L22.1131 14.1461C21.2462 13.4073 19.9508 13.5131 19.0327 14.192L19.9246 15.3981ZM21.25 12.0001C21.25 12.8724 21.1295 13.7152 20.9046 14.5136L22.3484 14.9202C22.6102 13.9909 22.75 13.0112 22.75 12.0001H21.25ZM12.4657 21.2509C12.332 21.257 12.2017 21.2501 12 21.2501V22.7501C12.1103 22.7501 12.3595 22.7573 12.5343 22.7493L12.4657 21.2509ZM17.6465 16.6164L17.9809 17.0687L19.187 16.1768L18.8525 15.7245L17.6465 16.6164ZM19.4251 16.3975C19.3792 16.123 19.5124 15.7029 19.9246 15.3981L19.0327 14.192C18.2419 14.7769 17.7921 15.7278 17.9457 16.6451L19.4251 16.3975ZM19.1143 17.1531L19.2157 17.0517L18.1551 15.991L18.0536 16.0924L19.1143 17.1531ZM13.3899 20.2308C13.747 19.9666 14.1352 19.9251 14.3938 20.0065L14.8444 18.5758C14.0774 18.3342 13.1961 18.5085 12.498 19.0247L13.3899 20.2308ZM14.0161 19.3013L14.2014 19.5518L15.4074 18.6599L15.2221 18.4094L14.0161 19.3013ZM15.1494 19.8215L15.3347 19.6362L14.274 18.5755L14.0888 18.7608L15.1494 19.8215Z" fill="#1C274C"/>
<path d="M2 13.0001C2 13.0001 4.20085 15.0001 6 15.0001C7.21199 15.0001 8.60628 14.0925 9.38725 13.5001" stroke="#1C274C" stroke-width="1.5"/>
<path d="M16 15.5001C15.5 15.0001 14.4713 14.6391 14 14.2238" stroke="#1C274C" stroke-width="1.5"/>
<path d="M16.6497 8.97673L16.7161 10.3894" stroke="#1C274C" stroke-width="1.5" stroke-linecap="round"/>
<path d="M20.6777 10.0851L18.9996 11.563" stroke="#1C274C" stroke-width="1.5" stroke-linecap="round"/>
<path d="M5.66477 12.6413L6.5 11.5001" stroke="#1C274C" stroke-width="1.5" stroke-linecap="round"/>
<path d="M3.68293 10.35L3.60427 8.93793" stroke="#1C274C" stroke-width="1.5" stroke-linecap="round"/>
</svg>
