<svg width="24" height="24" viewBox="0 0 24 24" fill="none" xmlns="http://www.w3.org/2000/svg">
<circle cx="12" cy="12.0001" r="10" stroke="#1C274C" stroke-width="1.5"/>
<circle cx="12" cy="12.0001" r="3" stroke="#1C274C" stroke-width="1.5"/>
<path d="M2 13.0001C2 13.0001 4.20085 15.0001 6 15.0001C7.21199 15.0001 8.60628 14.0925 9.38725 13.5001" stroke="#1C274C" stroke-width="1.5"/>
<path d="M14 14.2237C14.4713 14.639 15.0875 15.0001 15.8053 15.0001C17.4948 15.0001 17.4948 13.0001 19.1842 13.0001C20.2618 13.0001 21.1102 13.8137 21.5835 14.4031" stroke="#1C274C" stroke-width="1.5"/>
<path d="M14.5 7.00012L16 5.00012" stroke="#1C274C" stroke-width="1.5" stroke-linecap="round"/>
<path d="M19 7.00012L20 6.00012" stroke="#1C274C" stroke-width="1.5" stroke-linecap="round"/>
<path d="M12 5.00012L11 4.00012" stroke="#1C274C" stroke-width="1.5" stroke-linecap="round"/>
<path d="M10.5 7.00012L9.13397 7.36615" stroke="#1C274C" stroke-width="1.5" stroke-linecap="round"/>
<path d="M16.6499 8.9766L16.7162 10.3893" stroke="#1C274C" stroke-width="1.5" stroke-linecap="round"/>
<path d="M20.6777 10.0851L18.9996 11.563" stroke="#1C274C" stroke-width="1.5" stroke-linecap="round"/>
<path d="M7 5.00012L6 4.00012" stroke="#1C274C" stroke-width="1.5" stroke-linecap="round"/>
<path d="M6.79245 9.14398L6.20722 7.85653" stroke="#1C274C" stroke-width="1.5" stroke-linecap="round"/>
<path d="M5.6649 12.6415L6.50013 11.5003" stroke="#1C274C" stroke-width="1.5" stroke-linecap="round"/>
<path d="M3.68272 10.3498L3.60406 8.93781" stroke="#1C274C" stroke-width="1.5" stroke-linecap="round"/>
</svg>
