<svg width="24" height="24" viewBox="0 0 24 24" fill="none" xmlns="http://www.w3.org/2000/svg">
<path d="M19 15.8833V8.00024C19 6.11463 19 5.17182 18.4142 4.58603C17.8284 4.00024 16.8856 4.00024 15 4.00024H9C7.11438 4.00024 6.17157 4.00024 5.58579 4.58603C5 5.17182 5 6.11462 5 8.00024V15.8833C5 16.6441 5.31911 17.37 5.87966 17.8843C9.3416 21.0609 14.6584 21.0609 18.1203 17.8843C18.6809 17.37 19 16.6441 19 15.8833Z" stroke="#000000" stroke-width="1.5" stroke-linecap="round"/>
<path d="M19 8.00024H17" stroke="#000000" stroke-width="1.5" stroke-linecap="round"/>
<path d="M19 14.0002H17" stroke="#000000" stroke-width="1.5" stroke-linecap="round"/>
<path d="M14 11.9169C14 13.0675 13.1046 14.0002 12 14.0002C10.8954 14.0002 10 13.0675 10 11.9169C10 11.197 10.783 10.2361 11.3691 9.61767C11.7161 9.25155 12.2839 9.25155 12.6309 9.61767C13.217 10.2361 14 11.197 14 11.9169Z" stroke="#000000" stroke-width="1.5"/>
<path d="M19 11.0002H17" stroke="#000000" stroke-width="1.5" stroke-linecap="round"/>
<path d="M12 21.0002V22.0002" stroke="#000000" stroke-width="1.5" stroke-linecap="round"/>
<path d="M14 4.00024C14 2.89567 13.1046 2.00024 12 2.00024C10.8954 2.00024 10 2.89567 10 4.00024" stroke="#000000" stroke-width="1.5" stroke-linecap="round"/>
</svg>
