<svg width="24" height="24" viewBox="0 0 24 24" fill="none" xmlns="http://www.w3.org/2000/svg">
<path d="M22 16.5071V10.0002C22 8.11463 22 7.17182 21.4142 6.58603C20.8284 6.00024 19.8856 6.00024 18 6.00024H14C12.1144 6.00024 11.1716 6.00024 10.5858 6.58603C10 7.17182 10 8.11463 10 10.0002V16.5071C10 17.1642 10.277 17.7908 10.7629 18.2331C13.7315 20.9353 18.2685 20.9353 21.2371 18.2331C21.723 17.7908 22 17.1642 22 16.5071Z" stroke="#1C274C" stroke-width="1.5" stroke-linecap="round"/>
<path d="M18 16.0002H14" stroke="#1C274C" stroke-width="1.5" stroke-linecap="round"/>
<path d="M18 11.4169C18 12.5675 17.1046 13.5002 16 13.5002C14.8954 13.5002 14 12.5675 14 11.4169C14 10.697 14.783 9.73613 15.3691 9.11767C15.7161 8.75155 16.2839 8.75155 16.6309 9.11767C17.217 9.73613 18 10.697 18 11.4169Z" stroke="#1C274C" stroke-width="1.5"/>
<path d="M16 21.0002V22.0002" stroke="#1C274C" stroke-width="1.5" stroke-linecap="round"/>
<path d="M2 22.0002V8.00024C2 5.17182 2 3.7576 2.87868 2.87892C3.75736 2.00024 5.17157 2.00024 8 2.00024H11.8913L11.9355 2.00032C12.6224 2.00527 13.2869 2.24583 13.8178 2.68181L13.8517 2.71C13.8926 2.74407 13.913 2.7611 13.9309 2.77557C14.5341 3.26274 15.2747 3.48059 16 3.43605M18.5 2.00024L17.9774 2.52285C17.9398 2.56048 17.9209 2.5793 17.9044 2.59533C17.3724 3.11122 16.6932 3.39348 16 3.43605M16 2.00024V3.43605M16 3.43605V6.00024" stroke="#1C274C" stroke-width="1.5" stroke-linecap="round"/>
</svg>
