<svg width="24" height="24" viewBox="0 0 24 24" fill="none" xmlns="http://www.w3.org/2000/svg">
<path d="M15.5 9.00049L15.5 15.0005C15.5 15.4655 15.5 15.698 15.5511 15.8887C15.6898 16.4064 16.0941 16.8107 16.6118 16.9494C16.8025 17.0005 17.035 17.0005 17.5 17.0005C17.965 17.0005 18.1975 17.0005 18.3882 16.9494C18.9059 16.8107 19.3102 16.4064 19.4489 15.8887C19.5 15.698 19.5 15.4655 19.5 15.0005V9.00049C19.5 8.5355 19.5 8.30301 19.4489 8.11226C19.3102 7.59462 18.9059 7.1903 18.3882 7.0516C18.1975 7.00049 17.965 7.00049 17.5 7.00049C17.035 7.00049 16.8025 7.00049 16.6118 7.0516C16.0941 7.1903 15.6898 7.59462 15.5511 8.11226C15.5 8.30301 15.5 8.5355 15.5 9.00049Z" stroke="#000000" stroke-width="1.5"/>
<path d="M4.5 9.00049L4.5 15.0005C4.5 15.4655 4.5 15.698 4.55111 15.8887C4.68981 16.4064 5.09413 16.8107 5.61177 16.9494C5.80252 17.0005 6.03501 17.0005 6.5 17.0005C6.96499 17.0005 7.19748 17.0005 7.38823 16.9494C7.90587 16.8107 8.31019 16.4064 8.44889 15.8887C8.5 15.698 8.5 15.4655 8.5 15.0005V9.00049C8.5 8.5355 8.5 8.30301 8.44889 8.11226C8.31019 7.59462 7.90587 7.1903 7.38823 7.0516C7.19748 7.00049 6.96499 7.00049 6.5 7.00049C6.03501 7.00049 5.80252 7.00049 5.61177 7.0516C5.09413 7.1903 4.68981 7.59462 4.55111 8.11226C4.5 8.30301 4.5 8.5355 4.5 9.00049Z" stroke="#000000" stroke-width="1.5"/>
<path d="M5 10.0005H4C2.89543 10.0005 2 10.8959 2 12.0005C2 13.1051 2.89543 14.0005 4 14.0005H5M9 12.0005H15M19 14.0005H20C21.1046 14.0005 22 13.1051 22 12.0005C22 10.8959 21.1046 10.0005 20 10.0005H19" stroke="#000000" stroke-width="1.5"/>
</svg>
