<svg width="24" height="24" viewBox="0 0 24 24" fill="none" xmlns="http://www.w3.org/2000/svg">
<path d="M16 22.0005V8.00049C16 5.17206 16 3.75785 15.1213 2.87917C14.2426 2.00049 12.8284 2.00049 10 2.00049H9C6.17157 2.00049 4.75736 2.00049 3.87868 2.87917C3 3.75785 3 5.17206 3 8.00049V22.0005" stroke="#000000" stroke-width="1.5"/>
<path d="M9.5 10.0005L8 12.5005H11L9.5 15.0005" stroke="#000000" stroke-width="1.5" stroke-linecap="round" stroke-linejoin="round"/>
<path d="M17 22.0005H2" stroke="#000000" stroke-width="1.5" stroke-linecap="round"/>
<path d="M19.5 4.00049L20.7331 4.98696C20.8709 5.09722 20.9398 5.15235 21.0025 5.20854C21.5937 5.73855 21.9508 6.48135 21.9953 7.27413C22 7.35818 22 7.44643 22 7.62293V18.5005C22 19.3289 21.3284 20.0005 20.5 20.0005C19.6716 20.0005 19 19.3289 19 18.5005V18.4291C19 17.6401 18.3604 17.0005 17.5714 17.0005H16" stroke="#000000" stroke-width="1.5" stroke-linecap="round"/>
<path d="M22 8.00049H20.5C19.6716 8.00049 19 8.67206 19 9.50049V11.9193C19 12.565 19.4131 13.1382 20.0257 13.3424L22 14.0005" stroke="#000000" stroke-width="1.5" stroke-linecap="round"/>
</svg>
