<svg width="24" height="24" viewBox="0 0 24 24" fill="none" xmlns="http://www.w3.org/2000/svg">
<path d="M7.67004 11.6069L8.20037 12.1372L7.67004 11.6069ZM6 13.9687H5.25H6ZM10.0318 18.0005V18.7505V18.0005ZM11.6064 7.67053L11.076 7.1402L11.6064 7.67053ZM12.6506 16.0735C12.9435 16.3664 13.4183 16.3664 13.7112 16.0735C14.0041 15.7806 14.0041 15.3057 13.7112 15.0129L12.6506 16.0735ZM8.98764 10.2893C8.69474 9.99637 8.21987 9.99637 7.92698 10.2893C7.63408 10.5822 7.63408 11.057 7.92698 11.3499L8.98764 10.2893ZM15.7996 11.8638L11.8633 15.8001L12.924 16.8608L16.8603 12.9245L15.7996 11.8638ZM8.20037 12.1372L12.1367 8.20086L11.076 7.1402L7.13971 11.0765L8.20037 12.1372ZM8.20037 15.8001C7.6287 15.2284 7.25442 14.8519 7.01378 14.5365C6.78634 14.2384 6.75 14.0846 6.75 13.9687H5.25C5.25 14.5444 5.492 15.0149 5.82124 15.4464C6.13728 15.8606 6.59802 16.3191 7.13971 16.8608L8.20037 15.8001ZM7.13971 11.0765C6.59802 11.6182 6.13728 12.0767 5.82124 12.4909C5.492 12.9224 5.25 13.3929 5.25 13.9687H6.75C6.75 13.8527 6.78634 13.6989 7.01378 13.4008C7.25442 13.0854 7.6287 12.7089 8.20037 12.1372L7.13971 11.0765ZM11.8633 15.8001C11.2916 16.3718 10.9151 16.7461 10.5997 16.9867C10.3016 17.2142 10.1478 17.2505 10.0318 17.2505V18.7505C10.6076 18.7505 11.078 18.5085 11.5096 18.1792C11.9238 17.8632 12.3823 17.4025 12.924 16.8608L11.8633 15.8001ZM7.13971 16.8608C7.6814 17.4025 8.13989 17.8632 8.55411 18.1792C8.98563 18.5085 9.45604 18.7505 10.0318 18.7505V17.2505C9.91588 17.2505 9.76207 17.2142 9.46398 16.9867C9.14858 16.7461 8.77204 16.3718 8.20037 15.8001L7.13971 16.8608ZM15.7996 8.20086C16.3713 8.77253 16.7456 9.14906 16.9862 9.46447C17.2137 9.76256 17.25 9.91637 17.25 10.0323H18.75C18.75 9.45653 18.508 8.98612 18.1788 8.55459C17.8627 8.14038 17.402 7.68189 16.8603 7.1402L15.7996 8.20086ZM16.8603 12.9245C17.402 12.3828 17.8627 11.9243 18.1788 11.5101C18.508 11.0785 18.75 10.6081 18.75 10.0323H17.25C17.25 10.1483 17.2137 10.3021 16.9862 10.6002C16.7456 10.9156 16.3713 11.2921 15.7996 11.8638L16.8603 12.9245ZM16.8603 7.1402C16.3186 6.59851 15.8601 6.13777 15.4459 5.82173C15.0144 5.49249 14.544 5.25049 13.9682 5.25049V6.75049C14.0841 6.75049 14.2379 6.78683 14.536 7.01426C14.8514 7.25491 15.228 7.62919 15.7996 8.20086L16.8603 7.1402ZM12.1367 8.20086C12.7084 7.62919 13.0849 7.25491 13.4003 7.01426C13.6984 6.78683 13.8522 6.75049 13.9682 6.75049V5.25049C13.3924 5.25049 12.922 5.49249 12.4904 5.82173C12.0762 6.13777 11.6177 6.59851 11.076 7.1402L12.1367 8.20086ZM13.7112 15.0129L8.98764 10.2893L7.92698 11.3499L12.6506 16.0735L13.7112 15.0129Z" fill="#1C274C"/>
<path d="M2 12.0005C2 6.47764 6.47715 2.00049 12 2.00049C17.5228 2.00049 22 6.47764 22 12.0005C22 17.5233 17.5228 22.0005 12 22.0005C6.47715 22.0005 2 17.5233 2 12.0005Z" stroke="#1C274C" stroke-width="1.5"/>
</svg>
