<svg width="24" height="24" viewBox="0 0 24 24" fill="none" xmlns="http://www.w3.org/2000/svg">
<path d="M5.50506 11.41L6.03539 11.9404L5.50506 11.41ZM3 14.9527H2.25H3ZM9.04776 21.0005V21.7505V21.0005ZM11.4096 5.50555L10.8792 4.97522L11.4096 5.50555ZM13.241 17.8449C13.5339 18.1378 14.0088 18.1378 14.3017 17.8449C14.5946 17.552 14.5946 17.0771 14.3017 16.7842L13.241 17.8449ZM7.21629 9.69881C6.9234 9.40592 6.44852 9.40592 6.15563 9.69881C5.86274 9.9917 5.86274 10.4666 6.15563 10.7595L7.21629 9.69881ZM17.9646 12.0606L12.0601 17.9651L13.1208 19.0258L19.0253 13.1213L17.9646 12.0606ZM6.03539 11.9404L11.9399 6.03588L10.8792 4.97522L4.97473 10.8797L6.03539 11.9404ZM6.03539 17.9651C5.18538 17.1151 4.60235 16.5298 4.22253 16.032C3.85592 15.5515 3.75 15.2416 3.75 14.9527H2.25C2.25 15.7015 2.56159 16.3279 3.03 16.9419C3.48521 17.5385 4.1547 18.2057 4.97473 19.0258L6.03539 17.9651ZM4.97473 10.8797C4.1547 11.6997 3.48521 12.367 3.03 12.9636C2.56159 13.5775 2.25 14.204 2.25 14.9527H3.75C3.75 14.6638 3.85592 14.354 4.22253 13.8735C4.60235 13.3757 5.18538 12.7904 6.03539 11.9404L4.97473 10.8797ZM12.0601 17.9651C11.2101 18.8151 10.6248 19.3981 10.127 19.778C9.64651 20.1446 9.33665 20.2505 9.04776 20.2505V21.7505C9.79649 21.7505 10.423 21.4389 11.0369 20.9705C11.6335 20.5153 12.3008 19.8458 13.1208 19.0258L12.0601 17.9651ZM4.97473 19.0258C5.79476 19.8458 6.46201 20.5153 7.05863 20.9705C7.67256 21.4389 8.29902 21.7505 9.04776 21.7505V20.2505C8.75886 20.2505 8.449 20.1446 7.9685 19.778C7.47069 19.3981 6.88541 18.8151 6.03539 17.9651L4.97473 19.0258ZM17.9646 6.03588C18.8146 6.88589 19.3977 7.47118 19.7775 7.96899C20.1441 8.44949 20.25 8.75935 20.25 9.04824H21.75C21.75 8.29951 21.4384 7.67304 20.97 7.05912C20.5148 6.46249 19.8453 5.79525 19.0253 4.97522L17.9646 6.03588ZM19.0253 13.1213C19.8453 12.3012 20.5148 11.634 20.97 11.0374C21.4384 10.4234 21.75 9.79698 21.75 9.04824H20.25C20.25 9.33714 20.1441 9.647 19.7775 10.1275C19.3977 10.6253 18.8146 11.2106 17.9646 12.0606L19.0253 13.1213ZM19.0253 4.97522C18.2052 4.15519 17.538 3.48569 16.9414 3.03049C16.3274 2.56208 15.701 2.25049 14.9522 2.25049V3.75049C15.2411 3.75049 15.551 3.85641 16.0315 4.22302C16.5293 4.60283 17.1146 5.18587 17.9646 6.03588L19.0253 4.97522ZM11.9399 6.03588C12.7899 5.18587 13.3752 4.60283 13.873 4.22302C14.3535 3.85641 14.6633 3.75049 14.9522 3.75049V2.25049C14.2035 2.25049 13.577 2.56208 12.9631 3.03049C12.3665 3.48569 11.6993 4.15519 10.8792 4.97522L11.9399 6.03588ZM14.3017 16.7842L7.21629 9.69881L6.15563 10.7595L13.241 17.8449L14.3017 16.7842Z" fill="#000000"/>
<path d="M9 21.0005H21" stroke="#000000" stroke-width="1.5" stroke-linecap="round"/>
</svg>
