<svg width="24" height="24" viewBox="0 0 24 24" fill="none" xmlns="http://www.w3.org/2000/svg">
<path d="M2.68936 6.70505C2.52619 6.32433 2.08528 6.14796 1.70456 6.31113C1.32384 6.4743 1.14747 6.91521 1.31064 7.29593L2.68936 6.70505ZM15.5872 13.3292L15.3125 12.6313L15.5872 13.3292ZM9.04145 13.7382C9.26736 13.391 9.16904 12.9265 8.82185 12.7006C8.47466 12.4746 8.01008 12.573 7.78417 12.9201L9.04145 13.7382ZM6.37136 15.0914C6.14545 15.4386 6.24377 15.9032 6.59096 16.1291C6.93815 16.355 7.40273 16.2567 7.62864 15.9095L6.37136 15.0914ZM22.6894 7.29593C22.8525 6.91521 22.6762 6.4743 22.2954 6.31113C21.9147 6.14796 21.4738 6.32433 21.3106 6.70505L22.6894 7.29593ZM19 11.1293L18.4867 10.5825V10.5825L19 11.1293ZM19.9697 13.1597C20.2626 13.4525 20.7374 13.4525 21.0303 13.1597C21.3232 12.8668 21.3232 12.3919 21.0303 12.099L19.9697 13.1597ZM11.25 16.5005C11.25 16.9147 11.5858 17.2505 12 17.2505C12.4142 17.2505 12.75 16.9147 12.75 16.5005H11.25ZM16.3714 15.9095C16.5973 16.2567 17.0619 16.355 17.409 16.1291C17.7562 15.9032 17.8545 15.4386 17.6286 15.0914L16.3714 15.9095ZM5.53033 11.6597C5.82322 11.3668 5.82322 10.8919 5.53033 10.599C5.23744 10.3061 4.76256 10.3061 4.46967 10.599L5.53033 11.6597ZM2.96967 12.099C2.67678 12.3919 2.67678 12.8668 2.96967 13.1597C3.26256 13.4525 3.73744 13.4525 4.03033 13.1597L2.96967 12.099ZM12 13.2505C8.77611 13.2505 6.46133 11.6451 4.9246 9.99015C4.15645 9.16292 3.59325 8.33333 3.22259 7.71063C3.03769 7.39999 2.90187 7.1428 2.8134 6.96586C2.76919 6.87744 2.73689 6.80924 2.71627 6.7646C2.70597 6.74229 2.69859 6.72589 2.69411 6.71582C2.69187 6.71078 2.69036 6.70733 2.68957 6.70552C2.68917 6.70461 2.68896 6.70412 2.68892 6.70404C2.68891 6.704 2.68893 6.70406 2.68901 6.70423C2.68904 6.70431 2.68913 6.70452 2.68915 6.70456C2.68925 6.70479 2.68936 6.70505 2 7.00049C1.31064 7.29593 1.31077 7.29624 1.31092 7.29658C1.31098 7.29673 1.31114 7.29709 1.31127 7.29739C1.31152 7.29798 1.31183 7.29868 1.31218 7.29949C1.31287 7.30111 1.31376 7.30315 1.31483 7.3056C1.31698 7.31052 1.31988 7.31711 1.32353 7.32532C1.33083 7.34174 1.34115 7.36464 1.35453 7.3936C1.38127 7.45151 1.42026 7.53369 1.47176 7.63668C1.57469 7.84255 1.72794 8.13224 1.93366 8.47785C2.34425 9.16765 2.96855 10.0881 3.8254 11.0108C5.53867 12.8559 8.22389 14.7505 12 14.7505V13.2505ZM15.3125 12.6313C14.3421 13.0133 13.2417 13.2505 12 13.2505V14.7505C13.4382 14.7505 14.7246 14.4747 15.8619 14.0271L15.3125 12.6313ZM7.78417 12.9201L6.37136 15.0914L7.62864 15.9095L9.04145 13.7382L7.78417 12.9201ZM22 7.00049C21.3106 6.70505 21.3107 6.7049 21.3108 6.70476C21.3108 6.70472 21.3108 6.70458 21.3109 6.70451C21.3109 6.70436 21.311 6.70425 21.311 6.70417C21.3111 6.70401 21.3111 6.70398 21.3111 6.70408C21.311 6.70429 21.3107 6.70501 21.3101 6.70625C21.309 6.70872 21.307 6.71324 21.3041 6.71973C21.2983 6.73271 21.2889 6.75358 21.2758 6.78173C21.2495 6.83806 21.2086 6.92344 21.1526 7.03316C21.0406 7.25275 20.869 7.5688 20.6354 7.94369C20.1669 8.69565 19.4563 9.67245 18.4867 10.5825L19.5133 11.6762C20.6023 10.654 21.3917 9.56636 21.9085 8.73695C22.1676 8.32117 22.36 7.96729 22.4889 7.71464C22.5533 7.58823 22.602 7.48691 22.6353 7.41556C22.6519 7.37988 22.6647 7.35166 22.6737 7.33153C22.6782 7.32146 22.6818 7.31341 22.6844 7.30745C22.6857 7.30447 22.6867 7.30202 22.6876 7.30009C22.688 7.29913 22.6883 7.2983 22.6886 7.29761C22.6888 7.29726 22.6889 7.29695 22.689 7.29667C22.6891 7.29653 22.6892 7.29634 22.6892 7.29627C22.6893 7.2961 22.6894 7.29593 22 7.00049ZM18.4867 10.5825C17.6277 11.3887 16.5739 12.1348 15.3125 12.6313L15.8619 14.0271C17.3355 13.447 18.5466 12.5835 19.5133 11.6762L18.4867 10.5825ZM18.4697 11.6597L19.9697 13.1597L21.0303 12.099L19.5303 10.599L18.4697 11.6597ZM11.25 14.0005V16.5005H12.75V14.0005H11.25ZM14.9586 13.7382L16.3714 15.9095L17.6286 15.0914L16.2158 12.9201L14.9586 13.7382ZM4.46967 10.599L2.96967 12.099L4.03033 13.1597L5.53033 11.6597L4.46967 10.599Z" fill="#000000"/>
</svg>
