<svg width="24" height="24" viewBox="0 0 24 24" fill="none" xmlns="http://www.w3.org/2000/svg">
<path d="M10 22.0005C6.22876 22.0005 4.34315 22.0005 3.17157 20.8289C2 19.6573 2 18.7717 2 15.0005" stroke="#000000" stroke-width="1.5" stroke-linecap="round"/>
<path d="M22 15.0005C22 18.7717 22 19.6573 20.8284 20.8289C19.6569 22.0005 17.7712 22.0005 14 22.0005" stroke="#000000" stroke-width="1.5" stroke-linecap="round"/>
<path d="M14 2.00049C17.7712 2.00049 19.6569 2.00049 20.8284 3.17206C22 4.34363 22 5.22925 22 9.00049" stroke="#000000" stroke-width="1.5" stroke-linecap="round"/>
<path d="M10 2.00049C6.22876 2.00049 4.34315 2.00049 3.17157 3.17206C2 4.34363 2 5.22925 2 9.00049" stroke="#000000" stroke-width="1.5" stroke-linecap="round"/>
<path d="M5.89243 14.0603C5.29748 13.3702 5 13.0251 5 12.0005C5 10.9759 5.29747 10.6308 5.89242 9.9407C7.08037 8.56271 9.07268 7.00049 12 7.00049C14.9273 7.00049 16.9196 8.56271 18.1076 9.94069C18.7025 10.6308 19 10.9759 19 12.0005C19 13.0251 18.7025 13.3702 18.1076 14.0603C16.9196 15.4383 14.9273 17.0005 12 17.0005C9.07268 17.0005 7.08038 15.4383 5.89243 14.0603Z" stroke="#000000" stroke-width="1.5"/>
<circle cx="12" cy="12.0005" r="2" stroke="#000000" stroke-width="1.5"/>
</svg>
