<svg width="24" height="24" viewBox="0 0 24 24" fill="none" xmlns="http://www.w3.org/2000/svg">
<path d="M3.27489 15.2962C2.42496 14.192 2 13.6399 2 12.0005C2 10.3611 2.42496 9.80902 3.27489 8.70482C4.97196 6.50005 7.81811 4.00049 12 4.00049C16.1819 4.00049 19.028 6.50005 20.7251 8.70482C21.575 9.80901 22 10.3611 22 12.0005C22 13.6399 21.575 14.192 20.7251 15.2962C19.028 17.5009 16.1819 20.0005 12 20.0005C7.81811 20.0005 4.97196 17.5009 3.27489 15.2962Z" stroke="#000000" stroke-width="1.5"/>
<path d="M15 12.0005C15 13.6573 13.6569 15.0005 12 15.0005C10.3431 15.0005 9 13.6573 9 12.0005C9 10.3436 10.3431 9.00049 12 9.00049C13.6569 9.00049 15 10.3436 15 12.0005Z" stroke="#000000" stroke-width="1.5"/>
</svg>
