<svg width="24" height="24" viewBox="0 0 24 24" fill="none" xmlns="http://www.w3.org/2000/svg">
<path d="M12 2H8.66671C6.82576 2 5.33337 3.49238 5.33337 5.33333C5.33337 7.17428 6.82576 8.66667 8.66671 8.66667H12V2Z" stroke="#1C274C" stroke-width="1.5"/>
<path d="M12 8.66675H8.66671C6.82576 8.66675 5.33337 10.1591 5.33337 12.0001C5.33337 13.841 6.82576 15.3334 8.66671 15.3334H12V8.66675Z" stroke="#1C274C" stroke-width="1.5"/>
<path d="M18.6667 12.0001C18.6667 13.841 17.1743 15.3334 15.3333 15.3334C13.4924 15.3334 12 13.841 12 12.0001C12 10.1591 13.4924 8.66675 15.3333 8.66675C17.1743 8.66675 18.6667 10.1591 18.6667 12.0001Z" stroke="#1C274C" stroke-width="1.5"/>
<path d="M8.66671 15.3333H12V18.6666C12 20.5075 10.5077 21.9999 8.66671 21.9999C6.82576 21.9999 5.33337 20.5075 5.33337 18.6666C5.33337 16.8256 6.82576 15.3333 8.66671 15.3333Z" stroke="#1C274C" stroke-width="1.5"/>
<path d="M12 2H15.3333C17.1743 2 18.6667 3.49238 18.6667 5.33333C18.6667 7.17428 17.1743 8.66667 15.3333 8.66667H12V2Z" stroke="#1C274C" stroke-width="1.5"/>
</svg>
