<svg width="24" height="24" viewBox="0 0 24 24" fill="none" xmlns="http://www.w3.org/2000/svg">
<path d="M15.3929 4.05389L14.8912 4.61136L15.3929 4.05389ZM19.3517 7.61679L18.85 8.17426L19.3517 7.61679ZM21.654 10.1543L20.9689 10.4595V10.4595L21.654 10.1543ZM3.17157 20.8287L3.7019 20.2983H3.7019L3.17157 20.8287ZM20.8284 20.8287L20.2981 20.2983L20.2981 20.2983L20.8284 20.8287ZM14 21.2502H10V22.7502H14V21.2502ZM2.75 14.0002V10.0002H1.25V14.0002H2.75ZM21.25 13.5631V14.0002H22.75V13.5631H21.25ZM14.8912 4.61136L18.85 8.17426L19.8534 7.05932L15.8947 3.49642L14.8912 4.61136ZM22.75 13.5631C22.75 11.8748 22.7651 10.8058 22.3391 9.84921L20.9689 10.4595C21.2349 11.0567 21.25 11.7423 21.25 13.5631H22.75ZM18.85 8.17426C20.2034 9.39235 20.7029 9.86224 20.9689 10.4595L22.3391 9.84921C21.9131 8.89265 21.1084 8.18877 19.8534 7.05932L18.85 8.17426ZM10.0298 2.75024C11.6116 2.75024 12.2085 2.76182 12.7405 2.96598L13.2779 1.56555C12.4261 1.23867 11.498 1.25024 10.0298 1.25024V2.75024ZM15.8947 3.49642C14.8087 2.51903 14.1297 1.89239 13.2779 1.56555L12.7405 2.96598C13.2727 3.17017 13.7215 3.55861 14.8912 4.61136L15.8947 3.49642ZM10 21.2502C8.09318 21.2502 6.73851 21.2487 5.71085 21.1105C4.70476 20.9752 4.12511 20.7215 3.7019 20.2983L2.64124 21.359C3.38961 22.1074 4.33855 22.4395 5.51098 22.5971C6.66182 22.7518 8.13558 22.7502 10 22.7502V21.2502ZM1.25 14.0002C1.25 15.8647 1.24841 17.3384 1.40313 18.4893C1.56076 19.6617 1.89288 20.6106 2.64124 21.359L3.7019 20.2983C3.27869 19.8751 3.02502 19.2955 2.88976 18.2894C2.75159 17.2617 2.75 15.9071 2.75 14.0002H1.25ZM14 22.7502C15.8644 22.7502 17.3382 22.7518 18.489 22.5971C19.6614 22.4395 20.6104 22.1074 21.3588 21.359L20.2981 20.2983C19.8749 20.7215 19.2952 20.9752 18.2892 21.1105C17.2615 21.2487 15.9068 21.2502 14 21.2502V22.7502ZM21.25 14.0002C21.25 15.9071 21.2484 17.2617 21.1102 18.2894C20.975 19.2955 20.7213 19.8751 20.2981 20.2983L21.3588 21.359C22.1071 20.6106 22.4392 19.6617 22.5969 18.4893C22.7516 17.3384 22.75 15.8647 22.75 14.0002H21.25ZM2.75 10.0002C2.75 8.09342 2.75159 6.73876 2.88976 5.71109C3.02502 4.705 3.27869 4.12536 3.7019 3.70215L2.64124 2.64149C1.89288 3.38985 1.56076 4.3388 1.40313 5.51122C1.24841 6.66207 1.25 8.13583 1.25 10.0002H2.75ZM10.0298 1.25024C8.15538 1.25024 6.67442 1.24866 5.51887 1.40332C4.34232 1.56078 3.39019 1.89254 2.64124 2.64149L3.7019 3.70215C4.12453 3.27952 4.70596 3.02549 5.71785 2.89006C6.75075 2.75182 8.11311 2.75024 10.0298 2.75024V1.25024Z" fill="#000000"/>
<path d="M13 2.50024V5.00024C13 7.35727 13 8.53578 13.7322 9.26801C14.4645 10.0002 15.643 10.0002 18 10.0002H22" stroke="#000000" stroke-width="1.5"/>
<path d="M8.14595 13.0228C8.52594 12.3411 8.71594 12.0002 9 12.0002C9.28406 12.0002 9.47406 12.3411 9.85405 13.0228L9.95236 13.1991C10.0603 13.3928 10.1143 13.4897 10.1985 13.5536C10.2827 13.6175 10.3875 13.6412 10.5972 13.6887L10.7881 13.7319C11.526 13.8988 11.895 13.9823 11.9828 14.2646C12.0706 14.5468 11.819 14.841 11.316 15.4292L11.1858 15.5814C11.0429 15.7486 10.9714 15.8322 10.9392 15.9356C10.9071 16.039 10.9179 16.1505 10.9395 16.3735L10.9592 16.5766C11.0352 17.3614 11.0733 17.7539 10.8435 17.9283C10.6136 18.1028 10.2682 17.9437 9.5773 17.6256L9.39855 17.5433C9.20222 17.4529 9.10406 17.4077 9 17.4077C8.89594 17.4077 8.79778 17.4529 8.60145 17.5433L8.4227 17.6256C7.7318 17.9437 7.38635 18.1028 7.15654 17.9283C6.92674 17.7539 6.96476 17.3614 7.04082 16.5766L7.0605 16.3735C7.08211 16.1505 7.09291 16.039 7.06076 15.9356C7.0286 15.8322 6.95713 15.7486 6.81418 15.5814L6.68403 15.4292C6.18097 14.841 5.92945 14.5468 6.01723 14.2646C6.10501 13.9823 6.47396 13.8988 7.21186 13.7319L7.40277 13.6887C7.61246 13.6412 7.7173 13.6175 7.80148 13.5536C7.88567 13.4897 7.93966 13.3928 8.04764 13.1991L8.14595 13.0228Z" stroke="#000000" stroke-width="1.5"/>
</svg>
