<svg width="24" height="24" viewBox="0 0 24 24" fill="none" xmlns="http://www.w3.org/2000/svg">
<path d="M2 12.0004C2 7.28632 2 4.9293 3.46447 3.46483C4.92893 2.00037 7.28595 2.00037 12 2.00037C16.714 2.00037 19.0711 2.00037 20.5355 3.46483C22 4.9293 22 7.28632 22 12.0004C22 16.7144 22 19.0714 20.5355 20.5359C19.0711 22.0004 16.714 22.0004 12 22.0004C7.28595 22.0004 4.92893 22.0004 3.46447 20.5359C2 19.0714 2 16.7144 2 12.0004Z" stroke="#1C274C" stroke-width="1.5"/>
<path d="M17 12.667C17 16.9337 13.4444 18.0004 11.6667 18.0004C10.1111 18.0004 7 16.9337 7 12.667C7 10.8113 8.06292 9.63312 8.95593 9.04012C9.36421 8.76901 9.87201 8.94229 9.89841 9.43168C9.95616 10.5025 10.7814 11.3626 11.4205 10.5015C12.0054 9.71335 12.2941 8.64309 12.2941 8.00038C12.2941 7.0536 13.2525 6.45196 14.0008 7.03203C15.4593 8.16267 17 10.0562 17 12.667Z" stroke="#1C274C" stroke-width="1.5"/>
</svg>
