<svg width="24" height="24" viewBox="0 0 24 24" fill="none" xmlns="http://www.w3.org/2000/svg">
<path d="M20 13.1115C20 20.2226 13.9556 22.0004 10.9333 22.0004C8.28889 22.0004 3 20.2226 3 13.1115C3 10.3299 4.46147 8.46174 5.85996 7.39491C6.63841 6.80106 7.6304 7.39234 7.73017 8.36635L7.816 9.20418C7.92052 10.2245 8.84932 11.061 9.70932 10.5021C11.3938 9.40742 12 6.77556 12 5.3337V5.01008C12 3.58036 13.4438 2.66022 14.6023 3.49804C17.1653 5.35163 20 8.58464 20 13.1115Z" stroke="#000000" stroke-width="1.5"/>
<path d="M8 18.4448C8 21.2892 10.4889 22.0004 11.7333 22.0004C12.8222 22.0004 15 21.2892 15 18.4448C15 17.3438 14.4107 16.6006 13.8404 16.1717C13.4424 15.8723 12.8828 16.1411 12.7459 16.6199C12.5675 17.2441 11.9228 17.6363 11.5944 17.0763C11.2941 16.5641 11.2941 15.796 11.2941 15.3337C11.2941 14.6972 10.6539 14.2851 10.1389 14.6592C9.10649 15.4094 8 16.6818 8 18.4448Z" stroke="#000000" stroke-width="1.5"/>
</svg>
