<svg width="24" height="24" viewBox="0 0 24 24" fill="none" xmlns="http://www.w3.org/2000/svg">
<path d="M20 15.0004C20 19.2548 17.3819 21.1218 15.3588 21.7513C14.9274 21.8856 14.6438 21.3826 14.9019 21.0118C15.7823 19.7466 16.8 17.8162 16.8 16.0004C16.8 14.0498 15.1559 11.7469 13.8721 10.3265C13.5786 10.0017 13.0667 10.2166 13.0507 10.654C12.9976 12.1032 12.7689 14.0421 11.7828 15.5617C11.6241 15.8063 11.2872 15.8266 11.1063 15.5979C10.7982 15.2082 10.4901 14.7268 10.182 14.3466C10.016 14.1417 9.71604 14.1389 9.52461 14.3202C8.77825 15.0269 7.73333 16.1289 7.73333 17.5004C7.73333 18.4896 8.20479 19.7209 8.69077 20.6744C8.91147 21.1074 8.50204 21.6154 8.08142 21.3719C6.24558 20.3092 4 18.1072 4 15.0004C4 11.8539 8.31029 7.49518 9.95605 3.37727C10.2157 2.72748 11.0161 2.42214 11.5727 2.84618C14.9439 5.41424 20 10.3785 20 15.0004Z" stroke="#000000" stroke-width="1.5"/>
</svg>
