<svg width="24" height="24" viewBox="0 0 24 24" fill="none" xmlns="http://www.w3.org/2000/svg">
<path d="M9 22.0001H15" stroke="#000000" stroke-width="1.5" stroke-linecap="round"/>
<path d="M12 22.0001V8.00012" stroke="#000000" stroke-width="1.5" stroke-linecap="round"/>
<path d="M12.0001 8.00012C14.3369 8.00012 16.2992 6.7177 16.8475 4.98461C17.0141 4.45805 16.5524 4.00012 16.0001 4.00012H8.00009C7.4478 4.00012 6.98608 4.45805 7.15266 4.98461C7.70094 6.7177 9.66331 8.00012 12.0001 8.00012Z" stroke="#000000" stroke-width="1.5"/>
<path d="M12 2.00012C13.6569 2.00012 15 2.89555 15 4.00012H9C9 2.89555 10.3431 2.00012 12 2.00012Z" stroke="#000000" stroke-width="1.5"/>
<path d="M12 19.0001V17.9369C12 16.6556 11.4101 15.4469 10.4035 14.6656L6.52181 11.891M2.7793 11.6846L5.31139 8.4431M2.7793 11.6846C2.4297 12.1321 2.50541 12.8019 3.03895 12.9889C4.2398 13.4095 5.62367 13.0439 6.45481 11.9799C6.47776 11.9506 6.50009 11.9209 6.52181 11.891M2.7793 11.6846C1.89216 10.9791 1.73982 9.68152 2.43904 8.78642C3.13826 7.89132 4.42425 7.73761 5.31139 8.4431M5.31139 8.4431C5.661 7.99555 6.3242 7.91332 6.62898 8.39308C7.29602 9.44308 7.28701 10.8366 6.52181 11.891" stroke="#000000" stroke-width="1.5" stroke-linecap="round"/>
</svg>
