<svg width="24" height="24" viewBox="0 0 24 24" fill="none" xmlns="http://www.w3.org/2000/svg">
<path d="M9 22.0001H15" stroke="#1C274C" stroke-width="1.5" stroke-linecap="round"/>
<path d="M12 22.0001V7.00012" stroke="#1C274C" stroke-width="1.5" stroke-linecap="round"/>
<path d="M12.0001 7.00012C13.313 7.00012 14.429 6.15666 14.8357 4.98202C15.0164 4.46013 14.5523 4.00012 14.0001 4.00012H10.0001C9.44777 4.00012 8.98374 4.46013 9.16442 4.98202C9.57111 6.15666 10.6871 7.00012 12.0001 7.00012Z" stroke="#1C274C" stroke-width="1.5"/>
<path d="M12 2.00012C13.1046 2.00012 14 2.89555 14 4.00012H10C10 2.89555 10.8954 2.00012 12 2.00012Z" stroke="#1C274C" stroke-width="1.5"/>
<path d="M12 18.0001V16.9369C12 15.6556 11.4101 14.4469 10.4035 13.6656L6.52181 10.891M2.7793 10.6846L5.31139 7.4431M2.7793 10.6846C2.4297 11.1321 2.50541 11.8019 3.03895 11.9889C4.2398 12.4095 5.62367 12.0439 6.45481 10.9799C6.47776 10.9506 6.50009 10.9209 6.52181 10.891M2.7793 10.6846C1.89216 9.97906 1.73982 8.68152 2.43904 7.78642C3.13826 6.89132 4.42425 6.73761 5.31139 7.4431M5.31139 7.4431C5.661 6.99555 6.3242 6.91332 6.62898 7.39308C7.29602 8.44308 7.28701 9.83656 6.52181 10.891" stroke="#1C274C" stroke-width="1.5" stroke-linecap="round"/>
<path d="M12 18.0001V16.9369C12 15.6556 12.5899 14.4469 13.5965 13.6656L17.4782 10.891M21.2207 10.6846L18.6886 7.4431M21.2207 10.6846C21.5703 11.1321 21.4946 11.8019 20.9611 11.9889C19.7602 12.4095 18.3763 12.0439 17.5452 10.9799C17.5222 10.9506 17.4999 10.9209 17.4782 10.891M21.2207 10.6846C22.1078 9.97906 22.2602 8.68152 21.561 7.78642C20.8617 6.89132 19.5757 6.73761 18.6886 7.4431M18.6886 7.4431C18.339 6.99555 17.6758 6.91332 17.371 7.39308C16.704 8.44308 16.713 9.83656 17.4782 10.891" stroke="#1C274C" stroke-width="1.5" stroke-linecap="round"/>
</svg>
