<svg width="24" height="24" viewBox="0 0 24 24" fill="none" xmlns="http://www.w3.org/2000/svg">
<path d="M16.5 7.50012L13.5 7.50012" stroke="#000000" stroke-width="1.5" stroke-linecap="round"/>
<path d="M5 5.21746C5 4.64381 5 4.35699 5.04855 4.11807C5.26225 3.06632 6.14822 2.24364 7.28087 2.0452C7.53817 2.00012 7.84705 2.00012 8.46482 2.00012C8.7355 2.00012 8.87083 2.00012 9.0009 2.01142C9.56166 2.06011 10.0936 2.2647 10.5272 2.59846C10.6277 2.67587 10.7234 2.76473 10.9148 2.94246L11.3 3.30012C11.871 3.83038 12.1566 4.09551 12.4985 4.27215C12.6863 4.36918 12.8855 4.44581 13.0922 4.50053C13.4685 4.60012 13.8723 4.60012 14.6799 4.60012H14.9415C16.7841 4.60012 17.7055 4.60012 18.3043 5.10027C18.3594 5.14628 18.4118 5.19496 18.4614 5.24611C19 5.8022 19 6.65772 19 8.36876V9.80012C19 12.2514 19 13.4771 18.1799 14.2386C17.3598 15.0001 16.0399 15.0001 13.4 15.0001H10.6C7.96013 15.0001 6.6402 15.0001 5.8201 14.2386C5 13.4771 5 12.2514 5 9.80012V5.21746Z" stroke="#000000" stroke-width="1.5"/>
<path d="M22 20.0001H14M2 20.0001H10" stroke="#000000" stroke-width="1.5" stroke-linecap="round"/>
<path d="M12 18.0001V15.0001" stroke="#000000" stroke-width="1.5" stroke-linecap="round"/>
<circle cx="12" cy="20.0001" r="2" stroke="#000000" stroke-width="1.5"/>
</svg>
