<svg width="24" height="24" viewBox="0 0 24 24" fill="none" xmlns="http://www.w3.org/2000/svg">
<path d="M2 6.94987C2 6.06734 2 5.62607 2.06935 5.25851C2.37464 3.64043 3.64031 2.37476 5.25839 2.06947C5.62595 2.00012 6.06722 2.00012 6.94975 2.00012C7.33642 2.00012 7.52976 2.00012 7.71557 2.0175C8.51665 2.09241 9.27652 2.40716 9.89594 2.92064C10.0396 3.03974 10.1763 3.17645 10.4497 3.44987L11 4.00012C11.8158 4.8159 12.2237 5.22379 12.7121 5.49555C12.9804 5.64483 13.2651 5.76273 13.5604 5.8469C14.0979 6.00012 14.6747 6.00012 15.8284 6.00012H16.2021C18.8345 6.00012 20.1506 6.00012 21.0062 6.76959C21.0849 6.84037 21.1598 6.91526 21.2305 6.99395C22 7.84947 22 9.16566 22 11.798V14.0001C22 17.7714 22 19.657 20.8284 20.8285C19.6569 22.0001 17.7712 22.0001 14 22.0001H10C6.22876 22.0001 4.34315 22.0001 3.17157 20.8285C2 19.657 2 17.7714 2 14.0001V6.94987Z" stroke="#000000" stroke-width="1.5"/>
<path d="M12.9524 11.8853C13.1907 11.8073 13.4471 11.7648 13.7143 11.7648C13.9762 11.7648 14.2277 11.8056 14.462 11.8807M10.0465 12.8534C9.939 12.8339 9.82793 12.8237 9.71429 12.8237C8.76751 12.8237 8 13.5347 8 14.4119C8 15.289 8.76751 16.0001 9.71429 16.0001H13.7143C14.9767 16.0001 16 15.052 16 13.8825C16 12.9555 15.3572 12.1677 14.462 11.8807M10.0465 12.8534C9.95482 12.6243 9.90476 12.3764 9.90476 12.1178C9.90476 10.9482 10.9281 10.0001 12.1905 10.0001C13.3664 10.0001 14.3348 10.8228 14.462 11.8807M10.0465 12.8534C10.2722 12.8945 10.4821 12.9766 10.6667 13.0911" stroke="#000000" stroke-width="1.5" stroke-linecap="round"/>
</svg>
