<svg width="24" height="24" viewBox="0 0 24 24" fill="none" xmlns="http://www.w3.org/2000/svg">
<path d="M9.19762 11.9587L9.91426 11.7375L9.19762 11.9587ZM9.54558 10.8688L9.08995 10.2731L9.54558 10.8688ZM9.91896 14.2957L9.20232 14.5169L9.91896 14.2957ZM14.0579 14.2957L13.3413 14.0745L14.0579 14.2957ZM14.4313 10.8688L13.9757 11.4646V11.4646L14.4313 10.8688ZM14.7793 11.9587L15.4959 12.1799L14.7793 11.9587ZM12.5948 9.46424L13.0504 8.86851L12.5948 9.46424ZM11.3821 9.46424L11.8377 10.06L11.3821 9.46424ZM20.1847 17.7505C20.5989 17.7505 20.9347 17.4147 20.9347 17.0005C20.9347 16.5863 20.5989 16.2505 20.1847 16.2505V17.7505ZM14.7793 19.7356L14.0677 19.4987L14.7793 19.7356ZM13.4801 21.2636C13.3492 21.6566 13.5617 22.0812 13.9547 22.2121C14.3477 22.3429 14.7724 22.1304 14.9033 21.7374L13.4801 21.2636ZM3.99769 16.2505C3.58348 16.2505 3.24769 16.5863 3.24769 17.0005C3.24769 17.4147 3.58348 17.7505 3.99769 17.7505V16.2505ZM9.40314 19.7356L10.1147 19.4987L9.40314 19.7356ZM9.27917 21.7374C9.41002 22.1304 9.83469 22.3429 10.2277 22.2121C10.6207 22.0812 10.8332 21.6566 10.7024 21.2636L9.27917 21.7374ZM8.22071 17.378L7.78185 17.9862L8.22071 17.378ZM5.556 5.4599C5.4489 5.05977 5.03772 4.82222 4.63759 4.92931C4.23746 5.0364 3.9999 5.44758 4.10699 5.84771L5.556 5.4599ZM5.24951 7.21567L4.52501 7.40958V7.40958L5.24951 7.21567ZM3.59168 11.589L3.17811 10.9633L3.17811 10.9633L3.59168 11.589ZM1.62739 11.9884C1.28185 12.2168 1.18689 12.6821 1.4153 13.0276C1.64372 13.3732 2.109 13.4681 2.45454 13.2397L1.62739 11.9884ZM19.934 5.84781C20.0411 5.44768 19.8035 5.03649 19.4034 4.9294C19.0033 4.82231 18.5921 5.05987 18.485 5.46L19.934 5.84781ZM18.7915 7.21577L18.067 7.02186L18.7915 7.21577ZM20.4493 11.5891L20.0357 12.2148L20.4493 11.5891ZM21.5864 13.2398C21.932 13.4682 22.3973 13.3733 22.6257 13.0277C22.8541 12.6822 22.7591 12.2169 22.4136 11.9885L21.5864 13.2398ZM16.0903 3.83672C16.4288 3.59799 16.5096 3.13005 16.2709 2.79156C16.0322 2.45306 15.5642 2.37219 15.2257 2.61092L16.0903 3.83672ZM14.3376 4.15505L14.7699 4.76795L14.3376 4.15505ZM9.66562 4.10451L9.22021 4.70793V4.70793L9.66562 4.10451ZM8.61539 2.39708C8.28213 2.15108 7.81255 2.22182 7.56656 2.55507C7.32056 2.88833 7.3913 3.35791 7.72456 3.6039L8.61539 2.39708ZM14.7793 11.3682L14.0627 11.5895L14.7793 11.3682ZM9.19762 11.3682L9.91426 11.5895L9.19762 11.3682ZM21.2269 12.0005C21.2269 17.1099 17.0899 21.2505 11.9885 21.2505V22.7505C17.92 22.7505 22.7269 17.9367 22.7269 12.0005H21.2269ZM11.9885 21.2505C6.88701 21.2505 2.75 17.1099 2.75 12.0005H1.25C1.25 17.9367 6.05695 22.7505 11.9885 22.7505V21.2505ZM2.75 12.0005C2.75 6.89104 6.88701 2.75049 11.9885 2.75049V1.25049C6.05695 1.25049 1.25 6.06424 1.25 12.0005H2.75ZM11.9885 2.75049C17.0899 2.75049 21.2269 6.89104 21.2269 12.0005H22.7269C22.7269 6.06424 17.92 1.25049 11.9885 1.25049V2.75049ZM12.1392 10.06L13.9757 11.4646L14.887 10.2731L13.0504 8.86851L12.1392 10.06ZM14.0626 11.7375L13.3413 14.0745L14.7746 14.5169L15.4959 12.1799L14.0626 11.7375ZM13.1036 14.2505H10.8733V15.7505H13.1036V14.2505ZM10.6356 14.0745L9.91426 11.7375L8.48098 12.1799L9.20232 14.5169L10.6356 14.0745ZM10.0012 11.4646L11.8377 10.06L10.9265 8.86851L9.08995 10.2731L10.0012 11.4646ZM20.1847 16.2505H18.5696V17.7505H20.1847V16.2505ZM14.0677 19.4987L13.4801 21.2636L14.9033 21.7374L15.4909 19.9725L14.0677 19.4987ZM18.5696 16.2505C17.892 16.2505 17.3207 16.2494 16.8555 16.3025C16.3711 16.3579 15.9264 16.4786 15.5228 16.7698L16.4006 17.9862C16.5201 17.8999 16.6846 17.8318 17.0258 17.7928C17.3863 17.7516 17.8574 17.7505 18.5696 17.7505V16.2505ZM15.4909 19.9725C15.7161 19.2961 15.8662 18.8489 16.0193 18.5194C16.1643 18.2074 16.2809 18.0725 16.4006 17.9862L15.5228 16.7698C15.1193 17.061 14.8645 17.4449 14.659 17.8873C14.4615 18.3122 14.282 18.855 14.0677 19.4987L15.4909 19.9725ZM3.99769 17.7505H5.61279V16.2505H3.99769V17.7505ZM8.69154 19.9725L9.27917 21.7374L10.7024 21.2636L10.1147 19.4987L8.69154 19.9725ZM5.61279 17.7505C6.325 17.7505 6.79611 17.7516 7.15658 17.7928C7.49784 17.8318 7.66228 17.8999 7.78185 17.9862L8.65958 16.7698C8.25598 16.4786 7.81137 16.3579 7.32692 16.3025C6.86168 16.2494 6.29041 16.2505 5.61279 16.2505V17.7505ZM10.1147 19.4987C9.90043 18.855 9.7209 18.3122 9.52346 17.8873C9.31791 17.4449 9.06311 17.061 8.65958 16.7698L7.78185 17.9862C7.90148 18.0725 8.01815 18.2074 8.16314 18.5194C8.31624 18.8489 8.46634 19.2961 8.69154 19.9725L10.1147 19.4987ZM4.10699 5.84771L4.52501 7.40958L5.97401 7.02177L5.556 5.4599L4.10699 5.84771ZM3.17811 10.9633L1.62739 11.9884L2.45454 13.2397L4.00526 12.2147L3.17811 10.9633ZM4.52501 7.40958C4.70933 8.09826 4.83021 8.5543 4.88378 8.91372C4.93452 9.25411 4.9114 9.43118 4.85896 9.56951L6.26156 10.1012C6.43795 9.6359 6.43932 9.17514 6.3674 8.6926C6.29831 8.22911 6.14941 7.67712 5.97401 7.02177L4.52501 7.40958ZM4.00526 12.2147C4.57077 11.8409 5.04807 11.5267 5.407 11.2257C5.78074 10.9123 6.08516 10.5666 6.26156 10.1012L4.85896 9.56951C4.80654 9.70778 4.70659 9.85549 4.44321 10.0763C4.16501 10.3096 3.77244 10.5705 3.17811 10.9633L4.00526 12.2147ZM18.485 5.46L18.067 7.02186L19.516 7.40967L19.934 5.84781L18.485 5.46ZM20.0357 12.2148L21.5864 13.2398L22.4136 11.9885L20.8629 10.9634L20.0357 12.2148ZM18.067 7.02186C17.8916 7.67721 17.7427 8.2292 17.6736 8.69269C17.6017 9.17523 17.603 9.63599 17.7794 10.1013L19.182 9.5696C19.1296 9.43127 19.1065 9.25421 19.1572 8.91382C19.2108 8.55439 19.3316 8.09835 19.516 7.40967L18.067 7.02186ZM20.8629 10.9634C20.2685 10.5706 19.876 10.3097 19.5978 10.0764C19.3344 9.85558 19.2344 9.70787 19.182 9.5696L17.7794 10.1013C17.9558 10.5667 18.2602 10.9124 18.634 11.2258C18.9929 11.5268 19.4702 11.8409 20.0357 12.2148L20.8629 10.9634ZM15.2257 2.61092L13.9054 3.54215L14.7699 4.76795L16.0903 3.83672L15.2257 2.61092ZM10.111 3.5011L8.61539 2.39708L7.72456 3.6039L9.22021 4.70793L10.111 3.5011ZM13.9054 3.54215C13.3231 3.95279 12.9373 4.22352 12.6189 4.3977C12.3174 4.56262 12.1438 4.60173 11.9966 4.60014L11.9803 6.10005C12.478 6.10544 12.9109 5.9477 13.3387 5.71369C13.7496 5.48894 14.2159 5.15866 14.7699 4.76795L13.9054 3.54215ZM9.22021 4.70793C9.76562 5.11053 10.2247 5.45082 10.6306 5.6844C11.0533 5.9276 11.4827 6.09467 11.9803 6.10005L11.9966 4.60014C11.8494 4.59855 11.6767 4.55569 11.3788 4.38428C11.0642 4.20325 10.6843 3.92424 10.111 3.5011L9.22021 4.70793ZM13.9757 11.4646C14.0179 11.4968 14.0475 11.5404 14.0627 11.5895L15.4959 11.147C15.3911 10.8075 15.1828 10.4994 14.887 10.2731L13.9757 11.4646ZM14.0627 11.5895C14.0773 11.6369 14.0779 11.6881 14.0626 11.7375L15.4959 12.1799C15.6023 11.8354 15.5974 11.4758 15.4959 11.147L14.0627 11.5895ZM18.1938 9.14251L14.4923 10.6753L15.0662 12.0612L18.7677 10.5284L18.1938 9.14251ZM13.0504 8.86851C12.7371 8.62887 12.3624 8.5089 11.9885 8.5089V10.0089C12.0419 10.0089 12.0945 10.0258 12.1392 10.06L13.0504 8.86851ZM11.9885 8.5089C11.6146 8.5089 11.2398 8.62887 10.9265 8.86851L11.8377 10.06C11.8824 10.0258 11.935 10.0089 11.9885 10.0089V8.5089ZM12.7385 9.2589V5.3501H11.2385V9.2589H12.7385ZM13.3413 14.0745C13.3259 14.1246 13.2962 14.1665 13.2572 14.1972L14.1852 15.3757C14.4575 15.1613 14.6671 14.8651 14.7746 14.5169L13.3413 14.0745ZM13.2572 14.1972C13.214 14.2312 13.1607 14.2505 13.1036 14.2505V15.7505C13.5063 15.7505 13.8846 15.6124 14.1852 15.3757L13.2572 14.1972ZM16.5291 16.8875L14.2886 14.2959L13.1538 15.277L15.3944 17.8685L16.5291 16.8875ZM10.8733 14.2505C10.8162 14.2505 10.7629 14.2312 10.7197 14.1972L9.79172 15.3757C10.0923 15.6124 10.4706 15.7505 10.8733 15.7505V14.2505ZM10.7197 14.1972C10.6807 14.1665 10.651 14.1246 10.6356 14.0745L9.20232 14.5169C9.3098 14.8651 9.51943 15.1613 9.79172 15.3757L10.7197 14.1972ZM8.81059 17.8412L10.8456 15.2496L9.66584 14.3233L7.63084 16.9148L8.81059 17.8412ZM9.91426 11.7375C9.89899 11.6881 9.89961 11.6369 9.91426 11.5895L8.48099 11.147C8.37949 11.4758 8.37465 11.8354 8.48098 12.1799L9.91426 11.7375ZM9.91426 11.5895C9.9294 11.5404 9.95905 11.4968 10.0012 11.4646L9.08995 10.2731C8.79412 10.4994 8.58579 10.8075 8.48099 11.147L9.91426 11.5895ZM9.48889 10.6771L5.85153 9.14422L5.269 10.5265L8.90636 12.0594L9.48889 10.6771Z" fill="#1C274C"/>
</svg>
