<svg width="24" height="24" viewBox="0 0 24 24" fill="none" xmlns="http://www.w3.org/2000/svg">
<path d="M4 10.0001C4 6.22889 4 4.34327 5.17157 3.17169C6.34315 2.00012 8.22876 2.00012 12 2.00012C15.7712 2.00012 17.6569 2.00012 18.8284 3.17169C20 4.34327 20 6.22889 20 10.0001V13.0001C20 16.7714 20 18.657 18.8284 19.8285C17.6569 21.0001 15.7712 21.0001 12 21.0001C8.22876 21.0001 6.34315 21.0001 5.17157 19.8285C4 18.657 4 16.7714 4 13.0001V10.0001Z" stroke="#1C274C" stroke-width="1.5"/>
<path d="M17 21.0001V22.0001H16V21.0001M8 21.0001V22.0001H7V21.0001" stroke="#1C274C" stroke-width="1.5" stroke-linejoin="round"/>
<path d="M20 11.5001H4" stroke="#1C274C" stroke-width="1.5"/>
<path d="M17 7.00012L17 9.00012" stroke="#1C274C" stroke-width="1.5" stroke-linecap="round"/>
<path d="M17 14.0001L17 16.0001" stroke="#1C274C" stroke-width="1.5" stroke-linecap="round"/>
</svg>
