<svg width="24" height="24" viewBox="0 0 24 24" fill="none" xmlns="http://www.w3.org/2000/svg">
<path d="M22 12C22 16.714 22 19.0711 20.5355 20.5355C19.0711 22 16.714 22 12 22C7.28595 22 4.92893 22 3.46447 20.5355C2 19.0711 2 16.714 2 12C2 7.28595 2 4.92893 3.46447 3.46447C4.92893 2 7.28595 2 12 2" stroke="#1C274C" stroke-width="1.5" stroke-linecap="round"/>
<path d="M2 12.4999L3.75159 10.9673C4.66286 10.1699 6.03628 10.2156 6.89249 11.0719L11.1822 15.3616C11.8694 16.0488 12.9512 16.1425 13.7464 15.5837L14.0446 15.3741C15.1888 14.57 16.7369 14.6631 17.7765 15.5987L21 18.4999" stroke="#1C274C" stroke-width="1.5" stroke-linecap="round"/>
<path d="M17 2V11M17 2L20 5M17 2L14 5" stroke="#1C274C" stroke-width="1.5" stroke-linecap="round" stroke-linejoin="round"/>
</svg>
