<svg width="24" height="24" viewBox="0 0 24 24" fill="none" xmlns="http://www.w3.org/2000/svg">
<path d="M2 13.4373C2 9.66602 2 7.7804 3.17157 6.60883C4.34315 5.43726 6.22876 5.43726 10 5.43726H14C17.7712 5.43726 19.6569 5.43726 20.8284 6.60883C22 7.7804 22 9.66602 22 13.4373C22 17.2085 22 19.0941 20.8284 20.2657C19.6569 21.4373 17.7712 21.4373 14 21.4373H10C6.22876 21.4373 4.34315 21.4373 3.17157 20.2657C2 19.0941 2 17.2085 2 13.4373Z" stroke="#1C274C" stroke-width="1.5"/>
<path d="M3.98779 6C4.10022 5.06898 4.33494 4.42559 4.82498 3.93726C5.76553 3 7.27932 3 10.3069 3H13.5181C16.5457 3 18.0595 3 19 3.93726C19.4901 4.42559 19.7248 5.06898 19.8372 6" stroke="#1C274C" stroke-width="1.5"/>
<circle cx="17.5" cy="9.93726" r="1.5" stroke="#1C274C" stroke-width="1.5"/>
<path d="M2 13.9371L3.75159 12.4045C4.66286 11.6072 6.03628 11.6529 6.89249 12.5091L11.1822 16.7988C11.8694 17.4861 12.9512 17.5798 13.7464 17.0209L14.0446 16.8114C15.1888 16.0072 16.7369 16.1004 17.7765 17.036L21 19.9371" stroke="#1C274C" stroke-width="1.5" stroke-linecap="round"/>
</svg>
