<svg width="24" height="24" viewBox="0 0 24 24" fill="none" xmlns="http://www.w3.org/2000/svg">
<path d="M2 12C2 7.28595 2 4.92893 3.46447 3.46447C4.92893 2 7.28595 2 12 2C16.714 2 19.0711 2 20.5355 3.46447C22 4.92893 22 7.28595 22 12C22 16.714 22 19.0711 20.5355 20.5355C19.0711 22 16.714 22 12 22C7.28595 22 4.92893 22 3.46447 20.5355C2 19.0711 2 16.714 2 12Z" stroke="#1C274C" stroke-width="1.5"/>
<circle cx="16" cy="8" r="2" stroke="#1C274C" stroke-width="1.5"/>
<path d="M2 10.1539L2.98073 10.0131C9.95896 9.01111 15.9238 15.0314 14.8571 22.0001" stroke="#1C274C" stroke-width="1.5" stroke-linecap="round"/>
<path d="M22.0001 13.3847L21.0266 13.2499C18.1829 12.8562 15.6098 14.2719 14.2847 16.5002" stroke="#1C274C" stroke-width="1.5" stroke-linecap="round"/>
</svg>
