<svg width="24" height="24" viewBox="0 0 24 24" fill="none" xmlns="http://www.w3.org/2000/svg">
<path d="M22 12.0002C22 13.3135 21.7413 14.6138 21.2388 15.8271C20.7362 17.0403 19.9997 18.1427 19.0711 19.0713C18.1425 19.9999 17.0401 20.7365 15.8268 21.239C14.6136 21.7416 13.3132 22.0002 12 22.0002C10.6868 22.0002 9.38642 21.7416 8.17317 21.239C6.95991 20.7365 5.85752 19.9999 4.92893 19.0713C4.00035 18.1427 3.26375 17.0403 2.7612 15.8271C2.25866 14.6138 2 13.3135 2 12.0002C2 10.687 2.25866 9.38666 2.76121 8.17341C3.26375 6.96015 4.00035 5.85776 4.92893 4.92918C5.85752 4.00059 6.95991 3.264 8.17317 2.76145C9.38642 2.2589 10.6868 2.00024 12 2.00024C13.3132 2.00024 14.6136 2.2589 15.8268 2.76145C17.0401 3.264 18.1425 4.00059 19.0711 4.92918C19.9997 5.85776 20.7362 6.96016 21.2388 8.17341C21.7413 9.38667 22 10.687 22 12.0002L22 12.0002Z" stroke="#000000" stroke-width="1.5"/>
<path d="M16 12.0002C16 13.3135 15.8965 14.6138 15.6955 15.8271C15.4945 17.0403 15.1999 18.1427 14.8284 19.0713C14.457 19.9999 14.016 20.7365 13.5307 21.239C13.0454 21.7416 12.5253 22.0002 12 22.0002C11.4747 22.0002 10.9546 21.7416 10.4693 21.239C9.98396 20.7365 9.54301 19.9999 9.17157 19.0713C8.80014 18.1427 8.5055 17.0403 8.30448 15.8271C8.10346 14.6138 8 13.3135 8 12.0002C8 10.687 8.10346 9.38666 8.30448 8.17341C8.5055 6.96015 8.80014 5.85776 9.17157 4.92918C9.54301 4.00059 9.98396 3.264 10.4693 2.76145C10.9546 2.2589 11.4747 2.00024 12 2.00024C12.5253 2.00024 13.0454 2.2589 13.5307 2.76145C14.016 3.264 14.457 4.00059 14.8284 4.92918C15.1999 5.85776 15.4945 6.96016 15.6955 8.17341C15.8965 9.38667 16 10.687 16 12.0002L16 12.0002Z" stroke="#000000" stroke-width="1.5"/>
<path d="M2 12.0002H22" stroke="#000000" stroke-width="1.5" stroke-linecap="round"/>
</svg>
