<svg width="24" height="24" viewBox="0 0 24 24" fill="none" xmlns="http://www.w3.org/2000/svg">
<circle cx="12" cy="10.0002" r="7" stroke="#1C274C" stroke-width="1.5"/>
<path d="M4 16.5626C5.88838 18.6724 8.63263 20.0002 11.687 20.0002C17.3827 20.0002 22 15.383 22 9.68724C22 6.63287 20.6722 3.88863 18.5623 2.00024" stroke="#1C274C" stroke-width="1.5" stroke-linecap="round"/>
<path d="M7 4.55287C7.58518 5.1055 8.79066 6.61601 8.93111 8.23704C9.06238 9.75227 10.0268 10.9835 11.5 11.0002C12.0662 11.0066 12.6388 10.5824 12.6373 9.99527C12.6368 9.81371 12.6079 9.62806 12.5627 9.45728C12.4998 9.21972 12.4942 8.94643 12.625 8.66686C13.0824 7.68885 13.982 7.42614 14.6949 6.89499C15.0111 6.65943 15.2995 6.41092 15.4266 6.21075C15.7777 5.65812 16.1289 4.55287 15.9533 4.00024" stroke="#1C274C" stroke-width="1.5"/>
<path d="M19 11.0002C18.7804 11.6209 18.625 13.2502 16.1455 13.2761C16.1455 13.2761 13.9497 13.2761 13.291 14.5175C12.764 15.5106 13.0714 16.5865 13.291 17.0002" stroke="#1C274C" stroke-width="1.5"/>
<path d="M12 22.0002V20.0002" stroke="#1C274C" stroke-width="1.5" stroke-linecap="round"/>
<path d="M12 22.0002H10" stroke="#1C274C" stroke-width="1.5" stroke-linecap="round"/>
<path d="M14 22.0002H12" stroke="#1C274C" stroke-width="1.5" stroke-linecap="round"/>
</svg>
