<svg width="24" height="24" viewBox="0 0 24 24" fill="none" xmlns="http://www.w3.org/2000/svg">
<path d="M20 12.0002C20 16.4185 16.4183 20.0002 12 20.0002C7.58172 20.0002 4 16.4185 4 12.0002C4 7.58197 7.58172 4.00024 12 4.00024C16.4183 4.00024 20 7.58197 20 12.0002Z" stroke="#1C274C" stroke-width="1.5"/>
<path d="M15 12.0002C15 13.6571 13.6569 15.0002 12 15.0002C10.3431 15.0002 9 13.6571 9 12.0002C9 10.3434 10.3431 9.00024 12 9.00024C13.6569 9.00024 15 10.3434 15 12.0002Z" stroke="#1C274C" stroke-width="1.5"/>
<path d="M2 12.0002L4 12.0002" stroke="#1C274C" stroke-width="1.5" stroke-linecap="round"/>
<path d="M20 12.0002L22 12.0002" stroke="#1C274C" stroke-width="1.5" stroke-linecap="round"/>
<path d="M12 4.00024V2.00024" stroke="#1C274C" stroke-width="1.5" stroke-linecap="round"/>
<path d="M12 22.0002V20.0002" stroke="#1C274C" stroke-width="1.5" stroke-linecap="round"/>
</svg>
