<svg width="24" height="24" viewBox="0 0 24 24" fill="none" xmlns="http://www.w3.org/2000/svg">
<path d="M8.79623 6.64088C7.73459 5.57924 7.73459 3.85799 8.79623 2.79635C9.85786 1.73471 11.5791 1.73471 12.6408 2.79635L15.2038 5.35937C16.2654 6.421 16.2654 8.14226 15.2038 9.20389C14.1421 10.2655 12.4209 10.2655 11.3592 9.20389L8.79623 6.64088Z" stroke="#1C274C" stroke-width="1.5"/>
<path d="M14 4.00012C14 4.00012 13.7749 5.16777 12.4712 6.47151C11.1674 7.77525 10 8.00012 10 8.00012" stroke="#1C274C" stroke-width="1.5"/>
<path d="M4 21.3885H6.25993C7.27079 21.3885 8.29253 21.4938 9.27633 21.6965C11.0166 22.055 12.8488 22.0985 14.6069 21.8139C15.4738 21.6736 16.326 21.459 17.0975 21.0867C17.7939 20.7505 18.6469 20.2767 19.2199 19.746C19.7921 19.2161 20.388 18.3488 20.8109 17.6709C21.1736 17.0895 20.9982 16.3763 20.4245 15.9432C19.7873 15.462 18.8417 15.4621 18.2046 15.9434L16.3974 17.3086C15.697 17.8376 14.932 18.3247 14.0206 18.47C13.911 18.4875 13.7962 18.5034 13.6764 18.5173M13.6764 18.5173C13.6403 18.5215 13.6038 18.5255 13.5668 18.5293M13.6764 18.5173C13.8222 18.4861 13.9669 18.3962 14.1028 18.2776C14.746 17.7162 14.7866 16.7701 14.2285 16.1432C14.0991 15.9978 13.9475 15.8765 13.7791 15.776C10.9817 14.1076 6.62942 15.3783 4 17.243M13.6764 18.5173C13.6399 18.5251 13.6033 18.5293 13.5668 18.5293M13.5668 18.5293C13.0434 18.583 12.4312 18.5969 11.7518 18.5328" stroke="#1C274C" stroke-width="1.5" stroke-linecap="round"/>
</svg>
