<svg width="24" height="24" viewBox="0 0 24 24" fill="none" xmlns="http://www.w3.org/2000/svg">
<path d="M10.1497 8.80231L9.70794 9.40837L10.1497 8.80231ZM12 3.10628L11.4925 3.65845C11.7794 3.92222 12.2206 3.92222 12.5075 3.65845L12 3.10628ZM13.8503 8.80232L14.2921 9.40838L13.8503 8.80232ZM12 9.6761L12 10.4261H12L12 9.6761ZM10.5915 8.19624C9.90132 7.6931 9.16512 7.08124 8.60883 6.43639C8.03452 5.77065 7.75 5.18245 7.75 4.71489H6.25C6.25 5.73242 6.82845 6.66898 7.47305 7.41619C8.13569 8.18431 8.97435 8.87361 9.70794 9.40837L10.5915 8.19624ZM7.75 4.71489C7.75 3.65625 8.27002 3.05243 8.8955 2.84194C9.54754 2.6225 10.5199 2.76447 11.4925 3.65845L12.5075 2.5541C11.2302 1.38 9.70254 0.987681 8.41707 1.42028C7.10502 1.86182 6.25 3.09636 6.25 4.71489H7.75ZM14.2921 9.40838C15.0257 8.87363 15.8643 8.18433 16.527 7.41621C17.1716 6.66898 17.75 5.73242 17.75 4.71487H16.25C16.25 5.18246 15.9655 5.77067 15.3912 6.43641C14.8349 7.08125 14.0987 7.69312 13.4085 8.19625L14.2921 9.40838ZM17.75 4.71487C17.75 3.09635 16.895 1.86182 15.5829 1.42028C14.2975 0.987682 12.7698 1.38 11.4925 2.5541L12.5075 3.65845C13.4801 2.76447 14.4525 2.6225 15.1045 2.84194C15.73 3.05243 16.25 3.65624 16.25 4.71487H17.75ZM9.70794 9.40837C10.463 9.95881 11.0618 10.4261 12 10.4261L12 8.9261C11.635 8.9261 11.4347 8.81086 10.5915 8.19624L9.70794 9.40837ZM13.4085 8.19625C12.5653 8.81086 12.365 8.9261 12 8.9261L12 10.4261C12.9382 10.4261 13.537 9.95882 14.2921 9.40838L13.4085 8.19625Z" fill="#000000"/>
<path d="M4 21.3885H6.25993C7.27079 21.3885 8.29253 21.4938 9.27633 21.6965C11.0166 22.055 12.8488 22.0985 14.6069 21.8139C15.4738 21.6736 16.326 21.459 17.0975 21.0867C17.7939 20.7505 18.6469 20.2767 19.2199 19.746C19.7921 19.2161 20.388 18.3488 20.8109 17.6709C21.1736 17.0895 20.9982 16.3763 20.4245 15.9432C19.7873 15.462 18.8417 15.4621 18.2046 15.9434L16.3974 17.3086C15.697 17.8376 14.932 18.3247 14.0206 18.47C13.911 18.4875 13.7962 18.5034 13.6764 18.5173M13.6764 18.5173C13.6403 18.5215 13.6038 18.5255 13.5668 18.5293M13.6764 18.5173C13.8222 18.4861 13.9669 18.3962 14.1028 18.2776C14.746 17.7162 14.7866 16.7701 14.2285 16.1432C14.0991 15.9978 13.9475 15.8765 13.7791 15.776C10.9817 14.1076 6.62942 15.3783 4 17.243M13.6764 18.5173C13.6399 18.5251 13.6033 18.5293 13.5668 18.5293M13.5668 18.5293C13.0434 18.583 12.4312 18.5969 11.7518 18.5328" stroke="#000000" stroke-width="1.5" stroke-linecap="round"/>
</svg>
