<svg width="24" height="24" viewBox="0 0 24 24" fill="none" xmlns="http://www.w3.org/2000/svg">
<path d="M17.4142 10.4143C18 9.82855 18 8.88574 18 7.00012C18 5.1145 18 4.17169 17.4142 3.58591M17.4142 10.4143C16.8284 11.0001 15.8856 11.0001 14 11.0001H10C8.11438 11.0001 7.17157 11.0001 6.58579 10.4143M17.4142 10.4143C17.4142 10.4143 17.4142 10.4143 17.4142 10.4143ZM17.4142 3.58591C16.8284 3.00012 15.8856 3.00012 14 3.00012L10 3.00012C8.11438 3.00012 7.17157 3.00012 6.58579 3.58591M17.4142 3.58591C17.4142 3.58591 17.4142 3.58591 17.4142 3.58591ZM6.58579 3.58591C6 4.1717 6 5.1145 6 7.00012C6 8.88574 6 9.82855 6.58579 10.4143M6.58579 3.58591C6.58579 3.58591 6.58579 3.58591 6.58579 3.58591ZM6.58579 10.4143C6.58579 10.4143 6.58579 10.4143 6.58579 10.4143Z" stroke="#1C274C" stroke-width="1.5"/>
<path d="M13 7.00012C13 7.55241 12.5523 8.00012 12 8.00012C11.4477 8.00012 11 7.55241 11 7.00012C11 6.44784 11.4477 6.00012 12 6.00012C12.5523 6.00012 13 6.44784 13 7.00012Z" stroke="#1C274C" stroke-width="1.5"/>
<path d="M18 6.00012C16.3431 6.00012 15 4.65698 15 3.00012" stroke="#1C274C" stroke-width="1.5" stroke-linecap="round"/>
<path d="M18 8.00012C16.3431 8.00012 15 9.34327 15 11.0001" stroke="#1C274C" stroke-width="1.5" stroke-linecap="round"/>
<path d="M6 6.00012C7.65685 6.00012 9 4.65698 9 3.00012" stroke="#1C274C" stroke-width="1.5" stroke-linecap="round"/>
<path d="M6 8.00012C7.65685 8.00012 9 9.34327 9 11.0001" stroke="#1C274C" stroke-width="1.5" stroke-linecap="round"/>
<path d="M4 21.3885H6.25993C7.27079 21.3885 8.29253 21.4938 9.27633 21.6965C11.0166 22.055 12.8488 22.0985 14.6069 21.8139C15.4738 21.6736 16.326 21.459 17.0975 21.0867C17.7939 20.7505 18.6469 20.2767 19.2199 19.746C19.7921 19.2161 20.388 18.3488 20.8109 17.6709C21.1736 17.0895 20.9982 16.3763 20.4245 15.9432C19.7873 15.462 18.8417 15.4621 18.2046 15.9434L16.3974 17.3086C15.697 17.8376 14.932 18.3247 14.0206 18.47C13.911 18.4875 13.7962 18.5034 13.6764 18.5173M13.6764 18.5173C13.6403 18.5215 13.6038 18.5255 13.5668 18.5293M13.6764 18.5173C13.8222 18.4861 13.9669 18.3962 14.1028 18.2776C14.746 17.7162 14.7866 16.7701 14.2285 16.1432C14.0991 15.9978 13.9475 15.8765 13.7791 15.776C10.9817 14.1076 6.62942 15.3783 4 17.243M13.6764 18.5173C13.6399 18.5251 13.6033 18.5293 13.5668 18.5293M13.5668 18.5293C13.0434 18.583 12.4312 18.5969 11.7518 18.5328" stroke="#1C274C" stroke-width="1.5" stroke-linecap="round"/>
</svg>
