<svg width="24" height="24" viewBox="0 0 24 24" fill="none" xmlns="http://www.w3.org/2000/svg">
<path d="M17.5433 21.6943L16.8979 21.3122L16.8979 21.3122L17.5433 21.6943ZM17.8144 21.2363L18.4598 21.6183L18.4598 21.6183L17.8144 21.2363ZM16.1856 21.2363L15.5402 21.6183L15.5402 21.6183L16.1856 21.2363ZM16.4567 21.6943L17.1021 21.3122L17.1021 21.3122L16.4567 21.6943ZM12.1903 18.9571L12.8832 18.6701H12.8832L12.1903 18.9571ZM14.8948 20.4961L14.8819 21.246H14.8819L14.8948 20.4961ZM13.5433 20.3101L13.2563 21.003H13.2563L13.5433 20.3101ZM21.8097 18.9571L22.5026 19.2441V19.2441L21.8097 18.9571ZM19.1052 20.4961L19.0923 19.7462L19.1052 20.4961ZM20.4567 20.3101L20.7437 21.003L20.4567 20.3101ZM20.8062 12.3688L20.4144 13.0082L20.8062 12.3688ZM21.6316 13.1941L22.2711 12.8023V12.8023L21.6316 13.1941ZM13.1938 12.3688L12.8019 11.7293L13.1938 12.3688ZM12.3684 13.1941L11.7289 12.8023L12.3684 13.1941ZM15.7014 20.6053L16.0785 19.957L16.0785 19.957L15.7014 20.6053ZM18.1887 22.0763L18.4598 21.6183L17.169 20.8543L16.8979 21.3122L18.1887 22.0763ZM15.5402 21.6183L15.8112 22.0763L17.1021 21.3122L16.831 20.8543L15.5402 21.6183ZM16.8979 21.3122C16.925 21.2665 16.9725 21.2504 17 21.2504C17.0275 21.2504 17.075 21.2665 17.1021 21.3122L15.8112 22.0763C16.3432 22.9751 17.6567 22.9751 18.1887 22.0763L16.8979 21.3122ZM16.25 12.7504H17.75V11.2504H16.25V12.7504ZM21.25 16.2504V16.7504H22.75V16.2504H21.25ZM12.75 16.7504V16.2504H11.25V16.7504H12.75ZM11.25 16.7504C11.25 17.3226 11.2496 17.7892 11.2755 18.1693C11.3019 18.5562 11.3581 18.9078 11.4974 19.2441L12.8832 18.6701C12.8322 18.547 12.7932 18.3777 12.772 18.0672C12.7504 17.75 12.75 17.3431 12.75 16.7504H11.25ZM14.9077 19.7462C14.28 19.7354 14.0158 19.694 13.8303 19.6172L13.2563 21.003C13.7311 21.1997 14.2543 21.2352 14.8819 21.246L14.9077 19.7462ZM11.4974 19.2441C11.8272 20.0405 12.4599 20.6732 13.2563 21.003L13.8303 19.6172C13.4015 19.4396 13.0608 19.0989 12.8832 18.6701L11.4974 19.2441ZM21.25 16.7504C21.25 17.3431 21.2496 17.75 21.228 18.0672C21.2068 18.3777 21.1678 18.547 21.1168 18.6701L22.5026 19.2441C22.6419 18.9078 22.6981 18.5562 22.7245 18.1693C22.7504 17.7892 22.75 17.3226 22.75 16.7504H21.25ZM19.1181 21.246C19.7457 21.2352 20.2689 21.1997 20.7437 21.003L20.1697 19.6172C19.9842 19.694 19.72 19.7354 19.0923 19.7462L19.1181 21.246ZM21.1168 18.6701C20.9392 19.0989 20.5985 19.4396 20.1697 19.6172L20.7437 21.003C21.5401 20.6732 22.1728 20.0405 22.5026 19.2441L21.1168 18.6701ZM17.75 12.7504C18.5829 12.7504 19.1549 12.7512 19.5955 12.793C20.0249 12.8339 20.2514 12.9084 20.4144 13.0082L21.1981 11.7293C20.7599 11.4607 20.2767 11.3511 19.7374 11.2998C19.2094 11.2496 18.5538 11.2504 17.75 11.2504V12.7504ZM22.75 16.2504C22.75 15.4465 22.7508 14.791 22.7006 14.2629C22.6493 13.7237 22.5396 13.2405 22.2711 12.8023L20.9921 13.586C21.092 13.7489 21.1665 13.9755 21.2073 14.4049C21.2492 14.8455 21.25 15.4175 21.25 16.2504H22.75ZM20.4144 13.0082C20.6498 13.1525 20.8478 13.3505 20.9921 13.586L22.2711 12.8023C22.0031 12.3649 21.6354 11.9973 21.1981 11.7293L20.4144 13.0082ZM16.25 11.2504C15.4462 11.2504 14.7906 11.2496 14.2626 11.2998C13.7233 11.3511 13.2401 11.4607 12.8019 11.7293L13.5856 13.0082C13.7486 12.9084 13.9751 12.8339 14.4045 12.793C14.8451 12.7512 15.4171 12.7504 16.25 12.7504V11.2504ZM12.75 16.2504C12.75 15.4175 12.7508 14.8455 12.7927 14.4049C12.8335 13.9755 12.908 13.7489 13.0079 13.586L11.7289 12.8023C11.4604 13.2405 11.3507 13.7237 11.2994 14.2629C11.2492 14.791 11.25 15.4465 11.25 16.2504H12.75ZM12.8019 11.7293C12.3646 11.9973 11.9969 12.3649 11.7289 12.8023L13.0079 13.586C13.1522 13.3505 13.3502 13.1525 13.5856 13.0082L12.8019 11.7293ZM16.831 20.8543C16.7331 20.6889 16.6337 20.5194 16.5341 20.3827C16.4252 20.2333 16.2843 20.0767 16.0785 19.957L15.3243 21.2536C15.2873 21.2321 15.2834 21.2134 15.3219 21.2662C15.3696 21.3316 15.4279 21.4286 15.5402 21.6183L16.831 20.8543ZM14.8819 21.246C15.1084 21.2499 15.2271 21.2527 15.3117 21.2621C15.3824 21.2699 15.3638 21.2766 15.3243 21.2536L16.0785 19.957C15.8701 19.8358 15.6609 19.7916 15.4768 19.7712C15.3066 19.7524 15.1064 19.7497 14.9077 19.7462L14.8819 21.246ZM18.4598 21.6183C18.5721 21.4286 18.6304 21.3316 18.6781 21.2662C18.7166 21.2134 18.7127 21.2321 18.6757 21.2536L17.9215 19.957C17.7156 20.0767 17.5748 20.2333 17.4659 20.3827C17.3663 20.5194 17.2669 20.6889 17.169 20.8543L18.4598 21.6183ZM19.0923 19.7462C18.8936 19.7497 18.6934 19.7524 18.5232 19.7712C18.3391 19.7916 18.1298 19.8358 17.9215 19.957L18.6757 21.2536C18.6362 21.2766 18.6176 21.2699 18.6883 21.2621C18.7729 21.2527 18.8916 21.2499 19.1181 21.246L19.0923 19.7462Z" fill="#000000"/>
<path d="M10 3.00037L5 21.0004" stroke="#000000" stroke-width="1.5" stroke-linecap="round" stroke-linejoin="round"/>
<path d="M19 3.00037L17.1944 9.50037" stroke="#000000" stroke-width="1.5" stroke-linecap="round" stroke-linejoin="round"/>
<path d="M22 9.00037H4" stroke="#000000" stroke-width="1.5" stroke-linecap="round" stroke-linejoin="round"/>
<path d="M2 16.0004H9" stroke="#000000" stroke-width="1.5" stroke-linecap="round" stroke-linejoin="round"/>
</svg>
