<svg width="24" height="24" viewBox="0 0 24 24" fill="none" xmlns="http://www.w3.org/2000/svg">
<path d="M8.96173 19.3789L8.48914 19.9613L8.96173 19.3789ZM12 5.57437L11.4522 6.08659C11.594 6.23827 11.7923 6.32437 12 6.32437C12.2077 6.32437 12.406 6.23827 12.5478 6.08659L12 5.57437ZM15.0383 19.3789L15.5109 19.9613L15.0383 19.3789ZM12 21.0002L12 20.2502L12 21.0002ZM9.43432 18.7965C7.98445 17.6199 6.29166 16.0772 4.96771 14.3886C3.62931 12.6816 2.75 10.9291 2.75 9.31775H1.25C1.25 11.4356 2.38041 13.5198 3.78729 15.3142C5.20863 17.127 6.99671 18.7502 8.48914 19.9613L9.43432 18.7965ZM2.75 9.31775C2.75 6.41313 4.01766 4.61755 5.58602 4.00343C7.15092 3.39067 9.34039 3.82803 11.4522 6.08659L12.5478 5.06214C10.1598 2.50808 7.34924 1.70212 5.0391 2.60669C2.73242 3.50992 1.25 5.99234 1.25 9.31775H2.75ZM15.5109 19.9613C17.0033 18.7502 18.7914 17.127 20.2127 15.3142C21.6196 13.5199 22.75 11.4356 22.75 9.31771H21.25C21.25 10.9291 20.3707 12.6817 19.0323 14.3887C17.7084 16.0772 16.0156 17.62 14.5657 18.7965L15.5109 19.9613ZM22.75 9.31771C22.75 5.99232 21.2676 3.50991 18.9609 2.60669C16.6508 1.70212 13.8402 2.50808 11.4522 5.06214L12.5478 6.08659C14.6596 3.82803 16.8491 3.39067 18.414 4.00343C19.9823 4.61754 21.25 6.41312 21.25 9.31771H22.75ZM8.48914 19.9613C9.76058 20.993 10.6423 21.7502 12 21.7502L12 20.2502C11.2771 20.2502 10.8269 19.9266 9.43432 18.7965L8.48914 19.9613ZM14.5657 18.7965C13.1731 19.9266 12.7229 20.2502 12 20.2502L12 21.7502C13.3577 21.7502 14.2394 20.993 15.5109 19.9613L14.5657 18.7965Z" fill="#000000"/>
<path d="M18.5 9.00026H16.5M16.5 9.00026L14.5 9.00026M16.5 9.00026L16.5 7.00024M16.5 9.00026L16.5 11.0002" stroke="#000000" stroke-width="1.5" stroke-linecap="round"/>
</svg>
