<svg width="24" height="24" viewBox="0 0 24 24" fill="none" xmlns="http://www.w3.org/2000/svg">
<path d="M10.7847 15.3542L11.2537 14.7689L10.7847 15.3542ZM12 9.90132L11.4554 10.417C11.597 10.5666 11.794 10.6513 12 10.6513C12.206 10.6513 12.403 10.5666 12.5446 10.417L12 9.90132ZM13.2153 15.3542L13.6843 15.9395L13.2153 15.3542ZM11.2537 14.7689C10.621 14.2619 10.0075 13.8243 9.51582 13.2615C9.04976 12.728 8.75 12.1386 8.75 11.38H7.25C7.25 12.5987 7.75413 13.5249 8.38618 14.2484C8.99261 14.9425 9.77142 15.5033 10.3157 15.9395L11.2537 14.7689ZM8.75 11.38C8.75 10.6651 9.14671 10.0961 9.64107 9.86642C10.0847 9.66029 10.7461 9.66781 11.4554 10.417L12.5446 9.38567C11.454 8.23382 10.1154 7.99199 9.00898 8.5061C7.95333 8.99663 7.25 10.1175 7.25 11.38H8.75ZM10.3157 15.9395C10.5164 16.1003 10.7605 16.2957 11.0151 16.4469C11.269 16.5978 11.6065 16.7504 12 16.7504V15.2504C11.9935 15.2504 11.931 15.2463 11.7811 15.1573C11.6318 15.0686 11.4683 14.9409 11.2537 14.7689L10.3157 15.9395ZM13.6843 15.9395C14.2286 15.5033 15.0074 14.9425 15.6138 14.2484C16.2459 13.5249 16.75 12.5987 16.75 11.38H15.25C15.25 12.1386 14.9502 12.728 14.4842 13.2615C13.9925 13.8243 13.379 14.2619 12.7463 14.7689L13.6843 15.9395ZM16.75 11.38C16.75 10.1175 16.0467 8.99663 14.991 8.5061C13.8846 7.99199 12.546 8.23382 11.4554 9.38567L12.5446 10.417C13.2539 9.66781 13.9153 9.66029 14.3589 9.86642C14.8533 10.0961 15.25 10.6651 15.25 11.38H16.75ZM12.7463 14.7689C12.5317 14.9409 12.3682 15.0686 12.2189 15.1573C12.069 15.2463 12.0065 15.2504 12 15.2504V16.7504C12.3935 16.7504 12.731 16.5978 12.9849 16.4469C13.2395 16.2957 13.4836 16.1003 13.6843 15.9395L12.7463 14.7689Z" fill="#1C274C"/>
<path d="M12 2.00037V4.00037" stroke="#1C274C" stroke-width="1.5" stroke-linecap="round"/>
<path d="M12 20.0004V22.0004" stroke="#1C274C" stroke-width="1.5" stroke-linecap="round"/>
<path d="M2 12.0004L4 12.0004" stroke="#1C274C" stroke-width="1.5" stroke-linecap="round"/>
<path d="M20 12.0004L22 12.0004" stroke="#1C274C" stroke-width="1.5" stroke-linecap="round"/>
<path d="M6 18.0004L6.34305 17.6573" stroke="#1C274C" stroke-width="1.5" stroke-linecap="round"/>
<path d="M17.6567 6.34363L18 6.00037" stroke="#1C274C" stroke-width="1.5" stroke-linecap="round"/>
<path d="M18 18.0004L17.657 17.6573" stroke="#1C274C" stroke-width="1.5" stroke-linecap="round"/>
<path d="M6.34326 6.34363L6 6.00037" stroke="#1C274C" stroke-width="1.5" stroke-linecap="round"/>
</svg>
