<svg width="24" height="24" viewBox="0 0 24 24" fill="none" xmlns="http://www.w3.org/2000/svg">
<path d="M21 12.0002H18.6361C17.9781 12.0002 17.6491 12.0002 17.3578 12.13C17.0665 12.2597 16.8463 12.5043 16.4059 12.9936L15.3767 14.1372C15.0154 14.5386 14.8348 14.7393 14.6057 14.7344C14.3766 14.7294 14.2049 14.5213 13.8616 14.1051L10.3334 9.82856C10.0133 9.44053 9.85321 9.24652 9.63599 9.23347C9.41877 9.22043 9.23663 9.39389 8.87237 9.74081L7.36897 11.1726C6.93986 11.5813 6.7253 11.7856 6.45709 11.8929C6.18887 12.0002 5.89258 12.0002 5.3 12.0002H3" stroke="#000000" stroke-width="1.5" stroke-linecap="round"/>
<path d="M8.96173 19.371L9.43571 18.7897L9.43571 18.7897L8.96173 19.371ZM12 5.49901L11.4509 6.00991C11.5928 6.1624 11.7917 6.24901 12 6.24901C12.2083 6.24901 12.4072 6.1624 12.5491 6.00991L12 5.49901ZM15.0383 19.371L15.5123 19.9522L15.0383 19.371ZM9.43571 18.7897C7.98585 17.6074 6.29293 16.057 4.96881 14.36C3.63045 12.6447 2.75 10.8824 2.75 9.26068H1.25C1.25 11.3865 2.37926 13.4796 3.7862 15.2827C5.20736 17.1042 6.99532 18.7352 8.48775 19.9522L9.43571 18.7897ZM2.75 9.26068C2.75 6.53081 4.0079 4.70479 5.60065 4.04216C7.17297 3.38803 9.35285 3.75504 11.4509 6.00991L12.5491 4.98812C10.1473 2.40686 7.32719 1.69923 5.02447 2.65723C2.74218 3.60673 1.25 6.07961 1.25 9.26068H2.75ZM15.5123 19.9522C17.0047 18.7352 18.7926 17.1042 20.2138 15.2828C21.6207 13.4796 22.75 11.3865 22.75 9.26064H21.25C21.25 10.8824 20.3695 12.6448 19.0312 14.36C17.7071 16.0571 16.0142 17.6074 14.5643 18.7897L15.5123 19.9522ZM22.75 9.26064C22.75 6.0795 21.2578 3.60663 18.9755 2.65715C16.6728 1.69918 13.8527 2.40686 11.4509 4.98812L12.5491 6.00991C14.6472 3.75503 16.827 3.38798 18.3994 4.04209C19.9921 4.70469 21.25 6.5307 21.25 9.26064H22.75ZM8.48775 19.9522C9.7587 20.9886 10.641 21.7502 12 21.7502L12 20.2502C11.2785 20.2502 10.8287 19.9257 9.43571 18.7897L8.48775 19.9522ZM14.5643 18.7897C13.1713 19.9257 12.7216 20.2502 12 20.2502L12 21.7502C13.359 21.7502 14.2413 20.9886 15.5123 19.9522L14.5643 18.7897Z" fill="#000000"/>
</svg>
