<svg width="24" height="24" viewBox="0 0 24 24" fill="none" xmlns="http://www.w3.org/2000/svg">
<path d="M8.96173 18.9112L9.42605 18.3223L8.96173 18.9112ZM12 5.501L11.4596 6.0211C11.463 6.02457 11.4664 6.02802 11.4698 6.03142L12 5.501ZM15.0383 18.9112L15.5026 19.5002L15.0383 18.9112ZM13.4698 8.0307C13.7627 8.32354 14.2376 8.32346 14.5304 8.03051C14.8233 7.73756 14.8232 7.26269 14.5302 6.96985L13.4698 8.0307ZM9.42605 18.3223C7.91039 17.1274 6.25307 15.9606 4.93829 14.4801C3.64922 13.0286 2.75 11.3349 2.75 9.13746H1.25C1.25 11.803 2.3605 13.8364 3.81672 15.4762C5.24723 17.087 7.07077 18.3756 8.49742 19.5002L9.42605 18.3223ZM2.75 9.13746C2.75 6.9866 3.96537 5.18289 5.62436 4.42456C7.23607 3.68784 9.40166 3.88294 11.4596 6.0211L12.5404 4.9809C10.0985 2.44389 7.26409 2.02575 5.00076 3.06033C2.78471 4.07329 1.25 6.4254 1.25 9.13746H2.75ZM8.49742 19.5002C9.00965 19.904 9.55954 20.3346 10.1168 20.6603C10.6739 20.9858 11.3096 21.2504 12 21.2504V19.7504C11.6904 19.7504 11.3261 19.6296 10.8736 19.3652C10.4213 19.1009 9.95208 18.7369 9.42605 18.3223L8.49742 19.5002ZM15.5026 19.5002C16.9292 18.3756 18.7528 17.087 20.1833 15.4762C21.6395 13.8364 22.75 11.803 22.75 9.13746H21.25C21.25 11.3349 20.3508 13.0286 19.0617 14.4801C17.7469 15.9606 16.0896 17.1274 14.574 18.3223L15.5026 19.5002ZM22.75 9.13746C22.75 6.4254 21.2153 4.07329 18.9992 3.06033C16.7359 2.02575 13.9015 2.44389 11.4596 4.9809L12.5404 6.0211C14.5983 3.88294 16.7639 3.68784 18.3756 4.42456C20.0346 5.18289 21.25 6.9866 21.25 9.13746H22.75ZM14.574 18.3223C14.0479 18.7369 13.5787 19.1009 13.1264 19.3652C12.6739 19.6296 12.3096 19.7504 12 19.7504V21.2504C12.6904 21.2504 13.3261 20.9858 13.8832 20.6603C14.4405 20.3346 14.9903 19.904 15.5026 19.5002L14.574 18.3223ZM11.4698 6.03142L13.4698 8.0307L14.5302 6.96985L12.5302 4.97057L11.4698 6.03142Z" fill="#000000"/>
</svg>
