<svg width="24" height="24" viewBox="0 0 24 24" fill="none" xmlns="http://www.w3.org/2000/svg">
<path d="M18 12.0002H17.1986C16.3689 12.0002 15.9541 12.0002 15.6102 12.1949C15.2664 12.3896 15.0529 12.7454 14.6261 13.4568L14.5952 13.5082C14.1976 14.171 13.9987 14.5023 13.7095 14.4969C13.4202 14.4915 13.2339 14.1529 12.8615 13.4757L11.1742 10.4079C10.8269 9.77642 10.6533 9.46071 10.3759 9.44573C10.0986 9.43076 9.892 9.72594 9.47875 10.3163L9.19573 10.7206C8.75681 11.3477 8.53734 11.6612 8.21173 11.8307C7.88612 12.0002 7.50342 12.0002 6.73803 12.0002H6" stroke="#1C274C" stroke-width="1.5" stroke-linecap="round"/>
<path d="M8.96173 19.371L9.43571 18.7897L9.43571 18.7897L8.96173 19.371ZM12 5.49901L11.4509 6.00991C11.5928 6.1624 11.7917 6.24901 12 6.24901C12.2083 6.24901 12.4072 6.1624 12.5491 6.00991L12 5.49901ZM15.0383 19.371L15.5123 19.9522L15.0383 19.371ZM9.43571 18.7897C7.98585 17.6074 6.29293 16.057 4.96881 14.36C3.63045 12.6447 2.75 10.8824 2.75 9.26068H1.25C1.25 11.3865 2.37926 13.4796 3.7862 15.2827C5.20736 17.1042 6.99532 18.7352 8.48775 19.9522L9.43571 18.7897ZM2.75 9.26068C2.75 6.53081 4.0079 4.70479 5.60065 4.04216C7.17297 3.38803 9.35285 3.75504 11.4509 6.00991L12.5491 4.98812C10.1473 2.40686 7.32719 1.69923 5.02447 2.65723C2.74218 3.60673 1.25 6.07961 1.25 9.26068H2.75ZM15.5123 19.9522C17.0047 18.7352 18.7926 17.1042 20.2138 15.2828C21.6207 13.4796 22.75 11.3865 22.75 9.26064H21.25C21.25 10.8824 20.3695 12.6448 19.0312 14.36C17.7071 16.0571 16.0142 17.6074 14.5643 18.7897L15.5123 19.9522ZM22.75 9.26064C22.75 6.0795 21.2578 3.60663 18.9755 2.65715C16.6728 1.69918 13.8527 2.40686 11.4509 4.98812L12.5491 6.00991C14.6472 3.75503 16.827 3.38798 18.3994 4.04209C19.9921 4.70469 21.25 6.5307 21.25 9.26064H22.75ZM8.48775 19.9522C9.7587 20.9886 10.641 21.7502 12 21.7502L12 20.2502C11.2785 20.2502 10.8287 19.9257 9.43571 18.7897L8.48775 19.9522ZM14.5643 18.7897C13.1713 19.9257 12.7216 20.2502 12 20.2502L12 21.7502C13.359 21.7502 14.2413 20.9886 15.5123 19.9522L14.5643 18.7897Z" fill="#1C274C"/>
</svg>
