<svg width="24" height="24" viewBox="0 0 24 24" fill="none" xmlns="http://www.w3.org/2000/svg">
<path d="M8.96173 18.9112L9.42605 18.3222L8.96173 18.9112ZM12 5.50094L11.4596 6.02104C11.601 6.16793 11.7961 6.25094 12 6.25094C12.2039 6.25094 12.399 6.16793 12.5404 6.02104L12 5.50094ZM15.0383 18.9112L15.5026 19.5002L15.0383 18.9112ZM9.42605 18.3222C7.91039 17.1274 6.25307 15.9606 4.93829 14.4801C3.64922 13.0285 2.75 11.3348 2.75 9.1374H1.25C1.25 11.8029 2.3605 13.8364 3.81672 15.4761C5.24723 17.0869 7.07077 18.3755 8.49742 19.5002L9.42605 18.3222ZM2.75 9.1374C2.75 6.98654 3.96537 5.18283 5.62436 4.4245C7.23607 3.68778 9.40166 3.88288 11.4596 6.02104L12.5404 4.98084C10.0985 2.44383 7.26409 2.02569 5.00076 3.06027C2.78471 4.07323 1.25 6.42534 1.25 9.1374H2.75ZM8.49742 19.5002C9.00965 19.904 9.55954 20.3346 10.1168 20.6602C10.6739 20.9857 11.3096 21.2503 12 21.2503V19.7503C11.6904 19.7503 11.3261 19.6296 10.8736 19.3651C10.4213 19.1008 9.95208 18.7369 9.42605 18.3222L8.49742 19.5002ZM15.5026 19.5002C16.9292 18.3755 18.7528 17.0869 20.1833 15.4761C21.6395 13.8364 22.75 11.8029 22.75 9.1374H21.25C21.25 11.3348 20.3508 13.0285 19.0617 14.4801C17.7469 15.9606 16.0896 17.1274 14.574 18.3222L15.5026 19.5002ZM22.75 9.1374C22.75 6.42534 21.2153 4.07323 18.9992 3.06027C16.7359 2.02569 13.9015 2.44383 11.4596 4.98084L12.5404 6.02104C14.5983 3.88288 16.7639 3.68778 18.3756 4.4245C20.0346 5.18283 21.25 6.98654 21.25 9.1374H22.75ZM14.574 18.3222C14.0479 18.7369 13.5787 19.1008 13.1264 19.3651C12.6739 19.6296 12.3096 19.7503 12 19.7503V21.2503C12.6904 21.2503 13.3261 20.9857 13.8832 20.6602C14.4405 20.3346 14.9903 19.904 15.5026 19.5002L14.574 18.3222Z" fill="#000000"/>
</svg>
