<svg width="24" height="24" viewBox="0 0 24 24" fill="none" xmlns="http://www.w3.org/2000/svg">
<path d="M17 7.00037C17 3.68666 15.0125 2.00037 12 2.00037C8.98754 2.00037 7 3.68666 7 7.00037" stroke="#000000" stroke-width="1.5" stroke-linecap="round"/>
<path d="M12 12.0004V14.5004" stroke="#000000" stroke-width="1.5" stroke-linecap="round"/>
<path d="M9.26556 20.6157L9.72058 20.0195L9.26556 20.6157ZM12 8.93099L11.4681 9.45976C11.6089 9.60137 11.8003 9.68099 12 9.68099C12.1997 9.68099 12.3911 9.60137 12.5319 9.45976L12 8.93099ZM14.7344 20.6157L15.1895 21.2119L14.7344 20.6157ZM9.72058 20.0195C8.35148 18.9746 6.86905 17.9644 5.69244 16.6817C4.54161 15.4271 3.75 13.976 3.75 12.0995H2.25C2.25 14.4603 3.26713 16.2568 4.58706 17.6957C5.88121 19.1065 7.53156 20.2358 8.81054 21.2119L9.72058 20.0195ZM3.75 12.0995C3.75 10.2752 4.81485 8.73507 6.28482 8.08455C7.71357 7.45227 9.63741 7.61832 11.4681 9.45976L12.5319 8.40221C10.3127 6.17005 7.73658 5.80177 5.67779 6.71286C3.66023 7.60572 2.25 9.68671 2.25 12.0995H3.75ZM8.81054 21.2119C9.27099 21.5633 9.76987 21.9417 10.2764 22.2283C10.7832 22.515 11.3656 22.7504 12 22.7504V21.2504C11.7344 21.2504 11.4168 21.15 11.015 20.9227C10.6129 20.6952 10.1946 20.3813 9.72058 20.0195L8.81054 21.2119ZM15.1895 21.2119C16.4684 20.2358 18.1188 19.1065 19.4129 17.6957C20.7329 16.2568 21.75 14.4603 21.75 12.0995H20.25C20.25 13.976 19.4584 15.4271 18.3076 16.6817C17.1309 17.9644 15.6485 18.9746 14.2794 20.0195L15.1895 21.2119ZM21.75 12.0995C21.75 9.68671 20.3398 7.60572 18.3222 6.71286C16.2634 5.80177 13.6873 6.17005 11.4681 8.40221L12.5319 9.45976C14.3626 7.61832 16.2864 7.45227 17.7152 8.08455C19.1852 8.73507 20.25 10.2752 20.25 12.0995H21.75ZM14.2794 20.0195C13.8054 20.3813 13.3871 20.6952 12.985 20.9227C12.5832 21.15 12.2656 21.2504 12 21.2504V22.7504C12.6344 22.7504 13.2168 22.515 13.7236 22.2283C14.2301 21.9417 14.729 21.5633 15.1895 21.2119L14.2794 20.0195Z" fill="#000000"/>
</svg>
