<svg width="24" height="24" viewBox="0 0 24 24" fill="none" xmlns="http://www.w3.org/2000/svg">
<circle cx="11.5" cy="4.50049" r="2.5" stroke="#000000" stroke-width="1.5"/>
<path d="M9 17.5005C9 17.5005 8.57441 19.1197 8 20.0005C7.39661 20.9257 6 22.0005 6 22.0005" stroke="#000000" stroke-width="1.5" stroke-linecap="round"/>
<path d="M10.2099 12.9015L10.9561 12.9761L10.2099 12.9015ZM10.1413 13.5876L9.39498 13.513L10.1413 13.5876ZM18.5767 10.8532L18.0965 10.2771L18.0965 10.2771L18.5767 10.8532ZM19.4801 11.0767C19.7983 10.8115 19.8413 10.3386 19.5761 10.0204C19.311 9.70214 18.838 9.65915 18.5198 9.92432L19.4801 11.0767ZM11.2041 15.7531L10.8066 16.3891L10.8066 16.3891L11.2041 15.7531ZM11.5374 15.9614L11.9349 15.3254L11.9349 15.3254L11.5374 15.9614ZM14.2573 20.3931L15.0044 20.3266L14.2573 20.3931ZM13.6533 22.067C13.69 22.4795 14.0542 22.7842 14.4668 22.7475C14.8794 22.7108 15.1841 22.3466 15.1474 21.934L13.6533 22.067ZM13 11.5005L12.6141 12.1436C12.6306 12.1535 12.6474 12.1627 12.6646 12.1713L13 11.5005ZM9.46359 12.8269L9.39498 13.513L10.8875 13.6622L10.9561 12.9761L9.46359 12.8269ZM19.0568 11.4294L19.4801 11.0767L18.5198 9.92432L18.0965 10.2771L19.0568 11.4294ZM10.8066 16.3891L11.1399 16.5974L11.9349 15.3254L11.6016 15.1171L10.8066 16.3891ZM13.5103 20.4596L13.6533 22.067L15.1474 21.934L15.0044 20.3266L13.5103 20.4596ZM12.6646 12.1713C14.7535 13.2158 17.2626 12.9246 19.0568 11.4294L18.0965 10.2771C16.7602 11.3907 14.8913 11.6076 13.3354 10.8296L12.6646 12.1713ZM11.1399 16.5974C12.4916 17.4422 13.369 18.8718 13.5103 20.4596L15.0044 20.3266C14.8215 18.2706 13.6852 16.4193 11.9349 15.3254L11.1399 16.5974ZM9.39498 13.513C9.28007 14.6621 9.82723 15.777 10.8066 16.3891L11.6016 15.1171C11.1062 14.8074 10.8294 14.2435 10.8875 13.6622L9.39498 13.513ZM10.9561 12.9761C11.0363 12.1746 11.9234 11.7292 12.6141 12.1436L13.3858 10.8573C11.7518 9.87692 9.65321 10.9307 9.46359 12.8269L10.9561 12.9761Z" fill="#000000"/>
<path d="M19 22.0005V8.00049" stroke="#000000" stroke-width="1.5" stroke-linecap="round"/>
<path d="M9 10.0005L6.6114 10.1442C5.87495 10.1885 5.24941 10.7003 5.05846 11.4148C4.89043 12.0435 5.09113 12.7134 5.57688 13.1453L7.66367 15.0005" stroke="#000000" stroke-width="1.5" stroke-linecap="round"/>
</svg>
