<svg width="24" height="24" viewBox="0 0 24 24" fill="none" xmlns="http://www.w3.org/2000/svg">
<circle cx="11.5" cy="5.50049" r="2.5" stroke="#1C274C" stroke-width="1.5"/>
<path d="M9 16.5005C9 16.5005 8.57441 18.1197 8 19.0005C7.39661 19.9257 6 21.0005 6 21.0005" stroke="#1C274C" stroke-width="1.5" stroke-linecap="round"/>
<path d="M10.2099 11.9015L10.9561 11.9761L10.2099 11.9015ZM10.1413 12.5876L9.39498 12.513L10.1413 12.5876ZM18.5767 9.85324L18.0965 9.27707L18.0965 9.27707L18.5767 9.85324ZM19.4801 10.0767C19.7983 9.81148 19.8413 9.33856 19.5761 9.02035C19.311 8.70214 18.838 8.65915 18.5198 8.92432L19.4801 10.0767ZM11.2041 14.7531L10.8066 15.3891L10.8066 15.3891L11.2041 14.7531ZM11.5374 14.9614L11.9349 14.3254L11.9349 14.3254L11.5374 14.9614ZM14.2573 19.3931L15.0044 19.3266L14.2573 19.3931ZM13.6533 21.067C13.69 21.4795 14.0542 21.7842 14.4668 21.7475C14.8794 21.7108 15.1841 21.3466 15.1474 20.934L13.6533 21.067ZM13 10.5005L12.6141 11.1436C12.6306 11.1535 12.6474 11.1627 12.6646 11.1713L13 10.5005ZM9.46359 11.8269L9.39498 12.513L10.8875 12.6622L10.9561 11.9761L9.46359 11.8269ZM19.0568 10.4294L19.4801 10.0767L18.5198 8.92432L18.0965 9.27707L19.0568 10.4294ZM10.8066 15.3891L11.1399 15.5974L11.9349 14.3254L11.6016 14.1171L10.8066 15.3891ZM13.5103 19.4596L13.6533 21.067L15.1474 20.934L15.0044 19.3266L13.5103 19.4596ZM12.6646 11.1713C14.7535 12.2158 17.2626 11.9246 19.0568 10.4294L18.0965 9.27707C16.7602 10.3907 14.8913 10.6076 13.3354 9.82965L12.6646 11.1713ZM11.1399 15.5974C12.4916 16.4422 13.369 17.8718 13.5103 19.4596L15.0044 19.3266C14.8215 17.2706 13.6852 15.4193 11.9349 14.3254L11.1399 15.5974ZM9.39498 12.513C9.28007 13.6621 9.82723 14.777 10.8066 15.3891L11.6016 14.1171C11.1062 13.8074 10.8294 13.2435 10.8875 12.6622L9.39498 12.513ZM10.9561 11.9761C11.0363 11.1746 11.9234 10.7292 12.6141 11.1436L13.3858 9.85734C11.7518 8.87692 9.65321 9.93068 9.46359 11.8269L10.9561 11.9761Z" fill="#1C274C"/>
<path d="M19 21.0005V7.00049" stroke="#1C274C" stroke-width="1.5" stroke-linecap="round"/>
</svg>
