<svg width="24" height="24" viewBox="0 0 24 24" fill="none" xmlns="http://www.w3.org/2000/svg">
<path d="M12 8.00049V12.0005L14.5 14.5005" stroke="#000000" stroke-width="1.5" stroke-linecap="round" stroke-linejoin="round"/>
<path d="M5.6042 5.60463L5.07387 5.0743V5.0743L5.6042 5.60463ZM4.33782 6.87101L3.58783 6.87478C3.5899 7.28605 3.92279 7.61893 4.33405 7.621L4.33782 6.87101ZM6.8796 7.63379C7.29381 7.63587 7.63128 7.30178 7.63336 6.88757C7.63545 6.47336 7.30135 6.13589 6.88714 6.13381L6.8796 7.63379ZM5.07502 4.32169C5.07294 3.90748 4.73547 3.57339 4.32126 3.57547C3.90705 3.57755 3.57296 3.91502 3.57504 4.32923L5.07502 4.32169ZM3.82667 10.7854C3.88292 10.375 3.59584 9.99676 3.18547 9.94051C2.77509 9.88426 2.39681 10.1713 2.34056 10.5817L3.82667 10.7854ZM18.8623 5.13826C15.0421 1.31807 8.86879 1.27938 5.07387 5.0743L6.13453 6.13496C9.33364 2.93585 14.5572 2.95444 17.8016 6.19892L18.8623 5.13826ZM5.13783 18.8627C8.95802 22.6829 15.1313 22.7216 18.9262 18.9267L17.8656 17.866C14.6665 21.0651 9.44297 21.0465 6.19849 17.8021L5.13783 18.8627ZM18.9262 18.9267C22.7212 15.1318 22.6825 8.95845 18.8623 5.13826L17.8016 6.19892C21.0461 9.4434 21.0647 14.6669 17.8656 17.866L18.9262 18.9267ZM5.07387 5.0743L3.80749 6.34068L4.86815 7.40134L6.13453 6.13496L5.07387 5.0743ZM4.33405 7.621L6.8796 7.63379L6.88714 6.13381L4.34159 6.12102L4.33405 7.621ZM5.08781 6.86724L5.07502 4.32169L3.57504 4.32923L3.58783 6.87478L5.08781 6.86724ZM2.34056 10.5817C1.93913 13.5104 2.87398 16.5989 5.13783 18.8627L6.19849 17.8021C4.27792 15.8815 3.48669 13.2657 3.82667 10.7854L2.34056 10.5817Z" fill="#000000"/>
</svg>
