<svg width="24" height="24" viewBox="0 0 24 24" fill="none" xmlns="http://www.w3.org/2000/svg">
<path d="M2 12.2042C2 9.91573 2 8.77152 2.5192 7.82299C3.0384 6.87445 3.98695 6.28576 5.88403 5.10837L7.88403 3.86711C9.88939 2.62253 10.8921 2.00024 12 2.00024C13.1079 2.00024 14.1106 2.62253 16.116 3.86711L18.116 5.10837C20.0131 6.28576 20.9616 6.87445 21.4808 7.82299C22 8.77152 22 9.91573 22 12.2042V13.7252C22 17.6261 22 19.5765 20.8284 20.7884C19.6569 22.0002 17.7712 22.0002 14 22.0002H10C6.22876 22.0002 4.34315 22.0002 3.17157 20.7884C2 19.5765 2 17.6261 2 13.7252V12.2042Z" stroke="#1C274C" stroke-width="1.5"/>
<path d="M6 11.6825C9.31371 8.10583 14.6863 8.10583 18 11.6825M8.00002 13.841C10.2092 11.4566 13.7909 11.4566 16 13.841M10 16C11.1046 14.8078 12.8955 14.8078 14 16" stroke="#1C274C" stroke-width="1.5" stroke-linecap="round"/>
</svg>
