<svg width="24" height="24" viewBox="0 0 24 24" fill="none" xmlns="http://www.w3.org/2000/svg">
<path d="M2.36395 12.9581C1.98451 10.3211 1.79478 9.00253 2.33524 7.87519C2.87571 6.74785 4.02607 6.06258 6.32679 4.69205L7.71163 3.86711C9.80092 2.62253 10.8456 2.00024 11.9999 2.00024C13.1542 2.00024 14.1988 2.62253 16.2881 3.86711L17.673 4.69205C19.9737 6.06258 21.1241 6.74785 21.6645 7.87519C22.205 9.00253 22.0153 10.3211 21.6358 12.9581L21.357 14.8955C20.8696 18.2829 20.6259 19.9766 19.4509 20.9884C18.2758 22.0002 16.5525 22.0002 13.106 22.0002H10.8938C7.44725 22.0002 5.72397 22.0002 4.54891 20.9884C3.37384 19.9766 3.13013 18.2829 2.64272 14.8955L2.36395 12.9581Z" stroke="#1C274C" stroke-width="1.5"/>
<path d="M6 11.6825C9.31371 8.10583 14.6863 8.10583 18 11.6825M8.00002 13.841C10.2092 11.4566 13.7909 11.4566 16 13.841M10 16C11.1046 14.8078 12.8955 14.8078 14 16" stroke="#1C274C" stroke-width="1.5" stroke-linecap="round"/>
</svg>
