<svg width="24" height="24" viewBox="0 0 24 24" fill="none" xmlns="http://www.w3.org/2000/svg">
<path d="M12 12.0005L9.0423 14.9294C6.11981 17.8235 4.65857 19.2705 5.06765 20.519C5.10282 20.6263 5.14649 20.7307 5.19825 20.8312C5.80046 22.0005 7.86697 22.0005 12 22.0005C16.133 22.0005 18.1995 22.0005 18.8017 20.8312C18.8535 20.7307 18.8972 20.6263 18.9323 20.519C19.3414 19.2705 17.8802 17.8235 14.9577 14.9294L12 12.0005ZM12 12.0005L14.9577 9.07155C17.8802 6.17749 19.3414 4.73045 18.9323 3.48197C18.8972 3.37466 18.8535 3.27026 18.8017 3.16975C18.1995 2.00049 16.133 2.00049 12 2.00049C7.86697 2.00049 5.80046 2.00049 5.19825 3.16975C5.14649 3.27026 5.10282 3.37466 5.06765 3.48197C4.65857 4.73045 6.11981 6.17749 9.0423 9.07156L12 12.0005Z" stroke="#1C274C" stroke-width="1.5"/>
<path d="M10 5.50049H14" stroke="#1C274C" stroke-width="1.5" stroke-linecap="round"/>
<path d="M10 18.5005H14" stroke="#1C274C" stroke-width="1.5" stroke-linecap="round"/>
</svg>
