<svg width="24" height="24" viewBox="0 0 24 24" fill="none" xmlns="http://www.w3.org/2000/svg">
<path d="M14 2.00546C13.3848 2.00024 12.7199 2.00024 12 2.00024C7.28595 2.00024 4.92893 2.00024 3.46447 3.46471C2 4.92918 2 7.2862 2 12.0002C2 16.7143 2 19.0713 3.46447 20.5358C4.92893 22.0002 7.28595 22.0002 12 22.0002C16.714 22.0002 19.0711 22.0002 20.5355 20.5358C22 19.0713 22 16.7143 22 12.0002C22 11.2803 22 10.6154 21.9948 10.0002" stroke="#1C274C" stroke-width="1.5" stroke-linecap="round"/>
<circle cx="19" cy="5.00024" r="3" stroke="#1C274C" stroke-width="1.5"/>
<path d="M2 13.0002H5.16026C6.06543 13.0002 6.51802 13.0002 6.91584 13.1832C7.31367 13.3662 7.60821 13.7098 8.19729 14.3971L8.80271 15.1034C9.39179 15.7907 9.68633 16.1343 10.0842 16.3173C10.482 16.5002 10.9346 16.5002 11.8397 16.5002H12.1603C13.0654 16.5002 13.518 16.5002 13.9158 16.3173C14.3137 16.1343 14.6082 15.7907 15.1973 15.1034L15.8027 14.3971C16.3918 13.7098 16.6863 13.3662 17.0842 13.1832C17.482 13.0002 17.9346 13.0002 18.8397 13.0002H22" stroke="#1C274C" stroke-width="1.5" stroke-linecap="round"/>
</svg>
