<svg width="24" height="24" viewBox="0 0 24 24" fill="none" xmlns="http://www.w3.org/2000/svg">
<path d="M2 12.0002C2 7.2862 2 4.92918 3.46447 3.46471C4.92893 2.00024 7.28595 2.00024 12 2.00024C16.714 2.00024 19.0711 2.00024 20.5355 3.46471C22 4.92918 22 7.2862 22 12.0002C22 16.7143 22 19.0713 20.5355 20.5358C19.0711 22.0002 16.714 22.0002 12 22.0002C7.28595 22.0002 4.92893 22.0002 3.46447 20.5358C2 19.0713 2 16.7143 2 12.0002Z" stroke="#000000" stroke-width="1.5"/>
<path d="M4 15.0002H6.30147C7.10984 15.0002 7.51402 15.0002 7.87676 15.148C7.90979 15.1614 7.94245 15.1758 7.97471 15.191C8.32903 15.3579 8.60269 15.6553 9.15 16.2502L9.18546 16.2888C9.69759 16.8455 9.95366 17.1238 10.2809 17.2879C10.3422 17.3187 10.405 17.3463 10.4692 17.3706C10.8115 17.5002 11.1897 17.5002 11.9462 17.5002C12.6613 17.5002 13.0189 17.5002 13.3458 17.3832C13.4071 17.3612 13.4673 17.3363 13.5262 17.3084C13.8402 17.16 14.0931 16.9072 14.5987 16.4015L14.8284 16.1718C15.4065 15.5938 15.6955 15.3047 16.0631 15.1525C16.4306 15.0002 16.8394 15.0002 17.6569 15.0002H20" stroke="#000000" stroke-width="1.5" stroke-linecap="round"/>
<path d="M5 15.0002V13.5002C5 12.6718 5.67157 12.0002 6.5 12.0002H17.5C18.3284 12.0002 19 12.6718 19 13.5002V15.0002" stroke="#000000" stroke-width="1.5" stroke-linecap="round"/>
<path d="M5 14.0002V10.5002C5 9.67182 5.67157 9.00024 6.5 9.00024H17.5C18.3284 9.00024 19 9.67182 19 10.5002V14.0002" stroke="#000000" stroke-width="1.5" stroke-linecap="round"/>
<path d="M5 11.0002V7.50024C5 6.67182 5.67157 6.00024 6.5 6.00024H17.5C18.3284 6.00024 19 6.67182 19 7.50024V11.0002" stroke="#000000" stroke-width="1.5" stroke-linecap="round"/>
</svg>
