<svg width="24" height="24" viewBox="0 0 24 24" fill="none" xmlns="http://www.w3.org/2000/svg">
<path d="M12 2.00024L12 10.0002M12 10.0002L15 7.00024M12 10.0002L9 7.00024" stroke="#000000" stroke-width="1.5" stroke-linecap="round" stroke-linejoin="round"/>
<path d="M2 13.0002H5.16026C6.06543 13.0002 6.51802 13.0002 6.91584 13.1832C7.31367 13.3662 7.60821 13.7098 8.19729 14.3971L8.80271 15.1034C9.39179 15.7907 9.68633 16.1343 10.0842 16.3173C10.482 16.5002 10.9346 16.5002 11.8397 16.5002H12.1603C13.0654 16.5002 13.518 16.5002 13.9158 16.3173C14.3137 16.1343 14.6082 15.7907 15.1973 15.1034L15.8027 14.3971C16.3918 13.7098 16.6863 13.3662 17.0842 13.1832C17.482 13.0002 17.9346 13.0002 18.8397 13.0002H22" stroke="#000000" stroke-width="1.5" stroke-linecap="round"/>
<path d="M17 2.1272C18.6251 2.28705 19.7191 2.64832 20.5355 3.4648C22 4.92926 22 7.28629 22 12.0003C22 16.7144 22 19.0714 20.5355 20.5359C19.0711 22.0003 16.714 22.0003 12 22.0003C7.28595 22.0003 4.92893 22.0003 3.46447 20.5359C2 19.0714 2 16.7144 2 12.0003C2 7.28629 2 4.92926 3.46447 3.4648C4.28094 2.64832 5.37486 2.28705 7 2.1272" stroke="#000000" stroke-width="1.5" stroke-linecap="round"/>
</svg>
