<svg width="24" height="24" viewBox="0 0 24 24" fill="none" xmlns="http://www.w3.org/2000/svg">
<path d="M21 17.5005C21 19.4335 19.433 21.0005 17.5 21.0005C15.567 21.0005 14 19.4335 14 17.5005C14 15.5675 15.567 14.0005 17.5 14.0005C19.433 14.0005 21 15.5675 21 17.5005Z" stroke="#000000" stroke-width="1.5"/>
<path d="M2 11.0005H22" stroke="#000000" stroke-width="1.5" stroke-linecap="round"/>
<path d="M4 11.0005L4.6138 8.54527C5.15947 6.36259 5.43231 5.27126 6.24609 4.63587C7.05988 4.00049 8.1848 4.00049 10.4347 4.00049H13.5653C15.8152 4.00049 16.9401 4.00049 17.7539 4.63587C18.5677 5.27126 18.8405 6.36259 19.3862 8.54527L20 11.0005" stroke="#000000" stroke-width="1.5" stroke-linecap="round"/>
<path d="M10 17.5005C10 19.4335 8.433 21.0005 6.5 21.0005C4.567 21.0005 3 19.4335 3 17.5005C3 15.5675 4.567 14.0005 6.5 14.0005C8.433 14.0005 10 15.5675 10 17.5005Z" stroke="#000000" stroke-width="1.5"/>
<path d="M10 17.5004L10.6584 17.1712C11.5029 16.7489 12.4971 16.7489 13.3416 17.1712L14 17.5004" stroke="#000000" stroke-width="1.5" stroke-linecap="round"/>
</svg>
