<svg width="24" height="24" viewBox="0 0 24 24" fill="none" xmlns="http://www.w3.org/2000/svg">
<path d="M4 10.0001C4 6.22889 4 4.34327 5.17157 3.17169C6.34315 2.00012 8.22876 2.00012 12 2.00012C15.7712 2.00012 17.6569 2.00012 18.8284 3.17169C20 4.34327 20 6.22889 20 10.0001V14.0001C20 17.7714 20 19.657 18.8284 20.8285C17.6569 22.0001 15.7712 22.0001 12 22.0001C8.22876 22.0001 6.34315 22.0001 5.17157 20.8285C4 19.657 4 17.7714 4 14.0001V10.0001Z" stroke="#1C274C" stroke-width="1.5"/>
<path d="M15 19.0001H9" stroke="#1C274C" stroke-width="1.5" stroke-linecap="round"/>
<path d="M16.7482 2.37781L16.6641 2.50397C15.908 3.63806 15.53 4.20513 14.9778 4.54823C14.8681 4.61646 14.754 4.67752 14.6363 4.73103C14.0445 5.00013 13.363 5.00013 12 5.00013C10.637 5.00013 9.95547 5.00013 9.36371 4.73103C9.24604 4.67752 9.13195 4.61646 9.02216 4.54823C8.47 4.20512 8.09197 3.63807 7.3359 2.50397L7.25179 2.37781" stroke="#1C274C" stroke-width="1.5" stroke-linecap="round"/>
</svg>
