<svg width="24" height="24" viewBox="0 0 24 24" fill="none" xmlns="http://www.w3.org/2000/svg">
<path d="M4 3.50024C4 3.0343 4 2.80133 4.07612 2.61756C4.17761 2.37253 4.37229 2.17786 4.61732 2.07636C4.80109 2.00024 5.03406 2.00024 5.5 2.00024H14.5C14.9659 2.00024 15.1989 2.00024 15.3827 2.07636C15.6277 2.17786 15.8224 2.37253 15.9239 2.61756C16 2.80133 16 3.0343 16 3.50024C16 3.96619 16 4.19916 15.9239 4.38293C15.8224 4.62796 15.6277 4.82263 15.3827 4.92412C15.1989 5.00024 14.9659 5.00024 14.5 5.00024H5.5C5.03406 5.00024 4.80109 5.00024 4.61732 4.92412C4.37229 4.82263 4.17761 4.62796 4.07612 4.38293C4 4.19916 4 3.96619 4 3.50024Z" stroke="#000000" stroke-width="1.5"/>
<path d="M2.5 18.0002H10.5" stroke="#000000" stroke-width="1.5" stroke-linecap="round"/>
<path d="M2.5 10.0002H17.5" stroke="#000000" stroke-width="1.5" stroke-linecap="round"/>
<path d="M10.5 22.0002H6.95693C6.38582 22.0002 6.10026 22.0002 5.82957 21.9631C5.02661 21.8529 4.27608 21.5013 3.67738 20.9551C3.47554 20.7709 3.29272 20.5515 2.92711 20.1128C2.32806 19.3939 2 18.4878 2 17.552V10.9227C2 9.70761 2.55236 8.55836 3.50122 7.79927L5.90434 5.87677C6.44688 5.44274 6.71814 5.22573 7.03955 5.11299C7.36095 5.00024 7.70834 5.00024 8.40312 5.00024H11.6427C12.3438 5.00024 12.6943 5.00024 13.0182 5.11491C13.3421 5.22957 13.6146 5.45014 14.1595 5.89126L16.5168 7.79955C17.455 8.55901 18 9.7015 18 10.9085V12.5002" stroke="#000000" stroke-width="1.5" stroke-linecap="round"/>
<path d="M10 12.0002V16.0002M8 14.0002L12 14.0002" stroke="#000000" stroke-width="1.5" stroke-linecap="round"/>
<path d="M14.7726 16.7729C14.7726 16.7729 15.7648 16.9836 16.8908 18.1096C18.0169 19.2356 18.2274 20.2276 18.2274 20.2276M19.2638 15.7365C20.2178 16.6905 20.2487 18.2063 19.3329 19.1221L17.1218 21.3331C16.206 22.2489 14.6902 22.218 13.7362 21.264C12.7822 20.31 12.7513 18.7942 13.6671 17.8784L15.8782 15.6674C16.794 14.7516 18.3098 14.7825 19.2638 15.7365Z" stroke="#000000" stroke-width="1.5"/>
</svg>
