<svg width="24" height="24" viewBox="0 0 24 24" fill="none" xmlns="http://www.w3.org/2000/svg">
<path d="M6 3.50024C6 3.0343 6 2.80133 6.07612 2.61756C6.17761 2.37253 6.37229 2.17786 6.61732 2.07636C6.80109 2.00024 7.03406 2.00024 7.5 2.00024H16.5C16.9659 2.00024 17.1989 2.00024 17.3827 2.07636C17.6277 2.17786 17.8224 2.37253 17.9239 2.61756C18 2.80133 18 3.0343 18 3.50024C18 3.96619 18 4.19916 17.9239 4.38293C17.8224 4.62796 17.6277 4.82263 17.3827 4.92412C17.1989 5.00024 16.9659 5.00024 16.5 5.00024H7.5C7.03406 5.00024 6.80109 5.00024 6.61732 4.92412C6.37229 4.82263 6.17761 4.62796 6.07612 4.38293C6 4.19916 6 3.96619 6 3.50024Z" stroke="#000000" stroke-width="1.5"/>
<path d="M4.5 18.0002H19.5" stroke="#000000" stroke-width="1.5" stroke-linecap="round"/>
<path d="M4.5 10.0002H19.5" stroke="#000000" stroke-width="1.5" stroke-linecap="round"/>
<path d="M5.50122 7.79927L7.90434 5.87677C8.44688 5.44274 8.71814 5.22573 9.03955 5.11299C9.36095 5.00024 9.70834 5.00024 10.4031 5.00024H13.6427C14.3438 5.00024 14.6943 5.00024 15.0182 5.11491C15.3421 5.22957 15.6146 5.45014 16.1595 5.89126L18.5168 7.79955C19.455 8.55901 20 9.7015 20 10.9085V17.5652C20 18.4929 19.6775 19.3918 19.0877 20.108L18.7294 20.5431C17.9696 21.4657 16.837 22.0002 15.6417 22.0002H8.95693C8.38582 22.0002 8.10026 22.0002 7.82957 21.9631C7.02661 21.8529 6.27608 21.5013 5.67738 20.9551C5.47554 20.7709 5.29272 20.5515 4.92711 20.1128C4.32806 19.3939 4 18.4878 4 17.552V10.9227C4 9.70761 4.55236 8.55836 5.50122 7.79927Z" stroke="#000000" stroke-width="1.5" stroke-linecap="round"/>
<path d="M12 12.0002V16.0002M10 14.0002L14 14.0002" stroke="#000000" stroke-width="1.5" stroke-linecap="round"/>
</svg>
