<svg width="24" height="24" viewBox="0 0 24 24" fill="none" xmlns="http://www.w3.org/2000/svg">
<path d="M16.6514 7.3491L17.1817 6.81877V6.81877L16.6514 7.3491ZM16.6514 13.8608L17.1817 14.3911L16.6514 13.8608ZM8.76372 12.4461L8.23339 11.9157L8.23339 11.9157L8.76372 12.4461ZM6.28899 14.9208L6.81932 15.4511H6.81932L6.28899 14.9208ZM9.0797 17.7115L8.54937 17.1812L8.54937 17.1812L9.0797 17.7115ZM11.5546 15.2366L11.0243 14.7063H11.0243L11.5546 15.2366ZM6.00604 15.7274L5.26063 15.8102H5.26063L6.00604 15.7274ZM6.16075 17.1198L5.41534 17.2026L5.41534 17.2026L6.16075 17.1198ZM6.88068 17.8397L6.79785 18.5851H6.79785L6.88068 17.8397ZM8.27307 17.9944L8.35589 17.249H8.35589L8.27307 17.9944ZM6.34939 17.5123L6.87972 16.982L6.87972 16.982L6.34939 17.5123ZM6.4882 17.6511L5.95786 18.1814L5.95787 18.1814L6.4882 17.6511ZM8.93621 11.7546L8.20978 11.9411H8.20978L8.93621 11.7546ZM12.2459 15.0643L12.0594 15.7907H12.0594L12.2459 15.0643ZM9.26801 15.198C8.97351 14.9068 8.49865 14.9094 8.20737 15.2039C7.91609 15.4984 7.9187 15.9732 8.2132 16.2645L9.26801 15.198ZM12.9209 11.0796C12.693 10.8518 12.693 10.4825 12.9209 10.2547L11.8602 9.19402C11.0466 10.0076 11.0466 11.3267 11.8602 12.1403L12.9209 11.0796ZM13.7458 11.0796C13.518 11.3074 13.1487 11.3074 12.9209 11.0796L11.8602 12.1403C12.6738 12.9539 13.9929 12.9539 14.8065 12.1403L13.7458 11.0796ZM13.7458 10.2547C13.9736 10.4825 13.9736 10.8518 13.7458 11.0796L14.8065 12.1403C15.6201 11.3267 15.6201 10.0076 14.8065 9.19402L13.7458 10.2547ZM14.8065 9.19402C13.9929 8.38042 12.6738 8.38042 11.8602 9.19402L12.9209 10.2547C13.1487 10.0269 13.518 10.0269 13.7458 10.2547L14.8065 9.19402ZM16.1211 7.87943C17.6263 9.38468 17.6263 11.8252 16.1211 13.3304L17.1817 14.3911C19.2728 12.3 19.2728 8.9098 17.1817 6.81877L16.1211 7.87943ZM17.1817 6.81877C15.0907 4.72773 11.7004 4.72773 9.60941 6.81877L10.6701 7.87943C12.1753 6.37418 14.6158 6.37418 16.1211 7.87943L17.1817 6.81877ZM8.23339 11.9157L5.75866 14.3905L6.81932 15.4511L9.29405 12.9764L8.23339 11.9157ZM9.61003 18.2418L10.437 17.4149L9.37631 16.3542L8.54937 17.1812L9.61003 18.2418ZM10.437 17.4149L12.0849 15.7669L11.0243 14.7063L9.37631 16.3542L10.437 17.4149ZM5.26063 15.8102L5.41534 17.2026L6.90616 17.037L6.75145 15.6446L5.26063 15.8102ZM6.79785 18.5851L8.19024 18.7399L8.35589 17.249L6.9635 17.0943L6.79785 18.5851ZM5.81905 18.0426L5.95786 18.1814L7.01853 17.1208L6.87972 16.982L5.81905 18.0426ZM6.9635 17.0943C6.98431 17.0966 7.00371 17.106 7.01853 17.1208L5.95787 18.1814C6.18391 18.4075 6.48015 18.5498 6.79785 18.5851L6.9635 17.0943ZM5.41534 17.2026C5.45064 17.5203 5.59302 17.8166 5.81906 18.0426L6.87972 16.982C6.89453 16.9968 6.90385 17.0162 6.90616 17.037L5.41534 17.2026ZM8.54937 17.1812C8.49854 17.232 8.42735 17.257 8.35589 17.249L8.19024 18.7399C8.71459 18.7981 9.23698 18.6149 9.61003 18.2418L8.54937 17.1812ZM5.75866 14.3905C5.38562 14.7635 5.20237 15.2859 5.26063 15.8102L6.75145 15.6446C6.74351 15.5731 6.76849 15.502 6.81932 15.4511L5.75866 14.3905ZM9.66264 11.568C9.33425 10.2892 9.67123 8.87826 10.6701 7.87943L9.60941 6.81877C8.22032 8.20785 7.75495 10.1699 8.20978 11.9411L9.66264 11.568ZM16.1211 13.3304C15.1222 14.3293 13.7112 14.6662 12.4325 14.3378L12.0594 15.7907C13.8305 16.2455 15.7926 15.7802 17.1817 14.3911L16.1211 13.3304ZM12.0849 15.7669C12.0779 15.774 12.0703 15.7794 12.0633 15.7832C12.0566 15.7869 12.0516 15.7884 12.0493 15.789C12.0456 15.7898 12.0497 15.7882 12.0594 15.7907L12.4325 14.3378C11.9675 14.2184 11.4174 14.3132 11.0243 14.7063L12.0849 15.7669ZM9.29405 12.9764C9.68693 12.5835 9.78213 12.0333 9.66264 11.568L8.20978 11.9411C8.2122 11.9505 8.21063 11.9546 8.21149 11.9511C8.21203 11.9488 8.21351 11.9439 8.21715 11.9372C8.2209 11.9304 8.22632 11.9228 8.23339 11.9157L9.29405 12.9764ZM10.434 16.3513L9.26801 15.198L8.2132 16.2645L9.37923 17.4178L10.434 16.3513Z" fill="#1C274C"/>
<path d="M2 12.0005C2 7.28644 2 4.92942 3.46447 3.46495C4.92893 2.00049 7.28595 2.00049 12 2.00049C16.714 2.00049 19.0711 2.00049 20.5355 3.46495C22 4.92942 22 7.28644 22 12.0005C22 16.7145 22 19.0716 20.5355 20.536C19.0711 22.0005 16.714 22.0005 12 22.0005C7.28595 22.0005 4.92893 22.0005 3.46447 20.536C2 19.0716 2 16.7145 2 12.0005Z" stroke="#1C274C" stroke-width="1.5"/>
</svg>
