<svg width="24" height="24" viewBox="0 0 24 24" fill="none" xmlns="http://www.w3.org/2000/svg">
<path d="M2 12.0005C2 7.28644 2 4.92942 3.46447 3.46495C4.92893 2.00049 7.28595 2.00049 12 2.00049C16.714 2.00049 19.0711 2.00049 20.5355 3.46495C22 4.92942 22 7.28644 22 12.0005C22 16.7145 22 19.0716 20.5355 20.536C19.0711 22.0005 16.714 22.0005 12 22.0005C7.28595 22.0005 4.92893 22.0005 3.46447 20.536C2 19.0716 2 16.7145 2 12.0005Z" stroke="#000000" stroke-width="1.5"/>
<path d="M11 12.0005C11 13.3812 9.88071 14.5005 8.5 14.5005C7.11929 14.5005 6 13.3812 6 12.0005C6 10.6198 7.11929 9.50049 8.5 9.50049C9.88071 9.50049 11 10.6198 11 12.0005Z" stroke="#000000" stroke-width="1.5"/>
<path d="M11 12.0005H15.5M15.5 12.0005H17C17.5523 12.0005 18 12.4482 18 13.0005V14.0005M15.5 12.0005V13.5005" stroke="#000000" stroke-width="1.5" stroke-linecap="round"/>
</svg>
