<svg width="24" height="24" viewBox="0 0 24 24" fill="none" xmlns="http://www.w3.org/2000/svg">
<path d="M17.2606 11.4406C19.8781 11.4406 22 9.32739 22 6.72056C22 4.11374 19.8781 2.00049 17.2606 2.00049C14.643 2.00049 12.5211 4.11374 12.5211 6.72056C12.5211 7.92803 13.0722 8.80618 13.0722 8.80618L7.3408 14.5142C7.08363 14.7703 6.72357 15.4362 7.3408 16.0509L8.00212 16.7096C8.25929 16.9291 8.90589 17.2365 9.43495 16.7096L10.2065 15.9412C10.978 16.7096 11.8598 16.2705 12.1904 15.8314C12.7415 15.063 12.0802 14.2946 12.0802 14.2946L12.3007 14.0751C13.3588 15.1289 14.2846 14.5142 14.6153 14.0751C15.1664 13.3067 14.6153 12.5383 14.6153 12.5383C14.3948 12.0993 13.954 12.0993 14.505 11.5504L15.1664 10.8918C15.6954 11.3309 16.7829 11.4406 17.2606 11.4406Z" stroke="#1C274C" stroke-width="1.5" stroke-linejoin="round"/>
<path d="M22 14.9935C21.9361 17.7875 21.6692 19.4195 20.5542 20.5346C19.0882 22.0005 16.7288 22.0005 12.0101 22.0005C7.29127 22.0005 4.93188 22.0005 3.46594 20.5346C2 19.0686 2 16.7092 2 11.9904C2 7.27165 2 4.91226 3.46594 3.44632C4.58099 2.33127 6.21298 2.06437 9.00704 2.00049" stroke="#1C274C" stroke-width="1.5" stroke-linecap="round"/>
</svg>
