<svg width="24" height="24" viewBox="0 0 24 24" fill="none" xmlns="http://www.w3.org/2000/svg">
<path d="M14.2084 13.5526C16.3025 13.5526 18 11.862 18 9.77655C18 7.69109 16.3025 6.00049 14.2084 6.00049C12.1144 6.00049 10.4169 7.69109 10.4169 9.77655C10.4169 10.7425 10.8578 11.445 10.8578 11.445L6.27264 16.0114C6.0669 16.2163 5.77886 16.7491 6.27264 17.2409L6.8017 17.7677C7.00743 17.9434 7.52471 18.1893 7.94796 17.7677L8.56519 17.153C9.18242 17.7677 9.88782 17.4165 10.1523 17.0652C10.5932 16.4505 10.0642 15.8358 10.0642 15.8358L10.2405 15.6602C11.087 16.5032 11.8277 16.0114 12.0922 15.6602C12.5331 15.0455 12.0922 14.4308 12.0922 14.4308C11.9159 14.0795 11.5632 14.0795 12.004 13.6404L12.5331 13.1135C12.9564 13.4648 13.8264 13.5526 14.2084 13.5526Z" stroke="#000000" stroke-width="1.5" stroke-linejoin="round"/>
<path d="M2 12.0005C2 7.28644 2 4.92942 3.46447 3.46495C4.92893 2.00049 7.28595 2.00049 12 2.00049C16.714 2.00049 19.0711 2.00049 20.5355 3.46495C22 4.92942 22 7.28644 22 12.0005C22 16.7145 22 19.0716 20.5355 20.536C19.0711 22.0005 16.714 22.0005 12 22.0005C7.28595 22.0005 4.92893 22.0005 3.46447 20.536C2 19.0716 2 16.7145 2 12.0005Z" stroke="#000000" stroke-width="1.5"/>
</svg>
