<svg width="24" height="24" viewBox="0 0 24 24" fill="none" xmlns="http://www.w3.org/2000/svg">
<path d="M20.3142 3.68625L20.8446 3.15592L20.3142 3.68625ZM20.3142 11.8258L20.8446 12.3561L20.3142 11.8258ZM10.4547 10.0574L9.92432 9.52712L9.92432 9.52712L10.4547 10.0574ZM7.36124 13.1509L7.89157 13.6812H7.89157L7.36124 13.1509ZM10.8496 16.6392L10.3193 16.1089L10.3193 16.1089L10.8496 16.6392ZM13.9433 13.5456L13.4129 13.0153L13.9433 13.5456ZM7.00755 14.1592L6.26214 14.242L6.26214 14.242L7.00755 14.1592ZM7.20094 15.8996L6.45553 15.9825L6.45553 15.9825L7.20094 15.8996ZM8.10084 16.7995L8.01802 17.545L8.01802 17.545L8.10084 16.7995ZM9.84133 16.9929L9.92416 16.2475H9.92416L9.84133 16.9929ZM7.43673 16.3902L7.96707 15.8599L7.96706 15.8599L7.43673 16.3902ZM7.61025 16.5638L7.07991 17.0941L7.07992 17.0941L7.61025 16.5638ZM10.6703 9.19309L9.94383 9.37963L9.94383 9.37963L10.6703 9.19309ZM14.8074 13.3302L14.6209 14.0567H14.6209L14.8074 13.3302ZM10.9532 13.6307C10.6587 13.3395 10.1838 13.3421 9.89252 13.6366C9.60124 13.9311 9.60385 14.4059 9.89835 14.6972L10.9532 13.6307ZM15.5185 8.482C15.1605 8.12402 15.1605 7.54362 15.5185 7.18564L14.4578 6.12498C13.5141 7.06875 13.5141 8.5989 14.4578 9.54266L15.5185 8.482ZM16.8148 8.482C16.4569 8.83998 15.8765 8.83998 15.5185 8.482L14.4578 9.54266C15.4016 10.4864 16.9317 10.4864 17.8755 9.54266L16.8148 8.482ZM16.8148 7.18564C17.1728 7.54362 17.1728 8.12402 16.8148 8.482L17.8755 9.54266C18.8193 8.5989 18.8193 7.06875 17.8755 6.12498L16.8148 7.18564ZM17.8755 6.12498C16.9317 5.18121 15.4016 5.18121 14.4578 6.12498L15.5185 7.18564C15.8765 6.82766 16.4569 6.82766 16.8148 7.18564L17.8755 6.12498ZM19.7839 4.21658C21.7387 6.17136 21.7387 9.3407 19.7839 11.2955L20.8446 12.3561C23.3851 9.81557 23.3851 5.69649 20.8446 3.15592L19.7839 4.21658ZM20.8446 3.15592C18.304 0.615345 14.1849 0.615345 11.6443 3.15592L12.705 4.21658C14.6598 2.26179 17.8291 2.26179 19.7839 4.21658L20.8446 3.15592ZM9.92432 9.52712L6.83091 12.6205L7.89157 13.6812L10.985 10.5878L9.92432 9.52712ZM11.38 17.1696L12.4136 16.1359L11.353 15.0752L10.3193 16.1089L11.38 17.1696ZM12.4136 16.1359L14.4736 14.0759L13.4129 13.0153L11.353 15.0752L12.4136 16.1359ZM6.26214 14.242L6.45553 15.9825L7.94635 15.8168L7.75296 14.0763L6.26214 14.242ZM8.01802 17.545L9.75851 17.7383L9.92416 16.2475L8.18367 16.0541L8.01802 17.545ZM6.9064 16.9206L7.07991 17.0941L8.14058 16.0334L7.96707 15.8599L6.9064 16.9206ZM8.18367 16.0541C8.16736 16.0523 8.15217 16.045 8.14058 16.0334L7.07992 17.0941C7.33236 17.3465 7.6632 17.5055 8.01802 17.545L8.18367 16.0541ZM6.45553 15.9825C6.49495 16.3373 6.65396 16.6681 6.9064 16.9206L7.96706 15.8599C7.95547 15.8483 7.94816 15.8331 7.94635 15.8168L6.45553 15.9825ZM10.3193 16.1089C10.2155 16.2127 10.0701 16.2637 9.92416 16.2475L9.75851 17.7383C10.3573 17.8049 10.9539 17.5956 11.38 17.1696L10.3193 16.1089ZM6.83091 12.6205C6.40488 13.0466 6.1956 13.6432 6.26214 14.242L7.75296 14.0763C7.73675 13.9304 7.78775 13.785 7.89157 13.6812L6.83091 12.6205ZM11.3967 9.00654C10.9704 7.34652 11.4077 5.5139 12.705 4.21658L11.6443 3.15592C9.95676 4.8435 9.3911 7.22722 9.94383 9.37963L11.3967 9.00654ZM19.7839 11.2955C18.4866 12.5928 16.654 13.0301 14.9939 12.6038L14.6209 14.0567C16.7733 14.6094 19.157 14.0437 20.8446 12.3561L19.7839 11.2955ZM14.4736 14.0759C14.4807 14.0688 14.4935 14.0596 14.5182 14.0537C14.5444 14.0474 14.5805 14.0463 14.6209 14.0567L14.9939 12.6038C14.4675 12.4686 13.8509 12.5773 13.4129 13.0153L14.4736 14.0759ZM10.985 10.5878C11.4227 10.15 11.532 9.53334 11.3967 9.00654L9.94383 9.37963C9.95415 9.4198 9.95302 9.4559 9.94673 9.48223C9.94081 9.50706 9.93144 9.52 9.92432 9.52712L10.985 10.5878ZM12.4107 15.0723L10.9532 13.6307L9.89835 14.6972L11.3559 16.1388L12.4107 15.0723Z" fill="#000000"/>
<path d="M22 14.9935C21.9361 17.7875 21.6692 19.4195 20.5542 20.5346C19.0882 22.0005 16.7288 22.0005 12.0101 22.0005C7.29127 22.0005 4.93188 22.0005 3.46594 20.5346C2 19.0686 2 16.7092 2 11.9904C2 7.27165 2 4.91226 3.46594 3.44632C4.58099 2.33127 6.21298 2.06437 9.00704 2.00049" stroke="#000000" stroke-width="1.5" stroke-linecap="round"/>
</svg>
