<svg width="24" height="24" viewBox="0 0 24 24" fill="none" xmlns="http://www.w3.org/2000/svg">
<path d="M14.381 17.6475V18.3975C14.7952 18.3975 15.131 18.0618 15.131 17.6475H14.381ZM19.619 12.4711V13.2211C19.8398 13.2211 20.0493 13.1239 20.1918 12.9553C20.3343 12.7868 20.3953 12.564 20.3586 12.3464L19.619 12.4711ZM18.6149 6.51712L17.8754 6.64185L18.6149 6.51712ZM14.381 3.25049C13.9667 3.25049 13.631 3.58627 13.631 4.00049C13.631 4.4147 13.9667 4.75049 14.381 4.75049V3.25049ZM18.163 4.84052L17.5407 5.25923V5.25923L18.163 4.84052ZM17.3565 4.16539L17.6605 3.47975V3.47975L17.3565 4.16539ZM21.25 17.6475C21.25 18.5245 20.5282 19.2505 19.619 19.2505V20.7505C21.3398 20.7505 22.75 19.3696 22.75 17.6475H21.25ZM19.619 19.2505C18.7099 19.2505 17.9881 18.5245 17.9881 17.6475H16.4881C16.4881 19.3696 17.8983 20.7505 19.619 20.7505V19.2505ZM17.9881 17.6475C17.9881 16.7706 18.7099 16.0446 19.619 16.0446V14.5446C17.8983 14.5446 16.4881 15.9255 16.4881 17.6475H17.9881ZM19.619 16.0446C20.5282 16.0446 21.25 16.7706 21.25 17.6475H22.75C22.75 15.9255 21.3398 14.5446 19.619 14.5446V16.0446ZM15.131 17.6475C15.131 15.2112 17.1319 13.2211 19.619 13.2211V11.7211C16.3203 11.7211 13.631 14.3661 13.631 17.6475H15.131ZM14.381 16.8975H6.7619V18.3975H14.381V16.8975ZM20.3586 12.3464L19.3545 6.3924L17.8754 6.64185L18.8795 12.5958L20.3586 12.3464ZM15.6088 3.25049H14.381V4.75049H15.6088V3.25049ZM19.3545 6.3924C19.281 5.95659 19.2194 5.5883 19.1449 5.28859C19.0682 4.97948 18.966 4.69051 18.7852 4.42181L17.5407 5.25923C17.5857 5.32599 17.6341 5.42828 17.6892 5.65008C17.7466 5.88129 17.7981 6.18357 17.8754 6.64185L19.3545 6.3924ZM15.6088 4.75049C16.0785 4.75049 16.3898 4.75097 16.6312 4.76901C16.8634 4.78637 16.9761 4.81714 17.0526 4.85103L17.6605 3.47975C17.365 3.34874 17.0624 3.29706 16.743 3.27319C16.4328 3.25 16.0562 3.25049 15.6088 3.25049V4.75049ZM18.7852 4.42181C18.5069 4.00815 18.1166 3.68196 17.6605 3.47975L17.0526 4.85103C17.2522 4.93953 17.4211 5.08145 17.5407 5.25923L18.7852 4.42181ZM6.0119 17.6475C6.0119 18.5245 5.2901 19.2505 4.38095 19.2505V20.7505C6.10174 20.7505 7.5119 19.3696 7.5119 17.6475H6.0119ZM4.38095 19.2505C3.47181 19.2505 2.75 18.5245 2.75 17.6475H1.25C1.25 19.3696 2.66017 20.7505 4.38095 20.7505V19.2505ZM2.75 17.6475C2.75 16.7706 3.47181 16.0446 4.38095 16.0446V14.5446C2.66017 14.5446 1.25 15.9255 1.25 17.6475H2.75ZM4.38095 16.0446C5.2901 16.0446 6.0119 16.7706 6.0119 17.6475H7.5119C7.5119 15.9255 6.10174 14.5446 4.38095 14.5446V16.0446Z" fill="#000000"/>
</svg>
