<svg width="24" height="24" viewBox="0 0 24 24" fill="none" xmlns="http://www.w3.org/2000/svg">
<path d="M9 22.0001H15" stroke="#1C274C" stroke-width="1.5" stroke-linecap="round"/>
<path d="M12 22.0001V15.0001" stroke="#1C274C" stroke-width="1.5" stroke-linecap="round"/>
<path d="M4.96143 7.44463C5.57033 5.09922 5.87478 3.92652 6.6609 3.15156C6.88879 2.9269 7.14282 2.7304 7.41753 2.56628C8.36517 2.00012 9.57675 2.00012 11.9999 2.00012C14.4231 2.00012 15.6346 2.00012 16.5823 2.56628C16.857 2.7304 17.111 2.9269 17.3389 3.15156C18.125 3.92652 18.4295 5.09923 19.0384 7.44463L19.1226 7.7691C19.9504 10.9577 20.3643 12.552 19.6125 13.6721C19.5375 13.7838 19.4551 13.8903 19.3658 13.991C18.4706 15.0001 16.8235 15.0001 13.5292 15.0001H10.4706C7.17635 15.0001 5.52921 15.0001 4.63399 13.991C4.5447 13.8903 4.46228 13.7838 4.38729 13.6721C3.63548 12.552 4.04939 10.9577 4.87719 7.76909L4.96143 7.44463Z" stroke="#1C274C" stroke-width="1.5"/>
<path d="M17.5 15.0001V17.0001" stroke="#1C274C" stroke-width="1.5" stroke-linecap="round"/>
</svg>
