<svg width="24" height="24" viewBox="0 0 24 24" fill="none" xmlns="http://www.w3.org/2000/svg">
<path d="M2 12.0002C2 8.22901 2 6.34339 3.17157 5.17182C4.34315 4.00024 6.22876 4.00024 10 4.00024H14C17.7712 4.00024 19.6569 4.00024 20.8284 5.17182C22 6.34339 22 8.22901 22 12.0002C22 15.7715 22 17.6571 20.8284 18.8287C19.6569 20.0002 17.7712 20.0002 14 20.0002H10C6.22876 20.0002 4.34315 20.0002 3.17157 18.8287C2 17.6571 2 15.7715 2 12.0002Z" stroke="#000000" stroke-width="1.5"/>
<path d="M6 8.00024L8.1589 9.79932C9.99553 11.3299 10.9139 12.0951 12 12.0951C13.0861 12.0951 14.0045 11.3299 15.8411 9.79932L18 8.00024" stroke="#000000" stroke-width="1.5" stroke-linecap="round"/>
</svg>
