<svg width="24" height="24" viewBox="0 0 24 24" fill="none" xmlns="http://www.w3.org/2000/svg">
<path d="M22 10.0002C22.0185 10.7273 22 11.0545 22 12.0002C22 15.7715 22 17.6571 20.8284 18.8287C19.6569 20.0002 17.7712 20.0002 14 20.0002H10C6.22876 20.0002 4.34315 20.0002 3.17157 18.8287C2 17.6571 2 15.7715 2 12.0002C2 8.22901 2 6.34339 3.17157 5.17182C4.34315 4.00024 6.22876 4.00024 10 4.00024H13" stroke="#1C274C" stroke-width="1.5" stroke-linecap="round"/>
<path d="M6 8.00024L8.1589 9.79932C9.99553 11.3299 10.9139 12.0951 12 12.0951C13.0861 12.0951 14.0045 11.3299 15.8411 9.79932" stroke="#1C274C" stroke-width="1.5" stroke-linecap="round"/>
<circle cx="19" cy="5.00024" r="3" stroke="#1C274C" stroke-width="1.5"/>
</svg>
