<svg width="24" height="24" viewBox="0 0 24 24" fill="none" xmlns="http://www.w3.org/2000/svg">
<path d="M18 6.10193C19.3001 6.22981 20.1752 6.51883 20.8284 7.17201C22 8.34358 22 10.2292 22 14.0004C22 17.7717 22 19.6573 20.8284 20.8289C19.6569 22.0004 17.7712 22.0004 14 22.0004H10C6.22876 22.0004 4.34315 22.0004 3.17157 20.8289C2 19.6573 2 17.7717 2 14.0004C2 10.2292 2 8.34358 3.17157 7.17201C3.82475 6.51883 4.69989 6.22981 6 6.10193" stroke="#1C274C" stroke-width="1.5"/>
<path d="M10 6.00024H14" stroke="#1C274C" stroke-width="1.5" stroke-linecap="round"/>
<path d="M11 9.00024H13" stroke="#1C274C" stroke-width="1.5" stroke-linecap="round"/>
<path d="M8.1589 11.7993L7.43926 11.1996C6.73152 10.6098 6.37764 10.3149 6.18882 9.91181C6 9.50866 6 9.04802 6 8.12674V7.00024C6 4.64322 6 3.46471 6.73223 2.73248C7.46447 2.00024 8.64298 2.00024 11 2.00024H13C15.357 2.00024 16.5355 2.00024 17.2678 2.73248C18 3.46471 18 4.64322 18 7.00024V8.12674C18 9.04802 18 9.50866 17.8112 9.91181C17.6224 10.3149 17.2685 10.6098 16.5607 11.1996L15.8411 11.7993C14.0045 13.3299 13.0861 14.0951 12 14.0951C10.9139 14.0951 9.99553 13.3299 8.1589 11.7993Z" stroke="#1C274C" stroke-width="1.5" stroke-linecap="round"/>
<path d="M6 10.0002L8.1589 11.7993C9.99553 13.3299 10.9139 14.0951 12 14.0951C13.0861 14.0951 14.0045 13.3299 15.8411 11.7993L18 10.0002" stroke="#1C274C" stroke-width="1.5" stroke-linecap="round"/>
</svg>
