<svg width="24" height="24" viewBox="0 0 24 24" fill="none" xmlns="http://www.w3.org/2000/svg">
<path d="M2.90578 13.793C2.48397 10.6294 2.27307 9.04765 3.16944 8.02383C4.06582 7 5.66159 7 8.85314 7H15.1469C18.3385 7 19.9343 7 20.8306 8.02383C21.727 9.04765 21.5161 10.6294 21.0943 13.793L20.6943 16.793C20.3635 19.2739 20.1981 20.5143 19.3497 21.2572C18.5012 22 17.2498 22 14.7469 22H9.25314C6.75031 22 5.49889 22 4.65042 21.2572C3.80195 20.5143 3.63656 19.2739 3.30578 16.793L2.90578 13.793Z" stroke="#1C274C" stroke-width="1.5"/>
<path d="M19.562 7C19.7906 5.69523 18.7866 4.5 17.4619 4.5H6.53812C5.21347 4.5 4.20946 5.69523 4.43809 7" stroke="#1C274C" stroke-width="1.5"/>
<path d="M17.5001 4.5C17.5284 4.24092 17.5426 4.11135 17.5429 4.00435C17.5451 2.98072 16.774 2.12064 15.7563 2.01142C15.6499 2 15.5195 2 15.2589 2H8.74111C8.48047 2 8.35014 2 8.24375 2.01142C7.22596 2.12064 6.45493 2.98072 6.45716 4.00434C6.45739 4.11135 6.47158 4.2409 6.49995 4.5" stroke="#1C274C" stroke-width="1.5"/>
<path d="M15 18H9" stroke="#1C274C" stroke-width="1.5" stroke-linecap="round"/>
</svg>
