<svg width="24" height="24" viewBox="0 0 24 24" fill="none" xmlns="http://www.w3.org/2000/svg">
<path d="M20.9752 12.1856L20.2361 12.0578L20.9752 12.1856ZM20.2696 16.2653L19.5306 16.1375L20.2696 16.2653ZM6.93777 20.4774L6.19056 20.542L6.93777 20.4774ZM6.12561 11.0848L6.87282 11.0202L6.12561 11.0848ZM13.995 5.22179L14.7351 5.34305V5.34305L13.995 5.22179ZM13.3323 9.26635L14.0724 9.38761V9.38761L13.3323 9.26635ZM6.69814 9.67785L6.20855 9.1097H6.20855L6.69814 9.67785ZM8.13688 8.43806L8.62647 9.00621H8.62647L8.13688 8.43806ZM10.5181 4.78411L9.79208 4.59579L10.5181 4.78411ZM10.9938 2.95025L11.7197 3.13857V3.13857L10.9938 2.95025ZM12.6676 2.06472L12.4382 2.77878L12.4382 2.77878L12.6676 2.06472ZM12.8126 2.11129L13.042 1.39723L13.042 1.39723L12.8126 2.11129ZM9.86195 6.46298L10.5235 6.81636V6.81636L9.86195 6.46298ZM13.9047 3.24789L13.1787 3.43621V3.43621L13.9047 3.24789ZM11.6742 2.13276L11.3486 1.45711V1.45711L11.6742 2.13276ZM3.9716 21.4711L3.22439 21.5357L3.9716 21.4711ZM3 10.2346L3.74721 10.17C3.71261 9.76981 3.36893 9.46795 2.96767 9.48526C2.5664 9.50258 2.25 9.83293 2.25 10.2346H3ZM20.2361 12.0578L19.5306 16.1375L21.0087 16.3931L21.7142 12.3134L20.2361 12.0578ZM13.245 21.2504H8.59635V22.7504H13.245V21.2504ZM7.68498 20.4128L6.87282 11.0202L5.3784 11.1494L6.19056 20.542L7.68498 20.4128ZM19.5306 16.1375C19.0238 19.0681 16.3813 21.2504 13.245 21.2504V22.7504C17.0712 22.7504 20.3708 20.0814 21.0087 16.3931L19.5306 16.1375ZM13.2548 5.10052L12.5921 9.14508L14.0724 9.38761L14.7351 5.34305L13.2548 5.10052ZM7.18773 10.246L8.62647 9.00621L7.64729 7.8699L6.20855 9.1097L7.18773 10.246ZM11.244 4.97243L11.7197 3.13857L10.2678 2.76193L9.79208 4.59579L11.244 4.97243ZM12.4382 2.77878L12.5832 2.82535L13.042 1.39723L12.897 1.35066L12.4382 2.77878ZM10.5235 6.81636C10.8354 6.23234 11.0777 5.61376 11.244 4.97243L9.79208 4.59579C9.65573 5.12144 9.45699 5.62929 9.20042 6.10961L10.5235 6.81636ZM12.5832 2.82535C12.8896 2.92379 13.1072 3.16045 13.1787 3.43621L14.6307 3.05957C14.4252 2.26756 13.819 1.64685 13.042 1.39723L12.5832 2.82535ZM11.7197 3.13857C11.7548 3.00357 11.8523 2.87949 11.9998 2.80841L11.3486 1.45711C10.8166 1.71346 10.417 2.18663 10.2678 2.76194L11.7197 3.13857ZM11.9998 2.80841C12.1345 2.74348 12.2931 2.73218 12.4382 2.77878L12.897 1.35066C12.3873 1.18691 11.8312 1.22456 11.3486 1.45711L11.9998 2.80841ZM14.1537 10.9846H19.3348V9.48457H14.1537V10.9846ZM4.71881 21.4065L3.74721 10.17L2.25279 10.2992L3.22439 21.5357L4.71881 21.4065ZM3.75 21.5131V10.2346H2.25V21.5131H3.75ZM3.22439 21.5357C3.2112 21.3831 3.33146 21.2504 3.48671 21.2504V22.7504C4.21268 22.7504 4.78122 22.1283 4.71881 21.4065L3.22439 21.5357ZM14.7351 5.34305C14.8596 4.58293 14.8241 3.80514 14.6307 3.05957L13.1787 3.43621C13.3197 3.9796 13.3456 4.5465 13.2548 5.10052L14.7351 5.34305ZM8.59635 21.2504C8.12244 21.2504 7.72601 20.8873 7.68498 20.4128L6.19056 20.542C6.29852 21.7906 7.3427 22.7504 8.59635 22.7504V21.2504ZM8.62647 9.00621C9.30632 8.42037 10.0392 7.72304 10.5235 6.81636L9.20042 6.10961C8.85404 6.75804 8.3025 7.30529 7.64729 7.8699L8.62647 9.00621ZM21.7142 12.3134C21.9695 10.8369 20.8341 9.48457 19.3348 9.48457V10.9846C19.9014 10.9846 20.3332 11.4963 20.2361 12.0578L21.7142 12.3134ZM3.48671 21.2504C3.63292 21.2504 3.75 21.3688 3.75 21.5131H2.25C2.25 22.1956 2.80289 22.7504 3.48671 22.7504V21.2504ZM12.5921 9.14508C12.4344 10.1079 13.1766 10.9846 14.1537 10.9846V9.48457C14.1038 9.48457 14.0639 9.43937 14.0724 9.38761L12.5921 9.14508ZM6.87282 11.0202C6.8474 10.7262 6.96475 10.4382 7.18773 10.246L6.20855 9.1097C5.62022 9.61667 5.31149 10.3757 5.3784 11.1494L6.87282 11.0202Z" fill="#1C274C"/>
</svg>
