<svg width="24" height="24" viewBox="0 0 24 24" fill="none" xmlns="http://www.w3.org/2000/svg">
<path d="M8 18.0005C5.17157 18.0005 3.75736 18.0005 2.87868 17.1218C2 16.2431 2 14.8289 2 12.0005C2 9.17206 2 7.75785 2.87868 6.87917C3.75736 6.00049 5.17157 6.00049 8 6.00049C10.8284 6.00049 12.2426 6.00049 13.1213 6.87917C14 7.75785 14 9.17206 14 12.0005" stroke="#1C274C" stroke-width="1.5" stroke-linecap="round" stroke-linejoin="round"/>
<path d="M10 12.0005C10 14.8289 10 16.2431 10.8787 17.1218C11.7574 18.0005 13.1716 18.0005 16 18.0005C18.8284 18.0005 20.2426 18.0005 21.1213 17.1218C22 16.2431 22 14.8289 22 12.0005C22 9.17206 22 7.75785 21.1213 6.87917C20.2426 6.00049 18.8284 6.00049 16 6.00049" stroke="#1C274C" stroke-width="1.5" stroke-linecap="round" stroke-linejoin="round"/>
</svg>
