<svg width="24" height="24" viewBox="0 0 24 24" fill="none" xmlns="http://www.w3.org/2000/svg">
<path d="M12.7917 15.7996L14.2223 14.3681C16.5926 11.9964 16.5926 8.15103 14.2223 5.77929C11.8521 3.40755 8.0091 3.40755 5.63885 5.77929L2.77769 8.64223C0.407436 11.014 0.407436 14.8593 2.77769 17.231C3.87688 18.3309 5.29279 18.9207 6.73165 19.0005" stroke="#1C274C" stroke-width="1.5" stroke-linecap="round"/>
<path d="M11.2083 8.20141L9.77769 9.63287C7.40744 12.0046 7.40744 15.85 9.77769 18.2217C12.1479 20.5934 15.9909 20.5934 18.3612 18.2217L21.2223 15.3588C23.5926 12.987 23.5926 9.14167 21.2223 6.76994C20.1231 5.67006 18.7072 5.08024 17.2683 5.00049" stroke="#1C274C" stroke-width="1.5" stroke-linecap="round"/>
</svg>
