<svg width="24" height="24" viewBox="0 0 24 24" fill="none" xmlns="http://www.w3.org/2000/svg">
<path d="M20 6.00024L3 6.00024" stroke="#1C274C" stroke-width="1.5" stroke-linecap="round"/>
<path d="M10 16.0002H3" stroke="#1C274C" stroke-width="1.5" stroke-linecap="round"/>
<path d="M9 11.0002H3" stroke="#1C274C" stroke-width="1.5" stroke-linecap="round"/>
<path d="M16.4901 16.3085L16.935 15.7047L16.935 15.7047L16.4901 16.3085ZM17.5 10.1064L16.9641 10.6311C17.1052 10.7752 17.2983 10.8564 17.5 10.8564C17.7017 10.8564 17.8948 10.7752 18.0359 10.6311L17.5 10.1064ZM18.5099 16.3085L18.9549 16.9122L18.9549 16.9122L18.5099 16.3085ZM17.5 16.8106L17.5 16.0606H17.5L17.5 16.8106ZM16.935 15.7047C16.2914 15.2304 15.4675 14.5571 14.8118 13.8082C14.1328 13.0328 13.75 12.3066 13.75 11.715H12.25C12.25 12.876 12.9489 13.9577 13.6832 14.7964C14.4409 15.6616 15.3619 16.4087 16.0451 16.9122L16.935 15.7047ZM13.75 11.715C13.75 10.6073 14.2445 10.024 14.7533 9.83373C15.2705 9.64034 16.0951 9.74356 16.9641 10.6311L18.0359 9.58169C16.88 8.40115 15.4546 7.97009 14.228 8.42874C12.993 8.89052 12.25 10.1456 12.25 11.715H13.75ZM18.9549 16.9122C19.6381 16.4087 20.5591 15.6617 21.3168 14.7964C22.0511 13.9577 22.75 12.876 22.75 11.715H21.25C21.25 12.3066 20.8672 13.0328 20.1882 13.8082C19.5325 14.5571 18.7086 15.2304 18.065 15.7047L18.9549 16.9122ZM22.75 11.715C22.75 10.1456 22.007 8.89052 20.772 8.42873C19.5454 7.97009 18.12 8.40115 16.9641 9.58169L18.0359 10.6311C18.9049 9.74356 19.7295 9.64034 20.2467 9.83373C20.7555 10.024 21.25 10.6073 21.25 11.715H22.75ZM16.0451 16.9122C16.4368 17.2009 16.8752 17.5606 17.5 17.5606L17.5 16.0606C17.4852 16.0606 17.4682 16.0629 17.399 16.0254C17.3008 15.9723 17.178 15.8838 16.935 15.7047L16.0451 16.9122ZM18.065 15.7047C17.822 15.8838 17.6992 15.9723 17.601 16.0254C17.5318 16.0629 17.5148 16.0606 17.5 16.0606L17.5 17.5606C18.1248 17.5606 18.5632 17.2009 18.9549 16.9122L18.065 15.7047Z" fill="#1C274C"/>
</svg>
