<svg width="24" height="24" viewBox="0 0 24 24" fill="none" xmlns="http://www.w3.org/2000/svg">
<path d="M16.5203 18.341L16.0758 18.9451H16.0758L16.5203 18.341ZM17.5 13.8299L16.9737 14.3642C17.2657 14.6517 17.7343 14.6517 18.0263 14.3642L17.5 13.8299ZM18.4797 18.341L18.0351 17.737L18.4797 18.341ZM17.5 18.8204L17.5 19.5704L17.5 18.8204ZM16.9649 17.737C16.4677 17.3711 15.8871 16.8913 15.4382 16.3743C14.9683 15.8331 14.75 15.3735 14.75 15.0363H13.25C13.25 15.934 13.7742 16.7457 14.3056 17.3577C14.858 17.9939 15.5376 18.549 16.0758 18.9451L16.9649 17.737ZM14.75 15.0363C14.75 14.2798 15.0929 13.9197 15.4138 13.804C15.7508 13.6825 16.3333 13.7335 16.9737 14.3642L18.0263 13.2955C17.0918 12.3752 15.9243 12.0254 14.905 12.3929C13.8697 12.7663 13.25 13.7849 13.25 15.0363H14.75ZM18.9242 18.9451C19.4624 18.549 20.142 17.9939 20.6944 17.3578C21.2258 16.7457 21.75 15.934 21.75 15.0363H20.25C20.25 15.3735 20.0317 15.8331 19.5618 16.3743C19.1129 16.8913 18.5323 17.3711 18.0351 17.737L18.9242 18.9451ZM21.75 15.0363C21.75 13.7849 21.1303 12.7662 20.095 12.3929C19.0757 12.0254 17.9082 12.3752 16.9737 13.2955L18.0263 14.3642C18.6667 13.7335 19.2492 13.6825 19.5862 13.804C19.9071 13.9197 20.25 14.2798 20.25 15.0363H21.75ZM16.0758 18.9451C16.4541 19.2234 16.8783 19.5704 17.5 19.5704L17.5 18.0704C17.4796 18.0704 17.4637 18.0713 17.4032 18.0389C17.3121 17.9903 17.1982 17.9086 16.9649 17.737L16.0758 18.9451ZM18.0351 17.737C17.8019 17.9086 17.688 17.9903 17.5968 18.0389C17.5363 18.0713 17.5204 18.0704 17.5 18.0704L17.5 19.5704C18.1217 19.5704 18.5459 19.2234 18.9242 18.9451L18.0351 17.737Z" fill="#000000"/>
<path d="M21 6.00024L3 6.00024" stroke="#000000" stroke-width="1.5" stroke-linecap="round"/>
<path d="M21 10.0002L3 10.0002" stroke="#000000" stroke-width="1.5" stroke-linecap="round"/>
<path d="M10 14.0002H3" stroke="#000000" stroke-width="1.5" stroke-linecap="round"/>
<path d="M10 18.0002H3" stroke="#000000" stroke-width="1.5" stroke-linecap="round"/>
</svg>
