<svg width="24" height="24" viewBox="0 0 24 24" fill="none" xmlns="http://www.w3.org/2000/svg">
<path d="M2 16.0005C2 13.1721 2 11.7578 2.87868 10.8792C3.75736 10.0005 5.17157 10.0005 8 10.0005H16C18.8284 10.0005 20.2426 10.0005 21.1213 10.8792C22 11.7578 22 13.1721 22 16.0005C22 18.8289 22 20.2431 21.1213 21.1218C20.2426 22.0005 18.8284 22.0005 16 22.0005H8C5.17157 22.0005 3.75736 22.0005 2.87868 21.1218C2 20.2431 2 18.8289 2 16.0005Z" stroke="#1C274C" stroke-width="1.5"/>
<path d="M9 16.0005C9 16.5528 8.55228 17.0005 8 17.0005C7.44772 17.0005 7 16.5528 7 16.0005C7 15.4482 7.44772 15.0005 8 15.0005C8.55228 15.0005 9 15.4482 9 16.0005Z" fill="#1C274C"/>
<path d="M13 16.0005C13 16.5528 12.5523 17.0005 12 17.0005C11.4477 17.0005 11 16.5528 11 16.0005C11 15.4482 11.4477 15.0005 12 15.0005C12.5523 15.0005 13 15.4482 13 16.0005Z" fill="#1C274C"/>
<path d="M17 16.0005C17 16.5528 16.5523 17.0005 16 17.0005C15.4477 17.0005 15 16.5528 15 16.0005C15 15.4482 15.4477 15.0005 16 15.0005C16.5523 15.0005 17 15.4482 17 16.0005Z" fill="#1C274C"/>
<path d="M6 10.0005V8.00049C6 4.68678 8.68629 2.00049 12 2.00049C14.7958 2.00049 17.1449 3.91265 17.811 6.50049" stroke="#1C274C" stroke-width="1.5" stroke-linecap="round"/>
</svg>
