<svg width="24" height="24" viewBox="0 0 24 24" fill="none" xmlns="http://www.w3.org/2000/svg">
<path d="M2 16.0005C2 13.1721 2 11.7578 2.87868 10.8792C3.75736 10.0005 5.17157 10.0005 8 10.0005H16C18.8284 10.0005 20.2426 10.0005 21.1213 10.8792C22 11.7578 22 13.1721 22 16.0005C22 18.8289 22 20.2431 21.1213 21.1218C20.2426 22.0005 18.8284 22.0005 16 22.0005H8C5.17157 22.0005 3.75736 22.0005 2.87868 21.1218C2 20.2431 2 18.8289 2 16.0005Z" stroke="#000000" stroke-width="1.5"/>
<path d="M6 10.0005V8.00049C6 4.68678 8.68629 2.00049 12 2.00049C14.7958 2.00049 17.1449 3.91265 17.811 6.50049" stroke="#000000" stroke-width="1.5" stroke-linecap="round"/>
</svg>
