<svg width="24" height="24" viewBox="0 0 24 24" fill="none" xmlns="http://www.w3.org/2000/svg">
<circle cx="11.5" cy="11.5005" r="9.5" stroke="#1C274C" stroke-width="1.5"/>
<path d="M11.5 15.5005C9.84315 15.5005 8.5 14.1573 8.5 12.5005V10.5005M11.5 15.5005C13.1569 15.5005 14.5 14.1573 14.5 12.5005V10.5005M11.5 15.5005V10.5005M14.5 10.5005C14.5 8.84363 13.1569 7.50049 11.5 7.50049C9.84315 7.50049 8.5 8.84363 8.5 10.5005M14.5 10.5005H8.5M14.5715 11.5005H16M7 11.5005H8.5M14.5 14.0005L15.5 14.5005M8.5 14.0005L7.5 14.5005M14.5 9.00049L15.5 8.50049M8.5 9.00049L7.5 8.50049" stroke="#1C274C" stroke-width="1.5" stroke-linecap="round"/>
<path d="M18.5 18.5005L22 22.0005" stroke="#1C274C" stroke-width="1.5" stroke-linecap="round"/>
</svg>
