<svg width="24" height="24" viewBox="0 0 24 24" fill="none" xmlns="http://www.w3.org/2000/svg">
<circle cx="11" cy="11.0005" r="9" stroke="#000000" stroke-width="1.5"/>
<path d="M11 15.0005C9.34315 15.0005 8 13.6573 8 12.0005V10.0005M11 15.0005C12.6569 15.0005 14 13.6573 14 12.0005V10.0005M11 15.0005V10.0005M14 10.0005C14 8.34363 12.6569 7.00049 11 7.00049C9.34315 7.00049 8 8.34363 8 10.0005M14 10.0005H8M14.0715 11.0005H15.5M6.5 11.0005H8M14 13.5005L15 14.0005M8 13.5005L7 14.0005M14 8.50049L15 8.00049M8 8.50049L7 8.00049" stroke="#000000" stroke-width="1.5" stroke-linecap="round"/>
<path d="M21.812 20.9753C21.7493 21.0699 21.636 21.1833 21.4094 21.4099C21.1828 21.6365 21.0695 21.7498 20.9748 21.8125C20.4202 22.1798 19.6699 21.9905 19.3559 21.4041C19.3023 21.304 19.2563 21.1505 19.1643 20.8435C19.0638 20.508 19.0136 20.3403 19.0038 20.2223C18.9466 19.5273 19.5268 18.9471 20.2218 19.0043C20.3398 19.0141 20.5075 19.0643 20.843 19.1648C21.15 19.2568 21.3035 19.3028 21.4036 19.3564C21.99 19.6704 22.1793 20.4207 21.812 20.9753Z" stroke="#000000" stroke-width="1.5" stroke-linecap="round"/>
</svg>
