<svg width="24" height="24" viewBox="0 0 24 24" fill="none" xmlns="http://www.w3.org/2000/svg">
<circle cx="11" cy="11.0005" r="9" stroke="#000000" stroke-width="1.5"/>
<path d="M9 11.0005H11H13" stroke="#000000" stroke-width="1.5" stroke-linecap="round"/>
<path d="M21.812 20.9753C21.7493 21.0699 21.636 21.1833 21.4094 21.4099C21.1828 21.6365 21.0695 21.7498 20.9748 21.8125C20.4202 22.1798 19.6699 21.9905 19.3559 21.4041C19.3023 21.304 19.2563 21.1505 19.1643 20.8435C19.0638 20.508 19.0136 20.3403 19.0038 20.2223C18.9466 19.5273 19.5268 18.9471 20.2218 19.0043C20.3398 19.0141 20.5075 19.0643 20.843 19.1648C21.15 19.2568 21.3035 19.3028 21.4036 19.3564C21.99 19.6704 22.1793 20.4207 21.812 20.9753Z" stroke="#000000" stroke-width="1.5" stroke-linecap="round"/>
</svg>
