<svg width="24" height="24" viewBox="0 0 24 24" fill="none" xmlns="http://www.w3.org/2000/svg">
<path d="M10.5 22.0002V20.0002M14.5 22.0002V20.0002" stroke="#1C274C" stroke-width="1.5" stroke-linecap="round"/>
<path d="M11 20.0002V20.7502H11.75V20.0002H11ZM14 19.2502C13.5858 19.2502 13.25 19.586 13.25 20.0002C13.25 20.4145 13.5858 20.7502 14 20.7502V19.2502ZM17.5 5.25024C17.0858 5.25024 16.75 5.58603 16.75 6.00024C16.75 6.41446 17.0858 6.75024 17.5 6.75024V5.25024ZM7 5.25024C6.58579 5.25024 6.25 5.58603 6.25 6.00024C6.25 6.41446 6.58579 6.75024 7 6.75024V5.25024ZM9 19.2502C8.58579 19.2502 8.25 19.586 8.25 20.0002C8.25 20.4145 8.58579 20.7502 9 20.7502V19.2502ZM15 20.7502C15.4142 20.7502 15.75 20.4145 15.75 20.0002C15.75 19.586 15.4142 19.2502 15 19.2502V20.7502ZM10.25 11.2502V20.0002H11.75V11.2502H10.25ZM11 19.2502H4.23256V20.7502H11V19.2502ZM2.75 17.3956V11.2502H1.25V17.3956H2.75ZM4.23256 19.2502C3.51806 19.2502 2.75 18.5325 2.75 17.3956H1.25C1.25 19.1357 2.48104 20.7502 4.23256 20.7502V19.2502ZM6.5 6.75024C8.46677 6.75024 10.25 8.65233 10.25 11.2502H11.75C11.75 8.04917 9.50379 5.25024 6.5 5.25024V6.75024ZM6.5 5.25024C3.49621 5.25024 1.25 8.04917 1.25 11.2502H2.75C2.75 8.65233 4.53323 6.75024 6.5 6.75024V5.25024ZM21.25 11.2502V17.4255H22.75V11.2502H21.25ZM19.7931 19.2502H14V20.7502H19.7931V19.2502ZM21.25 17.4255C21.25 18.5459 20.4934 19.2502 19.7931 19.2502V20.7502C21.5305 20.7502 22.75 19.1491 22.75 17.4255H21.25ZM22.75 11.2502C22.75 8.04917 20.5038 5.25024 17.5 5.25024V6.75024C19.4668 6.75024 21.25 8.65233 21.25 11.2502H22.75ZM7 6.75024H18V5.25024H7V6.75024ZM9 20.7502H15V19.2502H9V20.7502Z" fill="#1C274C"/>
<path d="M5 16.0002H8" stroke="#1C274C" stroke-width="1.5" stroke-linecap="round"/>
<path d="M16 9.88457V5.41145M16 5.41145V2.63543C16 2.39929 16.1676 2.19637 16.3994 2.15169L16.8855 2.05803C17.4738 1.94467 18.0821 1.99879 18.6412 2.21424L18.7203 2.24475C19.2746 2.45834 19.8807 2.49825 20.4582 2.35916C20.7343 2.29264 21 2.50192 21 2.78598V5.00747C21 5.24444 20.8376 5.45056 20.6073 5.50605L20.5407 5.52209C19.9095 5.67411 19.247 5.6305 18.6412 5.39704C18.0821 5.18159 17.4738 5.12747 16.8855 5.24083L16 5.41145Z" stroke="#1C274C" stroke-width="1.5" stroke-linecap="round"/>
</svg>
