<svg width="24" height="24" viewBox="0 0 24 24" fill="none" xmlns="http://www.w3.org/2000/svg">
<path d="M4 10.1435C4 5.64612 7.58172 2.00024 12 2.00024C16.4183 2.00024 20 5.64612 20 10.1435C20 14.6057 17.4467 19.8127 13.4629 21.6747C12.5343 22.1088 11.4657 22.1088 10.5371 21.6747C6.55332 19.8127 4 14.6057 4 10.1435Z" stroke="#1C274C" stroke-width="1.5"/>
<path d="M14.1249 12.118L15.5 13.5002M14.1249 12.118C14.6657 11.5754 15 10.8269 15 10.0002C15 8.34339 13.6569 7.00024 12 7.00024C10.3431 7.00024 9 8.34339 9 10.0002C9 11.6571 10.3431 13.0002 12 13.0002C12.8302 13.0002 13.5817 12.663 14.1249 12.118Z" stroke="#1C274C" stroke-width="1.5" stroke-linecap="round"/>
</svg>
