<svg width="24" height="24" viewBox="0 0 24 24" fill="none" xmlns="http://www.w3.org/2000/svg">
<path d="M5 8.51488C5 4.91695 8.13401 2.00024 12 2.00024C15.866 2.00024 19 4.91695 19 8.51488C19 12.0846 16.7658 16.2502 13.2801 17.7398C12.4675 18.0871 11.5325 18.0871 10.7199 17.7398C7.23416 16.2502 5 12.0846 5 8.51488Z" stroke="#000000" stroke-width="1.5"/>
<path d="M14 9.00024C14 10.1048 13.1046 11.0002 12 11.0002C10.8954 11.0002 10 10.1048 10 9.00024C10 7.89567 10.8954 7.00024 12 7.00024C13.1046 7.00024 14 7.89567 14 9.00024Z" stroke="#000000" stroke-width="1.5"/>
<path d="M20.9605 15.5002C21.6259 16.1027 22 16.7818 22 17.5002C22 19.9855 17.5228 22.0002 12 22.0002C6.47715 22.0002 2 19.9855 2 17.5002C2 16.7818 2.37412 16.1027 3.03947 15.5002" stroke="#000000" stroke-width="1.5" stroke-linecap="round"/>
</svg>
