<svg width="24" height="24" viewBox="0 0 24 24" fill="none" xmlns="http://www.w3.org/2000/svg">
<path d="M4 10.1435C4 5.64612 7.58172 2.00024 12 2.00024C16.4183 2.00024 20 5.64612 20 10.1435C20 14.6057 17.4467 19.8127 13.4629 21.6747C12.5343 22.1088 11.4657 22.1088 10.5371 21.6747C6.55332 19.8127 4 14.6057 4 10.1435Z" stroke="#1C274C" stroke-width="1.5"/>
<path d="M11.224 6.63651C11.7213 6.45482 12.2787 6.45482 12.776 6.63651L15.1179 7.49205C15.6274 7.67815 15.6274 8.32235 15.1179 8.50845L12.776 9.36398C12.2787 9.54567 11.7213 9.54567 11.224 9.36398L8.88206 8.50843C8.37265 8.32234 8.37265 7.67814 8.88206 7.49204L11.224 6.63651Z" stroke="#1C274C" stroke-width="1.5"/>
<path d="M14.5 9.00024V11.7004C14.5 12.0894 14.2746 12.4441 13.9097 12.5788C13.3965 12.7681 12.6375 13.0002 12 13.0002C11.3625 13.0002 10.6035 12.7681 10.0903 12.5788C9.72542 12.4441 9.5 12.0894 9.5 11.7004V9.00024" stroke="#1C274C" stroke-width="1.5" stroke-linecap="round"/>
</svg>
