<svg width="24" height="24" viewBox="0 0 24 24" fill="none" xmlns="http://www.w3.org/2000/svg">
<path d="M12 22.0002C7.28595 22.0002 4.92893 22.0002 3.46447 20.5358C2 19.0713 2 16.7143 2 12.0002C2 7.2862 2 4.92918 3.46447 3.46471C4.92893 2.00024 7.28595 2.00024 12 2.00024C16.714 2.00024 19.0711 2.00024 20.5355 3.46471C22 4.92918 22 7.2862 22 12.0002C22 16.7143 22 19.0713 20.5355 20.5358C19.0711 22.0002 16.714 22.0002 12 22.0002Z" stroke="#1C274C" stroke-width="1.5"/>
<path d="M13.4227 17.362L16.9348 8.19622C17.2164 7.46131 16.5389 6.78385 15.804 7.06545L6.63824 10.5775C5.80779 10.8958 5.78079 12.0602 6.5981 12.3086L10.0751 13.3651C10.3455 13.4472 10.553 13.6548 10.6352 13.9252L11.6917 17.4021C11.94 18.2195 13.1045 18.1925 13.4227 17.362Z" stroke="#1C274C" stroke-width="1.5"/>
</svg>
