<svg width="24" height="24" viewBox="0 0 24 24" fill="none" xmlns="http://www.w3.org/2000/svg">
<path d="M6 8.10771C6 4.73465 8.68629 2.00024 12 2.00024C15.3137 2.00024 18 4.73465 18 8.10771C18 11.4543 16.085 15.3596 13.0972 16.7561C12.4007 17.0816 11.5993 17.0816 10.9028 16.7561C7.91499 15.3596 6 11.4543 6 8.10771Z" stroke="#1C274C" stroke-width="1.5"/>
<path d="M14 8.00024C14 9.10481 13.1046 10.0002 12 10.0002C10.8954 10.0002 10 9.10481 10 8.00024C10 6.89567 10.8954 6.00024 12 6.00024C13.1046 6.00024 14 6.89567 14 8.00024Z" stroke="#1C274C" stroke-width="1.5"/>
<path d="M12 20.6877L12.4939 21.2522C12.6566 21.1098 12.75 20.904 12.75 20.6877C12.75 20.4715 12.6566 20.2657 12.4939 20.1233L12 20.6877ZM21.4263 14.4124C21.1016 14.1552 20.6299 14.2098 20.3727 14.5345C20.1155 14.8591 20.1701 15.3309 20.4948 15.5881L21.4263 14.4124ZM3.50523 15.5881C3.82989 15.3309 3.88455 14.8591 3.62731 14.5345C3.37008 14.2098 2.89836 14.1552 2.5737 14.4124L3.50523 15.5881ZM10.5 19.3752L10.9939 18.8108C10.7724 18.617 10.4581 18.5707 10.1901 18.6923C9.9221 18.8139 9.75 19.081 9.75 19.3752H10.5ZM10.5 22.0002H9.75C9.75 22.2945 9.9221 22.5616 10.1901 22.6832C10.4581 22.8048 10.7724 22.7585 10.9939 22.5647L10.5 22.0002ZM14.4244 19.8175C14.0123 19.8593 13.7121 20.2272 13.7538 20.6393C13.7956 21.0514 14.1635 21.3516 14.5756 21.3099L14.4244 19.8175ZM10.5443 19.8951C8.20148 19.7563 6.17254 19.29 4.75556 18.6473C4.04582 18.3254 3.52438 17.9749 3.19064 17.6299C2.86028 17.2883 2.75 16.9932 2.75 16.7502H1.25C1.25 17.4942 1.60081 18.1437 2.11244 18.6727C2.62069 19.1982 3.32214 19.6443 4.13599 20.0134C5.76619 20.7527 7.98726 21.2462 10.4557 21.3924L10.5443 19.8951ZM20.4948 15.5881C21.0684 16.0426 21.25 16.4433 21.25 16.7502H22.75C22.75 15.8 22.1833 15.0122 21.4263 14.4124L20.4948 15.5881ZM2.75 16.7502C2.75 16.4433 2.93157 16.0426 3.50523 15.5881L2.5737 14.4124C1.81667 15.0122 1.25 15.8 1.25 16.7502H2.75ZM12.4939 20.1233L10.9939 18.8108L10.0061 19.9397L11.5061 21.2522L12.4939 20.1233ZM9.75 19.3752V20.6437H11.25V19.3752H9.75ZM9.75 20.6437V22.0002H11.25V20.6437H9.75ZM10.9939 22.5647L12.4939 21.2522L11.5061 20.1233L10.0061 21.4358L10.9939 22.5647ZM21.25 16.7502C21.25 17.2069 20.8246 17.8625 19.5314 18.5105C18.3014 19.1269 16.522 19.6049 14.4244 19.8175L14.5756 21.3099C16.791 21.0854 18.7617 20.574 20.2034 19.8516C21.5819 19.1608 22.75 18.1283 22.75 16.7502H21.25Z" fill="#1C274C"/>
</svg>
