<svg width="24" height="24" viewBox="0 0 24 24" fill="none" xmlns="http://www.w3.org/2000/svg">
<path d="M3 8.7096C3 7.23605 3 6.49928 3.39264 6.06956C3.53204 5.91699 3.70147 5.79488 3.89029 5.71087C4.42213 5.47427 5.12109 5.70726 6.51901 6.17323C7.58626 6.52898 8.11989 6.70686 8.6591 6.68845C8.85714 6.68168 9.05401 6.65532 9.24685 6.60974C9.77191 6.48562 10.2399 6.17361 11.176 5.54958L12.5583 4.628C13.7574 3.82865 14.3569 3.42897 15.0451 3.33681C15.7333 3.24465 16.4168 3.4725 17.7839 3.9282L18.9487 4.31646C19.9387 4.64647 20.4337 4.81147 20.7169 5.2043C21 5.59713 21 6.11893 21 7.16251V15.2909C21 16.7644 21 17.5012 20.6074 17.9309C20.468 18.0835 20.2985 18.2056 20.1097 18.2896C19.5779 18.5262 18.8789 18.2932 17.481 17.8272C16.4137 17.4715 15.8801 17.2936 15.3409 17.312C15.1429 17.3188 14.946 17.3451 14.7532 17.3907C14.2281 17.5148 13.7601 17.8268 12.824 18.4509L11.4417 19.3725C10.2426 20.1718 9.64311 20.5715 8.95493 20.6637C8.26674 20.7558 7.58319 20.528 6.21609 20.0723L5.05132 19.684C4.06129 19.354 3.56627 19.189 3.28314 18.7962C3 18.4033 3 17.8815 3 16.838V8.7096Z" stroke="#1C274C" stroke-width="1.5"/>
<path d="M9 6.63889V20.5003" stroke="#1C274C" stroke-width="1.5"/>
<path d="M15 3.00024V17.0002" stroke="#1C274C" stroke-width="1.5"/>
</svg>
