<svg width="24" height="24" viewBox="0 0 24 24" fill="none" xmlns="http://www.w3.org/2000/svg">
<path d="M17 6.00037C17 4.11475 17 3.17194 16.4142 2.58615C15.8284 2.00037 14.8856 2.00037 13 2.00037H11C9.11438 2.00037 8.17157 2.00037 7.58579 2.58615C7 3.17194 7 4.11475 7 6.00037" stroke="#000000" stroke-width="1.5"/>
<path d="M11.1459 11.0229C11.5259 10.3412 11.7159 10.0004 12 10.0004C12.2841 10.0004 12.4741 10.3412 12.8541 11.0229L12.9524 11.1992C13.0603 11.3929 13.1143 11.4898 13.1985 11.5537C13.2827 11.6176 13.3875 11.6413 13.5972 11.6888L13.7881 11.732C14.526 11.8989 14.895 11.9824 14.9828 12.2647C15.0706 12.547 14.819 12.8411 14.316 13.4293L14.1858 13.5815C14.0429 13.7487 13.9714 13.8323 13.9392 13.9357C13.9071 14.0391 13.9179 14.1506 13.9395 14.3736L13.9592 14.5767C14.0352 15.3615 14.0733 15.754 13.8435 15.9284C13.6136 16.1029 13.2682 15.9438 12.5773 15.6257L12.3986 15.5434C12.2022 15.453 12.1041 15.4078 12 15.4078C11.8959 15.4078 11.7978 15.453 11.6014 15.5434L11.4227 15.6257C10.7318 15.9438 10.3864 16.1029 10.1565 15.9284C9.92674 15.754 9.96476 15.3615 10.0408 14.5767L10.0605 14.3736C10.0821 14.1506 10.0929 14.0391 10.0608 13.9357C10.0286 13.8323 9.95713 13.7487 9.81418 13.5815L9.68403 13.4293C9.18097 12.8411 8.92945 12.547 9.01723 12.2647C9.10501 11.9824 9.47396 11.8989 10.2119 11.732L10.4028 11.6888C10.6125 11.6413 10.7173 11.6176 10.8015 11.5537C10.8857 11.4898 10.9397 11.3929 11.0476 11.1992L11.1459 11.0229Z" stroke="#000000" stroke-width="1.5"/>
<path d="M14 6.00037H10C7.17157 6.00037 5.75736 6.00037 4.87868 6.87905C4 7.75773 4 9.17194 4 12.0004V13.0561C4 15.4617 4 16.6645 4.5974 17.6312C5.19479 18.5978 6.27063 19.1357 8.42229 20.2115C10.1779 21.0893 11.0557 21.5282 12 21.5282C12.9443 21.5282 13.8221 21.0893 15.5777 20.2115C17.7294 19.1357 18.8052 18.5978 19.4026 17.6312C20 16.6645 20 15.4617 20 13.0561V12.0004C20 9.17194 20 7.75773 19.1213 6.87905C18.2426 6.00037 16.8284 6.00037 14 6.00037Z" stroke="#000000" stroke-width="1.5"/>
</svg>
