<svg width="24" height="24" viewBox="0 0 24 24" fill="none" xmlns="http://www.w3.org/2000/svg">
<circle cx="12" cy="9.00037" r="7" stroke="#1C274C" stroke-width="1.5"/>
<path d="M7.35111 15.0004L6.71424 17.3233C6.0859 19.6152 5.77173 20.7611 6.19097 21.3884C6.3379 21.6083 6.535 21.7847 6.76372 21.9012C7.41635 22.2335 8.42401 21.7084 10.4393 20.6583C11.1099 20.3089 11.4452 20.1342 11.8014 20.0963C11.9335 20.0822 12.0665 20.0822 12.1986 20.0963C12.5548 20.1342 12.8901 20.3089 13.5607 20.6583C15.576 21.7084 16.5837 22.2335 17.2363 21.9012C17.465 21.7847 17.6621 21.6083 17.809 21.3884C18.2283 20.7611 17.9141 19.6152 17.2858 17.3233L16.6489 15.0004" stroke="#1C274C" stroke-width="1.5" stroke-linecap="round"/>
</svg>
