<svg width="24" height="24" viewBox="0 0 24 24" fill="none" xmlns="http://www.w3.org/2000/svg">
<path d="M17 8.00037V6.00037C17 4.11475 17 3.17194 16.4142 2.58615C15.8284 2.00037 14.8856 2.00037 13 2.00037H11C9.11438 2.00037 8.17157 2.00037 7.58579 2.58615C7 3.17194 7 4.11475 7 6.00037V8.00037" stroke="#000000" stroke-width="1.5"/>
<path d="M11.1459 12.0229C11.5259 11.3412 11.7159 11.0004 12 11.0004C12.2841 11.0004 12.4741 11.3412 12.8541 12.0229L12.9524 12.1992C13.0603 12.3929 13.1143 12.4898 13.1985 12.5537C13.2827 12.6176 13.3875 12.6413 13.5972 12.6888L13.7881 12.732C14.526 12.8989 14.895 12.9824 14.9828 13.2647C15.0706 13.547 14.819 13.8411 14.316 14.4293L14.1858 14.5815C14.0429 14.7487 13.9714 14.8323 13.9392 14.9357C13.9071 15.0391 13.9179 15.1506 13.9395 15.3736L13.9592 15.5767C14.0352 16.3615 14.0733 16.754 13.8435 16.9284C13.6136 17.1029 13.2682 16.9438 12.5773 16.6257L12.3986 16.5434C12.2022 16.453 12.1041 16.4078 12 16.4078C11.8959 16.4078 11.7978 16.453 11.6014 16.5434L11.4227 16.6257C10.7318 16.9438 10.3864 17.1029 10.1565 16.9284C9.92674 16.754 9.96476 16.3615 10.0408 15.5767L10.0605 15.3736C10.0821 15.1506 10.0929 15.0391 10.0608 14.9357C10.0286 14.8323 9.95713 14.7487 9.81418 14.5815L9.68403 14.4293C9.18097 13.8411 8.92945 13.547 9.01723 13.2647C9.10501 12.9824 9.47396 12.8989 10.2119 12.732L10.4028 12.6888C10.6125 12.6413 10.7173 12.6176 10.8015 12.5537C10.8857 12.4898 10.9397 12.3929 11.0476 12.1992L11.1459 12.0229Z" stroke="#000000" stroke-width="1.5"/>
<circle cx="12" cy="14.0004" r="8" stroke="#000000" stroke-width="1.5"/>
</svg>
