<svg width="24" height="24" viewBox="0 0 24 24" fill="none" xmlns="http://www.w3.org/2000/svg">
<path d="M17 8.00037V6.00037C17 4.11475 17 3.17194 16.4142 2.58615C15.8284 2.00037 14.8856 2.00037 13 2.00037H11C9.11438 2.00037 8.17157 2.00037 7.58579 2.58615C7 3.17194 7 4.11475 7 6.00037V8.00037" stroke="#1C274C" stroke-width="1.5"/>
<path d="M10.5638 5.78347C11.4591 5.29532 12.541 5.29532 13.4362 5.78347L18.2305 8.39765C19.1944 8.92328 19.7943 9.93355 19.7943 11.0315V15.9692C19.7943 17.0672 19.1944 18.0774 18.2305 18.6031L13.4362 21.2172C12.541 21.7054 11.4591 21.7054 10.5638 21.2172L5.76962 18.6031C4.80563 18.0774 4.20581 17.0672 4.20581 15.9692V11.0315C4.20581 9.93355 4.80563 8.92329 5.76962 8.39765L10.5638 5.78347Z" stroke="#1C274C" stroke-width="1.5"/>
<path d="M11.1459 11.523C11.5259 10.8414 11.7159 10.5005 12 10.5005C12.2841 10.5005 12.4741 10.8414 12.8541 11.523L12.9524 11.6994C13.0603 11.8931 13.1143 11.99 13.1985 12.0539C13.2827 12.1178 13.3875 12.1415 13.5972 12.1889L13.7881 12.2321C14.526 12.3991 14.895 12.4826 14.9828 12.7648C15.0706 13.0471 14.819 13.3412 14.316 13.9295L14.1858 14.0817C14.0429 14.2488 13.9714 14.3324 13.9392 14.4358C13.9071 14.5392 13.9179 14.6508 13.9395 14.8738L13.9592 15.0768C14.0352 15.8617 14.0733 16.2541 13.8435 16.4286C13.6136 16.603 13.2682 16.444 12.5773 16.1259L12.3986 16.0436C12.2022 15.9532 12.1041 15.908 12 15.908C11.8959 15.908 11.7978 15.9532 11.6014 16.0436L11.4227 16.1259C10.7318 16.444 10.3864 16.603 10.1565 16.4286C9.92674 16.2541 9.96476 15.8617 10.0408 15.0768L10.0605 14.8738C10.0821 14.6508 10.0929 14.5392 10.0608 14.4358C10.0286 14.3324 9.95713 14.2488 9.81418 14.0817L9.68403 13.9295C9.18097 13.3412 8.92945 13.0471 9.01723 12.7648C9.10501 12.4826 9.47396 12.3991 10.2119 12.2321L10.4028 12.1889C10.6125 12.1415 10.7173 12.1178 10.8015 12.0539C10.8857 11.99 10.9397 11.8931 11.0476 11.6994L11.1459 11.523Z" stroke="#1C274C" stroke-width="1.5"/>
</svg>
