<svg width="24" height="24" viewBox="0 0 24 24" fill="none" xmlns="http://www.w3.org/2000/svg">
<path d="M14.5 4.50049C14.5 5.8812 13.3807 7.00049 12 7.00049C10.6193 7.00049 9.5 5.8812 9.5 4.50049C9.5 3.11978 10.6193 2.00049 12 2.00049C13.3807 2.00049 14.5 3.11978 14.5 4.50049Z" stroke="#000000" stroke-width="1.5"/>
<path d="M21 17.0004L19.8423 16.6105C19.6151 16.534 19.399 16.4272 19.1998 16.293L19.0985 16.2248C18.4122 15.7625 18 14.9841 18 14.1507C18 11.7135 16.2563 9.63361 13.8772 9.23295L12.9864 9.08294C12.5 9.00035 11.5 9.00049 11.0136 9.08294L10.1228 9.23295C7.74373 9.63361 6 11.7135 6 14.1507C6 14.9841 5.58776 15.7625 4.90145 16.2248L4.80022 16.293C4.60096 16.4272 4.38488 16.534 4.1577 16.6105L3 17.0004" stroke="#000000" stroke-width="1.5" stroke-linecap="round" stroke-linejoin="round"/>
<path d="M9.5 16.0005L8.57549 17.2332C8.42794 17.4299 8.35416 17.5283 8.27135 17.6149C8.06638 17.8291 7.81632 17.9952 7.53929 18.1009C7.42736 18.1436 7.30805 18.1735 7.06948 18.2331L5.27607 18.6815C4.52611 18.869 4 19.5428 4 20.3158C4 21.2462 4.75425 22.0005 5.68466 22.0005H6.36842C8.07661 22.0005 9.73871 21.4465 11.1053 20.4215L13 19.0005M14.5 16.0005L15.2267 16.9694C15.5701 17.4274 15.7419 17.6563 15.9648 17.8255C16.0318 17.8764 16.102 17.923 16.1749 17.965C16.4174 18.1048 16.695 18.1742 17.2503 18.3131L18.7239 18.6815C19.4739 18.869 20 19.5428 20 20.3158C20 21.2462 19.2458 22.0005 18.3153 22.0005H17.3776C16.8153 22.0005 16.5342 22.0005 16.2554 21.9849C15.4319 21.9389 14.6172 21.7912 13.83 21.5451C13.5635 21.4618 13.3003 21.3631 12.7738 21.1656L11 20.5005" stroke="#000000" stroke-width="1.5" stroke-linecap="round" stroke-linejoin="round"/>
</svg>
