<svg width="24" height="24" viewBox="0 0 24 24" fill="none" xmlns="http://www.w3.org/2000/svg">
<path d="M14.5 4.50049C14.5 5.8812 13.3807 7.00049 12 7.00049C10.6193 7.00049 9.5 5.8812 9.5 4.50049C9.5 3.11978 10.6193 2.00049 12 2.00049C13.3807 2.00049 14.5 3.11978 14.5 4.50049Z" stroke="#000000" stroke-width="1.5"/>
<path d="M3 17.0005L5.58887 15.6923C5.84084 15.565 6 15.3048 6 15.0201C6 12.0807 8.1377 9.56622 11.0067 9.08299C11.6598 8.97299 12.3402 8.97299 12.9933 9.08299C15.8623 9.56622 18 12.0807 18 15.0201C18 15.3048 18.1592 15.565 18.4111 15.6923L21 17.0005" stroke="#000000" stroke-width="1.5" stroke-linecap="round" stroke-linejoin="round"/>
<path d="M9.5 16.0005L8.45827 17.3895C8.42647 17.4319 8.41057 17.4531 8.39456 17.4733C8.13149 17.8058 7.76956 18.0461 7.36102 18.1595C7.33616 18.1664 7.31042 18.1729 7.25902 18.1857L5.77423 18.5569C4.7315 18.8176 4 19.7545 4 20.8293C4 21.4761 4.52435 22.0005 5.17116 22.0005H6.72727C7.32654 22.0005 7.62617 22.0005 7.917 21.9663C8.59721 21.8864 9.25375 21.6675 9.84589 21.3233C10.0991 21.1762 10.3388 20.9964 10.8182 20.6369L11 20.5005M11 20.5005L13 19.0005M11 20.5005L13.5397 21.4529C14.1491 21.6814 14.4539 21.7957 14.7688 21.8693C14.9318 21.9074 15.0966 21.9373 15.2625 21.9588C15.5832 22.0005 15.9087 22.0005 16.5596 22.0005H18.8288C19.4757 22.0005 20 21.4761 20 20.8293C20 19.7545 19.2685 18.8176 18.2258 18.5569L16.741 18.1857C16.6896 18.1729 16.6638 18.1664 16.639 18.1595C16.2304 18.0461 15.8685 17.8058 15.6054 17.4733C15.5895 17.4531 15.5735 17.4318 15.5417 17.3895L14.5 16.0005" stroke="#000000" stroke-width="1.5" stroke-linecap="round" stroke-linejoin="round"/>
</svg>
