<svg width="24" height="24" viewBox="0 0 24 24" fill="none" xmlns="http://www.w3.org/2000/svg">
<path d="M2 14.0002C2 10.229 2 8.34339 3.17157 7.17182C4.34315 6.00024 6.22876 6.00024 10 6.00024H14C17.7712 6.00024 19.6569 6.00024 20.8284 7.17182C22 8.34339 22 10.229 22 14.0002C22 17.7715 22 19.6571 20.8284 20.8287C19.6569 22.0002 17.7712 22.0002 14 22.0002H10C6.22876 22.0002 4.34315 22.0002 3.17157 20.8287C2 19.6571 2 17.7715 2 14.0002Z" stroke="#000000" stroke-width="1.5"/>
<path d="M16 6.00024C16 4.11463 16 3.17182 15.4142 2.58603C14.8284 2.00024 13.8856 2.00024 12 2.00024C10.1144 2.00024 9.17157 2.00024 8.58579 2.58603C8 3.17182 8 4.11463 8 6.00024" stroke="#000000" stroke-width="1.5"/>
<path d="M13.5 14.0002H10.5M12 12.5002V15.5002" stroke="#000000" stroke-width="1.5" stroke-linecap="round"/>
<circle cx="12" cy="14.0002" r="4" stroke="#000000" stroke-width="1.5"/>
</svg>
