<svg width="24" height="24" viewBox="0 0 24 24" fill="none" xmlns="http://www.w3.org/2000/svg">
<path d="M5 9.50012V19.0001C5 19.6492 4.78947 20.2808 4.4 20.8001L3.5 22.0001M19 9.50012V19.0001C19 19.6492 19.2105 20.2808 19.6 20.8001L20.5 22.0001" stroke="#1C274C" stroke-width="1.5" stroke-linecap="round"/>
<path d="M18 9.50012C18 13.6423 15.3137 17.0001 12 17.0001C8.68629 17.0001 6 13.6423 6 9.50012C6 5.35799 8.68629 2.00012 12 2.00012C15.3137 2.00012 18 5.35799 18 9.50012Z" stroke="#1C274C" stroke-width="1.5"/>
<path d="M5 20.0001H19" stroke="#1C274C" stroke-width="1.5"/>
<path d="M13 5.25623C13.9608 5.76564 14.697 6.98845 14.9257 8.50037" stroke="#1C274C" stroke-width="1.5" stroke-linecap="round"/>
</svg>
