<svg width="24" height="24" viewBox="0 0 24 24" fill="none" xmlns="http://www.w3.org/2000/svg">
<path d="M2 14.0005C2 10.2293 2 8.34363 3.17157 7.17206C4.34315 6.00049 6.22876 6.00049 10 6.00049H14C17.7712 6.00049 19.6569 6.00049 20.8284 7.17206C22 8.34363 22 10.2293 22 14.0005C22 17.7717 22 19.6573 20.8284 20.8289C19.6569 22.0005 17.7712 22.0005 14 22.0005H10C6.22876 22.0005 4.34315 22.0005 3.17157 20.8289C2 19.6573 2 17.7717 2 14.0005Z" stroke="#1C274C" stroke-width="1.5"/>
<path d="M16 6.00049C16 4.11487 16 3.17206 15.4142 2.58627C14.8284 2.00049 13.8856 2.00049 12 2.00049C10.1144 2.00049 9.17157 2.00049 8.58579 2.58627C8 3.17206 8 4.11487 8 6.00049" stroke="#1C274C" stroke-width="1.5"/>
<path d="M12 17.3338C13.1046 17.3338 14 16.5876 14 15.6672C14 14.7467 13.1046 14.0005 12 14.0005C10.8954 14.0005 10 13.2543 10 12.3338C10 11.4133 10.8954 10.6672 12 10.6672M12 17.3338C10.8954 17.3338 10 16.5876 10 15.6672M12 17.3338V18.0005M12 10.0005V10.6672M12 10.6672C13.1046 10.6672 14 11.4133 14 12.3338" stroke="#1C274C" stroke-width="1.5" stroke-linecap="round"/>
</svg>
