<svg width="24" height="24" viewBox="0 0 24 24" fill="none" xmlns="http://www.w3.org/2000/svg">
<path d="M11.3357 5.47968L7.36344 9.01061C5.79482 10.4049 5.0105 11.1021 5.0105 12.0002C5.0105 12.8984 5.79481 13.5955 7.36344 14.9899L11.3357 18.5208C12.0517 19.1573 12.4098 19.4755 12.7049 19.3429C13.0001 19.2104 13.0001 18.7314 13.0001 17.7734V15.4288C16.6001 15.4288 20.5001 17.1431 22.0001 20.0002C22.0001 10.8574 16.6668 8.57167 13.0001 8.57167V6.22709C13.0001 5.2691 13.0001 4.7901 12.7049 4.65755C12.4098 4.52499 12.0517 4.84322 11.3357 5.47968Z" stroke="#1C274C" stroke-width="1.5" stroke-linecap="round" stroke-linejoin="round"/>
<path d="M8.46129 4.50024L3.24509 9.34386C2.45098 10.0813 1.99976 11.116 1.99976 12.1997C1.99976 13.342 2.50097 14.4269 3.37087 15.1673L8.46129 19.5002" stroke="#1C274C" stroke-width="1.5" stroke-linecap="round"/>
</svg>
