<svg width="24" height="24" viewBox="0 0 24 24" fill="none" xmlns="http://www.w3.org/2000/svg">
<path d="M12.6644 5.47968L16.6367 9.01061C18.2053 10.4049 18.9896 11.1021 18.9896 12.0002C18.9896 12.8984 18.2053 13.5955 16.6367 14.9899L12.6644 18.5208C11.9484 19.1573 11.5903 19.4755 11.2952 19.3429C11 19.2104 11 18.7314 11 17.7734V15.4288C7.4 15.4288 3.5 17.1431 2 20.0002C2 10.8574 7.33333 8.57167 11 8.57167V6.22709C11 5.2691 11 4.7901 11.2952 4.65755C11.5903 4.52499 11.9484 4.84322 12.6644 5.47968Z" stroke="#000000" stroke-width="1.5" stroke-linecap="round" stroke-linejoin="round"/>
<path d="M15.5386 4.50024L20.7548 9.34386C21.5489 10.0813 22.0001 11.116 22.0001 12.1997C22.0001 13.342 21.4989 14.4269 20.629 15.1673L15.5386 19.5002" stroke="#000000" stroke-width="1.5" stroke-linecap="round"/>
</svg>
