<svg width="24" height="24" viewBox="0 0 24 24" fill="none" xmlns="http://www.w3.org/2000/svg">
<path d="M2.90565 13.793C2.48385 10.6294 2.27294 9.04765 3.16932 8.02383C4.0657 7 5.66147 7 8.85302 7H15.1468C18.3384 7 19.9341 7 20.8305 8.02383C21.7269 9.04765 21.516 10.6294 21.0942 13.793L20.6942 16.793C20.3634 19.2739 20.198 20.5143 19.3495 21.2572C18.5011 22 17.2497 22 14.7468 22H9.25302C6.75018 22 5.49877 22 4.6503 21.2572C3.80183 20.5143 3.63644 19.2739 3.30565 16.793L2.90565 13.793Z" stroke="#1C274C" stroke-width="1.5"/>
<path d="M19.562 7C19.7906 5.69523 18.7866 4.5 17.4619 4.5H6.53812C5.21347 4.5 4.20946 5.69523 4.43809 7" stroke="#1C274C" stroke-width="1.5"/>
<path d="M17.4999 4.5C17.5283 4.24092 17.5425 4.11135 17.5427 4.00435C17.545 2.98072 16.7739 2.12064 15.7561 2.01142C15.6497 2 15.5194 2 15.2588 2H8.74099C8.48035 2 8.35002 2 8.24362 2.01142C7.22584 2.12064 6.45481 2.98072 6.45704 4.00434C6.45727 4.11135 6.47146 4.2409 6.49983 4.5" stroke="#1C274C" stroke-width="1.5"/>
<path d="M12.5606 12.699L12.2076 13.3607L12.2076 13.3607L12.5606 12.699ZM13.4429 13.1696L13.7958 12.5078V12.5078L13.4429 13.1696ZM14.4394 11.301L14.7924 10.6393L14.7924 10.6393L14.4394 11.301ZM13.5571 10.8304L13.91 10.1687L13.91 10.1687L13.5571 10.8304ZM12.0018 11.6061L12.7505 11.6515V11.6515L12.0018 11.6061ZM13.4163 10.7574L13.1041 11.4394L13.1041 11.4394L13.4163 10.7574ZM14.9995 12.1682L15.7491 12.1444V12.1444L14.9995 12.1682ZM14.4984 11.3331L14.8722 10.6828L14.8722 10.6828L14.4984 11.3331ZM13.5837 13.2426L13.8959 12.5606L13.8959 12.5606L13.5837 13.2426ZM14.9982 12.3939L14.2495 12.3485V12.3485L14.9982 12.3939ZM12.5016 12.6669L12.1278 13.3172L12.1278 13.3172L12.5016 12.6669ZM12.0005 11.8318L11.2509 11.8556V11.8556L12.0005 11.8318ZM11.25 16.5C11.25 16.9142 10.9142 17.25 10.5 17.25V18.75C11.7426 18.75 12.75 17.7426 12.75 16.5H11.25ZM10.5 17.25C10.0858 17.25 9.75 16.9142 9.75 16.5H8.25C8.25 17.7426 9.25736 18.75 10.5 18.75V17.25ZM9.75 16.5C9.75 16.0858 10.0858 15.75 10.5 15.75V14.25C9.25736 14.25 8.25 15.2574 8.25 16.5H9.75ZM10.5 15.75C10.9142 15.75 11.25 16.0858 11.25 16.5H12.75C12.75 15.2574 11.7426 14.25 10.5 14.25V15.75ZM12.75 16.5V12H11.25V16.5H12.75ZM12.2076 13.3607L13.09 13.8313L13.7958 12.5078L12.9135 12.0372L12.2076 13.3607ZM14.7924 10.6393L13.91 10.1687L13.2042 11.4922L14.0865 11.9628L14.7924 10.6393ZM12.75 11.7647C12.75 11.7205 12.75 11.6924 12.7502 11.6715C12.7504 11.65 12.7507 11.6471 12.7505 11.6515L11.2532 11.5607C11.2496 11.6198 11.25 11.6926 11.25 11.7647H12.75ZM13.91 10.1687C13.8464 10.1348 13.7824 10.1002 13.7285 10.0755L13.1041 11.4394C13.1 11.4375 13.1027 11.4386 13.1218 11.4485C13.1404 11.4582 13.1652 11.4714 13.2042 11.4922L13.91 10.1687ZM12.7505 11.6515C12.7611 11.4762 12.9444 11.3663 13.1041 11.4394L13.7285 10.0755C12.6108 9.56378 11.3277 10.3336 11.2532 11.5607L12.7505 11.6515ZM15.75 12.2353C15.75 12.2062 15.7501 12.175 15.7491 12.1444L14.2499 12.1921C14.2498 12.1912 14.2499 12.1925 14.25 12.1994C14.25 12.2072 14.25 12.2174 14.25 12.2353H15.75ZM14.0865 11.9628C14.1023 11.9712 14.1113 11.976 14.1181 11.9797C14.1243 11.983 14.1253 11.9837 14.1246 11.9833L14.8722 10.6828C14.8456 10.6676 14.8181 10.653 14.7924 10.6393L14.0865 11.9628ZM15.7491 12.1444C15.7298 11.5381 15.398 10.9851 14.8722 10.6828L14.1246 11.9833C14.1997 12.0264 14.2471 12.1054 14.2499 12.1921L15.7491 12.1444ZM13.09 13.8313C13.1536 13.8653 13.2176 13.8998 13.2715 13.9245L13.8959 12.5606C13.9 12.5625 13.8973 12.5614 13.8782 12.5515C13.8596 12.5418 13.8348 12.5286 13.7958 12.5078L13.09 13.8313ZM14.25 12.2353C14.25 12.2795 14.25 12.3076 14.2498 12.3285C14.2496 12.35 14.2493 12.3529 14.2495 12.3485L15.7468 12.4393C15.7504 12.3802 15.75 12.3074 15.75 12.2353H14.25ZM13.2715 13.9245C14.3892 14.4362 15.6723 13.6664 15.7468 12.4393L14.2495 12.3485C14.2389 12.5238 14.0556 12.6337 13.8959 12.5606L13.2715 13.9245ZM12.9135 12.0372C12.8977 12.0288 12.8887 12.024 12.8819 12.0203C12.8757 12.017 12.8746 12.0163 12.8754 12.0167L12.1278 13.3172C12.1544 13.3324 12.1819 13.347 12.2076 13.3607L12.9135 12.0372ZM11.25 11.7647C11.25 11.7938 11.2499 11.825 11.2509 11.8556L12.7501 11.8079C12.7502 11.8088 12.7501 11.8076 12.75 11.8006C12.75 11.7928 12.75 11.7826 12.75 11.7647H11.25ZM12.8754 12.0167C12.8003 11.9736 12.7529 11.8946 12.7501 11.8079L11.2509 11.8556C11.2702 12.4619 11.602 13.0149 12.1278 13.3172L12.8754 12.0167Z" fill="#1C274C"/>
</svg>
