<svg width="24" height="24" viewBox="0 0 24 24" fill="none" xmlns="http://www.w3.org/2000/svg">
<path d="M12 19.5C12 20.8807 10.8807 22 9.5 22C8.11929 22 7 20.8807 7 19.5C7 18.1193 8.11929 17 9.5 17C10.8807 17 12 18.1193 12 19.5Z" stroke="#000000" stroke-width="1.5"/>
<path d="M22 17.5C22 18.8807 20.8807 20 19.5 20C18.1193 20 17 18.8807 17 17.5C17 16.1193 18.1193 15 19.5 15C20.8807 15 22 16.1193 22 17.5Z" stroke="#000000" stroke-width="1.5"/>
<path d="M22 8L12 12" stroke="#000000" stroke-width="1.5" stroke-linecap="round"/>
<path d="M14.4556 5.15754L14.7452 5.84939L14.4556 5.15754ZM16.4556 4.32045L16.1661 3.6286L16.4556 4.32045ZM21.1081 3.3401L20.6925 3.96447L20.6925 3.96447L21.1081 3.3401ZM12.75 18.9999V8.84738H11.25V18.9999H12.75ZM22.75 17.1537V8.01029H21.25V17.1537H22.75ZM14.7452 5.84939L16.7452 5.01229L16.1661 3.6286L14.1661 4.4657L14.7452 5.84939ZM22.75 8.01029C22.75 6.67617 22.752 5.59042 22.6304 4.76888C22.5067 3.9328 22.2308 3.18641 21.5236 2.71573L20.6925 3.96447C20.8772 4.08738 21.0473 4.31722 21.1466 4.9884C21.248 5.67413 21.25 6.62668 21.25 8.01029H22.75ZM16.7452 5.01229C18.0215 4.47809 18.901 4.11214 19.5727 3.94097C20.2302 3.77342 20.5079 3.84156 20.6925 3.96447L21.5236 2.71573C20.8164 2.24505 20.0213 2.27871 19.2023 2.48742C18.3975 2.69249 17.3967 3.11351 16.1661 3.6286L16.7452 5.01229ZM12.75 8.84738C12.75 8.18585 12.751 7.74942 12.7875 7.41367C12.822 7.09613 12.8823 6.93957 12.9594 6.82382L11.7106 5.99276C11.4527 6.3804 11.3455 6.79815 11.2963 7.2517C11.249 7.68703 11.25 8.21844 11.25 8.84738H12.75ZM14.1661 4.4657C13.5859 4.70852 13.0953 4.91275 12.712 5.12445C12.3126 5.345 11.9686 5.60513 11.7106 5.99276L12.9594 6.82382C13.0364 6.70806 13.1575 6.59193 13.4371 6.43752C13.7328 6.27425 14.135 6.1048 14.7452 5.84939L14.1661 4.4657Z" fill="#000000"/>
<path d="M7 11V6.5V2" stroke="#000000" stroke-width="1.5" stroke-linecap="round"/>
<circle cx="4.5" cy="10.5" r="2.5" stroke="#000000" stroke-width="1.5"/>
<path d="M10 5C8.75736 5 7 4.07107 7 2" stroke="#000000" stroke-width="1.5" stroke-linecap="round"/>
</svg>
