<svg width="24" height="24" viewBox="0 0 24 24" fill="none" xmlns="http://www.w3.org/2000/svg">
<path d="M12 18C12 20.2091 10.2091 22 8 22C5.79086 22 4 20.2091 4 18C4 15.7909 5.79086 14 8 14C10.2091 14 12 15.7909 12 18Z" stroke="#1C274C" stroke-width="1.5"/>
<path d="M12 18V8" stroke="#1C274C" stroke-width="1.5"/>
<path d="M16.1167 3.94175L13.4833 5.25847C13.1184 5.44092 12.9359 5.53216 12.7852 5.64737C12.3949 5.94583 12.128 6.37756 12.0357 6.86018C12 7.04649 12 7.25048 12 7.65847C12 8.62956 12 9.11511 12.1196 9.44518C12.4356 10.3176 13.3101 10.8581 14.2317 10.7506C14.5804 10.7099 15.0147 10.4928 15.8833 10.0585L18.5167 8.74175C18.8816 8.55929 19.0641 8.46806 19.2148 8.35285C19.6051 8.05439 19.872 7.62266 19.9643 7.14004C20 6.95373 20 6.74974 20 6.34175C20 5.37066 20 4.88511 19.8804 4.55503C19.5644 3.68263 18.6899 3.14214 17.7683 3.24965C17.4196 3.29032 16.9853 3.50746 16.1167 3.94175Z" stroke="#1C274C" stroke-width="1.5" stroke-linecap="round"/>
</svg>
