<svg width="24" height="24" viewBox="0 0 24 24" fill="none" xmlns="http://www.w3.org/2000/svg">
<path d="M2.90565 13.793C2.48385 10.6294 2.27294 9.04765 3.16932 8.02383C4.0657 7 5.66147 7 8.85302 7H15.1468C18.3384 7 19.9341 7 20.8305 8.02383C21.7269 9.04765 21.516 10.6294 21.0942 13.793L20.6942 16.793C20.3634 19.2739 20.198 20.5143 19.3495 21.2572C18.5011 22 17.2497 22 14.7468 22H9.25302C6.75018 22 5.49877 22 4.6503 21.2572C3.80183 20.5143 3.63644 19.2739 3.30565 16.793L2.90565 13.793Z" stroke="#1C274C" stroke-width="1.5"/>
<path d="M12 17C12 17.8284 11.3284 18.5 10.5 18.5C9.67157 18.5 9 17.8284 9 17C9 16.1716 9.67157 15.5 10.5 15.5C11.3284 15.5 12 16.1716 12 17ZM12 17V10.5C12 12.1569 13.8954 13.5 15 13.5" stroke="#1C274C" stroke-width="1.5" stroke-linecap="round" stroke-linejoin="round"/>
<path d="M19.562 7C19.7906 5.69523 18.7866 4.5 17.4619 4.5H6.53812C5.21347 4.5 4.20946 5.69523 4.43809 7" stroke="#1C274C" stroke-width="1.5"/>
<path d="M17.4999 4.5C17.5283 4.24092 17.5425 4.11135 17.5427 4.00435C17.545 2.98072 16.7739 2.12064 15.7561 2.01142C15.6497 2 15.5194 2 15.2588 2H8.74099C8.48035 2 8.35002 2 8.24362 2.01142C7.22584 2.12064 6.45481 2.98072 6.45704 4.00434C6.45727 4.11135 6.47146 4.2409 6.49983 4.5" stroke="#1C274C" stroke-width="1.5"/>
</svg>
