<svg width="24" height="24" viewBox="0 0 24 24" fill="none" xmlns="http://www.w3.org/2000/svg">
<path d="M20.3116 12.6478L20.8293 10.7159C21.4335 8.46083 21.7356 7.33329 21.5081 6.35751C21.3285 5.58706 20.9244 4.88717 20.347 4.34636C19.6157 3.66144 18.4881 3.35932 16.2331 2.75507C13.978 2.15082 12.8504 1.8487 11.8747 2.07622C11.1042 2.25586 10.4043 2.65994 9.86351 3.23736C9.27709 3.86347 8.97128 4.78006 8.51621 6.4461C8.43979 6.72589 8.35915 7.02682 8.27227 7.35105L8.27222 7.35126L7.75458 9.28311C7.15033 11.5382 6.84821 12.6657 7.07573 13.6415C7.25537 14.412 7.65945 15.1119 8.23687 15.6527C8.96815 16.3376 10.0957 16.6397 12.3508 17.244L12.3508 17.244C14.3834 17.7886 15.4999 18.0878 16.415 17.9749C16.5152 17.9625 16.6129 17.9453 16.7092 17.9228C17.4796 17.7432 18.1795 17.3391 18.7203 16.7617C19.4052 16.0304 19.7074 14.9028 20.3116 12.6478Z" stroke="#1C274C" stroke-width="1.5"/>
<path d="M16.415 17.9746C16.2065 18.6131 15.8399 19.1907 15.347 19.6524C14.6157 20.3373 13.4881 20.6394 11.2331 21.2437C8.97798 21.8479 7.85044 22.15 6.87466 21.9225C6.10421 21.7429 5.40432 21.3388 4.86351 20.7614C4.17859 20.0301 3.87647 18.9025 3.27222 16.6475L2.75458 14.7156C2.15033 12.4605 1.84821 11.333 2.07573 10.3572C2.25537 9.58675 2.65945 8.88687 3.23687 8.34606C3.96815 7.66114 5.09569 7.35901 7.35077 6.75477C7.77741 6.64045 8.16368 6.53695 8.51621 6.4458" stroke="#1C274C" stroke-width="1.5"/>
</svg>
