<svg width="24" height="24" viewBox="0 0 24 24" fill="none" xmlns="http://www.w3.org/2000/svg">
<path d="M20.082 3.01824L20.1081 3.76778L20.082 3.01824ZM16.5 3.48793L16.2849 2.76944V2.76944L16.5 3.48793ZM13.6738 4.80324L13.2982 4.15411L13.2982 4.15411L13.6738 4.80324ZM3.9824 3.07538L3.93639 3.82396L3.9824 3.07538ZM7 3.48793L7.19136 2.76276V2.76276L7 3.48793ZM10.2823 4.87595L9.93167 5.53896L10.2823 4.87595ZM13.6276 20.0697L13.9804 20.7316L13.6276 20.0697ZM17 18.6338L16.8086 17.9087H16.8086L17 18.6338ZM19.9851 18.2233L20.032 18.9718L19.9851 18.2233ZM10.3724 20.0697L10.0196 20.7316H10.0196L10.3724 20.0697ZM7 18.6338L7.19136 17.9087H7.19136L7 18.6338ZM4.01486 18.2233L3.96804 18.9718H3.96804L4.01486 18.2233ZM2.75 16.1441V4.99829H1.25V16.1441H2.75ZM22.75 16.1441V4.93368H21.25V16.1441H22.75ZM20.0559 2.26869C18.9175 2.30834 17.4296 2.42676 16.2849 2.76944L16.7151 4.20643C17.6643 3.92227 18.9892 3.80675 20.1081 3.76778L20.0559 2.26869ZM16.2849 2.76944C15.2899 3.06733 14.1706 3.64917 13.2982 4.15411L14.0495 5.45237C14.9 4.96017 15.8949 4.45198 16.7151 4.20643L16.2849 2.76944ZM3.93639 3.82396C4.90238 3.88333 5.99643 3.99878 6.80864 4.21311L7.19136 2.76276C6.23055 2.50922 5.01517 2.38744 4.02841 2.32679L3.93639 3.82396ZM6.80864 4.21311C7.77076 4.46699 8.95486 5.02245 9.93167 5.53896L10.6328 4.21293C9.63736 3.68655 8.32766 3.0626 7.19136 2.76276L6.80864 4.21311ZM13.9804 20.7316C14.9714 20.2033 16.1988 19.6209 17.1914 19.359L16.8086 17.9087C15.6383 18.2175 14.2827 18.8706 13.2748 19.4079L13.9804 20.7316ZM17.1914 19.359C17.9943 19.1471 19.0732 19.0318 20.032 18.9718L19.9383 17.4748C18.9582 17.5361 17.7591 17.6579 16.8086 17.9087L17.1914 19.359ZM10.7252 19.4079C9.71727 18.8706 8.3617 18.2175 7.19136 17.9087L6.80864 19.359C7.8012 19.6209 9.0286 20.2033 10.0196 20.7316L10.7252 19.4079ZM7.19136 17.9087C6.24092 17.6579 5.04176 17.5361 4.06168 17.4748L3.96804 18.9718C4.9268 19.0318 6.00566 19.1471 6.80864 19.359L7.19136 17.9087ZM21.25 16.1441C21.25 16.8298 20.6817 17.4283 19.9383 17.4748L20.032 18.9718C21.5062 18.8796 22.75 17.6803 22.75 16.1441H21.25ZM22.75 4.93368C22.75 3.47037 21.5847 2.21544 20.0559 2.26869L20.1081 3.76778C20.7229 3.74637 21.25 4.25209 21.25 4.93368H22.75ZM1.25 16.1441C1.25 17.6803 2.49378 18.8796 3.96804 18.9718L4.06168 17.4748C3.31831 17.4283 2.75 16.8298 2.75 16.1441H1.25ZM13.2748 19.4079C12.4825 19.8302 11.5175 19.8302 10.7252 19.4079L10.0196 20.7316C11.2529 21.389 12.7471 21.389 13.9804 20.7316L13.2748 19.4079ZM13.2982 4.15411C12.4801 4.62758 11.4617 4.65119 10.6328 4.21293L9.93167 5.53896C11.2239 6.22226 12.791 6.18074 14.0495 5.45237L13.2982 4.15411ZM2.75 4.99829C2.75 4.30111 3.30243 3.785 3.93639 3.82396L4.02841 2.32679C2.47017 2.23102 1.25 3.49913 1.25 4.99829H2.75Z" fill="#000000"/>
<path d="M12 5.85449V21.0004" stroke="#000000" stroke-width="1.5"/>
<path d="M5 9.00049L9 10.0005" stroke="#000000" stroke-width="1.5" stroke-linecap="round"/>
<path d="M19 9.00049L15 10.0005" stroke="#000000" stroke-width="1.5" stroke-linecap="round"/>
<path d="M5 13.0005L9 14.0005" stroke="#000000" stroke-width="1.5" stroke-linecap="round"/>
<path d="M19 13.0005L15 14.0005" stroke="#000000" stroke-width="1.5" stroke-linecap="round"/>
</svg>
