<svg width="24" height="24" viewBox="0 0 24 24" fill="none" xmlns="http://www.w3.org/2000/svg">
<path d="M22 14.0005C22 17.7717 22 19.6573 20.8284 20.8289C19.6569 22.0005 17.7712 22.0005 14 22.0005" stroke="#1C274C" stroke-width="1.5" stroke-linecap="round"/>
<path d="M10 22.0005C6.22876 22.0005 4.34315 22.0005 3.17157 20.8289C2 19.6573 2 17.7717 2 14.0005" stroke="#1C274C" stroke-width="1.5" stroke-linecap="round"/>
<path d="M10 2.00049C6.22876 2.00049 4.34315 2.00049 3.17157 3.17206C2 4.34363 2 6.22925 2 10.0005" stroke="#1C274C" stroke-width="1.5" stroke-linecap="round"/>
<path d="M14 2.00049C17.7712 2.00049 19.6569 2.00049 20.8284 3.17206C22 4.34363 22 6.22925 22 10.0005" stroke="#1C274C" stroke-width="1.5" stroke-linecap="round"/>
<path d="M4 11.5005C4 11.5005 6.4 9.50049 12 9.50049C17.6 9.50049 20 11.5005 20 11.5005" stroke="#1C274C" stroke-width="1.5" stroke-linecap="round"/>
<path d="M5.25 10.0005C5.25 10.4147 5.58579 10.7505 6 10.7505C6.41421 10.7505 6.75 10.4147 6.75 10.0005H5.25ZM17.4142 6.08627L16.8839 6.6166L16.8839 6.61661L17.4142 6.08627ZM10 6.25049H14V4.75049H10V6.25049ZM6.75 10.0005V9.50049H5.25V10.0005H6.75ZM17.25 9.50049V10.0005H18.75V9.50049H17.25ZM14 6.25049C14.964 6.25049 15.6116 6.25208 16.0946 6.31702C16.5561 6.37907 16.7536 6.48629 16.8839 6.6166L17.9445 5.55594C17.4891 5.10047 16.9223 4.9148 16.2945 4.8304C15.6883 4.7489 14.9216 4.75049 14 4.75049V6.25049ZM18.75 9.50049C18.75 8.57888 18.7516 7.81223 18.6701 7.20601C18.5857 6.57821 18.4 6.01141 17.9445 5.55594L16.8839 6.61661C17.0142 6.74692 17.1214 6.94442 17.1835 7.40588C17.2484 7.88892 17.25 8.53648 17.25 9.50049H18.75ZM10 4.75049C9.07839 4.75049 8.31174 4.7489 7.70552 4.8304C7.07773 4.9148 6.51093 5.10047 6.05546 5.55594L7.11612 6.6166C7.24643 6.48629 7.44393 6.37907 7.90539 6.31702C8.38843 6.25208 9.03599 6.25049 10 6.25049V4.75049ZM6.75 9.50049C6.75 8.53648 6.75159 7.88892 6.81654 7.40588C6.87858 6.94442 6.9858 6.74692 7.11612 6.6166L6.05546 5.55594C5.59999 6.01141 5.41432 6.57821 5.32991 7.20601C5.24841 7.81223 5.25 8.57888 5.25 9.50049H6.75Z" fill="#1C274C"/>
<path d="M6 14.0005V14.5005C6 16.3861 6 17.3289 6.58579 17.9147C7.17157 18.5005 8.11438 18.5005 10 18.5005H14C15.8856 18.5005 16.8284 18.5005 17.4142 17.9147C18 17.3289 18 16.3861 18 14.5005V14.0005" stroke="#1C274C" stroke-width="1.5" stroke-linecap="round"/>
</svg>
