<svg width="24" height="24" viewBox="0 0 24 24" fill="none" xmlns="http://www.w3.org/2000/svg">
<path d="M10.3341 4.77942C9.91482 3.15171 8.66759 1.97856 7.21305 2.00042C5.44093 2.02706 4.03217 3.81744 4.06648 5.99935L4.03433 9.34069C4.02705 10.0968 4.02341 10.4749 3.88968 10.8111C3.75595 11.1473 3.46036 11.4686 2.86916 12.1114C2.28972 12.7413 2 13.2091 2 13.7455C2 14.5631 2.67293 15.2211 4.0188 16.537L7.58758 20.0263C8.93345 21.3422 9.60638 22.0001 10.4426 22.0001C11.2788 22.0001 11.9518 21.3422 13.2976 20.0263L20.0783 13.3966C22.6406 10.8914 22.6406 6.82963 20.0783 4.32441C17.516 1.8192 13.3618 1.8192 10.7995 4.32442L10.3341 4.77942ZM10.3341 4.77942L9.37197 5.72014" stroke="#000000" stroke-width="1.5" stroke-linecap="round"/>
<path d="M13.2974 20.0264L4.01855 10.9542" stroke="#000000" stroke-width="1.5"/>
</svg>
