<svg width="24" height="24" viewBox="0 0 24 24" fill="none" xmlns="http://www.w3.org/2000/svg">
<path d="M22 5.85989C22 5.06533 21.2094 4.33399 19.883 3.75304C18.7083 3.23859 17.5 4.21987 17.5 5.50224V8.71971M22 5.85989V18.5764C22 20.4672 17.5228 22.0001 12 22.0001C6.47715 22.0001 2 20.4672 2 18.5764V5.85989M22 5.85989C22 7.05511 20.2111 8.10729 17.5 8.71971M2 5.85989C2 5.06533 2.79055 4.33399 4.11705 3.75304C5.29169 3.23859 6.5 4.21987 6.5 5.50224V8.71971M2 5.85989C2 7.05511 3.78889 8.10729 6.5 8.71971M6.5 8.71971C8.0779 9.07614 9.96818 9.2836 12 9.2836C14.0318 9.2836 15.9221 9.07614 17.5 8.71971" stroke="#1C274C" stroke-width="1.5"/>
<path d="M19.5 13C19.5 13.8284 18.8284 14.5 18 14.5C17.1716 14.5 16.5 13.8284 16.5 13C16.5 12.1716 17.1716 11.5 18 11.5C18.8284 11.5 19.5 12.1716 19.5 13Z" stroke="#1C274C" stroke-width="1.5"/>
<path d="M21 20L18.5044 17.8514C17.6996 17.1586 16.501 17.0896 15.6152 17.6851L15.3843 17.8403C14.7687 18.2542 13.9312 18.1848 13.3991 17.6758L10.0781 14.4989C9.41518 13.8648 8.35189 13.8309 7.64639 14.4214L6.29032 15.5565L2.5 19.1035" stroke="#1C274C" stroke-width="1.5" stroke-linecap="round"/>
</svg>
