<svg width="24" height="24" viewBox="0 0 24 24" fill="none" xmlns="http://www.w3.org/2000/svg">
<path d="M8.10692 17.4176L15.4868 10.3514C15.9348 9.92239 16.1589 9.70788 16.2759 9.47509C16.4856 9.05814 16.4856 8.57244 16.2759 8.15549C16.1589 7.9227 15.9348 7.70819 15.4868 7.27916C15.0387 6.85014 14.8147 6.63563 14.5715 6.52352C14.1361 6.32273 13.6288 6.32273 13.1934 6.52352C12.9502 6.63563 12.7262 6.85014 12.2781 7.27916L4.95178 14.2941C3.85303 15.3462 3.30366 15.8722 3.11183 16.4839C2.96272 16.9593 2.96272 17.4662 3.11183 17.9417C3.30366 18.5533 3.85303 19.0794 4.95178 20.1314C6.05053 21.1835 6.5999 21.7095 7.2387 21.8932C7.73526 22.0359 8.26468 22.0359 8.76124 21.8932C9.40004 21.7095 9.94941 21.1835 11.0482 20.1314L18.4815 13.014C19.5258 12.014 20.048 11.5141 20.3617 10.9939C21.2128 9.58241 21.2128 7.84336 20.3617 6.43185C20.048 5.91171 19.5258 5.41172 18.4815 4.41173C17.4371 3.41174 16.9149 2.91175 16.3717 2.61144C14.8975 1.79651 13.0813 1.79651 11.6071 2.61144C11.0639 2.91175 10.5417 3.41174 9.49733 4.41173L3.5079 10.1466" stroke="#1C274C" stroke-width="1.5" stroke-linecap="round"/>
</svg>
