<svg width="24" height="24" viewBox="0 0 24 24" fill="none" xmlns="http://www.w3.org/2000/svg">
<path d="M12.6885 11.3954L9.85786 14.2516C9.50256 14.6101 9.32491 14.7893 9.1954 14.9596C8.30108 16.1356 8.30108 17.771 9.1954 18.947C9.32491 19.1173 9.50256 19.2966 9.85786 19.6551C10.2132 20.0135 10.3908 20.1928 10.5596 20.3235C11.7251 21.2258 13.346 21.2258 14.5115 20.3235C14.6802 20.1928 14.8579 20.0135 15.2132 19.655L18.8854 15.9498C20.3094 14.513 21.0214 13.7946 21.4104 13.0243C22.1965 11.4675 22.1965 9.62507 21.4104 8.06827C21.0214 7.29798 20.3094 6.57959 18.8854 5.14281C17.4615 3.70604 16.7495 2.98765 15.9861 2.59517C14.4431 1.80194 12.6171 1.80194 11.0741 2.59517C10.3107 2.98765 9.59873 3.70604 8.17476 5.14281L4.44515 8.90596C3.64545 9.71285 3.2456 10.1163 2.97158 10.513C1.67614 12.3884 1.67614 14.8796 2.97158 16.755C3.2456 17.1517 3.64545 17.5552 4.44515 18.3621" stroke="#1C274C" stroke-width="1.5" stroke-linecap="round"/>
</svg>
