<svg width="24" height="24" viewBox="0 0 24 24" fill="none" xmlns="http://www.w3.org/2000/svg">
<path d="M12 4.00049H10C6.22876 4.00049 4.34315 4.00049 3.17157 5.17206C2 6.34363 2 8.22925 2 12.0005C2 15.7717 2 17.6573 3.17157 18.8289C4.34315 20.0005 6.22876 20.0005 10 20.0005H12M15 4.00142C18.1143 4.01053 19.7653 4.10897 20.8284 5.17206C22 6.34363 22 8.22925 22 12.0005C22 15.7717 22 17.6573 20.8284 18.8289C19.7653 19.892 18.1143 19.9904 15 19.9996" stroke="#1C274C" stroke-width="1.5" stroke-linecap="round"/>
<path d="M9 12.0005C9 12.5528 8.55228 13.0005 8 13.0005C7.44772 13.0005 7 12.5528 7 12.0005C7 11.4482 7.44772 11.0005 8 11.0005C8.55228 11.0005 9 11.4482 9 12.0005Z" fill="#1C274C"/>
<path d="M13 12.0005C13 12.5528 12.5523 13.0005 12 13.0005C11.4477 13.0005 11 12.5528 11 12.0005C11 11.4482 11.4477 11.0005 12 11.0005C12.5523 11.0005 13 11.4482 13 12.0005Z" fill="#1C274C"/>
<path d="M15 2.00049V22.0005" stroke="#1C274C" stroke-width="1.5" stroke-linecap="round"/>
</svg>
