<svg width="24" height="24" viewBox="0 0 24 24" fill="none" xmlns="http://www.w3.org/2000/svg">
<path d="M2 12.0005C2 8.22925 2 6.34363 3.17157 5.17206C4.34315 4.00049 6.22876 4.00049 10 4.00049H14C17.7712 4.00049 19.6569 4.00049 20.8284 5.17206C22 6.34363 22 8.22925 22 12.0005C22 15.7717 22 17.6573 20.8284 18.8289C19.6569 20.0005 17.7712 20.0005 14 20.0005H10C6.22876 20.0005 4.34315 20.0005 3.17157 18.8289C2 17.6573 2 15.7717 2 12.0005Z" stroke="#1C274C" stroke-width="1.5"/>
<path d="M12 10.0005V14.0005M10.2676 11.0005L13.7317 13.0005M13.7315 11.0005L10.2673 13.0005" stroke="#1C274C" stroke-width="1.5" stroke-linecap="round"/>
<path d="M6.73242 10.0005V14.0005M5 11.0005L8.4641 13.0005M8.46387 11.0005L4.99976 13.0005" stroke="#1C274C" stroke-width="1.5" stroke-linecap="round"/>
<path d="M17.2681 10.0005V14.0005M15.5357 11.0005L18.9998 13.0005M18.9996 11.0005L15.5355 13.0005" stroke="#1C274C" stroke-width="1.5" stroke-linecap="round"/>
</svg>
