<svg width="24" height="24" viewBox="0 0 24 24" fill="none" xmlns="http://www.w3.org/2000/svg">
<path d="M22 10.5002V12.0002C22 16.7143 22 19.0713 20.5355 20.5358C19.0711 22.0002 16.714 22.0002 12 22.0002C7.28595 22.0002 4.92893 22.0002 3.46447 20.5358C2 19.0713 2 16.7143 2 12.0002C2 7.2862 2 4.92918 3.46447 3.46471C4.92893 2.00024 7.28595 2.00024 12 2.00024H13.5" stroke="#000000" stroke-width="1.5" stroke-linecap="round"/>
<path d="M16.652 3.4553L17.3009 2.80649C18.3759 1.7315 20.1188 1.7315 21.1938 2.80649C22.2687 3.88148 22.2687 5.62439 21.1938 6.69938L20.5449 7.3482M16.652 3.4553C16.652 3.4553 16.7331 4.83404 17.9497 6.05057C19.1662 7.2671 20.5449 7.3482 20.5449 7.3482M16.652 3.4553L10.6872 9.42017C10.2832 9.82419 10.0812 10.0262 9.90743 10.2489C9.70249 10.5117 9.52679 10.796 9.38344 11.0968C9.26191 11.3518 9.17157 11.6228 8.99089 12.1648L8.41242 13.9002M20.5449 7.3482L14.5801 13.3131C14.1761 13.7171 13.9741 13.9191 13.7513 14.0928C13.4886 14.2977 13.2043 14.4734 12.9035 14.6168C12.6485 14.7383 12.3775 14.8287 11.8354 15.0093L10.1 15.5878M10.1 15.5878L8.97709 15.9621C8.71035 16.051 8.41626 15.9816 8.21744 15.7828C8.01862 15.584 7.9492 15.2899 8.03811 15.0232L8.41242 13.9002M10.1 15.5878L8.41242 13.9002" stroke="#000000" stroke-width="1.5"/>
</svg>
