<svg width="24" height="24" viewBox="0 0 24 24" fill="none" xmlns="http://www.w3.org/2000/svg">
<path d="M4 22.0002H20" stroke="#000000" stroke-width="1.5" stroke-linecap="round"/>
<path d="M13.8881 3.66317L14.6296 2.92167C15.8581 1.6931 17.85 1.6931 19.0786 2.92167C20.3071 4.15023 20.3071 6.14213 19.0786 7.37069L18.3371 8.11219M13.8881 3.66317C13.8881 3.66317 13.9807 5.23887 15.3711 6.62918C16.7614 8.0195 18.3371 8.11219 18.3371 8.11219M13.8881 3.66317L7.07106 10.4802C6.60933 10.9419 6.37846 11.1728 6.17992 11.4273C5.94571 11.7276 5.74491 12.0525 5.58107 12.3963C5.44219 12.6877 5.33894 12.9974 5.13245 13.6169L4.25745 16.2419M18.3371 8.11219L11.5201 14.9292C11.0584 15.3909 10.8275 15.6218 10.5729 15.8203C10.2727 16.0545 9.94775 16.2553 9.60398 16.4192C9.31256 16.5581 9.00282 16.6613 8.38334 16.8678L5.75834 17.7428M5.75834 17.7428L5.11667 17.9567C4.81182 18.0583 4.47573 17.979 4.2485 17.7517C4.02128 17.5245 3.94194 17.1884 4.04356 16.8836L4.25745 16.2419M5.75834 17.7428L4.25745 16.2419" stroke="#000000" stroke-width="1.5"/>
</svg>
