<svg width="24" height="24" viewBox="0 0 24 24" fill="none" xmlns="http://www.w3.org/2000/svg">
<path d="M14.3601 4.0789L15.2869 3.15202C16.8226 1.61632 19.3125 1.61632 20.8482 3.15202C22.3839 4.68773 22.3839 7.1776 20.8482 8.7133L19.9213 9.64018M14.3601 4.0789C14.3601 4.0789 14.4759 6.04852 16.2138 7.78642C17.9517 9.52432 19.9213 9.64018 19.9213 9.64018M14.3601 4.0789L5.83882 12.6001C5.26166 13.1773 4.97308 13.4659 4.7249 13.7841C4.43213 14.1594 4.18114 14.5656 3.97634 14.9953C3.80273 15.3595 3.67368 15.7467 3.41556 16.5211L2.32181 19.8023M19.9213 9.64018L11.4001 18.1614C10.8229 18.7386 10.5344 19.0272 10.2162 19.2753C9.84082 19.5681 9.43469 19.8191 9.00498 20.0239C8.6407 20.1975 8.25352 20.3266 7.47918 20.5847L4.19792 21.6784M4.19792 21.6784L3.39584 21.9458C3.01478 22.0728 2.59466 21.9736 2.31063 21.6896C2.0266 21.4056 1.92743 20.9855 2.05445 20.6044L2.32181 19.8023M4.19792 21.6784L2.32181 19.8023" stroke="#1C274C" stroke-width="1.5"/>
</svg>
