<svg width="24" height="24" viewBox="0 0 24 24" fill="none" xmlns="http://www.w3.org/2000/svg">
<path d="M14 4.00024C14 5.10481 13.1046 6.00024 12 6.00024C10.8954 6.00024 10 5.10481 10 4.00024C10 2.89567 10.8954 2.00024 12 2.00024C13.1046 2.00024 14 2.89567 14 4.00024Z" stroke="#1C274C" stroke-width="1.5"/>
<path d="M6.04779 10.8495L6.28497 10.138H6.28497L6.04779 10.8495ZM8.22309 11.5746L7.98592 12.2861H7.98592L8.22309 11.5746ZM9.01682 13.2565L8.31681 12.9873H8.31681L9.01682 13.2565ZM7.77003 16.4981L8.47004 16.7674H8.47004L7.77003 16.4981ZM17.9522 10.8495L17.715 10.138H17.715L17.9522 10.8495ZM15.7769 11.5746L16.0141 12.2861H16.0141L15.7769 11.5746ZM14.9832 13.2565L15.6832 12.9873L14.9832 13.2565ZM16.23 16.4981L15.53 16.7674L16.23 16.4981ZM10.4242 17.7579L11.0754 18.13L10.4242 17.7579ZM12 15.0002L12.6512 14.6281C12.5177 14.3944 12.2691 14.2502 12 14.2502C11.7309 14.2502 11.4823 14.3944 11.3488 14.6281L12 15.0002ZM17.1465 7.89739L16.9894 7.16404L17.1465 7.89739ZM15.249 8.30401L15.4061 9.03737V9.03737L15.249 8.30401ZM8.75102 8.30402L8.90817 7.57066V7.57066L8.75102 8.30402ZM6.85345 7.89739L6.69631 8.63075L6.85345 7.89739ZM13.5758 17.7579L12.9246 18.13V18.13L13.5758 17.7579ZM15.0384 8.34875L14.8865 7.6143L14.8865 7.6143L15.0384 8.34875ZM8.96161 8.34875L8.80969 9.0832L8.80969 9.0832L8.96161 8.34875ZM15.2837 11.767L15.6777 12.4052L15.2837 11.767ZM14.8182 12.7535L15.5613 12.6519V12.6518L14.8182 12.7535ZM8.71625 11.767L8.3223 12.4052H8.3223L8.71625 11.767ZM9.18177 12.7535L9.92485 12.8551V12.8551L9.18177 12.7535ZM5.81062 11.561L7.98592 12.2861L8.46026 10.8631L6.28497 10.138L5.81062 11.561ZM8.31681 12.9873L7.07002 16.2289L8.47004 16.7674L9.71683 13.5257L8.31681 12.9873ZM17.715 10.138L15.5397 10.8631L16.0141 12.2861L18.1894 11.561L17.715 10.138ZM14.2832 13.5257L15.53 16.7674L16.93 16.2289L15.6832 12.9873L14.2832 13.5257ZM11.0754 18.13L12.6512 15.3723L11.3488 14.6281L9.77299 17.3858L11.0754 18.13ZM16.9894 7.16404L15.0918 7.57066L15.4061 9.03737L17.3037 8.63075L16.9894 7.16404ZM8.90817 7.57066L7.0106 7.16404L6.69631 8.63075L8.59387 9.03737L8.90817 7.57066ZM11.3488 15.3723L12.9246 18.13L14.227 17.3858L12.6512 14.6281L11.3488 15.3723ZM15.0918 7.57066C14.9853 7.59349 14.9356 7.60414 14.8865 7.6143L15.1903 9.0832C15.2458 9.07172 15.3016 9.05977 15.4061 9.03737L15.0918 7.57066ZM8.59387 9.03737C8.6984 9.05977 8.75416 9.07172 8.80969 9.0832L9.11353 7.6143C9.06443 7.60414 9.01468 7.59349 8.90817 7.57066L8.59387 9.03737ZM14.8865 7.6143C12.9823 8.00817 11.0177 8.00817 9.11353 7.6143L8.80969 9.0832C10.9143 9.51854 13.0857 9.51854 15.1903 9.0832L14.8865 7.6143ZM9.14506 19.2502C9.94287 19.2502 10.6795 18.8227 11.0754 18.13L9.77299 17.3858C9.64422 17.6112 9.40459 17.7502 9.14506 17.7502V19.2502ZM15.53 16.7674C15.7122 17.2411 15.3625 17.7502 14.8549 17.7502V19.2502C16.4152 19.2502 17.4901 17.6851 16.93 16.2289L15.53 16.7674ZM15.5397 10.8631C15.3178 10.9371 15.0816 11.0105 14.8898 11.1288L15.6777 12.4052C15.6688 12.4107 15.6763 12.4042 15.7342 12.3823C15.795 12.3593 15.877 12.3318 16.0141 12.2861L15.5397 10.8631ZM15.6832 12.9873C15.6313 12.8524 15.6004 12.7716 15.5795 12.71C15.5596 12.6514 15.5599 12.6415 15.5613 12.6519L14.0751 12.8551C14.1057 13.0784 14.1992 13.3074 14.2832 13.5257L15.6832 12.9873ZM14.8898 11.1288C14.3007 11.4925 13.9814 12.1692 14.0751 12.8551L15.5613 12.6518C15.5479 12.5539 15.5935 12.4572 15.6777 12.4052L14.8898 11.1288ZM18.25 9.39575C18.25 9.73251 18.0345 10.0315 17.715 10.138L18.1894 11.561C19.1214 11.2503 19.75 10.3782 19.75 9.39575H18.25ZM7.07002 16.2289C6.50994 17.6851 7.58484 19.2502 9.14506 19.2502V17.7502C8.63751 17.7502 8.28784 17.2411 8.47004 16.7674L7.07002 16.2289ZM7.98592 12.2861C8.12301 12.3318 8.20501 12.3593 8.26583 12.3823C8.32371 12.4042 8.33115 12.4107 8.3223 12.4052L9.1102 11.1288C8.91842 11.0105 8.68219 10.9371 8.46026 10.8631L7.98592 12.2861ZM9.71683 13.5257C9.80081 13.3074 9.89432 13.0784 9.92485 12.8551L8.43868 12.6518C8.44009 12.6415 8.4404 12.6514 8.42051 12.71C8.3996 12.7716 8.36869 12.8524 8.31681 12.9873L9.71683 13.5257ZM8.3223 12.4052C8.40646 12.4572 8.45208 12.5539 8.43868 12.6519L9.92485 12.8551C10.0186 12.1692 9.69929 11.4925 9.1102 11.1288L8.3223 12.4052ZM4.25 9.39575C4.25 10.3782 4.87863 11.2503 5.81062 11.561L6.28497 10.138C5.96549 10.0315 5.75 9.73251 5.75 9.39575H4.25ZM5.75 9.39575C5.75 8.89766 6.20927 8.52638 6.69631 8.63075L7.0106 7.16404C5.58979 6.85958 4.25 7.94269 4.25 9.39575H5.75ZM12.9246 18.13C13.3205 18.8227 14.0571 19.2502 14.8549 19.2502V17.7502C14.5954 17.7502 14.3558 17.6112 14.227 17.3858L12.9246 18.13ZM19.75 9.39575C19.75 7.94269 18.4102 6.85958 16.9894 7.16404L17.3037 8.63075C17.7907 8.52638 18.25 8.89766 18.25 9.39575H19.75Z" fill="#1C274C"/>
<path d="M19.4537 14.5002C21.0372 15.2964 22 16.3477 22 17.5002C22 19.9855 17.5228 22.0002 12 22.0002C6.47715 22.0002 2 19.9855 2 17.5002C2 16.3477 2.96285 15.2964 4.54631 14.5002" stroke="#1C274C" stroke-width="1.5" stroke-linecap="round"/>
</svg>
