<svg width="24" height="24" viewBox="0 0 24 24" fill="none" xmlns="http://www.w3.org/2000/svg">
<path d="M14 2.00012C14 2.00012 16.2 2.20012 19 5.00012C21.8 7.80012 22 10.0001 22 10.0001" stroke="#1C274C" stroke-width="1.5" stroke-linecap="round"/>
<path d="M14.207 5.53577C14.207 5.53577 15.197 5.81861 16.6819 7.30353C18.1668 8.78846 18.4497 9.77841 18.4497 9.77841" stroke="#1C274C" stroke-width="1.5" stroke-linecap="round"/>
<path d="M10.0376 5.31629L10.6866 6.47922C11.2723 7.52871 11.0372 8.90545 10.1147 9.82793C10.1147 9.82793 8.99578 10.9469 11.0245 12.9756C13.0532 15.0043 14.1722 13.8854 14.1722 13.8854C15.0947 12.9629 16.4714 12.7278 17.5209 13.3135L18.6838 13.9625C20.2686 14.8469 20.4557 17.0694 19.0628 18.4623C18.2258 19.2993 17.2004 19.9506 16.0669 19.9936C14.1588 20.0659 10.9183 19.583 7.6677 16.3324C4.41713 13.0818 3.93421 9.84135 4.00655 7.93321C4.04952 6.79972 4.7008 5.77436 5.53781 4.93735C6.93076 3.5444 9.15317 3.73156 10.0376 5.31629Z" stroke="#1C274C" stroke-width="1.5" stroke-linecap="round"/>
</svg>
