<svg width="24" height="24" viewBox="0 0 24 24" fill="none" xmlns="http://www.w3.org/2000/svg">
<path d="M11.0376 4.31629L11.6866 5.47922C12.2723 6.52871 12.0372 7.90545 11.1147 8.82793C11.1147 8.82793 9.99578 9.94687 12.0245 11.9756C14.0532 14.0043 15.1722 12.8854 15.1722 12.8854C16.0947 11.9629 17.4714 11.7278 18.5209 12.3135L19.6838 12.9625C21.2686 13.8469 21.4557 16.0694 20.0628 17.4623C19.2258 18.2993 18.2004 18.9506 17.0669 18.9936C15.1588 19.0659 11.9183 18.583 8.6677 15.3324C5.41713 12.0818 4.93421 8.84135 5.00655 6.93321C5.04952 5.79972 5.7008 4.77436 6.53781 3.93735C7.93076 2.5444 10.1532 2.73156 11.0376 4.31629Z" stroke="#000000" stroke-width="1.5" stroke-linecap="round"/>
</svg>
