<svg width="24" height="24" viewBox="0 0 24 24" fill="none" xmlns="http://www.w3.org/2000/svg">
<path d="M17.8445 6.15571C17.8445 6.15571 17.4119 8.40024 14.9057 10.9064C12.3996 13.4125 10.1555 13.8448 10.1555 13.8448M20.4075 16.4078C18.2843 18.5311 14.8418 18.5311 12.7185 16.4078L7.59246 11.2818C5.46918 9.15848 5.46918 5.71597 7.59246 3.5927C9.71573 1.46943 13.1582 1.46943 15.2815 3.5927L20.4075 8.71874C22.5308 10.842 22.5308 14.2845 20.4075 16.4078Z" stroke="#1C274C" stroke-width="1.5"/>
<path d="M14.5 6.50024L13 5.00024" stroke="#1C274C" stroke-width="1.5" stroke-linecap="round"/>
<path d="M6.73022 10.1349C4.02637 10.7175 2 13.1222 2 16.0003C2 19.314 4.68629 22.0003 8 22.0003C10.8911 22.0003 13.3046 19.9555 13.8732 17.2332" stroke="#1C274C" stroke-width="1.5"/>
</svg>
