<svg width="24" height="24" viewBox="0 0 24 24" fill="none" xmlns="http://www.w3.org/2000/svg">
<path d="M11.5355 10.5358C12.4404 9.63096 13 8.38096 13 7.00024C13 4.23882 10.7614 2.00024 8 2.00024C6.61929 2.00024 5.36929 2.55989 4.46447 3.46471M11.5355 10.5358C10.6307 11.4406 9.38071 12.0002 8 12.0002C5.23858 12.0002 3 9.76167 3 7.00024C3 5.61953 3.55964 4.36953 4.46447 3.46471M11.5355 10.5358L4.46447 3.46471" stroke="#000000" stroke-width="1.5" stroke-linecap="round"/>
<path d="M22 17.0002C22 15.7206 21.5118 14.441 20.5355 13.4647C18.5829 11.5121 15.4171 11.5121 13.4645 13.4647C12.4882 14.441 12 15.7206 12 17.0002M22 17.0002C22 18.2799 21.5118 19.5595 20.5355 20.5358C18.5829 22.4884 15.4171 22.4884 13.4645 20.5358C12.4882 19.5595 12 18.2799 12 17.0002M22 17.0002H12" stroke="#000000" stroke-width="1.5" stroke-linecap="round"/>
</svg>
