<svg width="24" height="24" viewBox="0 0 24 24" fill="none" xmlns="http://www.w3.org/2000/svg">
<path d="M11 9.50024C11 8.34859 10.5607 7.19694 9.68198 6.31826C7.92462 4.5609 5.07538 4.5609 3.31802 6.31826C2.43934 7.19694 2 8.34859 2 9.50024M11 9.50024C11 10.6519 10.5607 11.8035 9.68198 12.6822C7.92462 14.4396 5.07538 14.4396 3.31802 12.6822C2.43934 11.8035 2 10.6519 2 9.50024M11 9.50024H2" stroke="#000000" stroke-width="1.5" stroke-linecap="round"/>
<path d="M14.7575 7.12181C15.9291 8.29338 17.8285 8.29338 19.0001 7.12181C19.5859 6.53602 19.8788 5.76826 19.8788 5.00049C19.8788 4.23272 19.5859 3.46495 19.0001 2.87917C17.8285 1.7076 15.9291 1.7076 14.7575 2.87917C14.1717 3.46495 13.8788 4.23272 13.8788 5.00049C13.8788 5.76826 14.1717 6.53602 14.7575 7.12181Z" stroke="#000000" stroke-width="1.5" stroke-linecap="round"/>
<path d="M20.9052 17.3813C22.3649 15.9215 22.3649 13.5548 20.9052 12.0951C19.4454 10.6353 17.0787 10.6353 15.619 12.0951L12.0948 15.6192C10.6351 17.079 10.6351 19.4457 12.0948 20.9054C13.5546 22.3652 15.9213 22.3652 17.381 20.9054L20.9052 17.3813Z" stroke="#000000" stroke-width="1.5"/>
<path d="M14 14.0002C14 14.0002 14.2813 15.4598 15.911 17.0895C17.5407 18.7192 19 19.0002 19 19.0002" stroke="#000000" stroke-width="1.5"/>
</svg>
