<svg width="24" height="24" viewBox="0 0 24 24" fill="none" xmlns="http://www.w3.org/2000/svg">
<path d="M14.2452 7.82412L14.7755 7.29379V7.29379L14.2452 7.82412ZM16.1758 9.75476L15.6454 10.2851L16.1758 9.75476ZM10.6081 15.474L10.0777 16.0043L10.6081 15.474ZM8.52599 13.3919L9.05633 12.8616H9.05633L8.52599 13.3919ZM15.5124 12.9727L15.7897 13.6695L15.5124 12.9727ZM14.1176 13.5278L13.8402 12.831H13.8402L14.1176 13.5278ZM10.4721 9.88235L9.7753 9.60501L10.4721 9.88235ZM11.0273 8.48752L11.7241 8.76486H11.7241L11.0273 8.48752ZM9.12166 11.1014L8.91688 10.3799H8.91688L9.12166 11.1014ZM9.64707 10.9272L9.31572 10.2544L9.31572 10.2544L9.64707 10.9272ZM10.2453 10.3872L9.60974 9.98897L10.2453 10.3872ZM13.6127 13.7547L14.011 14.3902L14.011 14.3902L13.6127 13.7547ZM12.8985 14.8783L13.62 15.0831L12.8985 14.8783ZM13.0727 14.3529L13.7456 14.6842L13.7456 14.6842L13.0727 14.3529ZM7.83764 12.5876L7.13952 12.8616L7.13952 12.8616L7.83764 12.5876ZM8.12867 11.4685L8.60483 12.0479L8.60483 12.0479L8.12867 11.4685ZM11.4124 16.1624L11.1383 16.8605H11.1383L11.4124 16.1624ZM12.5315 15.8713L13.1109 16.3475L12.5315 15.8713ZM17.5 11.7051L16.7654 11.5537L16.7654 11.5537L17.5 11.7051ZM12.2948 6.49988L12.1434 5.76533H12.1434L12.2948 6.49988ZM6.98446 15.9548C6.69156 16.2477 6.69157 16.7225 6.98446 17.0154C7.27736 17.3083 7.75223 17.3083 8.04512 17.0154L6.98446 15.9548ZM10.0973 14.9632C10.3902 14.6703 10.3902 14.1955 10.0973 13.9026C9.80438 13.6097 9.32951 13.6097 9.03662 13.9026L10.0973 14.9632ZM13.7148 8.35444L15.6454 10.2851L16.7061 9.22443L14.7755 7.29379L13.7148 8.35444ZM11.1384 14.9437L9.05633 12.8616L7.99566 13.9222L10.0777 16.0043L11.1384 14.9437ZM15.235 12.2759L13.8402 12.831L14.3949 14.2247L15.7897 13.6695L15.235 12.2759ZM11.169 10.1597L11.7241 8.76486L10.3304 8.21019L9.7753 9.60501L11.169 10.1597ZM9.32644 11.8229C9.56981 11.7538 9.78288 11.6963 9.97842 11.6L9.31572 10.2544C9.27102 10.2764 9.2139 10.2956 8.91688 10.3799L9.32644 11.8229ZM9.7753 9.60501C9.66113 9.89188 9.6362 9.94675 9.60974 9.98897L10.8808 10.7855C10.9965 10.6008 11.0754 10.3947 11.169 10.1597L9.7753 9.60501ZM9.97842 11.6C10.349 11.4176 10.6614 11.1355 10.8808 10.7855L9.60974 9.98897C9.53827 10.103 9.43646 10.1949 9.31572 10.2544L9.97842 11.6ZM13.8402 12.831C13.6052 12.9245 13.3991 13.0035 13.2144 13.1192L14.011 14.3902C14.0532 14.3638 14.108 14.3388 14.3949 14.2247L13.8402 12.831ZM13.62 15.0831C13.7043 14.7861 13.7235 14.7289 13.7456 14.6842L12.3999 14.0216C12.3036 14.2171 12.2461 14.4302 12.177 14.6735L13.62 15.0831ZM13.2144 13.1192C12.8644 13.3386 12.5824 13.651 12.3999 14.0216L13.7456 14.6842C13.805 14.5635 13.8969 14.4617 14.011 14.3902L13.2144 13.1192ZM9.05633 12.8616C8.84506 12.6503 8.71106 12.5158 8.61821 12.4109C8.52305 12.3034 8.52421 12.2841 8.53577 12.3135L7.13952 12.8616C7.22603 13.082 7.36691 13.2604 7.49495 13.405C7.6253 13.5523 7.798 13.7246 7.99566 13.9222L9.05633 12.8616ZM8.91688 10.3799C8.64797 10.4562 8.41324 10.5225 8.22765 10.5876C8.04535 10.6516 7.83543 10.7387 7.65252 10.889L8.60483 12.0479C8.58039 12.068 8.5888 12.0506 8.72429 12.003C8.85649 11.9566 9.03901 11.9045 9.32644 11.8229L8.91688 10.3799ZM8.53577 12.3135C8.49881 12.2194 8.5267 12.1121 8.60483 12.0479L7.65252 10.889C7.07213 11.3659 6.865 12.1624 7.13952 12.8616L8.53577 12.3135ZM10.0777 16.0043C10.2754 16.202 10.4476 16.3747 10.5949 16.505C10.7396 16.6331 10.9179 16.774 11.1383 16.8605L11.6865 15.4642C11.7159 15.4758 11.6966 15.477 11.589 15.3818C11.4841 15.2889 11.3497 15.1549 11.1384 14.9437L10.0777 16.0043ZM12.177 14.6735C12.0955 14.961 12.0433 15.1435 11.9969 15.2757C11.9494 15.4112 11.9319 15.4196 11.952 15.3952L13.1109 16.3475C13.2612 16.1646 13.3484 15.9546 13.4123 15.7723C13.4774 15.5867 13.5437 15.352 13.62 15.0831L12.177 14.6735ZM11.1383 16.8605C11.8375 17.135 12.634 16.9279 13.1109 16.3475L11.952 15.3952C11.8878 15.4733 11.7806 15.5012 11.6865 15.4642L11.1383 16.8605ZM15.6454 10.2851C16.1401 10.7797 16.4493 11.0918 16.6335 11.34C16.8093 11.5769 16.7551 11.604 16.7654 11.5537L18.2346 11.8565C18.3519 11.2871 18.1127 10.8162 17.8381 10.4462C17.572 10.0876 17.1657 9.68398 16.7061 9.22443L15.6454 10.2851ZM15.7897 13.6695C16.3935 13.4292 16.9264 13.2193 17.3126 12.9951C17.7112 12.7639 18.1172 12.426 18.2346 11.8565L16.7654 11.5537C16.7758 11.5034 16.8149 11.5497 16.5598 11.6977C16.2924 11.8529 15.885 12.0172 15.235 12.2759L15.7897 13.6695ZM14.7755 7.29379C14.3159 6.83424 13.9124 6.42788 13.5538 6.16177C13.1838 5.88718 12.7128 5.64793 12.1434 5.76533L12.4463 7.23443C12.3959 7.24481 12.4231 7.19059 12.6599 7.36633C12.9082 7.55056 13.2202 7.85982 13.7148 8.35444L14.7755 7.29379ZM11.7241 8.76486C11.9828 8.11494 12.1471 7.70747 12.3022 7.44008C12.4502 7.18499 12.4966 7.22405 12.4463 7.23443L12.1434 5.76533C11.574 5.88272 11.236 6.28873 11.0048 6.68727C10.7807 7.07351 10.5707 7.60636 10.3304 8.21019L11.7241 8.76486ZM8.04512 17.0154L10.0973 14.9632L9.03662 13.9026L6.98446 15.9548L8.04512 17.0154Z" fill="#1C274C"/>
<circle cx="12" cy="12" r="10" stroke="#1C274C" stroke-width="1.5"/>
</svg>
