<svg width="24" height="24" viewBox="0 0 24 24" fill="none" xmlns="http://www.w3.org/2000/svg">
<path d="M18.3408 8.40579L15.5942 5.65917C13.7012 3.76619 12.7547 2.8197 11.721 3.02845C10.6873 3.23719 10.1823 4.4768 9.17226 6.95602L8.22498 9.28115C7.9464 9.96495 7.80711 10.3068 7.56701 10.5678C7.48527 10.6567 7.39552 10.7378 7.2989 10.8102C7.01509 11.0228 6.66091 11.1269 5.95255 11.3353C4.2781 11.8278 3.44088 12.074 3.15416 12.65C3.06084 12.8374 3.00852 13.0426 3.00068 13.2519C2.97659 13.8948 3.59367 14.5119 4.82783 15.7461L8.25394 19.1722C9.4881 20.4063 10.1052 21.0234 10.7481 20.9993C10.9574 20.9915 11.1626 20.9392 11.35 20.8458C11.926 20.5591 12.1722 19.7219 12.6647 18.0475C12.8731 17.3391 12.9772 16.9849 13.1898 16.7011C13.2622 16.6045 13.3433 16.5147 13.4322 16.433C13.6932 16.1929 14.0351 16.0536 14.7188 15.775L17.044 14.8277C19.5232 13.8177 20.7628 13.3127 20.9716 12.279C21.1803 11.2453 20.2338 10.2988 18.3408 8.40579Z" stroke="#1C274C" stroke-width="1.5"/>
<path d="M3.00008 20.9336L6.55908 17.3721" stroke="#1C274C" stroke-width="1.5" stroke-linecap="round"/>
</svg>
