<svg width="24" height="24" viewBox="0 0 24 24" fill="none" xmlns="http://www.w3.org/2000/svg">
<path d="M17.4975 18.4853L20.6281 9.09397C21.8764 5.34898 22.5006 3.47649 21.5122 2.48806C20.5237 1.49964 18.6511 2.1238 14.906 3.37213L5.57477 6.48243C3.49295 7.17634 2.45203 7.5233 2.13608 8.28661C2.06182 8.46602 2.01692 8.6562 2.00311 8.84987C1.94433 9.6739 2.72018 10.4497 4.27188 12.0014L4.55451 12.284C4.80921 12.5387 4.93655 12.666 5.03282 12.8078C5.22269 13.0873 5.33046 13.4145 5.34393 13.7522C5.35076 13.9234 5.32403 14.1015 5.27057 14.4577C5.07488 15.7615 4.97703 16.4133 5.0923 16.915C5.32205 17.9148 6.09599 18.6997 7.09257 18.9435C7.59255 19.0658 8.24576 18.9772 9.5522 18.7999L9.62363 18.7902C9.99191 18.7402 10.1761 18.7152 10.3529 18.7259C10.6738 18.7453 10.9838 18.8498 11.251 19.0288C11.3981 19.1273 11.5295 19.2587 11.7923 19.5215L12.0436 19.7728C13.5539 21.283 14.309 22.0381 15.1101 21.9988C15.3309 21.9879 15.5479 21.9367 15.7503 21.8477C16.4844 21.5246 16.8221 20.5115 17.4975 18.4853Z" stroke="#000000" stroke-width="1.5"/>
<path d="M6 18.0002L21 3.00024" stroke="#000000" stroke-width="1.5" stroke-linecap="round"/>
</svg>
