<svg width="24" height="24" viewBox="0 0 24 24" fill="none" xmlns="http://www.w3.org/2000/svg">
<path d="M18.6357 15.6704L20.3521 10.521C21.8516 6.02266 22.6013 3.77347 21.414 2.5862C20.2268 1.39893 17.9776 2.14866 13.4792 3.64812L8.32987 5.36457C4.69923 6.57478 2.88392 7.17988 2.36806 8.06723C1.87731 8.91137 1.87731 9.95393 2.36806 10.7981C2.88392 11.6854 4.69923 12.2905 8.32987 13.5007C8.91282 13.6951 9.2043 13.7922 9.44793 13.9553C9.68404 14.1134 9.88687 14.3162 10.0449 14.5523C10.208 14.7959 10.3052 15.0874 10.4995 15.6704C11.7097 19.301 12.3148 21.1163 13.2022 21.6322C14.0463 22.1229 15.0889 22.1229 15.933 21.6322C16.8204 21.1163 17.4255 19.301 18.6357 15.6704Z" stroke="#1C274C" stroke-width="1.5"/>
<path d="M17.7894 6.21092L13.5789 10.375" stroke="#1C274C" stroke-width="1.5" stroke-linecap="round"/>
</svg>
