<svg width="24" height="24" viewBox="0 0 24 24" fill="none" xmlns="http://www.w3.org/2000/svg">
<path d="M16 16.4288C16 17.849 14.8807 19.0002 13.5 19.0002C12.1193 19.0002 11 17.849 11 16.4288C11 15.0087 12.1193 13.8574 13.5 13.8574C14.8807 13.8574 16 15.0087 16 16.4288ZM16 16.4288V10.0002" stroke="#1C274C" stroke-width="1.5"/>
<path d="M18.675 7.11622L16.9205 7.95839C16.5788 8.12241 16.408 8.20441 16.2845 8.33082C16.1855 8.43226 16.1091 8.55361 16.0605 8.68681C16 8.8528 16 9.04231 16 9.42133C16 10.2978 16 10.736 16.1911 10.9989C16.3421 11.2067 16.5673 11.3485 16.8201 11.3947C17.1397 11.4532 17.5348 11.2635 18.325 10.8843L20.0795 10.0421C20.4212 9.87809 20.592 9.79608 20.7155 9.66967C20.8145 9.56823 20.8909 9.44688 20.9395 9.31368C21 9.14769 21 8.95818 21 8.57916C21 7.70271 21 7.26449 20.8089 7.00159C20.6579 6.79376 20.4327 6.65203 20.1799 6.6058C19.8603 6.54732 19.4652 6.73696 18.675 7.11622Z" stroke="#1C274C" stroke-width="1.5" stroke-linecap="round"/>
<path d="M15 5.00024L3 5.00024" stroke="#1C274C" stroke-width="1.5" stroke-linecap="round"/>
<path d="M13 9.00024L3 9.00024" stroke="#1C274C" stroke-width="1.5" stroke-linecap="round"/>
<path d="M9 13.0002H3" stroke="#1C274C" stroke-width="1.5" stroke-linecap="round"/>
<path d="M8 17.0002H3" stroke="#1C274C" stroke-width="1.5" stroke-linecap="round"/>
</svg>
