<svg width="24" height="24" viewBox="0 0 24 24" fill="none" xmlns="http://www.w3.org/2000/svg">
<path d="M21 6.00024L3 6.00024" stroke="#000000" stroke-width="1.5" stroke-linecap="round"/>
<path d="M21 10.0002L3 10.0002" stroke="#000000" stroke-width="1.5" stroke-linecap="round"/>
<path d="M11 14.0002L3 14.0002" stroke="#000000" stroke-width="1.5" stroke-linecap="round"/>
<path d="M11 18.0002H3" stroke="#000000" stroke-width="1.5" stroke-linecap="round"/>
<path d="M18.875 14.1187C20.5288 15.0735 21.3558 15.5509 21.4772 16.2398C21.5076 16.4121 21.5076 16.5884 21.4772 16.7607C21.3558 17.4496 20.5288 17.927 18.875 18.8818C17.2212 19.8367 16.3942 20.3141 15.737 20.0749C15.5725 20.015 15.4199 19.9269 15.2858 19.8144C14.75 19.3648 14.75 18.4099 14.75 16.5003C14.75 14.5906 14.75 13.6357 15.2858 13.1861C15.4199 13.0736 15.5725 12.9855 15.737 12.9256C16.3942 12.6864 17.2212 13.1638 18.875 14.1187Z" stroke="#000000" stroke-width="1.5"/>
</svg>
