<svg width="24" height="24" viewBox="0 0 24 24" fill="none" xmlns="http://www.w3.org/2000/svg">
<path d="M20 6.00024L3 6.00024" stroke="#1C274C" stroke-width="1.5" stroke-linecap="round"/>
<path d="M10 16.0002H3" stroke="#1C274C" stroke-width="1.5" stroke-linecap="round"/>
<path d="M10 11.0002H3" stroke="#1C274C" stroke-width="1.5" stroke-linecap="round"/>
<path d="M19.125 10.6856C20.767 11.6336 21.588 12.1076 21.8478 12.7349C22.0507 13.2249 22.0507 13.7755 21.8478 14.2656C21.588 14.8928 20.767 15.3668 19.125 16.3148C17.483 17.2628 16.662 17.7368 15.9889 17.6482C15.4631 17.5789 14.9862 17.3036 14.6633 16.8828C14.25 16.3442 14.25 15.3962 14.25 13.5002C14.25 11.6042 14.25 10.6563 14.6633 10.1176C14.9862 9.69682 15.4631 9.42151 15.9889 9.35228C16.662 9.26366 17.483 9.73766 19.125 10.6856Z" stroke="#1C274C" stroke-width="1.5"/>
</svg>
