<svg width="24" height="24" viewBox="0 0 24 24" fill="none" xmlns="http://www.w3.org/2000/svg">
<path d="M20 4.00024L3 4.00024" stroke="#1C274C" stroke-width="1.5" stroke-linecap="round"/>
<path d="M8 14.0002H3" stroke="#1C274C" stroke-width="1.5" stroke-linecap="round"/>
<path d="M12 9.00024L3 9.00024" stroke="#1C274C" stroke-width="1.5" stroke-linecap="round"/>
<path d="M16 17.4288C16 18.849 14.8807 20.0002 13.5 20.0002C12.1193 20.0002 11 18.849 11 17.4288C11 16.0087 12.1193 14.8574 13.5 14.8574C14.8807 14.8574 16 16.0087 16 17.4288ZM16 17.4288V11.0002" stroke="#1C274C" stroke-width="1.5"/>
<path d="M18.675 8.11622L16.9205 8.95839C16.5788 9.12241 16.408 9.20441 16.2845 9.33082C16.1855 9.43226 16.1091 9.55361 16.0605 9.68681C16 9.8528 16 10.0423 16 10.4213C16 11.2978 16 11.736 16.1911 11.9989C16.3421 12.2067 16.5673 12.3485 16.8201 12.3947C17.1397 12.4532 17.5348 12.2635 18.325 11.8843L20.0795 11.0421C20.4212 10.8781 20.592 10.7961 20.7155 10.6697C20.8145 10.5682 20.8909 10.4469 20.9395 10.3137C21 10.1477 21 9.95818 21 9.57916C21 8.70271 21 8.26449 20.8089 8.00159C20.6579 7.79376 20.4327 7.65203 20.1799 7.6058C19.8603 7.54732 19.4652 7.73696 18.675 8.11622Z" stroke="#1C274C" stroke-width="1.5" stroke-linecap="round"/>
</svg>
