<svg width="24" height="24" viewBox="0 0 24 24" fill="none" xmlns="http://www.w3.org/2000/svg">
<path d="M3.46447 20.536C4.92893 22.0005 7.28595 22.0005 12 22.0005C16.714 22.0005 19.0711 22.0005 20.5355 20.536C22 19.0716 22 16.7145 22 12.0005C22 7.28644 22 4.92942 20.5355 3.46495M3.46447 20.536C2 19.0716 2 16.7145 2 12.0005C2 7.28644 2 4.92942 3.46447 3.46495C4.92893 2.00049 7.28595 2.00049 12 2.00049C16.714 2.00049 19.0711 2.00049 20.5355 3.46495M3.46447 20.536L20.5355 3.46495" stroke="#000000" stroke-width="1.5"/>
<path d="M18 17.0005H13" stroke="#000000" stroke-width="1.5" stroke-linecap="round"/>
<path d="M10.5 8.00051H8M8 8.00051L5.5 8.00051M8 8.00051L8 5.50049M8 8.00051L8 10.5005" stroke="#000000" stroke-width="1.5" stroke-linecap="round"/>
</svg>
