<svg width="24" height="24" viewBox="0 0 24 24" fill="none" xmlns="http://www.w3.org/2000/svg">
<path d="M18 8.00024L18.9487 8.31647C19.9387 8.64648 20.4337 8.81149 20.7169 9.20432C21 9.59715 21 10.1189 21 11.1625V16.8292C21 18.1201 21 18.7656 20.6603 19.1802C20.5449 19.321 20.4048 19.4397 20.247 19.5303C19.7821 19.7973 19.1455 19.6912 17.8721 19.4789C16.6157 19.2695 15.9875 19.1648 15.3648 19.2169C15.1463 19.2352 14.9292 19.2679 14.715 19.3146C14.1046 19.448 13.5299 19.7353 12.3806 20.3099C10.8809 21.0598 10.131 21.4347 9.33284 21.5503C9.09242 21.5851 8.8498 21.6024 8.60688 21.6019C7.80035 21.6004 7.01186 21.3375 5.43488 20.8119L5.05132 20.684C4.06129 20.354 3.56627 20.189 3.28314 19.7962C3 19.4033 3 18.8815 3 17.838V12.9082C3 11.2494 3 10.4199 3.48841 9.97382C3.57388 9.89576 3.66809 9.82786 3.76917 9.77147C4.34681 9.44918 5.13369 9.71148 6.70746 10.2361" stroke="#000000" stroke-width="1.5"/>
<path d="M6 7.70055C6 4.55236 8.68629 2.00024 12 2.00024C15.3137 2.00024 18 4.55236 18 7.70055C18 10.8241 16.085 14.4689 13.0972 15.7724C12.4007 16.0762 11.5993 16.0762 10.9028 15.7724C7.91499 14.4689 6 10.8241 6 7.70055Z" stroke="#000000" stroke-width="1.5"/>
<circle cx="12" cy="8.00024" r="2" stroke="#000000" stroke-width="1.5"/>
</svg>
