<svg width="24" height="24" viewBox="0 0 24 24" fill="none" xmlns="http://www.w3.org/2000/svg">
<path d="M21.1213 21.1216C22 20.2429 22 18.8287 22 16.0002C22 13.1718 22 11.7576 21.1213 10.8789M21.1213 21.1216C20.2426 22.0002 18.8284 22.0002 16 22.0002H8C5.17157 22.0002 3.75736 22.0002 2.87868 21.1216M21.1213 21.1216C21.1213 21.1216 21.1213 21.1216 21.1213 21.1216ZM21.1213 10.8789C20.2426 10.0002 18.8284 10.0002 16 10.0002L8 10.0002C5.17157 10.0002 3.75736 10.0002 2.87868 10.8789M21.1213 10.8789C21.1213 10.8789 21.1213 10.8789 21.1213 10.8789ZM2.87868 10.8789C2 11.7576 2 13.1718 2 16.0002C2 18.8287 2 20.2429 2.87868 21.1216M2.87868 10.8789C2.87868 10.8789 2.87868 10.8789 2.87868 10.8789ZM2.87868 21.1216C2.87868 21.1216 2.87868 21.1216 2.87868 21.1216Z" stroke="#000000" stroke-width="1.5"/>
<path d="M21 21.0002L3 11.0002" stroke="#000000" stroke-width="1.5" stroke-linecap="round"/>
<path d="M3.5 21.0002L12 16.0002" stroke="#000000" stroke-width="1.5" stroke-linecap="round"/>
<circle cx="17" cy="5.00024" r="3" stroke="#000000" stroke-width="1.5"/>
<path d="M17 13.0002L17 8.00024" stroke="#000000" stroke-width="1.5" stroke-linecap="round"/>
</svg>
