<svg width="24" height="24" viewBox="0 0 24 24" fill="none" xmlns="http://www.w3.org/2000/svg">
<path d="M2 15.0002H5C5.63383 15.0002 5.95074 15.0002 6.23374 15.1215C6.51673 15.2428 6.73529 15.4723 7.17241 15.9313L8.31402 17.13C8.69807 17.5332 8.8901 17.7348 9.12399 17.7191C9.35788 17.7035 9.52124 17.478 9.84796 17.027L13.4781 12.0163C13.8177 11.5476 13.9875 11.3132 14.2282 11.3022C14.4688 11.2911 14.6594 11.5089 15.0405 11.9445L16.8179 13.9758C17.2591 14.48 17.4797 14.7321 17.7751 14.8662C18.0705 15.0002 18.4056 15.0002 19.0756 15.0002H22" stroke="#1C274C" stroke-width="1.5" stroke-linecap="round"/>
<path d="M2 12.0002C2 7.2862 2 4.92918 3.46447 3.46471C4.92893 2.00024 7.28595 2.00024 12 2.00024C16.714 2.00024 19.0711 2.00024 20.5355 3.46471C22 4.92918 22 7.2862 22 12.0002C22 16.7143 22 19.0713 20.5355 20.5358C19.0711 22.0002 16.714 22.0002 12 22.0002C7.28595 22.0002 4.92893 22.0002 3.46447 20.5358C2 19.0713 2 16.7143 2 12.0002Z" stroke="#1C274C" stroke-width="1.5"/>
</svg>
