<svg width="24" height="24" viewBox="0 0 24 24" fill="none" xmlns="http://www.w3.org/2000/svg">
<path d="M5 15.0003H6.39445C7.1804 15.0003 7.57337 15.0003 7.90501 15.1778C8.23665 15.3553 8.45463 15.6822 8.8906 16.3362L9.05039 16.5759C9.47306 17.2099 9.68439 17.5269 9.97087 17.5098C10.2573 17.4928 10.4297 17.153 10.7743 16.4735L12.7404 12.5968C13.0987 11.8902 13.2779 11.5368 13.5711 11.5251C13.8642 11.5133 14.0711 11.8511 14.485 12.5268L15.1222 13.5672C15.5512 14.2675 15.7656 14.6176 16.1072 14.8089C16.4487 15.0003 16.8593 15.0003 17.6805 15.0003H19" stroke="#1C274C" stroke-width="1.5" stroke-linecap="round"/>
<path d="M2 12.0002C2 7.2862 2 4.92918 3.46447 3.46471C4.92893 2.00024 7.28595 2.00024 12 2.00024C16.714 2.00024 19.0711 2.00024 20.5355 3.46471C22 4.92918 22 7.2862 22 12.0002C22 16.7143 22 19.0713 20.5355 20.5358C19.0711 22.0002 16.714 22.0002 12 22.0002C7.28595 22.0002 4.92893 22.0002 3.46447 20.5358C2 19.0713 2 16.7143 2 12.0002Z" stroke="#1C274C" stroke-width="1.5"/>
</svg>
