<svg width="24" height="24" viewBox="0 0 24 24" fill="none" xmlns="http://www.w3.org/2000/svg">
<path d="M9.99756 6.00017C9.98309 7.70673 9.88834 8.64752 9.26793 9.26793C8.64752 9.88834 7.70673 9.98309 6.00017 9.99756" stroke="#1C274C" stroke-width="1.5" stroke-linecap="round"/>
<path d="M9.99756 17.9974C9.98309 16.2908 9.88834 15.35 9.26793 14.7296C8.64752 14.1092 7.70673 14.0145 6.00017 14" stroke="#1C274C" stroke-width="1.5" stroke-linecap="round"/>
<path d="M14 6.00017C14.0145 7.70673 14.1092 8.64752 14.7296 9.26793C15.35 9.88834 16.2908 9.98309 17.9974 9.99756" stroke="#1C274C" stroke-width="1.5" stroke-linecap="round"/>
<path d="M14 17.9974C14.0145 16.2908 14.1092 15.35 14.7296 14.7296C15.35 14.1092 16.2908 14.0145 17.9974 14" stroke="#1C274C" stroke-width="1.5" stroke-linecap="round"/>
<circle cx="12" cy="12" r="10" stroke="#1C274C" stroke-width="1.5"/>
</svg>
