<svg width="24" height="24" viewBox="0 0 24 24" fill="none" xmlns="http://www.w3.org/2000/svg">
<path d="M21.6593 14.5884L20.9348 14.3943L21.6593 14.5884ZM9.41182 21.6595L9.21771 22.3839L9.41182 21.6595ZM2.34075 9.41203L1.61631 9.21792L2.34075 9.41203ZM14.5882 2.34097L14.3941 3.06541L14.5882 2.34097ZM11.5282 12.5832C11.8501 12.8438 12.3224 12.794 12.583 12.4721C12.8436 12.1501 12.7938 11.6778 12.4719 11.4172L11.5282 12.5832ZM5.00194 6.33613L5.47379 5.75315H5.47379L5.00194 6.33613ZM3.63596 6.51417L3.00875 6.10293L3.63596 6.51417ZM6.71834 2.63718C6.35758 2.84071 6.23012 3.29816 6.43365 3.65892C6.63719 4.01968 7.09463 4.14714 7.45539 3.94361L6.71834 2.63718ZM9.86584 5.59477C9.47285 5.72566 9.26036 6.15034 9.39125 6.54333C9.52213 6.93632 9.94681 7.14881 10.3398 7.01792L9.86584 5.59477ZM20.9348 14.3943C19.6126 19.3289 14.5405 22.2572 9.60593 20.935L9.21771 22.3839C14.9525 23.9205 20.8471 20.5173 22.3837 14.7825L20.9348 14.3943ZM9.60593 20.935C4.67137 19.6128 1.74298 14.5407 3.0652 9.60615L1.61631 9.21792C0.0796827 14.9527 3.48294 20.8473 9.21771 22.3839L9.60593 20.935ZM14.3941 3.06541C19.3286 4.38762 22.257 9.45974 20.9348 14.3943L22.3837 14.7825C23.9203 9.04777 20.5171 3.15315 14.7823 1.61652L14.3941 3.06541ZM12.4719 11.4172L5.47379 5.75315L4.53009 6.9191L11.5282 12.5832L12.4719 11.4172ZM3.0652 9.60615C3.32763 8.62672 3.73716 7.72764 4.26316 6.92541L3.00875 6.10293C2.39633 7.03697 1.92057 8.0824 1.61631 9.21792L3.0652 9.60615ZM7.45539 3.94361C9.49128 2.79502 11.9587 2.41285 14.3941 3.06541L14.7823 1.61652C11.9525 0.858283 9.08235 1.30347 6.71834 2.63718L7.45539 3.94361ZM5.47379 5.75315C4.74054 5.15967 3.58276 5.22748 3.00875 6.10293L4.26316 6.92541C4.28534 6.89158 4.31611 6.87185 4.36153 6.86636C4.41141 6.86033 4.47425 6.87391 4.53009 6.9191L5.47379 5.75315ZM17.25 12.0002C17.25 14.8997 14.8995 17.2502 12 17.2502V18.7502C15.7279 18.7502 18.75 15.7281 18.75 12.0002H17.25ZM12 17.2502C9.10051 17.2502 6.75001 14.8997 6.75001 12.0002H5.25001C5.25001 15.7281 8.27209 18.7502 12 18.7502V17.2502ZM12 6.75022C14.8995 6.75022 17.25 9.10073 17.25 12.0002H18.75C18.75 8.2723 15.7279 5.25022 12 5.25022V6.75022ZM6.75001 12.0002C6.75001 10.7315 7.19909 9.56967 7.94773 8.66207L6.79058 7.7076C5.8285 8.87397 5.25001 10.3705 5.25001 12.0002H6.75001ZM10.3398 7.01792C10.8606 6.84446 11.4186 6.75022 12 6.75022V5.25022C11.2554 5.25022 10.5376 5.37106 9.86584 5.59477L10.3398 7.01792Z" fill="#1C274C"/>
</svg>
