<svg width="24" height="24" viewBox="0 0 24 24" fill="none" xmlns="http://www.w3.org/2000/svg">
<path d="M16 22.0005V13.0005C16 11.5863 16 10.8792 15.5607 10.4398C15.1213 10.0005 14.4142 10.0005 13 10.0005H11C9.58579 10.0005 8.87868 10.0005 8.43934 10.4398C8 10.8792 8 11.5863 8 13.0005V22.0005" stroke="#1C274C" stroke-width="1.5" stroke-linecap="round"/>
<path d="M8 22.0005C8 20.5863 8 19.8792 7.56066 19.4398C7.12132 19.0005 6.41421 19.0005 5 19.0005C3.58579 19.0005 2.87868 19.0005 2.43934 19.4398C2 19.8792 2 20.5863 2 22.0005" stroke="#1C274C" stroke-width="1.5" stroke-linecap="round"/>
<path d="M22 22.0005V19.0005C22 17.5863 22 16.8792 21.5607 16.4398C21.1213 16.0005 20.4142 16.0005 19 16.0005C17.5858 16.0005 16.8787 16.0005 16.4393 16.4398C16 16.8792 16 17.5863 16 19.0005V22.0005" stroke="#1C274C" stroke-width="1.5" stroke-linecap="round"/>
<path d="M11.1459 3.023C11.5259 2.34133 11.7159 2.00049 12 2.00049C12.2841 2.00049 12.4741 2.34133 12.8541 3.023L12.9524 3.19936C13.0603 3.39307 13.1143 3.48992 13.1985 3.55383C13.2827 3.61774 13.3875 3.64146 13.5972 3.6889L13.7881 3.7321C14.526 3.89905 14.895 3.98253 14.9828 4.26481C15.0706 4.54708 14.819 4.84121 14.316 5.42947L14.1858 5.58165C14.0429 5.74882 13.9714 5.8324 13.9392 5.9358C13.9071 6.03921 13.9179 6.15072 13.9395 6.37375L13.9592 6.57681C14.0352 7.36167 14.0733 7.7541 13.8435 7.92855C13.6136 8.10301 13.2682 7.94395 12.5773 7.62584L12.3986 7.54354C12.2022 7.45314 12.1041 7.40794 12 7.40794C11.8959 7.40794 11.7978 7.45314 11.6014 7.54354L11.4227 7.62584C10.7318 7.94395 10.3864 8.10301 10.1565 7.92855C9.92674 7.7541 9.96476 7.36167 10.0408 6.57681L10.0605 6.37375C10.0821 6.15072 10.0929 6.03921 10.0608 5.9358C10.0286 5.8324 9.95713 5.74882 9.81418 5.58166L9.68403 5.42947C9.18097 4.84121 8.92945 4.54708 9.01723 4.26481C9.10501 3.98253 9.47396 3.89905 10.2119 3.7321L10.4028 3.6889C10.6125 3.64146 10.7173 3.61774 10.8015 3.55383C10.8857 3.48992 10.9397 3.39307 11.0476 3.19936L11.1459 3.023Z" stroke="#1C274C" stroke-width="1.5"/>
</svg>
