<svg width="24" height="24" viewBox="0 0 24 24" fill="none" xmlns="http://www.w3.org/2000/svg">
<path d="M18.5002 12.0001C18.5002 13.3808 17.381 14.5001 16.0002 14.5001C14.6195 14.5001 13.5002 13.3808 13.5002 12.0001C13.5002 10.6194 14.6195 9.50012 16.0002 9.50012C17.381 9.50012 18.5002 10.6194 18.5002 12.0001Z" stroke="#1C274C" stroke-width="1.5"/>
<path d="M22 12.0001C22 17.523 17.5228 22.0001 12 22.0001C6.47715 22.0001 2 17.523 2 12.0001C2 6.47727 6.47715 2.00012 12 2.00012C17.5228 2.00012 22 6.47727 22 12.0001Z" stroke="#1C274C" stroke-width="1.5"/>
<path d="M10.5 12.0001C10.5 13.3808 9.38071 14.5001 8 14.5001C6.61929 14.5001 5.5 13.3808 5.5 12.0001C5.5 10.6194 6.61929 9.50012 8 9.50012C9.38071 9.50012 10.5 10.6194 10.5 12.0001Z" stroke="#1C274C" stroke-width="1.5"/>
<path d="M8 14.5001H16" stroke="#1C274C" stroke-width="1.5" stroke-linecap="round"/>
</svg>
