<svg width="24" height="24" viewBox="0 0 24 24" fill="none" xmlns="http://www.w3.org/2000/svg">
<path d="M18.5 12.0001C18.5 13.3808 17.3807 14.5001 16 14.5001C14.6193 14.5001 13.5 13.3808 13.5 12.0001C13.5 10.6194 14.6193 9.50012 16 9.50012C17.3807 9.50012 18.5 10.6194 18.5 12.0001Z" stroke="#1C274C" stroke-width="1.5"/>
<path d="M10.5 12.0001C10.5 13.3808 9.38071 14.5001 8 14.5001C6.61929 14.5001 5.5 13.3808 5.5 12.0001C5.5 10.6194 6.61929 9.50012 8 9.50012C9.38071 9.50012 10.5 10.6194 10.5 12.0001Z" stroke="#1C274C" stroke-width="1.5"/>
<path d="M8 14.5001H16" stroke="#1C274C" stroke-width="1.5" stroke-linecap="round"/>
<path d="M2 12.0001C2 7.28608 2 4.92905 3.46447 3.46459C4.92893 2.00012 7.28595 2.00012 12 2.00012C16.714 2.00012 19.0711 2.00012 20.5355 3.46459C22 4.92905 22 7.28608 22 12.0001C22 16.7142 22 19.0712 20.5355 20.5357C19.0711 22.0001 16.714 22.0001 12 22.0001C7.28595 22.0001 4.92893 22.0001 3.46447 20.5357C2 19.0712 2 16.7142 2 12.0001Z" stroke="#1C274C" stroke-width="1.5"/>
</svg>
