<svg width="24" height="24" viewBox="0 0 24 24" fill="none" xmlns="http://www.w3.org/2000/svg">
<path d="M5 9.00012C5 6.1912 5 4.78674 5.67412 3.77784C5.96596 3.34108 6.34096 2.96608 6.77772 2.67424C7.78661 2.00012 9.19108 2.00012 12 2.00012C14.8089 2.00012 16.2134 2.00012 17.2223 2.67424C17.659 2.96608 18.034 3.34108 18.3259 3.77784C19 4.78674 19 6.1912 19 9.00012V15.0001C19 17.809 19 19.2135 18.3259 20.2224C18.034 20.6592 17.659 21.0342 17.2223 21.326C16.2134 22.0001 14.8089 22.0001 12 22.0001C9.19108 22.0001 7.78661 22.0001 6.77772 21.326C6.34096 21.0342 5.96596 20.6592 5.67412 20.2224C5 19.2135 5 17.809 5 15.0001V9.00012Z" stroke="#000000" stroke-width="1.5"/>
<path d="M15 15.5001C15 17.157 13.6569 18.5001 12 18.5001C10.3431 18.5001 9 17.157 9 15.5001C9 13.8433 10.3431 12.5001 12 12.5001C13.6569 12.5001 15 13.8433 15 15.5001Z" stroke="#000000" stroke-width="1.5"/>
<path d="M9 5.50012H15" stroke="#000000" stroke-width="1.5" stroke-linecap="round"/>
<circle cx="9" cy="9.00012" r="1" fill="#000000"/>
<circle cx="12" cy="9.00012" r="1" fill="#000000"/>
<circle cx="15" cy="9.00012" r="1" fill="#000000"/>
</svg>
