<svg width="24" height="24" viewBox="0 0 24 24" fill="none" xmlns="http://www.w3.org/2000/svg">
<path d="M19.3127 8.90221C21.1042 10.2175 22 10.8752 22 12C22 13.1248 21.1042 13.7825 19.3127 15.0978C18.8181 15.4609 18.3276 15.8028 17.8769 16.0876C17.4814 16.3375 17.0336 16.5961 16.5699 16.8498C14.7826 17.828 13.8889 18.3171 13.0874 17.7756C12.2858 17.2341 12.213 16.1005 12.0673 13.8332C12.0261 13.192 12 12.5635 12 12C12 11.4365 12.0261 10.808 12.0673 10.1668C12.213 7.89953 12.2858 6.76591 13.0874 6.2244C13.8889 5.68288 14.7826 6.17198 16.5699 7.15019C17.0336 7.40395 17.4814 7.66246 17.8769 7.91238C18.3276 8.19725 18.8181 8.53911 19.3127 8.90221Z" stroke="#1C274C" stroke-width="1.5"/>
<path d="M11.9061 8.38591C11.2361 7.96229 10.5717 7.56345 9.96105 7.23111C9.42537 6.93954 8.81869 6.63794 8.19058 6.34188C5.76937 5.20065 4.55877 4.63003 3.47299 5.2618C2.38721 5.89357 2.28853 7.21612 2.09117 9.86124C2.03536 10.6093 2 11.3426 2 12C2 12.6574 2.03536 13.3907 2.09117 14.1388C2.28853 16.7839 2.38721 18.1064 3.47298 18.7382C4.55876 19.37 5.76937 18.7994 8.19058 17.6581C8.81869 17.3621 9.42537 17.0605 9.96105 16.7689C10.5717 16.4365 11.2361 16.0377 11.9061 15.6141" stroke="#1C274C" stroke-width="1.5"/>
</svg>
