<svg width="24" height="24" viewBox="0 0 24 24" fill="none" xmlns="http://www.w3.org/2000/svg">
<path d="M4.68732 8.90221C2.89577 10.2175 2 10.8752 2 12C2 13.1248 2.89577 13.7825 4.68732 15.0978C5.18188 15.4609 5.6724 15.8028 6.12315 16.0876C6.51859 16.3375 6.96644 16.5961 7.43011 16.8498C9.21745 17.828 10.1111 18.3171 10.9126 17.7756C11.7142 17.2341 11.787 16.1005 11.9327 13.8332C11.9739 13.192 12 12.5635 12 12C12 11.4365 11.9739 10.808 11.9327 10.1668C11.787 7.89953 11.7142 6.76591 10.9126 6.2244C10.1111 5.68288 9.21745 6.17198 7.43011 7.15019C6.96644 7.40395 6.51859 7.66246 6.12315 7.91238C5.6724 8.19725 5.18188 8.53911 4.68732 8.90221Z" stroke="#1C274C" stroke-width="1.5"/>
<path d="M12.0939 8.38591C12.7639 7.96229 13.4283 7.56345 14.0389 7.23111C14.5746 6.93954 15.1813 6.63794 15.8094 6.34188C18.2306 5.20065 19.4412 4.63003 20.527 5.2618C21.6128 5.89357 21.7115 7.21612 21.9088 9.86124C21.9646 10.6093 22 11.3426 22 12C22 12.6574 21.9646 13.3907 21.9088 14.1388C21.7115 16.7839 21.6128 18.1064 20.527 18.7382C19.4412 19.37 18.2306 18.7994 15.8094 17.6581C15.1813 17.3621 14.5746 17.0605 14.0389 16.7689C13.4283 16.4365 12.7639 16.0377 12.0939 15.6141" stroke="#1C274C" stroke-width="1.5"/>
</svg>
