<svg width="24" height="24" viewBox="0 0 24 24" fill="none" xmlns="http://www.w3.org/2000/svg">
<path d="M8.22202 18.2147L6.25875 20.9633C6.17836 21.0758 6.13817 21.1321 6.10347 21.1757C5.32058 22.1611 3.86848 22.2813 2.93424 21.438C2.89286 21.4007 2.84385 21.3517 2.74615 21.254C2.64836 21.1562 2.59946 21.1073 2.56209 21.0659C1.71881 20.1316 1.83899 18.6795 2.82438 17.8966C2.86803 17.862 2.92445 17.8217 3.03686 17.7414L5.78545 15.7781M8.22202 18.2147C7.86805 17.8932 7.46736 17.4925 6.9875 17.0126C6.50765 16.5328 6.10694 16.1321 5.78545 15.7781M8.22202 18.2147C8.94068 18.8674 9.4668 19.1938 10.0721 19.1938C10.9756 19.1938 11.7026 18.4667 13.1567 17.0126L17.0125 13.1569C18.4666 11.7028 19.1937 10.9757 19.1937 10.0722C19.1937 9.46692 18.8673 8.9408 18.2146 8.22214M5.78545 15.7781C5.13271 15.0594 4.80634 14.5333 4.80634 13.928C4.80634 13.0245 5.5334 12.2975 6.9875 10.8434L10.8433 6.98762C12.2974 5.53352 13.0244 4.80647 13.9279 4.80647C14.5332 4.80647 15.0593 5.13283 15.778 5.78557M18.2146 8.22214L20.9631 6.25887C21.0757 6.17848 21.132 6.13829 21.1756 6.1036C22.161 5.3207 22.2812 3.86861 21.4379 2.93437C21.4006 2.89298 21.3516 2.84397 21.2539 2.74627C21.1561 2.64848 21.1072 2.59958 21.0658 2.56221C20.1315 1.71893 18.6794 1.83911 17.8965 2.8245C17.8619 2.86815 17.8215 2.92458 17.7413 3.03698L15.778 5.78557M18.2146 8.22214C17.8931 7.86817 17.4924 7.46748 17.0125 6.98762C16.5327 6.50777 16.1319 6.10706 15.778 5.78557" stroke="#1C274C" stroke-width="1.5"/>
</svg>
