<svg width="24" height="24" viewBox="0 0 24 24" fill="none" xmlns="http://www.w3.org/2000/svg">
<path d="M6.14214 6.14238C8.90356 3.38096 10.2843 2.00024 12 2.00024C13.7157 2.00024 15.0964 3.38096 17.8579 6.14238C20.6193 8.9038 22 10.2845 22 12.0002C22 13.716 20.6193 15.0967 17.8579 17.8581C15.0964 20.6195 13.7157 22.0002 12 22.0002C10.2843 22.0002 8.90356 20.6195 6.14214 17.8581C3.38071 15.0967 2 13.716 2 12.0002C2 10.2845 3.38071 8.9038 6.14214 6.14238Z" stroke="#000000" stroke-width="1.5"/>
<path d="M16 11.5002L13.3333 9.00024M16 11.5002L13.3333 14.0002M16 11.5002L10.6667 11.5002C9.77778 11.5002 8 12.0002 8 14.0002" stroke="#000000" stroke-width="1.5" stroke-linecap="round" stroke-linejoin="round"/>
</svg>
