<svg width="24" height="24" viewBox="0 0 24 24" fill="none" xmlns="http://www.w3.org/2000/svg">
<path d="M2 5.25756C2 3.45859 3.567 2.00024 5.5 2.00024C7.433 2.00024 9 3.45859 9 5.25756C9 7.04243 7.88292 9.12521 6.14003 9.87002C5.73374 10.0437 5.26626 10.0437 4.85997 9.87002C3.11708 9.12521 2 7.04243 2 5.25756Z" stroke="#1C274C" stroke-width="1.5"/>
<path d="M15 17.2576C15 15.4586 16.567 14.0002 18.5 14.0002C20.433 14.0002 22 15.4586 22 17.2576C22 19.0424 20.8829 21.1252 19.14 21.87C18.7337 22.0437 18.2663 22.0437 17.86 21.87C16.1171 21.1252 15 19.0424 15 17.2576Z" stroke="#1C274C" stroke-width="1.5"/>
<path d="M19.5 17.5002C19.5 18.0525 19.0523 18.5002 18.5 18.5002C17.9477 18.5002 17.5 18.0525 17.5 17.5002C17.5 16.948 17.9477 16.5002 18.5 16.5002C19.0523 16.5002 19.5 16.948 19.5 17.5002Z" fill="#1C274C"/>
<path d="M6.5 5.50024C6.5 6.05253 6.05228 6.50024 5.5 6.50024C4.94772 6.50024 4.5 6.05253 4.5 5.50024C4.5 4.94796 4.94772 4.50024 5.5 4.50024C6.05228 4.50024 6.5 4.94796 6.5 5.50024Z" fill="#1C274C"/>
<path d="M12 4.25024C11.5858 4.25024 11.25 4.58603 11.25 5.00024C11.25 5.41446 11.5858 5.75024 12 5.75024V4.25024ZM12 19.0002L12.5303 19.5306C12.8232 19.2377 12.8232 18.7628 12.5303 18.4699L12 19.0002ZM17.2056 8.68757L17.6083 9.32031L17.2056 8.68757ZM6.79434 15.3129L7.197 15.9457H7.197L6.79434 15.3129ZM11.0303 16.9699C10.7374 16.677 10.2625 16.677 9.96964 16.9699C9.67675 17.2628 9.67675 17.7377 9.96964 18.0306L11.0303 16.9699ZM9.96964 19.9699C9.67675 20.2628 9.67675 20.7377 9.96964 21.0306C10.2625 21.3235 10.7374 21.3235 11.0303 21.0306L9.96964 19.9699ZM16.1319 4.25024H12V5.75024H16.1319V4.25024ZM12 18.2502H7.86809V19.7502H12V18.2502ZM16.803 8.05482L6.39169 14.6802L7.197 15.9457L17.6083 9.32031L16.803 8.05482ZM12.5303 18.4699L11.0303 16.9699L9.96964 18.0306L11.4696 19.5306L12.5303 18.4699ZM11.4696 18.4699L9.96964 19.9699L11.0303 21.0306L12.5303 19.5306L11.4696 18.4699ZM7.86809 18.2502C6.61754 18.2502 6.14195 16.6171 7.197 15.9457L6.39169 14.6802C4.07059 16.1572 5.11685 19.7502 7.86809 19.7502V18.2502ZM16.1319 5.75024C17.3824 5.75024 17.858 7.38343 16.803 8.05482L17.6083 9.32031C19.9294 7.84325 18.8831 4.25024 16.1319 4.25024V5.75024Z" fill="#1C274C"/>
</svg>
