<svg width="24" height="24" viewBox="0 0 24 24" fill="none" xmlns="http://www.w3.org/2000/svg">
<circle cx="5" cy="5.00024" r="3" stroke="#000000" stroke-width="1.5"/>
<circle cx="19" cy="19.0002" r="3" stroke="#000000" stroke-width="1.5"/>
<path d="M11 4.25024C10.5858 4.25024 10.25 4.58603 10.25 5.00024C10.25 5.41446 10.5858 5.75024 11 5.75024V4.25024ZM13 19.0002L13.5303 19.5306C13.8232 19.2377 13.8232 18.7628 13.5303 18.4699L13 19.0002ZM17.2056 8.68757L17.6083 9.32031L17.2056 8.68757ZM6.79434 15.3129L7.197 15.9457H7.197L6.79434 15.3129ZM12.0303 16.9699C11.7374 16.677 11.2625 16.677 10.9696 16.9699C10.6768 17.2628 10.6768 17.7377 10.9696 18.0306L12.0303 16.9699ZM10.9696 19.9699C10.6768 20.2628 10.6768 20.7377 10.9696 21.0306C11.2625 21.3235 11.7374 21.3235 12.0303 21.0306L10.9696 19.9699ZM16.1319 4.25024H11V5.75024H16.1319V4.25024ZM13 18.2502H7.86809V19.7502H13V18.2502ZM16.803 8.05482L6.39169 14.6802L7.197 15.9457L17.6083 9.32031L16.803 8.05482ZM13.5303 18.4699L12.0303 16.9699L10.9696 18.0306L12.4696 19.5306L13.5303 18.4699ZM12.4696 18.4699L10.9696 19.9699L12.0303 21.0306L13.5303 19.5306L12.4696 18.4699ZM7.86809 18.2502C6.61754 18.2502 6.14195 16.6171 7.197 15.9457L6.39169 14.6802C4.07059 16.1572 5.11685 19.7502 7.86809 19.7502V18.2502ZM16.1319 5.75024C17.3824 5.75024 17.858 7.38343 16.803 8.05482L17.6083 9.32031C19.9294 7.84325 18.8831 4.25024 16.1319 4.25024V5.75024Z" fill="#000000"/>
</svg>
