<svg width="24" height="24" viewBox="0 0 24 24" fill="none" xmlns="http://www.w3.org/2000/svg">
<path d="M13.4572 2.11025C10.5738 2.38766 7.50944 3.25234 5.38064 5.38113C3.25185 7.50993 2.38717 10.5742 2.10976 13.4577M13.4572 2.11025C15.1273 1.94958 16.7367 1.98591 18.0686 2.08774C20.1483 2.24676 21.7537 3.85217 21.9127 5.93193C22.0146 7.26376 22.0509 8.87318 21.8902 10.5433M13.4572 2.11025L21.8902 10.5433M21.8902 10.5433C21.6128 13.4267 20.7482 16.491 18.6194 18.6198C16.4906 20.7486 13.4262 21.6133 10.5428 21.8907M10.5428 21.8907C8.87269 22.0514 7.26327 22.0151 5.93144 21.9132C3.85169 21.7542 2.24627 20.1488 2.08725 18.069C1.98542 16.7372 1.94909 15.1278 2.10976 13.4577M10.5428 21.8907L2.10976 13.4577" stroke="#1C274C" stroke-width="1.5" stroke-linecap="round"/>
<path d="M15.3098 8.69092L8.69043 15.3103M8.69043 12.4734L11.5273 15.3103M10.5817 10.5822L13.4185 13.419M12.4729 8.69092L15.3098 11.5278" stroke="#1C274C" stroke-width="1.5" stroke-linecap="round"/>
</svg>
