<svg width="24" height="24" viewBox="0 0 24 24" fill="none" xmlns="http://www.w3.org/2000/svg">
<circle cx="18.5" cy="4.50049" r="2.5" stroke="#000000" stroke-width="1.5"/>
<path d="M14.4 22.0006V21.1955C14.4 21.1177 14.4 21.0788 14.3996 21.0419C14.377 18.9025 13.3773 16.891 11.6857 15.5811C11.6565 15.5585 11.6255 15.535 11.5635 15.488C11.5235 15.4578 11.5035 15.4426 11.4877 15.4301C10.5309 14.6745 10.467 13.2461 11.3524 12.408C11.367 12.3942 11.3857 12.3772 11.4227 12.3436L12.4628 11.3981C14.0898 9.91895 13.5945 7.24518 11.5457 6.44693C10.8122 6.16117 9.99522 6.17914 9.27504 6.49686L8.75335 6.72702C8.21393 6.965 7.94422 7.08399 7.68074 7.21477C7.24267 7.43221 6.81722 7.6742 6.40642 7.93959C6.15935 8.0992 5.91922 8.2702 5.43897 8.6122L4 9.63692" stroke="#000000" stroke-width="1.5" stroke-linecap="round"/>
<path d="M9 17.0005L8.74064 17.3117C7.32089 19.0154 5.21773 20.0005 3 20.0005" stroke="#000000" stroke-width="1.5" stroke-linecap="round"/>
<path d="M16 12.0005C17.3131 12.3288 18.6869 12.3288 20 12.0005" stroke="#000000" stroke-width="1.5" stroke-linecap="round"/>
</svg>
