<svg width="24" height="24" viewBox="0 0 24 24" fill="none" xmlns="http://www.w3.org/2000/svg">
<circle cx="18.5" cy="4.50049" r="2.5" stroke="#000000" stroke-width="1.5"/>
<path d="M9 17.0005L7.99923 18.2014C7.262 19.0861 6.89338 19.5284 6.38945 19.7645C5.88552 20.0005 5.30973 20.0005 4.15813 20.0005H3" stroke="#000000" stroke-width="1.5" stroke-linecap="round"/>
<path d="M5.43568 8.82121L5.06517 8.16911V8.16911L5.43568 8.82121ZM3.62949 8.98484C3.26935 9.18947 3.14328 9.6473 3.34791 10.0074C3.55253 10.3676 4.01037 10.4937 4.37051 10.289L3.62949 8.98484ZM15.7502 10.126L15.1262 10.542L15.1262 10.542L15.7502 10.126ZM15.8125 10.2194L16.4366 9.80339L16.4366 9.80339L15.8125 10.2194ZM10.9688 6.65426L11.0462 5.90827L10.9688 6.65426ZM10.7398 6.63687L10.7065 7.38613H10.7065L10.7398 6.63687ZM10.1548 6.67417L10.0522 5.93122L10.0522 5.93122L10.1548 6.67417ZM21 12.7506C21.4142 12.7506 21.75 12.4148 21.75 12.0006C21.75 11.5864 21.4142 11.2506 21 11.2506V12.7506ZM5.06517 8.16911L3.62949 8.98484L4.37051 10.289L5.80619 9.4733L5.06517 8.16911ZM15.1262 10.542L15.1885 10.6355L16.4366 9.80339L16.3742 9.70992L15.1262 10.542ZM11.0462 5.90827C10.9438 5.89764 10.853 5.89115 10.773 5.88761L10.7065 7.38613C10.7559 7.38832 10.8172 7.39256 10.8914 7.40025L11.0462 5.90827ZM5.80619 9.4733C8.12451 8.15607 9.19204 7.56423 10.2574 7.41712L10.0522 5.93122C8.63309 6.12718 7.27343 6.91442 5.06517 8.16911L5.80619 9.4733ZM19.1407 12.7506H21V11.2506H19.1407V12.7506ZM10.773 5.88761C10.5099 5.87595 10.2617 5.90228 10.0522 5.93122L10.2574 7.41712C10.4355 7.39252 10.5786 7.38046 10.7065 7.38613L10.773 5.88761ZM15.1885 10.6355C16.0695 11.9569 17.5525 12.7506 19.1407 12.7506V11.2506C18.0541 11.2506 17.0393 10.7075 16.4366 9.80339L15.1885 10.6355ZM16.3742 9.70992C15.1968 7.94381 13.4289 6.15558 11.0462 5.90827L10.8914 7.40025C12.5939 7.57697 14.0254 8.89085 15.1262 10.542L16.3742 9.70992Z" fill="#000000"/>
<path d="M14.0001 8.50049L11.7793 11.276C10.9429 12.3215 10.5246 12.8443 10.4579 13.4135C10.4204 13.7335 10.4608 14.0578 10.5756 14.3588C10.7798 14.8943 11.3134 15.2986 12.3807 16.1071C13.1936 16.723 13.6 17.0309 13.8755 17.4334C14.0326 17.663 14.157 17.9134 14.2452 18.1772C14.3997 18.6399 14.3997 19.1498 14.3997 20.1696V22.0003" stroke="#000000" stroke-width="1.5" stroke-linecap="round"/>
</svg>
