<svg width="24" height="24" viewBox="0 0 24 24" fill="none" xmlns="http://www.w3.org/2000/svg">
<circle cx="18.5" cy="4.50049" r="2.5" stroke="#1C274C" stroke-width="1.5"/>
<path d="M9 17.0005L7.99923 18.2014C7.262 19.0861 6.89338 19.5284 6.38945 19.7645C5.88552 20.0005 5.30973 20.0005 4.15813 20.0005H3" stroke="#1C274C" stroke-width="1.5" stroke-linecap="round"/>
<path d="M13.6501 22.0006C13.6501 22.4148 13.9859 22.7506 14.4001 22.7506C14.8143 22.7506 15.1501 22.4148 15.1501 22.0006H13.6501ZM12.5646 16.2465L13.0175 15.6486L13.0175 15.6486L12.5646 16.2465ZM13.749 17.2618L14.3362 16.7952L14.3362 16.7952L13.749 17.2618ZM14.306 18.3825L15.0325 18.1961L15.0325 18.1961L14.306 18.3825ZM13.5043 11.5557C13.8108 11.2771 13.8333 10.8027 13.5547 10.4962C13.2761 10.1897 12.8017 10.1671 12.4953 10.4458L13.5043 11.5557ZM10.8521 13.1652L11.5553 13.426L11.5553 13.426L10.8521 13.1652ZM10.9217 14.7208L10.2446 15.0434H10.2446L10.9217 14.7208ZM13.6501 19.9396V22.0006H15.1501V19.9396H13.6501ZM12.1117 16.8443C12.7754 17.3471 12.999 17.5234 13.1618 17.7283L14.3362 16.7952C14.028 16.4072 13.6189 16.1043 13.0175 15.6486L12.1117 16.8443ZM15.1501 19.9396C15.1501 19.1851 15.1556 18.6761 15.0325 18.1961L13.5795 18.5688C13.6445 18.8224 13.6501 19.107 13.6501 19.9396H15.1501ZM13.1618 17.7283C13.3586 17.976 13.5009 18.2624 13.5795 18.5688L15.0325 18.1961C14.9015 17.6854 14.6642 17.2081 14.3362 16.7952L13.1618 17.7283ZM12.4953 10.4458C12.0756 10.8272 11.5504 11.2821 11.1412 11.6694C10.9319 11.8675 10.7315 12.0676 10.5679 12.2562C10.4194 12.4273 10.2413 12.6552 10.1489 12.9044L11.5553 13.426C11.5476 13.4468 11.5694 13.3907 11.7009 13.2392C11.8172 13.1051 11.9768 12.9438 12.1724 12.7588C12.5729 12.3797 13.0368 11.9806 13.5043 11.5557L12.4953 10.4458ZM13.0175 15.6486C12.53 15.2793 12.1998 15.0285 11.9621 14.8169C11.7285 14.609 11.6412 14.4872 11.5988 14.3982L10.2446 15.0434C10.4118 15.3942 10.6681 15.6733 10.9648 15.9373C11.2572 16.1976 11.6436 16.4897 12.1117 16.8443L13.0175 15.6486ZM10.1489 12.9044C9.89054 13.601 9.92508 14.3726 10.2446 15.0434L11.5988 14.3982C11.4536 14.0933 11.4379 13.7426 11.5553 13.426L10.1489 12.9044Z" fill="#1C274C"/>
<path d="M5.43568 8.82116L5.06517 8.16907L5.06517 8.16907L5.43568 8.82116ZM3.62949 8.9848C3.26935 9.18942 3.14328 9.64725 3.34791 10.0074C3.55253 10.3675 4.01037 10.4936 4.37051 10.289L3.62949 8.9848ZM13.4066 7.35767L13.1211 8.05122V8.05122L13.4066 7.35767ZM10.4467 6.64338L10.3924 5.89536L10.4467 6.64338ZM21 12.7505C21.4142 12.7505 21.75 12.4147 21.75 12.0005C21.75 11.5863 21.4142 11.2505 21 11.2505V12.7505ZM15.7681 9.53671L15.0973 9.87212V9.87212L15.7681 9.53671ZM5.06517 8.16907L3.62949 8.9848L4.37051 10.289L5.80619 9.47325L5.06517 8.16907ZM13.6921 6.66413C12.3481 6.11089 11.6111 5.80673 10.3924 5.89536L10.5011 7.39141C11.3248 7.33152 11.7575 7.48991 13.1211 8.05122L13.6921 6.66413ZM5.80619 9.47325C8.30813 8.0517 9.35849 7.4745 10.5011 7.39141L10.3924 5.89536C8.83282 6.00876 7.4432 6.81792 5.06517 8.16907L5.80619 9.47325ZM19.7546 12.7505H21V11.2505H19.7546V12.7505ZM15.0973 9.87212C15.9793 11.6362 17.7823 12.7505 19.7546 12.7505V11.2505C18.3505 11.2505 17.0669 10.4572 16.4389 9.2013L15.0973 9.87212ZM16.4389 9.2013C15.8611 8.04559 14.8765 7.15167 13.6921 6.66413L13.1211 8.05122C13.9811 8.40521 14.6864 9.05042 15.0973 9.87212L16.4389 9.2013Z" fill="#1C274C"/>
</svg>
