<svg width="24" height="24" viewBox="0 0 24 24" fill="none" xmlns="http://www.w3.org/2000/svg">
<path d="M2 12.0005C2 7.28644 2 4.92942 3.46447 3.46495C4.92893 2.00049 7.28595 2.00049 12 2.00049C16.714 2.00049 19.0711 2.00049 20.5355 3.46495C22 4.92942 22 7.28644 22 12.0005C22 16.7145 22 19.0716 20.5355 20.536C19.0711 22.0005 16.714 22.0005 12 22.0005C7.28595 22.0005 4.92893 22.0005 3.46447 20.536C2 19.0716 2 16.7145 2 12.0005Z" stroke="#000000" stroke-width="1.5"/>
<path d="M5 11.0005C5 8.17206 5 6.75785 5.87868 5.87917C6.75736 5.00049 8.17157 5.00049 11 5.00049H13C15.8284 5.00049 17.2426 5.00049 18.1213 5.87917C19 6.75785 19 8.17206 19 11.0005V13.0005C19 15.8289 19 17.2431 18.1213 18.1218C17.2426 19.0005 15.8284 19.0005 13 19.0005H11C8.17157 19.0005 6.75736 19.0005 5.87868 18.1218C5 17.2431 5 15.8289 5 13.0005V11.0005Z" stroke="#000000" stroke-width="1.5"/>
<path d="M8 12.0005C8 9.79135 9.79086 8.00049 12 8.00049C14.2091 8.00049 16 9.79135 16 12.0005C16 14.2096 14.2091 16.0005 12 16.0005C9.79086 16.0005 8 14.2096 8 12.0005Z" stroke="#000000" stroke-width="1.5"/>
<path d="M13.5 12.0005C13.5 12.8289 12.8284 13.5005 12 13.5005C11.1716 13.5005 10.5 12.8289 10.5 12.0005C10.5 11.1721 11.1716 10.5005 12 10.5005C12.8284 10.5005 13.5 11.1721 13.5 12.0005Z" fill="#000000"/>
<path d="M12 12.0005V8.00049" stroke="#000000" stroke-width="1.5"/>
<path d="M12 12.0005L15.5 13.5005" stroke="#000000" stroke-width="1.5"/>
<path d="M12 12.0005L8.5 13.5005" stroke="#000000" stroke-width="1.5"/>
<path d="M4.5 7.00049V10.0005" stroke="#000000" stroke-width="1.5" stroke-linecap="round"/>
<path d="M4.5 14.0005V17.0005" stroke="#000000" stroke-width="1.5" stroke-linecap="round"/>
</svg>
