<svg width="24" height="24" viewBox="0 0 24 24" fill="none" xmlns="http://www.w3.org/2000/svg">
<path d="M2 12.0005C2 6.47764 6.47715 2.00049 12 2.00049C17.5228 2.00049 22 6.47764 22 12.0005C22 17.5233 17.5228 22.0005 12 22.0005C6.47715 22.0005 2 17.5233 2 12.0005Z" stroke="#1C274C" stroke-width="1.5"/>
<path d="M7 8.00049L7 16.0005" stroke="#1C274C" stroke-width="1.5" stroke-linecap="round"/>
<path d="M12 12.0005C12 10.8959 12.8954 10.0005 14 10.0005C15.1046 10.0005 16 10.8959 16 12.0005C16 13.1051 15.1046 14.0005 14 14.0005C12.8954 14.0005 12 13.1051 12 12.0005Z" stroke="#1C274C" stroke-width="1.5"/>
<path d="M16 10.0005L17 9.00049" stroke="#1C274C" stroke-width="1.5" stroke-linecap="round"/>
<path d="M11 15.0005L12 14.0005" stroke="#1C274C" stroke-width="1.5" stroke-linecap="round"/>
<path d="M12 10.0005L11 9.00049" stroke="#1C274C" stroke-width="1.5" stroke-linecap="round"/>
<path d="M17 15.0005L16 14.0005" stroke="#1C274C" stroke-width="1.5" stroke-linecap="round"/>
</svg>
