<svg width="24" height="24" viewBox="0 0 24 24" fill="none" xmlns="http://www.w3.org/2000/svg">
<path d="M9.78133 3.89125C10.3452 3.41072 10.6271 3.17045 10.9219 3.02956C11.6037 2.70369 12.3963 2.70369 13.0781 3.02956C13.3729 3.17045 13.6548 3.41072 14.2187 3.89125C14.4431 4.0825 14.5553 4.17813 14.6752 4.25845C14.9499 4.44257 15.2584 4.57037 15.5828 4.63442C15.7244 4.66236 15.8713 4.67409 16.1653 4.69755C16.9038 4.75648 17.273 4.78595 17.5811 4.89476C18.2936 5.14643 18.8541 5.70689 19.1058 6.41942C19.2146 6.72748 19.244 7.09673 19.303 7.83524C19.3264 8.12917 19.3381 8.27613 19.3661 8.41767C19.4301 8.74211 19.5579 9.05063 19.7421 9.32534C19.8224 9.44518 19.918 9.55739 20.1093 9.78182C20.5898 10.3457 20.8301 10.6276 20.971 10.9224C21.2968 11.6042 21.2968 12.3968 20.971 13.0786C20.8301 13.3734 20.5898 13.6553 20.1093 14.2192C19.918 14.4436 19.8224 14.5558 19.7421 14.6757C19.5579 14.9504 19.4301 15.2589 19.3661 15.5833C19.3381 15.7249 19.3264 15.8718 19.303 16.1658C19.244 16.9043 19.2146 17.2735 19.1058 17.5816C18.8541 18.2941 18.2936 18.8546 17.5811 19.1062C17.273 19.2151 16.9038 19.2445 16.1653 19.3035C15.8713 19.3269 15.7244 19.3386 15.5828 19.3666C15.2584 19.4306 14.9499 19.5584 14.6752 19.7426C14.5553 19.8229 14.4431 19.9185 14.2187 20.1098C13.6548 20.5903 13.3729 20.8305 13.0781 20.9714C12.3963 21.2973 11.6037 21.2973 10.9219 20.9714C10.6271 20.8305 10.3452 20.5903 9.78133 20.1098C9.55691 19.9185 9.44469 19.8229 9.32485 19.7426C9.05014 19.5584 8.74163 19.4306 8.41718 19.3666C8.27564 19.3386 8.12868 19.3269 7.83475 19.3035C7.09625 19.2445 6.72699 19.2151 6.41893 19.1062C5.7064 18.8546 5.14594 18.2941 4.89427 17.5816C4.78546 17.2735 4.75599 16.9043 4.69706 16.1658C4.6736 15.8718 4.66188 15.7249 4.63393 15.5833C4.56988 15.2589 4.44209 14.9504 4.25796 14.6757C4.17764 14.5558 4.08201 14.4436 3.89076 14.2192C3.41023 13.6553 3.16997 13.3734 3.02907 13.0786C2.7032 12.3968 2.7032 11.6042 3.02907 10.9224C3.16997 10.6276 3.41023 10.3457 3.89076 9.78182C4.08201 9.5574 4.17764 9.44518 4.25796 9.32534C4.44209 9.05063 4.56988 8.74211 4.63393 8.41767C4.66188 8.27613 4.6736 8.12917 4.69706 7.83524C4.75599 7.09674 4.78546 6.72748 4.89427 6.41942C5.14594 5.70689 5.7064 5.14643 6.41893 4.89476C6.72699 4.78595 7.09625 4.75648 7.83475 4.69755C8.12868 4.67409 8.27564 4.66236 8.41718 4.63442C8.74163 4.57037 9.05014 4.44257 9.32485 4.25845C9.4447 4.17813 9.55691 4.0825 9.78133 3.89125Z" stroke="#000000" stroke-width="1.5"/>
<path d="M9 15.0005L15 9.00049" stroke="#000000" stroke-width="1.5" stroke-linecap="round"/>
<path d="M15.5 14.5005C15.5 15.0528 15.0523 15.5005 14.5 15.5005C13.9477 15.5005 13.5 15.0528 13.5 14.5005C13.5 13.9482 13.9477 13.5005 14.5 13.5005C15.0523 13.5005 15.5 13.9482 15.5 14.5005Z" fill="#000000"/>
<path d="M10.5 9.50049C10.5 10.0528 10.0523 10.5005 9.5 10.5005C8.94772 10.5005 8.5 10.0528 8.5 9.50049C8.5 8.9482 8.94772 8.50049 9.5 8.50049C10.0523 8.50049 10.5 8.9482 10.5 9.50049Z" fill="#000000"/>
</svg>
