<svg width="24" height="24" viewBox="0 0 24 24" fill="none" xmlns="http://www.w3.org/2000/svg">
<path d="M9 15.0005L15 9.00049" stroke="#000000" stroke-width="1.5" stroke-linecap="round"/>
<path d="M15.5 14.5005C15.5 15.0528 15.0523 15.5005 14.5 15.5005C13.9477 15.5005 13.5 15.0528 13.5 14.5005C13.5 13.9482 13.9477 13.5005 14.5 13.5005C15.0523 13.5005 15.5 13.9482 15.5 14.5005Z" fill="#000000"/>
<path d="M10.5 9.50049C10.5 10.0528 10.0523 10.5005 9.5 10.5005C8.94772 10.5005 8.5 10.0528 8.5 9.50049C8.5 8.9482 8.94772 8.50049 9.5 8.50049C10.0523 8.50049 10.5 8.9482 10.5 9.50049Z" fill="#000000"/>
<path d="M2 12.0005C2 7.28644 2 4.92942 3.46447 3.46495C4.92893 2.00049 7.28595 2.00049 12 2.00049C16.714 2.00049 19.0711 2.00049 20.5355 3.46495C22 4.92942 22 7.28644 22 12.0005C22 16.7145 22 19.0716 20.5355 20.536C19.0711 22.0005 16.714 22.0005 12 22.0005C7.28595 22.0005 4.92893 22.0005 3.46447 20.536C2 19.0716 2 16.7145 2 12.0005Z" stroke="#000000" stroke-width="1.5"/>
</svg>
