<svg width="24" height="24" viewBox="0 0 24 24" fill="none" xmlns="http://www.w3.org/2000/svg">
<path d="M6 13.0005C6 13.0005 7.8 11.0005 12 11.0005C16.2 11.0005 18 13.0005 18 13.0005" stroke="#000000" stroke-width="1.5" stroke-linecap="round"/>
<path d="M22 14.0005C22 17.7717 22 19.6573 20.8284 20.8289C19.6569 22.0005 17.7712 22.0005 14 22.0005" stroke="#000000" stroke-width="1.5" stroke-linecap="round"/>
<path d="M10 22.0005C6.22876 22.0005 4.34315 22.0005 3.17157 20.8289C2 19.6573 2 17.7717 2 14.0005" stroke="#000000" stroke-width="1.5" stroke-linecap="round"/>
<path d="M10 2.00049C6.22876 2.00049 4.34315 2.00049 3.17157 3.17206C2 4.34363 2 6.22925 2 10.0005" stroke="#000000" stroke-width="1.5" stroke-linecap="round"/>
<path d="M14 2.00049C17.7712 2.00049 19.6569 2.00049 20.8284 3.17206C22 4.34363 22 6.22925 22 10.0005" stroke="#000000" stroke-width="1.5" stroke-linecap="round"/>
</svg>
