<svg width="24" height="24" viewBox="0 0 24 24" fill="none" xmlns="http://www.w3.org/2000/svg">
<rect x="16" y="13.0005" width="6" height="6" rx="3" stroke="#1C274C" stroke-width="1.5"/>
<path d="M11 16.0005V14.5005C11 12.6149 11 11.6721 10.4142 11.0863C9.82843 10.5005 8.88562 10.5005 7 10.5005H6.4C6.02856 10.5005 5.84284 10.5005 5.68616 10.5128C3.72466 10.6672 2.1667 12.2251 2.01233 14.1867C2 14.3433 2 14.529 2 14.9005C2 14.9933 2 15.0398 2.00308 15.0789C2.04168 15.5693 2.43116 15.9588 2.92154 15.9974C2.96071 16.0005 3.00714 16.0005 3.1 16.0005H11ZM11 16.0005H16" stroke="#1C274C" stroke-width="1.5" stroke-linecap="round"/>
<path d="M9.5 16.0005C9.5 17.6573 8.15685 19.0005 6.5 19.0005C4.84315 19.0005 3.5 17.6573 3.5 16.0005" stroke="#1C274C" stroke-width="1.5" stroke-linecap="round"/>
<path d="M12 5.00049H12.5279C13.7307 5.00049 14.3321 5.00049 14.8154 5.29919C15.2987 5.59789 15.5677 6.1358 16.1056 7.21163L19 13.0005" stroke="#1C274C" stroke-width="1.5" stroke-linecap="round"/>
<path d="M18.1426 11.0005L18.8243 10.4983C19.0871 10.3046 19.2186 10.2078 19.31 10.0816C19.3722 9.99568 19.4203 9.90042 19.4526 9.79939C19.5 9.65095 19.5 9.4877 19.5 9.16121C19.5 8.54376 19.5 8.23504 19.3684 8.00454C19.2797 7.84936 19.1511 7.72077 18.996 7.63214C18.7654 7.50049 18.4567 7.50049 17.8393 7.50049H16.5" stroke="#1C274C" stroke-width="1.5" stroke-linecap="round"/>
<circle cx="19" cy="16.0005" r="3" stroke="#1C274C" stroke-width="1.5"/>
</svg>
