<svg width="24" height="24" viewBox="0 0 24 24" fill="none" xmlns="http://www.w3.org/2000/svg">
<path d="M20 18.4155C20.3136 18.2631 20.5862 18.071 20.8284 17.8288C22 16.6572 22 14.7716 22 11.0004C22 7.22913 22 5.34351 20.8284 4.17194C19.6569 3.00037 17.7712 3.00037 14 3.00037H10C6.22876 3.00037 4.34315 3.00037 3.17157 4.17194C2 5.34351 2 7.22913 2 11.0004C2 14.7716 2 16.6572 3.17157 17.8288C3.41375 18.071 3.68645 18.2631 4 18.4155" stroke="#000000" stroke-width="1.5" stroke-linecap="round"/>
<path d="M9.94955 16.0506C10.8806 15.1196 11.3461 14.6541 11.9209 14.6238C11.9735 14.621 12.0261 14.621 12.0787 14.6238C12.6535 14.6541 13.119 15.1196 14.0501 16.0506C16.0759 18.0765 17.0888 19.0894 16.8053 19.9633C16.7809 20.0385 16.7506 20.1115 16.7147 20.1819C16.2973 21.0004 14.8648 21.0004 11.9998 21.0004C9.13482 21.0004 7.70233 21.0004 7.28489 20.1819C7.249 20.1115 7.21873 20.0385 7.19436 19.9633C6.91078 19.0894 7.92371 18.0765 9.94955 16.0506Z" stroke="#000000" stroke-width="1.5"/>
</svg>
