<svg width="24" height="24" viewBox="0 0 24 24" fill="none" xmlns="http://www.w3.org/2000/svg">
<path d="M13 21.7501C13.4142 21.7501 13.75 21.4143 13.75 21.0001C13.75 20.5859 13.4142 20.2501 13 20.2501V21.7501ZM3.17157 19.8285L3.7019 19.2982H3.7019L3.17157 19.8285ZM20.8284 4.17169L20.2981 4.70202V4.70203L20.8284 4.17169ZM21.25 13.0001C21.25 13.4143 21.5858 13.7501 22 13.7501C22.4142 13.7501 22.75 13.4143 22.75 13.0001H21.25ZM10 3.75012H14V2.25012H10V3.75012ZM2.75 13.0001V12.0001H1.25V13.0001H2.75ZM2.75 12.0001V11.0001H1.25V12.0001H2.75ZM13 20.2501H10V21.7501H13V20.2501ZM21.25 11.0001V12.0001H22.75V11.0001H21.25ZM1.25 13.0001C1.25 14.8645 1.24841 16.3383 1.40313 17.4891C1.56076 18.6616 1.89288 19.6105 2.64124 20.3589L3.7019 19.2982C3.27869 18.875 3.02502 18.2954 2.88976 17.2893C2.75159 16.2616 2.75 14.9069 2.75 13.0001H1.25ZM10 20.2501C8.09318 20.2501 6.73851 20.2485 5.71085 20.1104C4.70476 19.9751 4.12511 19.7214 3.7019 19.2982L2.64124 20.3589C3.38961 21.1072 4.33855 21.4394 5.51098 21.597C6.66182 21.7517 8.13558 21.7501 10 21.7501V20.2501ZM14 3.75012C15.9068 3.75012 17.2615 3.75171 18.2892 3.88988C19.2952 4.02515 19.8749 4.27882 20.2981 4.70202L21.3588 3.64137C20.6104 2.893 19.6614 2.56088 18.489 2.40326C17.3382 2.24853 15.8644 2.25012 14 2.25012V3.75012ZM22.75 11.0001C22.75 9.13571 22.7516 7.66195 22.5969 6.5111C22.4392 5.33868 22.1071 4.38973 21.3588 3.64136L20.2981 4.70203C20.7213 5.12524 20.975 5.70488 21.1102 6.71097C21.2484 7.73864 21.25 9.0933 21.25 11.0001H22.75ZM10 2.25012C8.13558 2.25012 6.66182 2.24853 5.51098 2.40326C4.33856 2.56088 3.38961 2.893 2.64124 3.64136L3.7019 4.70203C4.12511 4.27882 4.70476 4.02515 5.71085 3.88988C6.73851 3.75171 8.09318 3.75012 10 3.75012V2.25012ZM2.75 11.0001C2.75 9.0933 2.75159 7.73863 2.88976 6.71097C3.02502 5.70488 3.27869 5.12523 3.7019 4.70203L2.64124 3.64136C1.89288 4.38973 1.56076 5.33868 1.40313 6.5111C1.24841 7.66195 1.25 9.13571 1.25 11.0001H2.75ZM2 12.7501H22V11.2501H2V12.7501ZM21.25 12.0001V13.0001H22.75V12.0001H21.25Z" fill="#1C274C"/>
<path d="M13.5 7.50012L18 7.50012" stroke="#1C274C" stroke-width="1.5" stroke-linecap="round"/>
<path d="M6 17.5001L6 15.5001" stroke="#1C274C" stroke-width="1.5" stroke-linecap="round"/>
<path d="M6 8.50012L6 6.50012" stroke="#1C274C" stroke-width="1.5" stroke-linecap="round"/>
<path d="M9 17.5001L9 15.5001" stroke="#1C274C" stroke-width="1.5" stroke-linecap="round"/>
<path d="M9 8.50012L9 6.50012" stroke="#1C274C" stroke-width="1.5" stroke-linecap="round"/>
<path d="M15.5841 17.5001H14.8341V17.5001L15.5841 17.5001ZM15.5841 18.0001L15.0964 18.5699C15.3772 18.8102 15.7911 18.8102 16.0718 18.5699L15.5841 18.0001ZM16.656 18.0699C16.9706 17.8005 17.0074 17.3271 16.738 17.0124C16.4687 16.6977 15.9952 16.661 15.6806 16.9304L16.656 18.0699ZM15.4877 16.9304C15.173 16.661 14.6996 16.6977 14.4302 17.0124C14.1609 17.3271 14.1976 17.8005 14.5123 18.0699L15.4877 16.9304ZM20.3892 16.6354C20.6296 16.9727 21.0979 17.0513 21.4352 16.8109C21.7726 16.5705 21.8512 16.1022 21.6108 15.7649L20.3892 16.6354ZM18.5048 14.2501C16.5912 14.2501 14.8341 15.6 14.8341 17.5001H16.3341C16.3341 16.6388 17.1923 15.7501 18.5048 15.7501V14.2501ZM14.8341 17.5001L14.8341 18.0001L16.3341 18.0001L16.3341 17.5001L14.8341 17.5001ZM16.0718 18.5699L16.656 18.0699L15.6806 16.9304L15.0964 17.4304L16.0718 18.5699ZM16.0718 17.4304L15.4877 16.9304L14.5123 18.0699L15.0964 18.5699L16.0718 17.4304ZM21.6108 15.7649C20.945 14.8305 19.782 14.2501 18.5048 14.2501V15.7501C19.3411 15.7501 20.0295 16.1306 20.3892 16.6354L21.6108 15.7649Z" fill="#1C274C"/>
<path d="M18.4952 21.0001V21.7501V21.0001ZM21.4159 18.5001H22.1659H21.4159ZM21.4159 18.0001L21.9036 17.4304C21.6228 17.19 21.2089 17.19 20.9282 17.4304L21.4159 18.0001ZM20.344 17.9304C20.0294 18.1997 19.9926 18.6732 20.262 18.9878C20.5313 19.3025 21.0048 19.3392 21.3194 19.0699L20.344 17.9304ZM21.5123 19.0699C21.827 19.3392 22.3004 19.3025 22.5698 18.9878C22.8391 18.6732 22.8024 18.1997 22.4877 17.9304L21.5123 19.0699ZM16.6108 19.3649C16.3704 19.0275 15.9021 18.949 15.5648 19.1893C15.2274 19.4297 15.1488 19.898 15.3892 20.2354L16.6108 19.3649ZM18.4952 21.7501C20.4088 21.7501 22.1659 20.4002 22.1659 18.5001H20.6659C20.6659 19.3614 19.8077 20.2501 18.4952 20.2501V21.7501ZM22.1659 18.5001V18.0001H20.6659V18.5001H22.1659ZM20.9282 17.4304L20.344 17.9304L21.3194 19.0699L21.9036 18.5699L20.9282 17.4304ZM20.9282 18.5699L21.5123 19.0699L22.4877 17.9304L21.9036 17.4304L20.9282 18.5699ZM15.3892 20.2354C16.055 21.1697 17.218 21.7501 18.4952 21.7501V20.2501C17.6589 20.2501 16.9705 19.8697 16.6108 19.3649L15.3892 20.2354Z" fill="#1C274C"/>
</svg>
