<svg width="24" height="24" viewBox="0 0 24 24" fill="none" xmlns="http://www.w3.org/2000/svg">
<circle cx="12" cy="12.0005" r="3" stroke="#1C274C" stroke-width="1.5"/>
<path d="M13.7654 2.15273C13.3978 2.00049 12.9319 2.00049 12 2.00049C11.0681 2.00049 10.6022 2.00049 10.2346 2.15273C9.74457 2.35572 9.35522 2.74507 9.15223 3.23512C9.05957 3.45883 9.0233 3.71899 9.00911 4.09848C8.98826 4.65617 8.70226 5.17238 8.21894 5.45142C7.73564 5.73045 7.14559 5.72003 6.65219 5.45925C6.31645 5.28179 6.07301 5.18311 5.83294 5.1515C5.30704 5.08227 4.77518 5.22478 4.35436 5.54769C4.03874 5.78987 3.80577 6.19339 3.33983 7.00042C2.87389 7.80745 2.64092 8.21097 2.58899 8.60539C2.51976 9.13129 2.66227 9.66315 2.98518 10.084C3.13256 10.276 3.3397 10.4375 3.66119 10.6395C4.1338 10.9365 4.43789 11.4423 4.43786 12.0005C4.43783 12.5586 4.13375 13.0644 3.66118 13.3613C3.33965 13.5634 3.13248 13.7248 2.98508 13.9169C2.66217 14.3378 2.51966 14.8696 2.5889 15.3955C2.64082 15.7899 2.87379 16.1935 3.33973 17.0005C3.80568 17.8075 4.03865 18.211 4.35426 18.4532C4.77508 18.7761 5.30694 18.9186 5.83284 18.8494C6.07289 18.8178 6.31632 18.7191 6.65204 18.5417C7.14547 18.2809 7.73556 18.2705 8.2189 18.5495C8.70224 18.8286 8.98826 19.3448 9.00911 19.9026C9.02331 20.282 9.05957 20.5422 9.15223 20.7659C9.35522 21.2559 9.74457 21.6453 10.2346 21.8482C10.6022 22.0005 11.0681 22.0005 12 22.0005C12.9319 22.0005 13.3978 22.0005 13.7654 21.8482C14.2554 21.6453 14.6448 21.2559 14.8477 20.7659C14.9404 20.5421 14.9767 20.282 14.9909 19.9025C15.0117 19.3448 15.2977 18.8286 15.781 18.5495C16.2643 18.2704 16.8544 18.2808 17.3479 18.5416C17.6836 18.7191 17.927 18.8177 18.167 18.8493C18.6929 18.9186 19.2248 18.7761 19.6456 18.4532C19.9612 18.211 20.1942 17.8075 20.6601 17.0004C21.1261 16.1934 21.3591 15.7899 21.411 15.3954C21.4802 14.8696 21.3377 14.3377 21.0148 13.9169C20.8674 13.7248 20.6602 13.5633 20.3387 13.3613C19.8662 13.0644 19.5621 12.5585 19.5621 12.0004C19.5621 11.4423 19.8662 10.9366 20.3387 10.6397C20.6603 10.4376 20.8675 10.2761 21.0149 10.084C21.3378 9.66322 21.4803 9.13136 21.4111 8.60546C21.3592 8.21104 21.1262 7.80752 20.6602 7.00049C20.1943 6.19345 19.9613 5.78994 19.6457 5.54776C19.2249 5.22485 18.693 5.08234 18.1671 5.15157C17.9271 5.18318 17.6837 5.28185 17.3479 5.45929C16.8545 5.72008 16.2644 5.73051 15.7811 5.45145C15.2977 5.17239 15.0117 4.65615 14.9909 4.09843C14.9767 3.71897 14.9404 3.45882 14.8477 3.23512C14.6448 2.74507 14.2554 2.35572 13.7654 2.15273Z" stroke="#1C274C" stroke-width="1.5"/>
</svg>
