<svg width="24" height="24" viewBox="0 0 24 24" fill="none" xmlns="http://www.w3.org/2000/svg">
<path d="M7.84308 3.8026C9.8718 2.60119 10.8862 2.00049 12 2.00049C13.1138 2.00049 14.1282 2.60119 16.1569 3.8026L16.8431 4.20895C18.8718 5.41035 19.8862 6.01106 20.4431 7.00049C21 7.98992 21 9.19133 21 11.5941V12.4068C21 14.8096 21 16.0111 20.4431 17.0005C19.8862 17.9899 18.8718 18.5906 16.8431 19.792L16.1569 20.1984C14.1282 21.3998 13.1138 22.0005 12 22.0005C10.8862 22.0005 9.8718 21.3998 7.84308 20.1984L7.15692 19.792C5.1282 18.5906 4.11384 17.9899 3.55692 17.0005C3 16.0111 3 14.8096 3 12.4068V11.5941C3 9.19133 3 7.98992 3.55692 7.00049C4.11384 6.01106 5.1282 5.41035 7.15692 4.20895L7.84308 3.8026Z" stroke="#1C274C" stroke-width="1.5"/>
<circle cx="12" cy="12.0005" r="3" stroke="#1C274C" stroke-width="1.5"/>
</svg>
