<svg width="24" height="24" viewBox="0 0 24 24" fill="none" xmlns="http://www.w3.org/2000/svg">
<path d="M3 10.4171C3 7.21956 3 5.62077 3.37752 5.0829C3.75503 4.54503 5.25832 4.03045 8.26491 3.00128L8.83772 2.80521C10.405 2.26873 11.1886 2.00049 12 2.00049C12.8114 2.00049 13.595 2.26873 15.1623 2.80521L15.7351 3.00128C18.7417 4.03045 20.245 4.54503 20.6225 5.0829C21 5.62077 21 7.21956 21 10.4171C21 10.9001 21 11.4239 21 11.9918C21 17.6299 16.761 20.366 14.1014 21.5278C13.38 21.8429 13.0193 22.0005 12 22.0005C10.9807 22.0005 10.62 21.8429 9.89856 21.5278C7.23896 20.366 3 17.6299 3 11.9918C3 11.4239 3 10.9001 3 10.4171Z" stroke="#1C274C" stroke-width="1.5"/>
<path d="M14.5 9.50049L9.50002 14.5005M9.5 9.50047L14.5 14.5004" stroke="#1C274C" stroke-width="1.5" stroke-linecap="round"/>
</svg>
