<svg width="24" height="24" viewBox="0 0 24 24" fill="none" xmlns="http://www.w3.org/2000/svg">
<path d="M3 10.4171C3 7.21956 3 5.62077 3.37752 5.0829C3.75503 4.54503 5.25832 4.03045 8.26491 3.00128L8.83772 2.8052C10.405 2.26873 11.1886 2.00049 12 2.00049C12.8114 2.00049 13.595 2.26873 15.1623 2.80521L15.7351 3.00128C18.7417 4.03045 20.245 4.54503 20.6225 5.0829C21 5.62077 21 7.21956 21 10.4171C21 10.9001 21 11.4239 21 11.9918C21 17.6299 16.761 20.366 14.1014 21.5278C13.38 21.8429 13.0193 22.0005 12 22.0005C10.9807 22.0005 10.62 21.8429 9.89856 21.5278C7.23896 20.366 3 17.6299 3 11.9918C3 11.4239 3 10.9001 3 10.4171Z" stroke="#000000" stroke-width="1.5"/>
<path d="M17 12.0005C17 12.6571 16.8707 13.3073 16.6194 13.9139C16.3681 14.5205 15.9998 15.0717 15.5355 15.536C15.0712 16.0003 14.52 16.3686 13.9134 16.6199C13.3068 16.8712 12.6566 17.0005 12 17.0005C11.3434 17.0005 10.6932 16.8712 10.0866 16.6199C9.47995 16.3686 8.92876 16.0003 8.46447 15.536C8.00017 15.0717 7.63188 14.5205 7.3806 13.9139C7.12933 13.3073 7 12.6571 7 12.0005C7 11.3439 7.12933 10.6937 7.3806 10.0871C7.63188 9.48044 8.00017 8.92925 8.46447 8.46495C8.92876 8.00066 9.47996 7.63236 10.0866 7.38109C10.6932 7.12982 11.3434 7.00049 12 7.00049C12.6566 7.00049 13.3068 7.12982 13.9134 7.38109C14.52 7.63236 15.0712 8.00066 15.5355 8.46495C15.9998 8.92925 16.3681 9.48044 16.6194 10.0871C16.8707 10.6937 17 11.3439 17 12.0005L17 12.0005Z" stroke="#000000" stroke-width="1.5"/>
<path d="M13.8478 13.9139C13.9483 13.3073 14 12.6571 14 12.0005C14 11.3439 13.9483 10.6937 13.8478 10.0871C13.7472 9.48044 13.5999 8.92925 13.4142 8.46495C13.2285 8.00066 13.008 7.63236 12.7654 7.38109C12.5227 7.12982 12.2626 7.00049 12 7.00049C11.7374 7.00049 11.4773 7.12982 11.2346 7.38109C10.992 7.63236 10.7715 8.00066 10.5858 8.46495C10.4001 8.92925 10.2528 9.48044 10.1522 10.0871C10.0517 10.6937 10 11.3439 10 12.0005C10 12.6571 10.0517 13.3073 10.1522 13.9139C10.2527 14.5205 10.4001 15.0717 10.5858 15.536C10.7715 16.0003 10.992 16.3686 11.2346 16.6199C11.4773 16.8712 11.7374 17.0005 12 17.0005C12.2626 17.0005 12.5227 16.8712 12.7654 16.6199C13.008 16.3686 13.2285 16.0003 13.4142 15.536C13.5999 15.0717 13.7472 14.5205 13.8478 13.9139Z" stroke="#000000" stroke-width="1.5"/>
<path d="M7 12.0005H17" stroke="#000000" stroke-width="1.5" stroke-linecap="round"/>
</svg>
