<svg width="24" height="24" viewBox="0 0 24 24" fill="none" xmlns="http://www.w3.org/2000/svg">
<path d="M3 10.4171C3 7.21956 3 5.62077 3.37752 5.0829C3.75503 4.54503 5.25832 4.03045 8.26491 3.00128L8.83772 2.80521C10.405 2.26873 11.1886 2.00049 12 2.00049C12.8114 2.00049 13.595 2.26873 15.1623 2.80521L15.7351 3.00128C18.7417 4.03045 20.245 4.54503 20.6225 5.0829C21 5.62077 21 7.21956 21 10.4171C21 10.9001 21 11.4239 21 11.9918C21 17.6299 16.761 20.366 14.1014 21.5278C13.38 21.8429 13.0193 22.0005 12 22.0005C10.9807 22.0005 10.62 21.8429 9.89856 21.5278C7.23896 20.366 3 17.6299 3 11.9918C3 11.4239 3 10.9001 3 10.4171Z" stroke="#1C274C" stroke-width="1.5"/>
<path d="M10.8613 8.36384C11.3679 7.45494 11.6213 7.00049 12 7.00049C12.3787 7.00049 12.6321 7.45494 13.1387 8.36384L13.2698 8.59898C13.4138 8.85726 13.4858 8.9864 13.598 9.07161C13.7103 9.15682 13.8501 9.18845 14.1296 9.25171L14.3842 9.3093C15.3681 9.53191 15.86 9.64322 15.977 10.0196C16.0941 10.3959 15.7587 10.7881 15.088 11.5725L14.9144 11.7754C14.7238 11.9983 14.6285 12.1097 14.5857 12.2476C14.5428 12.3854 14.5572 12.5341 14.586 12.8315L14.6122 13.1022C14.7136 14.1487 14.7644 14.672 14.4579 14.9046C14.1515 15.1372 13.6909 14.9251 12.7697 14.501L12.5314 14.3912C12.2696 14.2707 12.1387 14.2104 12 14.2104C11.8613 14.2104 11.7304 14.2707 11.4686 14.3912L11.2303 14.501C10.3091 14.9251 9.84847 15.1372 9.54206 14.9046C9.23565 14.672 9.28635 14.1487 9.38776 13.1022L9.41399 12.8315C9.44281 12.5341 9.45722 12.3854 9.41435 12.2476C9.37147 12.1097 9.27617 11.9983 9.08557 11.7754L8.91204 11.5725C8.2413 10.7881 7.90593 10.3959 8.02297 10.0196C8.14001 9.64322 8.63194 9.53191 9.61581 9.3093L9.87035 9.25171C10.1499 9.18845 10.2897 9.15682 10.402 9.07161C10.5142 8.9864 10.5862 8.85726 10.7302 8.59898L10.8613 8.36384Z" stroke="#1C274C" stroke-width="1.5"/>
</svg>
