<svg width="24" height="24" viewBox="0 0 24 24" fill="none" xmlns="http://www.w3.org/2000/svg">
<path d="M14 20.0005C14 21.1051 13.1046 22.0005 12 22.0005C10.8954 22.0005 10 21.1051 10 20.0005C10 18.8959 10.8954 18.0005 12 18.0005C13.1046 18.0005 14 18.8959 14 20.0005Z" stroke="#000000" stroke-width="1.5"/>
<path d="M6 4.00049C6 3.05768 6 2.58627 6.29289 2.29338C6.58579 2.00049 7.05719 2.00049 8 2.00049H16C16.9428 2.00049 17.4142 2.00049 17.7071 2.29338C18 2.58627 18 3.05768 18 4.00049C18 4.9433 18 5.4147 17.7071 5.7076C17.4142 6.00049 16.9428 6.00049 16 6.00049H8C7.05719 6.00049 6.58579 6.00049 6.29289 5.7076C6 5.4147 6 4.9433 6 4.00049Z" stroke="#000000" stroke-width="1.5"/>
<path d="M8.5 16.5005C8.5 15.6721 9.17157 15.0005 10 15.0005H14C14.8284 15.0005 15.5 15.6721 15.5 16.5005C15.5 17.3289 14.8284 18.0005 14 18.0005H10C9.17157 18.0005 8.5 17.3289 8.5 16.5005Z" stroke="#000000" stroke-width="1.5"/>
<path d="M14 15.5005V5.50049" stroke="#000000" stroke-width="1.5"/>
<path d="M10 15.5005V6.00049" stroke="#000000" stroke-width="1.5"/>
<path d="M8 8.00049L16 10.0005M8 11.5005L16 13.5005" stroke="#000000" stroke-width="1.5" stroke-linecap="round"/>
<path d="M20 11.5L22 11.5M4 11.501H2M19.0713 14.3005L19.7784 15.0005M4.92871 14.3005L4.2216 15.0005M19.0713 8.70045L19.7784 8.00049M4.92871 8.70045L4.2216 8.00049" stroke="#000000" stroke-width="1.5" stroke-linecap="round"/>
</svg>
