<svg width="24" height="24" viewBox="0 0 24 24" fill="none" xmlns="http://www.w3.org/2000/svg">
<path d="M21 22.0005H3" stroke="#1C274C" stroke-width="1.5" stroke-linecap="round"/>
<path d="M19 22.0005V15.0005" stroke="#1C274C" stroke-width="1.5" stroke-linecap="round"/>
<path d="M5 22.0005V15.0005" stroke="#1C274C" stroke-width="1.5" stroke-linecap="round"/>
<path d="M16.5278 2.00049H7.47214C6.26932 2.00049 5.66791 2.00049 5.18461 2.29919C4.7013 2.59788 4.43234 3.1358 3.89443 4.21163L2.49081 7.75978C2.16652 8.57954 1.88279 9.54574 2.42867 10.238C2.79489 10.7024 3.36257 11.0005 3.99991 11.0005C5.10448 11.0005 5.99991 10.1051 5.99991 9.00049C5.99991 10.1051 6.89534 11.0005 7.99991 11.0005C9.10448 11.0005 9.99991 10.1051 9.99991 9.00049C9.99991 10.1051 10.8953 11.0005 11.9999 11.0005C13.1045 11.0005 13.9999 10.1051 13.9999 9.00049C13.9999 10.1051 14.8953 11.0005 15.9999 11.0005C17.1045 11.0005 17.9999 10.1051 17.9999 9.00049C17.9999 10.1051 18.8953 11.0005 19.9999 11.0005C20.6373 11.0005 21.205 10.7024 21.5712 10.238C22.1171 9.54574 21.8334 8.57954 21.5091 7.75978L20.1055 4.21163C19.5676 3.1358 19.2986 2.59789 18.8153 2.29919C18.332 2.00049 17.7306 2.00049 16.5278 2.00049Z" stroke="#1C274C" stroke-width="1.5" stroke-linejoin="round"/>
</svg>
