<svg width="24" height="24" viewBox="0 0 24 24" fill="none" xmlns="http://www.w3.org/2000/svg">
<path d="M3.5 11.0005V14.0005C3.5 17.7717 3.5 19.6573 4.67157 20.8289C5.84315 22.0005 7.72876 22.0005 11.5 22.0005H12.5C16.2712 22.0005 18.1569 22.0005 19.3284 20.8289C20.5 19.6573 20.5 17.7717 20.5 14.0005V11.0005" stroke="#1C274C" stroke-width="1.5"/>
<path d="M9.50004 2.00049H14.5L15.1518 8.51786C15.3382 10.3825 13.874 12.0005 12 12.0005C10.1261 12.0005 8.66184 10.3825 8.8483 8.51786L9.50004 2.00049Z" stroke="#1C274C" stroke-width="1.5"/>
<path d="M3.32975 5.35181C3.50783 4.46142 3.59687 4.01622 3.77791 3.65533C4.15938 2.89488 4.84579 2.33216 5.66628 2.10724C6.05567 2.00049 6.50969 2.00049 7.41771 2.00049H9.50002L8.77549 9.24576C8.61911 10.8096 7.30318 12.0005 5.73155 12.0005C3.8011 12.0005 2.35324 10.2344 2.73183 8.34142L3.32975 5.35181Z" stroke="#1C274C" stroke-width="1.5"/>
<path d="M20.6703 5.35181C20.4922 4.46142 20.4031 4.01622 20.2221 3.65533C19.8406 2.89488 19.1542 2.33216 18.3337 2.10724C17.9443 2.00049 17.4903 2.00049 16.5823 2.00049H14.5L15.2245 9.24576C15.3809 10.8096 16.6968 12.0005 18.2685 12.0005C20.1989 12.0005 21.6468 10.2344 21.2682 8.34142L20.6703 5.35181Z" stroke="#1C274C" stroke-width="1.5"/>
<path d="M9.5 21.5005V18.5005C9.5 17.5659 9.5 17.0986 9.70096 16.7505C9.83261 16.5225 10.022 16.3331 10.25 16.2015C10.5981 16.0005 11.0654 16.0005 12 16.0005C12.9346 16.0005 13.4019 16.0005 13.75 16.2015C13.978 16.3331 14.1674 16.5225 14.299 16.7505C14.5 17.0986 14.5 17.5659 14.5 18.5005V21.5005" stroke="#1C274C" stroke-width="1.5" stroke-linecap="round"/>
</svg>
