<svg width="24" height="24" viewBox="0 0 24 24" fill="none" xmlns="http://www.w3.org/2000/svg">
<path d="M12.75 2.00024C12.75 1.58603 12.4142 1.25024 12 1.25024C11.5858 1.25024 11.25 1.58603 11.25 2.00024H12.75ZM11.25 2.00024V3.00024H12.75V2.00024H11.25Z" fill="#000000"/>
<path d="M12.75 11.0002C12.75 10.586 12.4142 10.2502 12 10.2502C11.5858 10.2502 11.25 10.586 11.25 11.0002H12.75ZM11.25 11.0002V12.0002H12.75V11.0002H11.25Z" fill="#000000"/>
<path d="M12.75 20.0002C12.75 19.586 12.4142 19.2502 12 19.2502C11.5858 19.2502 11.25 19.586 11.25 20.0002H12.75ZM11.25 20.0002V22.0002H12.75V20.0002H11.25Z" fill="#000000"/>
<path d="M8.70399 3.50024H15.5C16.9045 3.50024 17.6067 3.50024 18.1111 3.8373C18.3295 3.98322 18.517 4.17072 18.6629 4.3891C19 4.89355 19 5.59578 19 7.00024C19 8.40471 19 9.10694 18.6629 9.61138C18.517 9.82976 18.3295 10.0173 18.1111 10.1632C17.6067 10.5002 16.9045 10.5002 15.5 10.5002H8.70399C8.04642 10.5002 7.71764 10.5002 7.41593 10.402C7.28282 10.3587 7.15463 10.3015 7.03346 10.2314C6.75882 10.0726 6.53915 9.82794 6.09981 9.33868C5.24911 8.39131 4.82376 7.91762 4.72136 7.36405C4.67687 7.12355 4.67687 6.87694 4.72136 6.63644C4.82376 6.08287 5.24911 5.60918 6.09981 4.66181C6.53915 4.17255 6.75882 3.92792 7.03346 3.76904C7.15463 3.69895 7.28282 3.64177 7.41593 3.59844C7.71764 3.50024 8.04642 3.50024 8.70399 3.50024Z" stroke="#000000" stroke-width="1.5"/>
<path d="M15.296 12.5002H8.5C7.09554 12.5002 6.39331 12.5002 5.88886 12.8373C5.67048 12.9832 5.48298 13.1707 5.33706 13.3891C5 13.8936 5 14.5958 5 16.0002C5 17.4047 5 18.1069 5.33706 18.6114C5.48298 18.8298 5.67048 19.0173 5.88886 19.1632C6.39331 19.5002 7.09554 19.5002 8.5 19.5002H15.296C15.9536 19.5002 16.2824 19.5002 16.5841 19.402C16.7172 19.3587 16.8454 19.3015 16.9665 19.2314C17.2412 19.0726 17.4608 18.8279 17.9002 18.3387C18.7509 17.3913 19.1762 16.9176 19.2786 16.364C19.3231 16.1236 19.3231 15.8769 19.2786 15.6364C19.1762 15.0829 18.7509 14.6092 17.9002 13.6618C17.4608 13.1725 17.2412 12.9279 16.9665 12.769C16.8454 12.6989 16.7172 12.6418 16.5841 12.5984C16.2824 12.5002 15.9536 12.5002 15.296 12.5002Z" stroke="#000000" stroke-width="1.5"/>
<path d="M14 22.0002H10" stroke="#000000" stroke-width="1.5" stroke-linecap="round"/>
</svg>
