<svg width="24" height="24" viewBox="0 0 24 24" fill="none" xmlns="http://www.w3.org/2000/svg">
<path d="M20 22.0005V16.0005C20 13.2002 20 11.8001 19.455 10.7305C18.9757 9.78973 18.2108 9.02482 17.27 8.54546C16.2004 8.00049 14.8003 8.00049 12 8.00049C9.19974 8.00049 7.79961 8.00049 6.73005 8.54546C5.78924 9.02482 5.02433 9.78973 4.54497 10.7305C4 11.8001 4 13.2002 4 16.0005V22.0005" stroke="#000000" stroke-width="1.5"/>
<path d="M15 10.8154C16.2299 10.8154 17.2299 11.7705 17.185 13.0005" stroke="#000000" stroke-width="1.5" stroke-linecap="round"/>
<path d="M2 22.0005H22" stroke="#000000" stroke-width="1.5" stroke-linecap="round"/>
<path d="M12 2.00049V5.00049" stroke="#000000" stroke-width="1.5" stroke-linecap="round"/>
<path d="M21 5.00049L19.5 6.50049" stroke="#000000" stroke-width="1.5" stroke-linecap="round"/>
<path d="M3 5.00049L4.5 6.50049" stroke="#000000" stroke-width="1.5" stroke-linecap="round"/>
<path d="M13.5 17.5005C13.5 18.3289 12.8284 19.0005 12 19.0005C11.1716 19.0005 10.5 18.3289 10.5 17.5005C10.5 16.6721 11.1716 16.0005 12 16.0005C12.8284 16.0005 13.5 16.6721 13.5 17.5005Z" stroke="#000000" stroke-width="1.5"/>
<path d="M12 19.0005V22.0005" stroke="#000000" stroke-width="1.5" stroke-linecap="round"/>
</svg>
