<svg width="24" height="24" viewBox="0 0 24 24" fill="none" xmlns="http://www.w3.org/2000/svg">
<path d="M20 22.0005V16.0005C20 11.5822 16.4183 8.00049 12 8.00049C7.58172 8.00049 4 11.5822 4 16.0005V22.0005" stroke="#1C274C" stroke-width="1.5"/>
<path d="M14.2905 11.5005C15.2932 11.9064 16.0939 12.707 16.4998 13.7097" stroke="#1C274C" stroke-width="1.5" stroke-linecap="round"/>
<path d="M2 22.0005H22" stroke="#1C274C" stroke-width="1.5" stroke-linecap="round"/>
<path d="M12 2.00049V5.00049" stroke="#1C274C" stroke-width="1.5" stroke-linecap="round"/>
<path d="M21 6.00049L19.5 7.50049" stroke="#1C274C" stroke-width="1.5" stroke-linecap="round"/>
<path d="M3 6.00049L4.5 7.50049" stroke="#1C274C" stroke-width="1.5" stroke-linecap="round"/>
<path d="M13.5 17.5005C13.5 18.3289 12.8284 19.0005 12 19.0005C11.1716 19.0005 10.5 18.3289 10.5 17.5005C10.5 16.6721 11.1716 16.0005 12 16.0005C12.8284 16.0005 13.5 16.6721 13.5 17.5005Z" stroke="#1C274C" stroke-width="1.5"/>
<path d="M12 19.0005V22.0005" stroke="#1C274C" stroke-width="1.5" stroke-linecap="round"/>
</svg>
