<svg width="24" height="24" viewBox="0 0 24 24" fill="none" xmlns="http://www.w3.org/2000/svg">
<path d="M3 17.0005L3.60827 17.6763C4.36684 18.5192 5.4475 19.0005 6.58145 19.0005H17.4186C18.5525 19.0005 19.6332 18.5192 20.3917 17.6763L21 17.0005" stroke="#1C274C" stroke-width="1.5" stroke-linecap="round"/>
<circle cx="7" cy="21.0005" r="1" fill="#1C274C"/>
<circle cx="17" cy="21.0005" r="1" fill="#1C274C"/>
<circle cx="19" cy="4.00049" r="2" stroke="#1C274C" stroke-width="1.5"/>
<path d="M15 16.5005V14.3669C15 13.8179 14.7561 13.2972 14.3344 12.9457L13.3379 12.1154C12.6195 11.5167 12.5702 10.4303 13.2315 9.76896L14.8855 8.11498C15.4193 7.58115 15.2452 6.67695 14.5513 6.37956C13.2663 5.82885 11.793 5.9423 10.6075 6.68325L8.5 8.00045" stroke="#1C274C" stroke-width="1.5" stroke-linecap="round"/>
<path d="M11 14.0005L10.3787 14.6218C9.94513 15.0554 9.72836 15.2721 9.4527 15.3863C9.17705 15.5005 8.87049 15.5005 8.25736 15.5005H7" stroke="#1C274C" stroke-width="1.5" stroke-linecap="round"/>
<path d="M16.5 10.0005H19.5" stroke="#1C274C" stroke-width="1.5" stroke-linecap="round"/>
</svg>
