<svg width="24" height="24" viewBox="0 0 24 24" fill="none" xmlns="http://www.w3.org/2000/svg">
<path d="M2 8.00012C2 5.17169 2 3.75748 2.87868 2.8788C3.75736 2.00012 5.17157 2.00012 8 2.00012H9C11.8284 2.00012 13.2426 2.00012 14.1213 2.8788C15 3.75748 15 5.17169 15 8.00012V16.0001C15 18.8285 15 20.2428 14.1213 21.1214C13.2426 22.0001 11.8284 22.0001 9 22.0001H8C5.17157 22.0001 3.75736 22.0001 2.87868 21.1214C2 20.2428 2 18.8285 2 16.0001V8.00012Z" stroke="#000000" stroke-width="1.5"/>
<path d="M17.5 10.0066C19.3597 10.0335 20.414 10.1714 21.1213 10.8788C22 11.7574 22 13.1717 22 16.0001C22 18.8285 22 20.2427 21.1213 21.1214C20.414 21.8287 19.3597 21.9667 17.5 21.9936" stroke="#000000" stroke-width="1.5" stroke-linecap="round"/>
<path d="M11 5.00012H6" stroke="#000000" stroke-width="1.5" stroke-linecap="round"/>
<path d="M19 18.0001V14.0001" stroke="#000000" stroke-width="1.5" stroke-linecap="round"/>
<path d="M10 17.5001C10 18.3285 9.32843 19.0001 8.5 19.0001C7.67157 19.0001 7 18.3285 7 17.5001C7 16.6717 7.67157 16.0001 8.5 16.0001C9.32843 16.0001 10 16.6717 10 17.5001Z" stroke="#000000" stroke-width="1.5"/>
<path d="M20.5 6.9861L22 8.00012C22 4.98544 19.8377 2.48287 17 2.00012" stroke="#000000" stroke-width="1.5" stroke-linecap="round" stroke-linejoin="round"/>
</svg>
