<svg width="24" height="24" viewBox="0 0 24 24" fill="none" xmlns="http://www.w3.org/2000/svg">
<g clip-path="url(#clip0_1_21961)">
<path d="M13 2.0011C16.1143 2.01021 17.7653 2.10865 18.8284 3.17174C20 4.34331 20 6.22893 20 10.0002V14.0002C20 17.7714 20 19.657 18.8284 20.8286C17.6569 22.0002 15.7712 22.0002 12 22.0002C8.22876 22.0002 6.34315 22.0002 5.17157 20.8286C4 19.657 4 17.7714 4 14.0002V11.0011" stroke="#000000" stroke-width="1.5" stroke-linecap="round"/>
<path d="M2.73016 4.00012H1.98016H2.73016ZM2.73016 4.80012L2.17621 5.30572C2.31831 5.46142 2.51937 5.55012 2.73016 5.55012C2.94096 5.55012 3.14202 5.46142 3.28412 5.30572L2.73016 4.80012ZM4.01428 4.50572C4.29352 4.19978 4.27187 3.7254 3.96593 3.44616C3.65998 3.16693 3.1856 3.18858 2.90637 3.49452L4.01428 4.50572ZM2.55396 3.49452C2.27472 3.18858 1.80034 3.16693 1.4944 3.44616C1.18846 3.7254 1.16681 4.19978 1.44604 4.50572L2.55396 3.49452ZM10.2698 3.20012L10.8238 2.69452C10.6817 2.53883 10.4806 2.45012 10.2698 2.45012C10.059 2.45012 9.85798 2.53883 9.71588 2.69452L10.2698 3.20012ZM8.98572 3.49452C8.70648 3.80046 8.72813 4.27485 9.03407 4.55408C9.34002 4.83331 9.8144 4.81166 10.0936 4.50572L8.98572 3.49452ZM10.446 4.50572C10.7253 4.81166 11.1997 4.83331 11.5056 4.55408C11.8115 4.27484 11.8332 3.80046 11.554 3.49452L10.446 4.50572ZM4.57638 6.3063C4.29935 5.99836 3.82514 5.97329 3.51719 6.25032C3.20925 6.52735 3.18419 7.00156 3.46122 7.3095L4.57638 6.3063ZM8.53968 1.83059C8.79878 2.15377 9.27081 2.20571 9.59398 1.94661C9.91715 1.68751 9.9691 1.21549 9.71 0.892316L8.53968 1.83059ZM6.38098 -0.749878C3.88747 -0.749878 1.98016 1.44272 1.98016 4.00012H3.48016C3.48016 2.13925 4.84191 0.750122 6.38098 0.750122V-0.749878ZM1.98016 4.00012L1.98016 4.80012H3.48016L3.48016 4.00012L1.98016 4.00012ZM3.28412 5.30572L4.01428 4.50572L2.90637 3.49452L2.17621 4.29452L3.28412 5.30572ZM3.28412 4.29452L2.55396 3.49452L1.44604 4.50572L2.17621 5.30572L3.28412 4.29452ZM6.61902 8.75012C9.11253 8.75012 11.0198 6.55753 11.0198 4.00012H9.51984C9.51984 5.861 8.15809 7.25012 6.61902 7.25012V8.75012ZM11.0198 4.00012V3.20012H9.51984V4.00012H11.0198ZM9.71588 2.69452L8.98572 3.49452L10.0936 4.50572L10.8238 3.70572L9.71588 2.69452ZM9.71588 3.70572L10.446 4.50572L11.554 3.49452L10.8238 2.69452L9.71588 3.70572ZM3.46122 7.3095C4.25148 8.18797 5.3685 8.75012 6.61902 8.75012V7.25012C5.83415 7.25012 5.11029 6.8998 4.57638 6.3063L3.46122 7.3095ZM9.71 0.892316C8.9139 -0.100668 7.72551 -0.749878 6.38098 -0.749878V0.750122C7.22351 0.750122 7.99759 1.15444 8.53968 1.83059L9.71 0.892316Z" fill="#000000"/>
<path d="M15 19.0001H9" stroke="#000000" stroke-width="1.5" stroke-linecap="round"/>
</g>
<defs>
<clipPath id="clip0_1_21961">
<rect width="24" height="24" fill="white"/>
</clipPath>
</defs>
</svg>
