<svg width="24" height="24" viewBox="0 0 24 24" fill="none" xmlns="http://www.w3.org/2000/svg">
<path d="M15 5.00012H9" stroke="#000000" stroke-width="1.5" stroke-linecap="round"/>
<path d="M21.4263 14.4123C21.1016 14.155 20.6299 14.2097 20.3727 14.5344C20.1155 14.859 20.1701 15.3307 20.4948 15.588L21.4263 14.4123ZM3.50523 15.588C3.82989 15.3307 3.88455 14.859 3.62731 14.5344C3.37008 14.2097 2.89836 14.155 2.5737 14.4123L3.50523 15.588ZM12 20.6876L12.4939 21.2521C12.6566 21.1096 12.75 20.9039 12.75 20.6876C12.75 20.4714 12.6566 20.2656 12.4939 20.1232L12 20.6876ZM10.5 19.3751L10.9939 18.8107C10.7724 18.6169 10.4581 18.5705 10.1901 18.6921C9.9221 18.8137 9.75 19.0808 9.75 19.3751H10.5ZM10.5 22.0001H9.75C9.75 22.2944 9.9221 22.5615 10.1901 22.6831C10.4581 22.8047 10.7724 22.7583 10.9939 22.5646L10.5 22.0001ZM14.4244 19.8174C14.0123 19.8592 13.7121 20.2271 13.7538 20.6392C13.7956 21.0513 14.1635 21.3515 14.5756 21.3098L14.4244 19.8174ZM20.4948 15.588C21.0684 16.0425 21.25 16.4431 21.25 16.7501H22.75C22.75 15.7999 22.1833 15.0121 21.4263 14.4123L20.4948 15.588ZM2.75 16.7501C2.75 16.4431 2.93157 16.0425 3.50523 15.588L2.5737 14.4123C1.81667 15.0121 1.25 15.7999 1.25 16.7501H2.75ZM12.4939 20.1232L10.9939 18.8107L10.0061 19.9396L11.5061 21.2521L12.4939 20.1232ZM10.9939 22.5646L12.4939 21.2521L11.5061 20.1232L10.0061 21.4357L10.9939 22.5646ZM21.25 16.7501C21.25 17.2068 20.8246 17.8624 19.5314 18.5104C18.3014 19.1268 16.522 19.6048 14.4244 19.8174L14.5756 21.3098C16.791 21.0852 18.7617 20.5739 20.2034 19.8515C21.5819 19.1607 22.75 18.1282 22.75 16.7501H21.25ZM9.75 19.3751V20.6436H11.25V19.3751H9.75ZM9.75 20.6436V22.0001H11.25V20.6436H9.75ZM10.5443 19.8949C8.20148 19.7562 6.17254 19.2898 4.75556 18.6472C4.04582 18.3253 3.52438 17.9748 3.19064 17.6297C2.86028 17.2882 2.75 16.9931 2.75 16.7501H1.25C1.25 17.4941 1.60081 18.1436 2.11244 18.6726C2.62069 19.198 3.32214 19.6441 4.13599 20.0132C5.76619 20.7526 7.98726 21.2461 10.4557 21.3923L10.5443 19.8949Z" fill="#000000"/>
<path d="M5.50174 17.0001C5.5 16.6879 5.5 16.3552 5.5 16.0001V8.00012C5.5 5.17169 5.5 3.75748 6.37868 2.8788C7.25736 2.00012 8.67157 2.00012 11.5 2.00012H12.5C15.3284 2.00012 16.7426 2.00012 17.6213 2.8788C18.5 3.75748 18.5 5.17169 18.5 8.00012V16.0001C18.5 16.3552 18.5 16.6879 18.4983 17.0001" stroke="#000000" stroke-width="1.5" stroke-linecap="round"/>
</svg>
