<svg width="24" height="24" viewBox="0 0 24 24" fill="none" xmlns="http://www.w3.org/2000/svg">
<path d="M5 8.00012C5 5.1717 5 3.75748 5.87868 2.8788C6.75736 2.00012 8.17157 2.00012 11 2.00012H13C15.8284 2.00012 17.2426 2.00012 18.1213 2.8788C19 3.75748 19 5.17169 19 8.00012V16.0001C19 18.8285 19 20.2428 18.1213 21.1214C17.2426 22.0001 15.8284 22.0001 13 22.0001H11C8.17157 22.0001 6.75736 22.0001 5.87868 21.1214C5 20.2428 5 18.8285 5 16.0001V8.00012Z" stroke="#1C274C" stroke-width="1.5"/>
<path d="M14.5 19.0001H9.5" stroke="#1C274C" stroke-width="1.5" stroke-linecap="round"/>
<path d="M22 6.00012L21.2236 7.55291C21.0829 7.83444 21.0829 8.16581 21.2236 8.44734L21.7764 9.55291C21.9172 9.83444 21.9172 10.1658 21.7764 10.4473L21.2236 11.5529C21.0829 11.8344 21.0829 12.1658 21.2236 12.4473L21.7764 13.5529C21.9172 13.8344 21.9172 14.1658 21.7764 14.4473L21.2236 15.5529C21.0829 15.8344 21.0829 16.1658 21.2236 16.4473L22 18.0001" stroke="#1C274C" stroke-width="1.5" stroke-linecap="round" stroke-linejoin="round"/>
<path d="M2 6.00012L2.77639 7.55291C2.91716 7.83444 2.91716 8.16581 2.77639 8.44734L2.22361 9.55291C2.08284 9.83444 2.08284 10.1658 2.22361 10.4473L2.77639 11.5529C2.91716 11.8344 2.91716 12.1658 2.77639 12.4473L2.22361 13.5529C2.08284 13.8344 2.08284 14.1658 2.22361 14.4473L2.77639 15.5529C2.91716 15.8344 2.91716 16.1658 2.77639 16.4473L2 18.0001" stroke="#1C274C" stroke-width="1.5" stroke-linecap="round" stroke-linejoin="round"/>
</svg>
