<svg width="24" height="24" viewBox="0 0 24 24" fill="none" xmlns="http://www.w3.org/2000/svg">
<path d="M22 12.0001C22 17.523 17.5228 22.0001 12 22.0001C6.47715 22.0001 2 17.523 2 12.0001C2 6.47727 6.47715 2.00012 12 2.00012C17.5228 2.00012 22 6.47727 22 12.0001Z" stroke="#000000" stroke-width="1.5"/>
<path d="M15 9.00012C15 10.657 13.6569 12.0001 12 12.0001C10.3431 12.0001 9 10.657 9 9.00012C9 7.34327 10.3431 6.00012 12 6.00012C13.6569 6.00012 15 7.34327 15 9.00012Z" stroke="#000000" stroke-width="1.5"/>
<path d="M12 18.0001V16.0001" stroke="#000000" stroke-width="1.5" stroke-linecap="round"/>
<path d="M2 22.0001L4.5 19.5001" stroke="#000000" stroke-width="1.5" stroke-linecap="round"/>
<path d="M22 22.0001L19.5 19.5001" stroke="#000000" stroke-width="1.5" stroke-linecap="round"/>
</svg>
