<svg width="24" height="24" viewBox="0 0 24 24" fill="none" xmlns="http://www.w3.org/2000/svg">
<path d="M3.32102 6.6583C3.56225 4.55379 5.15124 2.85188 7.23935 2.46152L7.4544 2.42132C10.4585 1.85972 13.541 1.85972 16.5451 2.42132L16.8681 2.48169C18.8934 2.86032 20.4367 4.50777 20.6774 6.54822C21.0957 10.0926 21.1072 13.673 20.712 17.22L20.6948 17.374C20.4473 19.5952 18.7041 21.3571 16.48 21.6343L15.5738 21.7473C15.079 21.8089 14.8316 21.8398 14.5845 21.8656C12.866 22.045 11.1335 22.045 9.41505 21.8656C9.16792 21.8398 8.92051 21.8089 8.42569 21.7473L7.41019 21.6207C5.24868 21.3513 3.55266 19.6424 3.30532 17.4845C2.89823 13.933 2.89823 10.3468 3.30532 6.79528L3.32102 6.6583Z" stroke="#000000" stroke-width="1.5"/>
<path d="M17 6.00012C16.2804 6.60275 14.49 7.50012 12 7.50012C9.51 7.50012 7.71957 6.60275 7 6.00012" stroke="#000000" stroke-width="1.5" stroke-linecap="round"/>
</svg>
