<svg width="24" height="24" viewBox="0 0 24 24" fill="none" xmlns="http://www.w3.org/2000/svg">
<path d="M18.8825 14.4406L19.6314 14.3981L19.6304 14.3851L18.8825 14.4406ZM5.15426 14.3511L4.40718 14.285L4.40653 14.2923L4.40603 14.2997L5.15426 14.3511ZM7.02989 21.4132L6.64328 22.0558H6.64328L7.02989 21.4132ZM5.36308 19.555L4.68432 19.874H4.68432L5.36308 19.555ZM18.6162 19.5883L19.2922 19.913L18.6162 19.5883ZM16.9506 21.4219L17.3346 22.0661H17.3346L16.9506 21.4219ZM12.0156 21.2501C10.6647 21.2501 9.70304 21.2494 8.95547 21.18C8.21806 21.1115 7.76716 20.9814 7.41649 20.7705L6.64328 22.0558C7.26835 22.4318 7.97365 22.5953 8.81681 22.6735C9.64983 22.7509 10.6931 22.7501 12.0156 22.7501V21.2501ZM4.40603 14.2997C4.3117 15.6704 4.23703 16.7461 4.25191 17.6094C4.26694 18.4809 4.37259 19.2108 4.68432 19.874L6.04184 19.236C5.85905 18.8471 5.76506 18.359 5.75169 17.5836C5.73818 16.7999 5.80635 15.7997 5.90249 14.4026L4.40603 14.2997ZM7.41649 20.7705C6.8255 20.415 6.34551 19.882 6.04184 19.236L4.68432 19.874C5.11156 20.783 5.79211 21.5438 6.64328 22.0558L7.41649 20.7705ZM18.1337 14.483C18.212 15.8656 18.2674 16.8551 18.245 17.6301C18.2228 18.3968 18.1247 18.8794 17.9401 19.2636L19.2922 19.913C19.6068 19.258 19.7194 18.5362 19.7444 17.6736C19.7691 16.8193 19.7081 15.7545 19.6313 14.3981L18.1337 14.483ZM12.0156 22.7501C13.3231 22.7501 14.3549 22.7509 15.1795 22.6747C16.0144 22.5975 16.7133 22.4364 17.3346 22.0661L16.5666 20.7776C16.2178 20.9856 15.7708 21.1136 15.0415 21.181C14.3019 21.2494 13.3513 21.2501 12.0156 21.2501V22.7501ZM17.9401 19.2636C17.6336 19.9019 17.1544 20.4274 16.5666 20.7776L17.3346 22.0661C18.1812 21.5616 18.8609 20.8112 19.2922 19.913L17.9401 19.2636ZM17.3215 3.62294C17.3524 3.74288 17.3443 3.93447 17.1814 4.22224C17.0169 4.51295 16.7204 4.85052 16.2787 5.20388C15.3974 5.90889 14.0511 6.58622 12.447 7.03237L12.849 8.47752C14.6018 7.98999 16.1428 7.23353 17.2157 6.37521C17.7512 5.94689 18.1986 5.47041 18.4869 4.96099C18.7768 4.44863 18.9303 3.85403 18.7739 3.24802L17.3215 3.62294ZM12.447 7.03237C10.8425 7.47865 9.35258 7.59001 8.25441 7.43751C7.70388 7.36106 7.28986 7.22356 7.01353 7.06082C6.74234 6.9011 6.64753 6.74627 6.61731 6.62918L5.16492 7.00409C5.32209 7.61295 5.74597 8.0551 6.25231 8.35331C6.75351 8.6485 7.37587 8.8299 8.04809 8.92325C9.39543 9.11035 11.0966 8.96492 12.849 8.47752L12.447 7.03237ZM6.61731 6.62918C6.58635 6.50924 6.59452 6.31765 6.75736 6.02987C6.92187 5.73917 7.21833 5.40159 7.66005 5.04824C8.54137 4.34323 9.88766 3.6659 11.4917 3.21974L11.0898 1.7746C9.33695 2.26213 7.79602 3.01858 6.72304 3.87691C6.18761 4.30523 5.74016 4.78171 5.45189 5.29113C5.16196 5.80348 5.00848 6.39809 5.16492 7.00409L6.61731 6.62918ZM11.4917 3.21974C13.0963 2.77347 14.5862 2.66211 15.6844 2.81461C16.2349 2.89106 16.6489 3.02855 16.9252 3.1913C17.1964 3.35102 17.2912 3.50585 17.3215 3.62294L18.7739 3.24802C18.6167 2.63916 18.1928 2.19702 17.6865 1.89881C17.1853 1.60362 16.5629 1.42221 15.8907 1.32886C14.5433 1.14176 12.8422 1.2872 11.0898 1.7746L11.4917 3.21974ZM5.90134 14.4173L6.60912 6.42136L5.11496 6.2891L4.40718 14.285L5.90134 14.4173ZM17.337 3.74519L18.1345 14.4961L19.6304 14.3851L18.8329 3.63423L17.337 3.74519Z" fill="#000000"/>
<path d="M4.71466 13.8386C5.46405 14.5911 7.37435 15.7504 11.9996 15.7504V14.2504C7.60609 14.2504 6.1461 13.1502 5.77753 12.7801L4.71466 13.8386ZM11.9996 15.7504C16.7469 15.7504 18.634 14.5287 19.3401 13.7813L18.2497 12.7512C17.9277 13.0921 16.5084 14.2504 11.9996 14.2504V15.7504Z" fill="#000000"/>
</svg>
