<svg width="24" height="24" viewBox="0 0 24 24" fill="none" xmlns="http://www.w3.org/2000/svg">
<path d="M2.50716 14.6152C3.38437 15.3799 5.82534 17.2501 12 17.2501V15.7501C6.19299 15.7501 4.10087 14.0146 3.49284 13.4845L2.50716 14.6152ZM12 17.2501C15.1504 17.2501 17.325 16.7703 18.823 16.1839C20.3317 15.5932 21.1221 14.9065 21.5075 14.5524L20.4925 13.4479C20.195 13.7213 19.5596 14.2846 18.2762 14.7871C16.9821 15.2937 14.9981 15.7501 12 15.7501V17.2501Z" fill="#1C274C"/>
<path d="M15.5 16.0001C14.9178 14.2523 13.8467 13.5001 12 13.5001C10.1533 13.5001 9.08225 14.2523 8.5 16.0001" stroke="#1C274C" stroke-width="1.5"/>
<path d="M8 4.41159C7.67967 4.68701 7.5 5.0848 7.5 5.41159C7.5 6.56505 9.23858 7.41159 12 7.41159C14.7614 7.41159 16.5 6.56505 16.5 5.41159C16.5 5.0848 16.3203 4.77555 16 4.50012" stroke="#1C274C" stroke-width="1.5" stroke-linecap="round"/>
<path d="M3.32102 6.6583C3.56225 4.55379 5.15124 2.85188 7.23935 2.46152L7.4544 2.42132C10.4585 1.85972 13.541 1.85972 16.5451 2.42132L16.8681 2.48169C18.8934 2.86032 20.4367 4.50777 20.6774 6.54822C21.0957 10.0926 21.1072 13.673 20.712 17.22L20.6948 17.374C20.4473 19.5952 18.7041 21.3571 16.48 21.6343L15.5738 21.7473C15.079 21.8089 14.8316 21.8398 14.5845 21.8656C12.866 22.045 11.1335 22.045 9.41505 21.8656C9.16792 21.8398 8.92051 21.8089 8.42569 21.7473L7.41019 21.6207C5.24868 21.3513 3.55266 19.6424 3.30532 17.4845C2.89823 13.933 2.89823 10.3468 3.30532 6.79528L3.32102 6.6583Z" stroke="#1C274C" stroke-width="1.5"/>
</svg>
