<svg width="24" height="24" viewBox="0 0 24 24" fill="none" xmlns="http://www.w3.org/2000/svg">
<path d="M12 2V18M12 22V18M12 18L15 21M12 18L9 21M15 3L12 6L9 3" stroke="#1C274C" stroke-width="1.5" stroke-linecap="round"/>
<path d="M3.33978 7.00018L6.80389 9.00018M6.80389 9.00018L17.1962 15.0002M6.80389 9.00018L5.70581 4.9021M6.80389 9.00018L2.70581 10.0983M17.1962 15.0002L20.6603 17.0002M17.1962 15.0002L21.2943 13.9021M17.1962 15.0002L18.2943 19.0983" stroke="#1C274C" stroke-width="1.5" stroke-linecap="round"/>
<path d="M20.66 7.00018L17.1959 9.00018M17.1959 9.00018L6.80364 15.0002M17.1959 9.00018L18.294 4.9021M17.1959 9.00018L21.294 10.0983M6.80364 15.0002L3.33954 17.0002M6.80364 15.0002L2.70557 13.9021M6.80364 15.0002L5.70557 19.0983" stroke="#1C274C" stroke-width="1.5" stroke-linecap="round"/>
</svg>
