<svg width="24" height="24" viewBox="0 0 24 24" fill="none" xmlns="http://www.w3.org/2000/svg">
<path d="M2 12.0001C2 7.28608 2 4.92905 3.46447 3.46459C4.92893 2.00012 7.28595 2.00012 12 2.00012C16.714 2.00012 19.0711 2.00012 20.5355 3.46459C22 4.92905 22 7.28608 22 12.0001C22 16.7142 22 19.0712 20.5355 20.5357C19.0711 22.0001 16.714 22.0001 12 22.0001C7.28595 22.0001 4.92893 22.0001 3.46447 20.5357C2 19.0712 2 16.7142 2 12.0001Z" stroke="#000000" stroke-width="1.5"/>
<circle cx="12" cy="12.0001" r="6" stroke="#000000" stroke-width="1.5"/>
<path d="M12 18.0001V16.5" stroke="#000000" stroke-width="1.5" stroke-linecap="round"/>
<path d="M12 7.50012V6.00012" stroke="#000000" stroke-width="1.5" stroke-linecap="round"/>
<circle cx="14" cy="12.0001" r="1" fill="#000000"/>
<circle cx="10" cy="12.0001" r="1" fill="#000000"/>
</svg>
