<svg width="24" height="24" viewBox="0 0 24 24" fill="none" xmlns="http://www.w3.org/2000/svg">
<path d="M13 7.00024L3 7.00024" stroke="#1C274C" stroke-width="1.5" stroke-linecap="round"/>
<path d="M10 12.0002H3" stroke="#1C274C" stroke-width="1.5" stroke-linecap="round"/>
<path d="M8 17.0002H3" stroke="#1C274C" stroke-width="1.5" stroke-linecap="round"/>
<path d="M11.3161 16.6925C11.1461 17.0702 11.3145 17.5142 11.6922 17.6842C12.07 17.8542 12.514 17.6857 12.6839 17.308L11.3161 16.6925ZM16.5 7.00024L17.1839 6.69247C17.0628 6.42333 16.7951 6.25024 16.5 6.25024C16.2049 6.25024 15.9372 6.42333 15.8161 6.69247L16.5 7.00024ZM20.3161 17.308C20.486 17.6857 20.93 17.8542 21.3078 17.6842C21.6855 17.5142 21.8539 17.0702 21.6839 16.6925L20.3161 17.308ZM19.3636 13.3639L20.0476 13.0561L19.3636 13.3639ZM13.6364 12.6139C13.2222 12.6139 12.8864 12.9497 12.8864 13.3639C12.8864 13.7781 13.2222 14.1139 13.6364 14.1139V12.6139ZM12.6839 17.308L17.1839 7.30802L15.8161 6.69247L11.3161 16.6925L12.6839 17.308ZM21.6839 16.6925L20.0476 13.0561L18.6797 13.6717L20.3161 17.308L21.6839 16.6925ZM20.0476 13.0561L17.1839 6.69247L15.8161 7.30802L18.6797 13.6717L20.0476 13.0561ZM19.3636 12.6139H13.6364V14.1139H19.3636V12.6139Z" fill="#1C274C"/>
</svg>
