<svg width="24" height="24" viewBox="0 0 24 24" fill="none" xmlns="http://www.w3.org/2000/svg">
<path d="M4 10.0001C4 6.22889 4 4.34327 5.17157 3.17169C6.34315 2.00012 8.22876 2.00012 12 2.00012C15.7712 2.00012 17.6569 2.00012 18.8284 3.17169C20 4.34327 20 6.22889 20 10.0001V14.0001C20 17.7714 20 19.657 18.8284 20.8285C17.6569 22.0001 15.7712 22.0001 12 22.0001C8.22876 22.0001 6.34315 22.0001 5.17157 20.8285C4 19.657 4 17.7714 4 14.0001V10.0001Z" stroke="#000000" stroke-width="1.5"/>
<path d="M14 7.50012C14 8.60469 13.1046 9.50012 12 9.50012C10.8954 9.50012 10 8.60469 10 7.50012C10 6.39555 10.8954 5.50012 12 5.50012C13.1046 5.50012 14 6.39555 14 7.50012Z" stroke="#000000" stroke-width="1.5"/>
<path d="M15 15.5001C15 17.157 13.6569 18.5001 12 18.5001C10.3431 18.5001 9 17.157 9 15.5001C9 13.8433 10.3431 12.5001 12 12.5001C13.6569 12.5001 15 13.8433 15 15.5001Z" stroke="#000000" stroke-width="1.5"/>
</svg>
