<svg width="24" height="24" viewBox="0 0 24 24" fill="none" xmlns="http://www.w3.org/2000/svg">
<path d="M4 10.0001C4 6.22889 4 4.34327 5.17157 3.17169C6.34315 2.00012 8.22876 2.00012 12 2.00012C15.7712 2.00012 17.6569 2.00012 18.8284 3.17169C20 4.34327 20 6.22889 20 10.0001V14.0001C20 17.7714 20 19.657 18.8284 20.8285C17.6569 22.0001 15.7712 22.0001 12 22.0001C8.22876 22.0001 6.34315 22.0001 5.17157 20.8285C4 19.657 4 17.7714 4 14.0001V10.0001Z" stroke="#000000" stroke-width="1.5"/>
<path d="M16 14.0001C16 16.2093 14.2091 18.0001 12 18.0001C9.79086 18.0001 8 16.2093 8 14.0001C8 11.791 9.79086 10.0001 12 10.0001C14.2091 10.0001 16 11.791 16 14.0001Z" stroke="#000000" stroke-width="1.5"/>
<path d="M10 6.00012H14" stroke="#000000" stroke-width="1.5" stroke-linecap="round"/>
</svg>
