<svg width="24" height="24" viewBox="0 0 24 24" fill="none" xmlns="http://www.w3.org/2000/svg">
<path d="M22 12.0005C22 17.5233 17.5228 22.0005 12 22.0005C6.47715 22.0005 2 17.5233 2 12.0005C2 6.47764 6.47715 2.00049 12 2.00049C17.5228 2.00049 22 6.47764 22 12.0005Z" stroke="#000000" stroke-width="1.5"/>
<path d="M19 19.0005L17.5 17.5005" stroke="#000000" stroke-width="1.5" stroke-linecap="round"/>
<path d="M19 5.00049L17.5 6.50049" stroke="#000000" stroke-width="1.5" stroke-linecap="round"/>
<path d="M5 19.0005L6.5 17.5005" stroke="#000000" stroke-width="1.5" stroke-linecap="round"/>
<path d="M5 5.00049L6.5 6.50049" stroke="#000000" stroke-width="1.5" stroke-linecap="round"/>
<path d="M2 12.0005H4" stroke="#000000" stroke-width="1.5" stroke-linecap="round"/>
<path d="M19.9998 12.0005L21.9998 12.0005" stroke="#000000" stroke-width="1.5" stroke-linecap="round"/>
<path d="M12 4.0007L12 2.0007" stroke="#000000" stroke-width="1.5" stroke-linecap="round"/>
<path d="M13.7782 14.3642C14.9498 13.1927 14.9498 11.2932 13.7782 10.1216C12.6066 8.95003 10.7071 8.95003 9.53557 10.1216C9.08993 10.5672 8.77869 11.4924 8.56409 12.4677C8.24317 13.9262 8.08271 14.6555 8.66351 15.2363C9.24431 15.8171 9.97358 15.6566 11.4321 15.3357C12.4074 15.1211 13.3326 14.8099 13.7782 14.3642Z" stroke="#000000" stroke-width="1.5"/>
</svg>
