<svg width="24" height="24" viewBox="0 0 24 24" fill="none" xmlns="http://www.w3.org/2000/svg">
<path d="M22 12.0005C22 17.5233 17.5228 22.0005 12 22.0005C6.47715 22.0005 2 17.5233 2 12.0005C2 6.47764 6.47715 2.00049 12 2.00049C17.5228 2.00049 22 6.47764 22 12.0005Z" stroke="#1C274C" stroke-width="1.5"/>
<path d="M19 19.0005L17.5 17.5005" stroke="#1C274C" stroke-width="1.5" stroke-linecap="round"/>
<path d="M19 5.00049L17.5 6.50049" stroke="#1C274C" stroke-width="1.5" stroke-linecap="round"/>
<path d="M5 19.0005L6.5 17.5005" stroke="#1C274C" stroke-width="1.5" stroke-linecap="round"/>
<path d="M5 5.00049L6.5 6.50049" stroke="#1C274C" stroke-width="1.5" stroke-linecap="round"/>
<path d="M2 12.0005H4" stroke="#1C274C" stroke-width="1.5" stroke-linecap="round"/>
<path d="M19.9998 12.0005L21.9998 12.0005" stroke="#1C274C" stroke-width="1.5" stroke-linecap="round"/>
<path d="M12 4.0007L12 2.0007" stroke="#1C274C" stroke-width="1.5" stroke-linecap="round"/>
<path d="M10.1212 14.3642C8.94966 13.1927 8.94966 11.2932 10.1212 10.1216C11.2928 8.95003 13.1923 8.95003 14.3639 10.1216C14.8095 10.5672 15.1208 11.4924 15.3354 12.4677C15.6563 13.9262 15.8167 14.6555 15.2359 15.2363C14.6551 15.8171 13.9259 15.6566 12.4673 15.3357C11.492 15.1211 10.5669 14.8099 10.1212 14.3642Z" stroke="#1C274C" stroke-width="1.5"/>
</svg>
