<svg width="24" height="24" viewBox="0 0 24 24" fill="none" xmlns="http://www.w3.org/2000/svg">
<path d="M22 12.0005C22 17.5233 17.5228 22.0005 12 22.0005C6.47715 22.0005 2 17.5233 2 12.0005C2 6.47764 6.47715 2.00049 12 2.00049C17.5228 2.00049 22 6.47764 22 12.0005Z" stroke="#000000" stroke-width="1.5"/>
<path d="M19 19.0005L17.5 17.5005" stroke="#000000" stroke-width="1.5" stroke-linecap="round"/>
<path d="M19 5.00049L17.5 6.50049" stroke="#000000" stroke-width="1.5" stroke-linecap="round"/>
<path d="M5 19.0005L6.5 17.5005" stroke="#000000" stroke-width="1.5" stroke-linecap="round"/>
<path d="M5 5.00049L6.5 6.50049" stroke="#000000" stroke-width="1.5" stroke-linecap="round"/>
<path d="M2 12.0005H4" stroke="#000000" stroke-width="1.5" stroke-linecap="round"/>
<path d="M19.9998 12.0005L21.9998 12.0005" stroke="#000000" stroke-width="1.5" stroke-linecap="round"/>
<path d="M12 4.0007L12 2.0007" stroke="#000000" stroke-width="1.5" stroke-linecap="round"/>
<path d="M15 12.0004C15 13.6572 13.6569 15.0004 12 15.0004C10.3431 15.0004 9 13.6572 9 12.0004C9 11.3701 9.43408 10.4959 9.972 9.65448C10.7764 8.39622 11.1786 7.76709 12 7.76709C12.8214 7.76709 13.2236 8.39622 14.028 9.65448C14.5659 10.4959 15 11.3701 15 12.0004Z" stroke="#000000" stroke-width="1.5"/>
</svg>
