<svg width="24" height="24" viewBox="0 0 24 24" fill="none" xmlns="http://www.w3.org/2000/svg">
<path d="M22 12.0002C22 16.7143 22 19.0713 20.5355 20.5358C19.0711 22.0002 16.714 22.0002 12 22.0002C7.28595 22.0002 4.92893 22.0002 3.46447 20.5358C2 19.0713 2 16.7143 2 12.0002C2 7.2862 2 4.92918 3.46447 3.46471C4.92893 2.00024 7.28595 2.00024 12 2.00024" stroke="#1C274C" stroke-width="1.5" stroke-linecap="round"/>
<path d="M16.1549 3.43452L18.5122 5.47749C20.1349 6.88382 20.9462 7.58699 20.9462 8.50025C20.9462 9.4135 20.1349 10.1167 18.5122 11.523L16.1549 13.566C15.4414 14.1844 15.0846 14.4936 14.7923 14.3601C14.5 14.2266 14.5 13.7545 14.5 12.8103V11.286C11.5 11.286 8.25 12.6788 7 15.0002C7 7.57167 11.4444 5.71453 14.5 5.71453V4.19021C14.5 3.24599 14.5 2.77388 14.7923 2.6404C15.0846 2.50692 15.4414 2.81612 16.1549 3.43452Z" stroke="#1C274C" stroke-width="1.5" stroke-linecap="round" stroke-linejoin="round"/>
</svg>
