<svg width="24" height="24" viewBox="0 0 24 24" fill="none" xmlns="http://www.w3.org/2000/svg">
<path d="M9.78272 3.50014C11.2037 2.83394 12.7962 2.83394 14.2172 3.50014L20.9084 6.63713C22.3639 7.31948 22.3639 9.68154 20.9084 10.3639L14.2173 13.5008C12.7963 14.167 11.2038 14.167 9.78281 13.5008L3.0916 10.3639C1.63613 9.68149 1.63614 7.31944 3.0916 6.63708L9.78272 3.50014Z" stroke="#000000" stroke-width="1.5"/>
<path d="M2 8.50049V14.0005" stroke="#000000" stroke-width="1.5" stroke-linecap="round"/>
<path d="M19 11.5005V16.6259C19 17.6339 18.4965 18.5777 17.6147 19.0661C16.1463 19.8792 13.796 21.0005 12 21.0005C10.204 21.0005 7.8537 19.8792 6.38533 19.0661C5.5035 18.5777 5 17.6339 5 16.6259V11.5005" stroke="#000000" stroke-width="1.5" stroke-linecap="round"/>
</svg>
