<svg width="24" height="24" viewBox="0 0 24 24" fill="none" xmlns="http://www.w3.org/2000/svg">
<path d="M3.09155 6.63708L9.78267 3.50014C11.2037 2.83394 12.7961 2.83394 14.2171 3.50014L20.9083 6.63713C22.3638 7.31948 22.3638 9.68154 20.9083 10.3639L14.2172 13.5008C12.7962 14.167 11.2038 14.167 9.78275 13.5008L4.99995 11.2586" stroke="#000000" stroke-width="1.5" stroke-linecap="round"/>
<path d="M2.5 15.0005V12.1381C2.5 10.8589 2.5 10.2192 2.83032 9.7183C3.16064 9.21736 3.74853 8.9654 4.92432 8.46149L6 8.00049" stroke="#000000" stroke-width="1.5" stroke-linecap="round" stroke-linejoin="round"/>
<path d="M19 11.5005V16.6259C19 17.6339 18.4965 18.5777 17.6147 19.0661C16.1463 19.8792 13.796 21.0005 12 21.0005C10.204 21.0005 7.8537 19.8792 6.38533 19.0661C5.5035 18.5777 5 17.6339 5 16.6259V11.5005" stroke="#000000" stroke-width="1.5" stroke-linecap="round"/>
</svg>
