<svg width="24" height="24" viewBox="0 0 24 24" fill="none" xmlns="http://www.w3.org/2000/svg">
<path d="M22 13.9982C21.9711 17.4122 21.7815 19.2943 20.5404 20.5354C19.0755 22.0002 16.7179 22.0002 12.0026 22.0002C7.28733 22.0002 4.9297 22.0002 3.46485 20.5354C2 19.0705 2 16.7129 2 11.9976C2 7.28236 2 4.92472 3.46485 3.45988C4.70599 2.21873 6.58807 2.02919 10.0021 2.00024" stroke="#1C274C" stroke-width="1.5" stroke-linecap="round"/>
<path d="M22 7.00024H14C12.1824 7.00024 11.0867 7.89226 10.6804 8.30053C10.5546 8.42698 10.4917 8.4902 10.4908 8.49106C10.49 8.49192 10.4267 8.55484 10.3003 8.68067C9.89202 9.08695 9 10.1826 9 12.0002V15.0002M22 7.00024L17 2.00024M22 7.00024L17 12.0002" stroke="#1C274C" stroke-width="1.5" stroke-linecap="round" stroke-linejoin="round"/>
</svg>
