<svg width="24" height="24" viewBox="0 0 24 24" fill="none" xmlns="http://www.w3.org/2000/svg">
<path d="M10.5766 8.70455C11.2099 7.56843 11.5266 7.00037 12 7.00037C12.4734 7.00037 12.7901 7.56843 13.4234 8.70455L13.5873 8.99848C13.7672 9.32133 13.8572 9.48276 13.9975 9.58927C14.1378 9.69578 14.3126 9.73532 14.6621 9.81439L14.9802 9.88638C16.2101 10.1646 16.825 10.3038 16.9713 10.7742C17.1176 11.2447 16.6984 11.7349 15.86 12.7153L15.643 12.969C15.4048 13.2476 15.2857 13.3869 15.2321 13.5592C15.1785 13.7316 15.1965 13.9174 15.2325 14.2891L15.2653 14.6276C15.3921 15.9357 15.4554 16.5897 15.0724 16.8805C14.6894 17.1712 14.1137 16.9061 12.9622 16.376L12.6643 16.2388C12.337 16.0881 12.1734 16.0128 12 16.0128C11.8266 16.0128 11.663 16.0881 11.3357 16.2388L11.0378 16.376C9.88634 16.9061 9.31059 17.1712 8.92757 16.8805C8.54456 16.5897 8.60794 15.9357 8.7347 14.6276L8.76749 14.2891C8.80351 13.9174 8.82152 13.7316 8.76793 13.5592C8.71434 13.3869 8.59521 13.2476 8.35696 12.969L8.14005 12.7153C7.30162 11.7349 6.88241 11.2447 7.02871 10.7742C7.17501 10.3038 7.78993 10.1646 9.01977 9.88638L9.33794 9.81439C9.68743 9.73532 9.86217 9.69578 10.0025 9.58927C10.1428 9.48276 10.2328 9.32133 10.4127 8.99848L10.5766 8.70455Z" stroke="#1C274C" stroke-width="1.5"/>
<path d="M12 2.00037V4.00037" stroke="#1C274C" stroke-width="1.5" stroke-linecap="round"/>
<path d="M12 20.0004V22.0004" stroke="#1C274C" stroke-width="1.5" stroke-linecap="round"/>
<path d="M2 12.0004L4 12.0004" stroke="#1C274C" stroke-width="1.5" stroke-linecap="round"/>
<path d="M20 12.0004L22 12.0004" stroke="#1C274C" stroke-width="1.5" stroke-linecap="round"/>
<path d="M6 18.0003L6.34305 17.6572" stroke="#1C274C" stroke-width="1.5" stroke-linecap="round"/>
<path d="M17.6567 6.34351L18 6.00025" stroke="#1C274C" stroke-width="1.5" stroke-linecap="round"/>
<path d="M18 18.0005L17.657 17.6574" stroke="#1C274C" stroke-width="1.5" stroke-linecap="round"/>
<path d="M6.34326 6.34363L6 6.00037" stroke="#1C274C" stroke-width="1.5" stroke-linecap="round"/>
</svg>
