<svg width="24" height="24" viewBox="0 0 24 24" fill="none" xmlns="http://www.w3.org/2000/svg">
<path d="M9.15316 5.40874C10.4198 3.13649 11.0531 2.00037 12 2.00037C12.9469 2.00037 13.5802 3.13649 14.8468 5.40874L15.1745 5.9966C15.5345 6.6423 15.7144 6.96515 15.9951 7.17817C16.2757 7.39119 16.6251 7.47027 17.3241 7.62841L17.9605 7.77239C20.4201 8.32892 21.65 8.60718 21.9426 9.5481C22.2352 10.489 21.3968 11.4694 19.7199 13.4303L19.2861 13.9376C18.8096 14.4948 18.5713 14.7734 18.4641 15.1181C18.357 15.4628 18.393 15.8345 18.465 16.5779L18.5306 17.2548C18.7841 19.871 18.9109 21.1791 18.1449 21.7606C17.3788 22.3421 16.2273 21.8119 13.9243 20.7515L13.3285 20.4772C12.6741 20.1759 12.3469 20.0252 12 20.0252C11.6531 20.0252 11.3259 20.1759 10.6715 20.4772L10.0757 20.7515C7.77268 21.8119 6.62118 22.3421 5.85515 21.7606C5.08912 21.1791 5.21588 19.871 5.4694 17.2548L5.53498 16.5779C5.60703 15.8345 5.64305 15.4628 5.53586 15.1181C5.42868 14.7734 5.19043 14.4948 4.71392 13.9376L4.2801 13.4303C2.60325 11.4694 1.76482 10.489 2.05742 9.5481C2.35002 8.60718 3.57986 8.32892 6.03954 7.7724L6.67589 7.62842C7.37485 7.47027 7.72433 7.39119 8.00494 7.17817C8.28555 6.96515 8.46553 6.6423 8.82547 5.9966L9.15316 5.40874Z" stroke="#1C274C" stroke-width="1.5"/>
</svg>
