<svg width="24" height="24" viewBox="0 0 24 24" fill="none" xmlns="http://www.w3.org/2000/svg">
<path d="M13.25 8.75037C13.25 9.44072 12.6904 10.0004 12 10.0004C11.3096 10.0004 10.75 9.44072 10.75 8.75037C10.75 8.06001 11.3096 7.50037 12 7.50037C12.6904 7.50037 13.25 8.06001 13.25 8.75037Z" stroke="#1C274C" stroke-width="1.5"/>
<path d="M7.00778 14.0004C5.76601 12.7273 5 10.9813 5 9.05509C5 5.15888 8.13401 2.00037 12 2.00037C15.866 2.00037 19 5.15888 19 9.05509C19 10.9651 18.2468 12.6978 17.0235 13.9681M8.9878 12.0049C8.25268 11.2425 7.8 10.2021 7.8 9.05509C7.8 6.71736 9.6804 4.82226 12 4.82226C14.3196 4.82226 16.2 6.71736 16.2 9.05509C16.2 10.1859 15.76 11.2131 15.0432 11.9723" stroke="#1C274C" stroke-width="1.5" stroke-linecap="round"/>
<path d="M16 22.0004L12 10.0004L8 22.0004" stroke="#1C274C" stroke-width="1.5" stroke-linecap="round" stroke-linejoin="round"/>
<path d="M14.5 17.5004H9.5" stroke="#1C274C" stroke-width="1.5" stroke-linecap="round"/>
</svg>
