<svg width="24" height="24" viewBox="0 0 24 24" fill="none" xmlns="http://www.w3.org/2000/svg">
<path d="M9 14.2356V17.0003C9 19.7617 11.2386 22.0003 14 22.0003H14.8824C16.7691 22.0003 18.3595 20.7313 18.8465 19.0003" stroke="#000000" stroke-width="1.5"/>
<path d="M5.42857 3.00024H5.3369C5.02404 3.00024 4.86761 3.00024 4.73574 3.01191C3.28763 3.13996 2.13972 4.28787 2.01166 5.73599C2 5.86786 2 6.02429 2 6.33714V7.23554C2 11.1015 5.13401 14.2355 9 14.2355C12.7082 14.2355 15.7143 11.2294 15.7143 7.52125V6.33714C15.7143 6.02429 15.7143 5.86786 15.7026 5.73599C15.5746 4.28787 14.4267 3.13996 12.9785 3.01191C12.8467 3.00024 12.6902 3.00024 12.3774 3.00024H12.2857" stroke="#000000" stroke-width="1.5" stroke-linecap="round"/>
<circle cx="19" cy="16.0002" r="3" stroke="#000000" stroke-width="1.5"/>
<path d="M12 2.00024V4.00024" stroke="#000000" stroke-width="1.5" stroke-linecap="round"/>
<path d="M6 2.00024V4.00024" stroke="#000000" stroke-width="1.5" stroke-linecap="round"/>
</svg>
