<svg width="24" height="24" viewBox="0 0 24 24" fill="none" xmlns="http://www.w3.org/2000/svg">
<circle cx="12" cy="13.0005" r="9" stroke="#000000" stroke-width="1.5"/>
<path d="M8 10.5005C8 10.0345 8 9.80158 8.07612 9.6178C8.17761 9.37278 8.37229 9.1781 8.61732 9.07661C8.80109 9.00049 9.03406 9.00049 9.5 9.00049C9.96594 9.00049 10.1989 9.00049 10.3827 9.07661C10.6277 9.1781 10.8224 9.37278 10.9239 9.6178C11 9.80158 11 10.0345 11 10.5005V15.5005C11 15.9664 11 16.1994 10.9239 16.3832C10.8224 16.6282 10.6277 16.8229 10.3827 16.9244C10.1989 17.0005 9.96594 17.0005 9.5 17.0005C9.03406 17.0005 8.80109 17.0005 8.61732 16.9244C8.37229 16.8229 8.17761 16.6282 8.07612 16.3832C8 16.1994 8 15.9664 8 15.5005V10.5005Z" stroke="#000000" stroke-width="1.5"/>
<path d="M13 10.5005C13 10.0345 13 9.80158 13.0761 9.6178C13.1776 9.37278 13.3723 9.1781 13.6173 9.07661C13.8011 9.00049 14.0341 9.00049 14.5 9.00049C14.9659 9.00049 15.1989 9.00049 15.3827 9.07661C15.6277 9.1781 15.8224 9.37278 15.9239 9.6178C16 9.80158 16 10.0345 16 10.5005V15.5005C16 15.9664 16 16.1994 15.9239 16.3832C15.8224 16.6282 15.6277 16.8229 15.3827 16.9244C15.1989 17.0005 14.9659 17.0005 14.5 17.0005C14.0341 17.0005 13.8011 17.0005 13.6173 16.9244C13.3723 16.8229 13.1776 16.6282 13.0761 16.3832C13 16.1994 13 15.9664 13 15.5005V10.5005Z" stroke="#000000" stroke-width="1.5"/>
<path d="M10 2.00049H14" stroke="#000000" stroke-width="1.5" stroke-linecap="round"/>
</svg>
