<svg width="24" height="24" viewBox="0 0 24 24" fill="none" xmlns="http://www.w3.org/2000/svg">
<circle cx="12" cy="13.0005" r="9" stroke="#000000" stroke-width="1.5"/>
<path d="M10 2.00049H14" stroke="#000000" stroke-width="1.5" stroke-linecap="round"/>
<path d="M13.8876 10.9353C14.9625 11.8122 15.5 12.2506 15.5 13.0005C15.5 13.7504 14.9625 14.1888 13.8876 15.0657C13.5909 15.3078 13.2966 15.5357 13.0261 15.7256C12.7888 15.8922 12.5201 16.0645 12.2419 16.2337C11.1695 16.8858 10.6333 17.2119 10.1524 16.8509C9.6715 16.4899 9.62779 15.7341 9.54038 14.2226C9.51566 13.7952 9.5 13.3761 9.5 13.0005C9.5 12.6248 9.51566 12.2058 9.54038 11.7783C9.62779 10.2668 9.6715 9.5111 10.1524 9.15009C10.6333 8.78908 11.1695 9.11514 12.2419 9.76728C12.5201 9.93646 12.7888 10.1088 13.0261 10.2754C13.2966 10.4653 13.5909 10.6932 13.8876 10.9353Z" stroke="#000000" stroke-width="1.5"/>
</svg>
