<svg width="24" height="24" viewBox="0 0 24 24" fill="none" xmlns="http://www.w3.org/2000/svg">
<path d="M18 16.9211C19.1395 16.8217 19.9218 16.5976 20.5376 16.0923C20.7401 15.9261 20.9258 15.7404 21.092 15.5378C22 14.4315 22 12.7877 22 9.50024C22 6.21276 22 4.56902 21.092 3.46267C20.9258 3.26013 20.7401 3.07442 20.5376 2.9082C19.4312 2.00024 17.7875 2.00024 14.5 2.00024H9.5C6.21252 2.00024 4.56878 2.00024 3.46243 2.9082C3.25989 3.07442 3.07418 3.26013 2.90796 3.46267C2 4.56902 2 6.21276 2 9.50024C2 12.7877 2 14.4315 2.90796 15.5378C3.07418 15.7404 3.25989 15.9261 3.46243 16.0923C4.07821 16.5976 4.86048 16.8217 6 16.9211" stroke="#1C274C" stroke-width="1.5" stroke-linecap="round"/>
<path d="M20.5 15.5002L14 10.5002M3.5 3.00024L14 10.5002M20.5 3.50024L14 10.5002" stroke="#1C274C" stroke-width="1.5" stroke-linecap="round"/>
<path d="M15.2673 19.2009L13.932 16.5297C13.089 14.8434 12.6675 14.0002 12 14.0002C11.3325 14.0002 10.911 14.8434 10.068 16.5297L8.73273 19.2009C8.22086 20.2248 7.96493 20.7368 8.00387 21.0591C8.06013 21.5247 8.41041 21.9009 8.87082 21.99C9.18949 22.0517 9.71822 21.8326 10.7757 21.3945C11.1669 21.2324 11.3625 21.1514 11.5629 21.11C11.8513 21.0504 12.1487 21.0504 12.4371 21.11C12.6375 21.1514 12.8331 21.2324 13.2243 21.3945C14.2818 21.8326 14.8105 22.0517 15.1292 21.99C15.5896 21.9009 15.9399 21.5247 15.9961 21.0591C16.0351 20.7368 15.7791 20.2248 15.2673 19.2009Z" stroke="#1C274C" stroke-width="1.5"/>
</svg>
