<svg width="24" height="24" viewBox="0 0 24 24" fill="none" xmlns="http://www.w3.org/2000/svg">
<path d="M12 22.0002C7.28595 22.0002 4.92893 22.0002 3.46447 20.5358C2 19.0713 2 16.7143 2 12.0002C2 7.2862 2 4.92918 3.46447 3.46471C4.92893 2.00024 7.28595 2.00024 12 2.00024C16.714 2.00024 19.0711 2.00024 20.5355 3.46471C22 4.92918 22 7.2862 22 12.0002C22 16.7143 22 19.0713 20.5355 20.5358C19.0711 22.0002 16.714 22.0002 12 22.0002Z" stroke="#1C274C" stroke-width="1.5"/>
<path d="M5.5 8.75744C5.5 6.95847 7.067 5.50012 9 5.50012C10.933 5.50012 12.5 6.95847 12.5 8.75744C12.5 10.5423 11.3829 12.6251 9.64003 13.3699C9.23374 13.5435 8.76626 13.5435 8.35997 13.3699C6.61708 12.6251 5.5 10.5423 5.5 8.75744Z" stroke="#1C274C" stroke-width="1.5"/>
<path d="M14.0004 14.0001L20.5004 20.5001M14.0004 14.0001L6.39453 21.606M14.0004 14.0001L21.6072 6.39331" stroke="#1C274C" stroke-width="1.5" stroke-linecap="round"/>
<path d="M10 9.00024C10 9.55253 9.55228 10.0002 9 10.0002C8.44772 10.0002 8 9.55253 8 9.00024C8 8.44796 8.44772 8.00024 9 8.00024C9.55228 8.00024 10 8.44796 10 9.00024Z" fill="#1C274C"/>
</svg>
