<svg width="24" height="24" viewBox="0 0 24 24" fill="none" xmlns="http://www.w3.org/2000/svg">
<path d="M12 22.0002C7.28595 22.0002 4.92893 22.0002 3.46447 20.5358C2 19.0713 2 16.7143 2 12.0002C2 7.2862 2 4.92918 3.46447 3.46471C4.92893 2.00024 7.28595 2.00024 12 2.00024C16.714 2.00024 19.0711 2.00024 20.5355 3.46471C22 4.92918 22 7.2862 22 12.0002C22 16.7143 22 19.0713 20.5355 20.5358C19.0711 22.0002 16.714 22.0002 12 22.0002Z" stroke="#1C274C" stroke-width="1.5"/>
<path d="M3.5 20.5002L12 12.0002M20.5 3.50024L12 12.0002M20.5 20.5002L12 12.0002" stroke="#1C274C" stroke-width="1.5" stroke-linecap="round"/>
</svg>
