<svg width="24" height="24" viewBox="0 0 24 24" fill="none" xmlns="http://www.w3.org/2000/svg">
<path d="M8 5.00037C8 6.65722 6.65685 8.00037 5 8.00037C3.34315 8.00037 2 6.65722 2 5.00037C2 3.34351 3.34315 2.00037 5 2.00037C6.65685 2.00037 8 3.34351 8 5.00037Z" stroke="#1C274C" stroke-width="1.5"/>
<path d="M22 5.00037C22 6.65722 20.6569 8.00037 19 8.00037C17.3431 8.00037 16 6.65722 16 5.00037C16 3.34351 17.3431 2.00037 19 2.00037C20.6569 2.00037 22 3.34351 22 5.00037Z" stroke="#1C274C" stroke-width="1.5"/>
<path d="M8 19.0004C8 20.6572 6.65685 22.0004 5 22.0004C3.34315 22.0004 2 20.6572 2 19.0004C2 17.3435 3.34315 16.0004 5 16.0004C6.65685 16.0004 8 17.3435 8 19.0004Z" stroke="#1C274C" stroke-width="1.5"/>
<path d="M22 19.0004C22 20.6572 20.6569 22.0004 19 22.0004C17.3431 22.0004 16 20.6572 16 19.0004C16 17.3435 17.3431 16.0004 19 16.0004C20.6569 16.0004 22 17.3435 22 19.0004Z" stroke="#1C274C" stroke-width="1.5"/>
<path d="M8 19.0004H16" stroke="#1C274C" stroke-width="1.5" stroke-linecap="round"/>
<path d="M8 5.00037H16" stroke="#1C274C" stroke-width="1.5" stroke-linecap="round"/>
<path d="M19 16.0004L19 8.00037" stroke="#1C274C" stroke-width="1.5" stroke-linecap="round"/>
<path d="M5 16.0004L5 8.00037" stroke="#1C274C" stroke-width="1.5" stroke-linecap="round"/>
</svg>
