<svg width="24" height="24" viewBox="0 0 24 24" fill="none" xmlns="http://www.w3.org/2000/svg">
<path d="M2 14.0004C2 10.2291 2 8.34351 3.17157 7.17194C4.34315 6.00037 6.22876 6.00037 10 6.00037H14C17.7712 6.00037 19.6569 6.00037 20.8284 7.17194C22 8.34351 22 10.2291 22 14.0004C22 17.7716 22 19.6572 20.8284 20.8288C19.6569 22.0004 17.7712 22.0004 14 22.0004H10C6.22876 22.0004 4.34315 22.0004 3.17157 20.8288C2 19.6572 2 17.7716 2 14.0004Z" stroke="#000000" stroke-width="1.5"/>
<path d="M16 6.00037C16 4.11475 16 3.17194 15.4142 2.58615C14.8284 2.00037 13.8856 2.00037 12 2.00037C10.1144 2.00037 9.17157 2.00037 8.58579 2.58615C8 3.17194 8 4.11475 8 6.00037" stroke="#000000" stroke-width="1.5"/>
<path d="M10 15.0004H6C5.5286 15.0004 5.29289 15.0004 5.14645 15.1468C5 15.2933 5 15.529 5 16.0004V17.0004C5 17.4718 5 17.7075 5.14645 17.8539C5.29289 18.0004 5.5286 18.0004 6 18.0004H10C10.4714 18.0004 10.7071 18.0004 10.8536 17.8539C11 17.7075 11 17.4718 11 17.0004V16.0004C11 15.529 11 15.2933 10.8536 15.1468C10.7071 15.0004 10.4714 15.0004 10 15.0004Z" stroke="#000000" stroke-width="1.5" stroke-linejoin="round"/>
<path d="M6 6.50037V15.0004M6 21.5004V18.5004" stroke="#000000" stroke-width="1.5" stroke-linecap="round"/>
<path d="M18 6.50037V21.5004" stroke="#000000" stroke-width="1.5" stroke-linecap="round"/>
</svg>
