<svg width="24" height="24" viewBox="0 0 24 24" fill="none" xmlns="http://www.w3.org/2000/svg">
<path d="M2 14.0004C2 10.2291 2 8.34351 3.17157 7.17194C4.34315 6.00037 6.22876 6.00037 10 6.00037H14C17.7712 6.00037 19.6569 6.00037 20.8284 7.17194C22 8.34351 22 10.2291 22 14.0004C22 17.7716 22 19.6572 20.8284 20.8288C19.6569 22.0004 17.7712 22.0004 14 22.0004H10C6.22876 22.0004 4.34315 22.0004 3.17157 20.8288C2 19.6572 2 17.7716 2 14.0004Z" stroke="#000000" stroke-width="1.5"/>
<path d="M16 6.00037C16 4.11475 16 3.17194 15.4142 2.58615C14.8284 2.00037 13.8856 2.00037 12 2.00037C10.1144 2.00037 9.17157 2.00037 8.58579 2.58615C8 3.17194 8 4.11475 8 6.00037" stroke="#000000" stroke-width="1.5"/>
<path d="M17 9.00037C17 9.55265 16.5523 10.0004 16 10.0004C15.4477 10.0004 15 9.55265 15 9.00037C15 8.44808 15.4477 8.00037 16 8.00037C16.5523 8.00037 17 8.44808 17 9.00037Z" fill="#000000"/>
<path d="M9 9.00037C9 9.55265 8.55228 10.0004 8 10.0004C7.44772 10.0004 7 9.55265 7 9.00037C7 8.44808 7.44772 8.00037 8 8.00037C8.55228 8.00037 9 8.44808 9 9.00037Z" fill="#000000"/>
</svg>
