<svg width="24" height="24" viewBox="0 0 24 24" fill="none" xmlns="http://www.w3.org/2000/svg">
<path d="M6.18182 10.5457L6.71215 11.076L6.18182 10.5457ZM13.4545 17.8184L13.9849 18.3488L13.4545 17.8184ZM17.7374 9.01035L17.207 9.54068L17.7374 9.01035ZM19.0239 10.5694L19.7287 10.3129L19.0239 10.5694ZM17.7374 13.5356L17.207 13.0053L17.7374 13.5356ZM19.0239 11.9765L19.7287 12.233L19.0239 11.9765ZM14.9899 6.26287L15.5202 5.73254L14.9899 6.26287ZM13.4308 4.97635L13.1743 5.68112L13.4308 4.97635ZM10.4646 6.26287L10.995 6.7932L10.4646 6.26287ZM12.0237 4.97635L12.2802 5.68112L12.0237 4.97635ZM15.8333 7.10628C15.5404 7.39917 15.5404 7.87404 15.8333 8.16694C16.1262 8.45983 16.6011 8.45983 16.894 8.16694L15.8333 7.10628ZM19.4697 7.43967C19.7626 7.73256 20.2374 7.73256 20.5303 7.43967C20.8232 7.14677 20.8232 6.6719 20.5303 6.37901L19.4697 7.43967ZM17.6212 3.46991C17.3283 3.17702 16.8535 3.17702 16.5606 3.46991C16.2677 3.76281 16.2677 4.23768 16.5606 4.53057L17.6212 3.46991ZM3.46967 19.4699C3.17678 19.7628 3.17678 20.2377 3.46967 20.5306C3.76256 20.8235 4.23744 20.8235 4.53033 20.5306L3.46967 19.4699ZM16.5606 14.7124C16.8535 15.0053 17.3283 15.0053 17.6212 14.7124C17.9141 14.4195 17.9141 13.9446 17.6212 13.6517L16.5606 14.7124ZM10.3485 6.379C10.0556 6.08611 9.58075 6.08611 9.28785 6.379C8.99496 6.6719 8.99496 7.14677 9.28785 7.43966L10.3485 6.379ZM14.3788 16.8942C14.6717 17.1871 15.1465 17.1871 15.4394 16.8942C15.7323 16.6013 15.7323 16.1264 15.4394 15.8336L14.3788 16.8942ZM12.5541 12.9482C12.2612 12.6553 11.7863 12.6553 11.4934 12.9482C11.2005 13.2411 11.2005 13.716 11.4934 14.0088L12.5541 12.9482ZM12.7424 18.5306C13.0353 18.8235 13.5102 18.8235 13.8031 18.5306C14.096 18.2377 14.096 17.7628 13.8031 17.4699L12.7424 18.5306ZM12.1571 15.824C11.8642 15.5311 11.3894 15.5311 11.0965 15.824C10.8036 16.1169 10.8036 16.5917 11.0965 16.8846L12.1571 15.824ZM14.4596 6.7932L17.207 9.54068L18.2677 8.48002L15.5202 5.73254L14.4596 6.7932ZM17.207 13.0053L12.9242 17.2881L13.9849 18.3488L18.2677 14.0659L17.207 13.0053ZM6.71215 11.076L10.995 6.7932L9.93432 5.73254L5.65149 10.0154L6.71215 11.076ZM6.71215 17.2881C4.99673 15.5727 4.99673 12.7914 6.71215 11.076L5.65149 10.0154C3.35029 12.3166 3.35029 16.0476 5.65149 18.3488L6.71215 17.2881ZM12.9242 17.2881C11.2088 19.0035 8.42756 19.0035 6.71215 17.2881L5.65149 18.3488C7.95269 20.65 11.6837 20.65 13.9849 18.3488L12.9242 17.2881ZM17.207 9.54068C17.592 9.92561 17.8508 10.1851 18.0359 10.4006C18.2159 10.6101 18.285 10.7321 18.3191 10.8259L19.7287 10.3129C19.6068 9.97817 19.4095 9.69752 19.1736 9.42305C18.9429 9.15452 18.6365 8.84878 18.2677 8.48002L17.207 9.54068ZM18.2677 14.0659C18.6365 13.6972 18.9429 13.3914 19.1736 13.1229C19.4095 12.8484 19.6068 12.5678 19.7287 12.233L18.3191 11.72C18.285 11.8138 18.2159 11.9358 18.0359 12.1453C17.8508 12.3608 17.592 12.6203 17.207 13.0053L18.2677 14.0659ZM18.3191 10.8259C18.4242 11.1147 18.4242 11.4312 18.3191 11.72L19.7287 12.233C19.9544 11.6129 19.9544 10.9331 19.7287 10.3129L18.3191 10.8259ZM15.5202 5.73254C15.1515 5.36378 14.8457 5.05733 14.5772 4.8266C14.3027 4.59077 14.0221 4.39342 13.6873 4.27158L13.1743 5.68112C13.2681 5.71526 13.3901 5.78431 13.5997 5.96433C13.8151 6.14944 14.0746 6.40827 14.4596 6.7932L15.5202 5.73254ZM10.995 6.7932C11.3799 6.40827 11.6394 6.14945 11.8549 5.96433C12.0644 5.78431 12.1864 5.71526 12.2802 5.68112L11.7672 4.27158C11.4325 4.39342 11.1518 4.59077 10.8774 4.8266C10.6088 5.05733 10.3031 5.36378 9.93432 5.73254L10.995 6.7932ZM13.6873 4.27158C13.0672 4.04587 12.3874 4.04587 11.7672 4.27158L12.2802 5.68112C12.569 5.57602 12.8855 5.57602 13.1743 5.68112L13.6873 4.27158ZM16.894 8.16694L19.0758 5.98512L18.0151 4.92446L15.8333 7.10628L16.894 8.16694ZM18.0151 5.98512L19.4697 7.43967L20.5303 6.37901L19.0758 4.92446L18.0151 5.98512ZM19.0758 4.92446L17.6212 3.46991L16.5606 4.53057L18.0151 5.98512L19.0758 4.92446ZM5.65149 17.2881L3.46967 19.4699L4.53033 20.5306L6.71215 18.3488L5.65149 17.2881ZM17.6212 13.6517L10.3485 6.379L9.28785 7.43966L16.5606 14.7124L17.6212 13.6517ZM15.4394 15.8336L12.5541 12.9482L11.4934 14.0088L14.3788 16.8942L15.4394 15.8336ZM13.8031 17.4699L12.1571 15.824L11.0965 16.8846L12.7424 18.5306L13.8031 17.4699Z" fill="#000000"/>
</svg>
