<svg width="24" height="24" viewBox="0 0 24 24" fill="none" xmlns="http://www.w3.org/2000/svg">
<path d="M4.72848 16.1374C3.18295 14.5919 2.41018 13.8191 2.12264 12.8165C1.83509 11.8139 2.08083 10.749 2.57231 8.6193L2.85574 7.39112C3.26922 5.59936 3.47597 4.70347 4.08944 4.08999C4.70292 3.47652 5.5988 3.26977 7.39057 2.85629L8.61875 2.57286C10.7485 2.08138 11.8134 1.83564 12.816 2.12319C13.8186 2.41073 14.5914 3.1835 16.1369 4.72903L17.9665 6.55867C20.6555 9.24766 22 10.5921 22 12.2629C22 13.9336 20.6555 15.2781 17.9665 17.9671C15.2775 20.6561 13.933 22.0005 12.2623 22.0005C10.5916 22.0005 9.24711 20.6561 6.55812 17.9671L4.72848 16.1374Z" stroke="#1C274C" stroke-width="1.5"/>
<path d="M15.3893 15.3898C15.9751 14.804 16.0542 13.9334 15.5661 13.4453C15.0779 12.9571 14.2073 13.0363 13.6215 13.6221C13.0358 14.2078 12.1652 14.287 11.677 13.7988C11.1888 13.3107 11.268 12.4401 11.8538 11.8543M15.3893 15.3898L15.7429 15.7434M15.3893 15.3898C14.9883 15.7908 14.4539 15.9544 14 15.8611M11.5002 11.5007L11.8538 11.8543M11.8538 11.8543C12.185 11.5231 12.6073 11.3538 13 11.3575" stroke="#1C274C" stroke-width="1.5" stroke-linecap="round"/>
<circle cx="8.60699" cy="8.87964" r="2" transform="rotate(-45 8.60699 8.87964)" stroke="#1C274C" stroke-width="1.5"/>
</svg>
