<svg width="24" height="24" viewBox="0 0 24 24" fill="none" xmlns="http://www.w3.org/2000/svg">
<path d="M10.721 21.0005H13.358C15.5854 21.0005 16.6992 21.0005 17.6289 20.4677C18.5586 19.9349 19.1488 18.9585 20.3294 17.0055L21.0102 15.8792C22.0034 14.2362 22.5 13.4147 22.5 12.5005C22.5 11.5863 22.0034 10.7648 21.0102 9.12174L20.3294 7.9955C19.1488 6.04252 18.5586 5.06603 17.6289 4.53326C16.6992 4.00049 15.5854 4.00049 13.358 4.00049H10.721C6.84561 4.00049 4.90789 4.00049 3.70394 5.24528C2.5 6.49008 2.5 8.49355 2.5 12.5005C2.5 16.5074 2.5 18.5109 3.70394 19.7557C4.90789 21.0005 6.8456 21.0005 10.721 21.0005Z" stroke="#1C274C" stroke-width="1.5" stroke-linecap="round"/>
<path d="M7.5 7.99561V17.0005" stroke="#1C274C" stroke-width="1.5" stroke-linecap="round"/>
</svg>
