<svg width="24" height="24" viewBox="0 0 24 24" fill="none" xmlns="http://www.w3.org/2000/svg">
<path d="M4.72848 16.1374C3.18295 14.5918 2.41018 13.8191 2.12264 12.8165C1.83509 11.8139 2.08083 10.749 2.57231 8.61924L2.85574 7.39106C3.26922 5.59929 3.47597 4.70341 4.08944 4.08993C4.70292 3.47645 5.59881 3.26971 7.39057 2.85623L8.61875 2.5728C10.7485 2.08132 11.8134 1.83558 12.816 2.12313C13.8186 2.41067 14.5914 3.18344 16.1369 4.72897L17.9665 6.55861C20.6555 9.24759 22 10.5921 22 12.2628C22 13.9335 20.6555 15.278 17.9665 17.967C15.2775 20.656 13.933 22.0005 12.2623 22.0005C10.5916 22.0005 9.24711 20.656 6.55812 17.967L4.72848 16.1374Z" stroke="#1C274C" stroke-width="1.5"/>
<circle cx="8.60699" cy="8.87952" r="2" transform="rotate(-45 8.60699 8.87952)" stroke="#1C274C" stroke-width="1.5"/>
<path d="M11.5417 18.5002L18.5208 11.521" stroke="#1C274C" stroke-width="1.5" stroke-linecap="round"/>
</svg>
