<svg width="24" height="24" viewBox="0 0 24 24" fill="none" xmlns="http://www.w3.org/2000/svg">
<path d="M2.3153 12.6979C2.26536 12.2707 2.2404 12.0571 2.2509 11.881C2.30599 10.9579 2.98677 10.1929 3.89725 10.031C4.07094 10.0001 4.286 10.0001 4.71612 10.0001H15.2838C15.7139 10.0001 15.929 10.0001 16.1027 10.031C17.0132 10.1929 17.694 10.9579 17.749 11.881C17.7595 12.0571 17.7346 12.2707 17.6846 12.6979L17.284 16.126C17.1031 17.6731 16.2764 19.0715 15.0081 19.9758C14.0736 20.642 12.9546 21.0001 11.8069 21.0001H8.19303C7.04537 21.0001 5.9263 20.642 4.99182 19.9758C3.72352 19.0715 2.89681 17.6731 2.71598 16.126L2.3153 12.6979Z" stroke="#1C274C" stroke-width="1.5"/>
<path d="M17 17.0001H19C20.6569 17.0001 22 15.657 22 14.0001C22 12.3433 20.6569 11.0001 19 11.0001H17.5" stroke="#1C274C" stroke-width="1.5"/>
<path d="M10.0002 2.00012C9.44787 2.55241 9.44787 3.44784 10.0002 4.00012C10.5524 4.55241 10.5524 5.44784 10.0002 6.00012" stroke="#1C274C" stroke-width="1.5" stroke-linecap="round" stroke-linejoin="round"/>
<path d="M5 7.50012L5.11612 7.38401C5.62328 6.87684 5.68035 6.07392 5.25 5.50012C4.81965 4.92633 4.87671 4.12341 5.38388 3.61624L5.5 3.50012" stroke="#1C274C" stroke-width="1.5" stroke-linecap="round" stroke-linejoin="round"/>
<path d="M14.5 7.50012L14.6161 7.38401C15.1233 6.87684 15.1803 6.07392 14.75 5.50012C14.3197 4.92633 14.3767 4.12341 14.8839 3.61624L15 3.50012" stroke="#1C274C" stroke-width="1.5" stroke-linecap="round" stroke-linejoin="round"/>
</svg>
