<svg width="24" height="24" viewBox="0 0 24 24" fill="none" xmlns="http://www.w3.org/2000/svg">
<path d="M12.2429 6.18365L8.55917 8.27427C7.72801 8.74598 7.31243 8.98184 7.20411 9.38615C7.09579 9.79046 7.33779 10.2025 7.82179 11.0266L8.41749 12.0408C8.88853 12.8428 9.12405 13.2438 9.51996 13.3499C9.91586 13.4559 10.3203 13.2264 11.1292 12.7673L14.8646 10.6474M7.05634 9.72269L3.4236 11.7844C2.56736 12.2703 2.13923 12.5133 2.02681 12.9258C1.91438 13.3382 2.16156 13.759 2.65591 14.6007C3.15026 15.4424 3.39744 15.8633 3.81702 15.9738C4.2366 16.0843 4.66472 15.8413 5.52096 15.3554L9.1537 13.2937M21.3441 5.185L20.2954 3.39952C19.8011 2.55783 19.5539 2.13699 19.1343 2.02647C18.7147 1.91596 18.2866 2.15893 17.4304 2.64488L13.7467 4.7355C12.9155 5.20721 12.4999 5.44307 12.3916 5.84738C12.2833 6.25169 12.5253 6.66372 13.0093 7.48778L14.1293 9.39477C14.6004 10.1968 14.8359 10.5978 15.2318 10.7038C15.6277 10.8099 16.0322 10.5804 16.841 10.1213L20.5764 8.00134C21.4326 7.51539 21.8608 7.27242 21.9732 6.85998C22.0856 6.44753 21.8384 6.02669 21.3441 5.185Z" stroke="#000000" stroke-width="1.5" stroke-linejoin="round"/>
<path d="M12 12.5001L16 22.0001" stroke="#000000" stroke-width="1.5" stroke-linecap="round"/>
<path d="M12 12.5001L8 22.0001" stroke="#000000" stroke-width="1.5" stroke-linecap="round"/>
</svg>
