<svg width="24" height="24" viewBox="0 0 24 24" fill="none" xmlns="http://www.w3.org/2000/svg">
<path d="M3.33995 17.0004C6.10137 21.7834 12.2173 23.4221 17.0002 20.6607C18.9498 19.5351 20.377 17.8521 21.1967 15.9293C22.388 13.1349 22.2963 9.83377 20.6605 7.00045C19.0246 4.16713 16.2117 2.43715 13.196 2.07161C11.1209 1.82008 8.94981 2.21459 7.00021 3.3402C2.21728 6.10162 0.578527 12.2175 3.33995 17.0004Z" stroke="#1C274C" stroke-width="1.5"/>
<path d="M13.1958 2.07153C13.1958 2.07153 12.9641 5.67024 15.4641 10.0004C17.9641 14.3305 21.1965 15.9292 21.1965 15.9292M2.80347 8.07153C2.80347 8.07153 6.03588 9.67024 8.53588 14.0004C11.0359 18.3305 10.8042 21.9292 10.8042 21.9292" stroke="#1C274C" stroke-width="1.5"/>
</svg>
