<svg width="24" height="24" viewBox="0 0 24 24" fill="none" xmlns="http://www.w3.org/2000/svg">
<path d="M3.33971 17.0004C6.10113 21.7834 12.217 23.4221 17 20.6607C18.9496 19.5351 20.3768 17.8521 21.1965 15.9293C22.3878 13.1349 22.296 9.83377 20.6602 7.00045C19.0244 4.16713 16.2114 2.43715 13.1957 2.07161C11.1207 1.82008 8.94957 2.21459 6.99996 3.3402C2.21703 6.10162 0.578283 12.2175 3.33971 17.0004Z" stroke="#1C274C" stroke-width="1.5"/>
<path d="M13.1958 2.07153C13.1958 2.07153 12.0981 6.17024 14.5981 10.5004C17.0981 14.8305 21.1965 15.9292 21.1965 15.9292M2.80347 8.07153C2.80347 8.07153 6.90191 9.17024 9.40191 13.5004C11.9019 17.8305 10.8042 21.9292 10.8042 21.9292" stroke="#1C274C" stroke-width="1.5" stroke-dasharray="1.5 2"/>
</svg>
