<svg width="24" height="24" viewBox="0 0 24 24" fill="none" xmlns="http://www.w3.org/2000/svg">
<path d="M2 12.0005C2 7.28644 2 4.92942 3.46447 3.46495C4.92893 2.00049 7.28595 2.00049 12 2.00049C16.714 2.00049 19.0711 2.00049 20.5355 3.46495C22 4.92942 22 7.28644 22 12.0005C22 16.7145 22 19.0716 20.5355 20.536C19.0711 22.0005 16.714 22.0005 12 22.0005C7.28595 22.0005 4.92893 22.0005 3.46447 20.536C2 19.0716 2 16.7145 2 12.0005Z" stroke="#1C274C" stroke-width="1.5"/>
<path d="M8 7.52223C8 6.68179 8.68131 6.00049 9.52174 6.00049H12C13.6569 6.00049 15 7.34363 15 9.00049C15 10.6573 13.6569 12.0005 12 12.0005H8V7.52223Z" stroke="#1C274C" stroke-width="1.5"/>
<path d="M8 12.0005H13C14.6569 12.0005 16 13.3436 16 15.0005C16 16.6573 14.6569 18.0005 13 18.0005H9.17647C8.52672 18.0005 8 17.4738 8 16.824V12.0005Z" stroke="#1C274C" stroke-width="1.5"/>
</svg>
