<svg width="24" height="24" viewBox="0 0 24 24" fill="none" xmlns="http://www.w3.org/2000/svg">
<path d="M21 9.30049C20.9424 6.78836 20.702 5.32105 19.6974 4.31851C18.3768 3.00049 16.2512 3.00049 12 3.00049C7.74882 3.00049 5.62323 3.00049 4.30256 4.31851C3.298 5.32105 3.05755 6.78836 3 9.30049M21 14.7005C20.9424 17.2126 20.702 18.6799 19.6974 19.6825C18.3768 21.0005 16.2512 21.0005 12 21.0005C7.74882 21.0005 5.62323 21.0005 4.30256 19.6825C3.29801 18.6799 3.05756 17.2126 3 14.7005" stroke="#000000" stroke-width="1.5" stroke-linecap="round"/>
<path d="M8 8.00049H16" stroke="#000000" stroke-width="1.5" stroke-linecap="round"/>
<path d="M12 16.0005L12 8.00049" stroke="#000000" stroke-width="1.5" stroke-linecap="round"/>
<path d="M22 12.0005H20" stroke="#000000" stroke-width="1.5" stroke-linecap="round"/>
<path d="M4 12.0005H2" stroke="#000000" stroke-width="1.5" stroke-linecap="round"/>
</svg>
