<svg width="24" height="24" viewBox="0 0 24 24" fill="none" xmlns="http://www.w3.org/2000/svg">
<path d="M9 9.00049H15" stroke="#1C274C" stroke-width="1.5" stroke-linecap="round"/>
<path d="M12 15.0005L12 9.00049" stroke="#1C274C" stroke-width="1.5" stroke-linecap="round"/>
<path d="M6 4.00049C6 5.10506 5.10457 6.00049 4 6.00049C2.89543 6.00049 2 5.10506 2 4.00049C2 2.89592 2.89543 2.00049 4 2.00049C5.10457 2.00049 6 2.89592 6 4.00049Z" stroke="#1C274C" stroke-width="1.5"/>
<path d="M6 20.0005C6 21.1051 5.10457 22.0005 4 22.0005C2.89543 22.0005 2 21.1051 2 20.0005C2 18.8959 2.89543 18.0005 4 18.0005C5.10457 18.0005 6 18.8959 6 20.0005Z" stroke="#1C274C" stroke-width="1.5"/>
<path d="M22 4.00049C22 5.10506 21.1046 6.00049 20 6.00049C18.8954 6.00049 18 5.10506 18 4.00049C18 2.89592 18.8954 2.00049 20 2.00049C21.1046 2.00049 22 2.89592 22 4.00049Z" stroke="#1C274C" stroke-width="1.5"/>
<path d="M22 20.0005C22 21.1051 21.1046 22.0005 20 22.0005C18.8954 22.0005 18 21.1051 18 20.0005C18 18.8959 18.8954 18.0005 20 18.0005C21.1046 18.0005 22 18.8959 22 20.0005Z" stroke="#1C274C" stroke-width="1.5"/>
<path d="M6 20.0005H18" stroke="#1C274C" stroke-width="1.5" stroke-linecap="round"/>
<path d="M18 4.00049H6" stroke="#1C274C" stroke-width="1.5" stroke-linecap="round"/>
<path d="M20 18.0005L20 6.00049" stroke="#1C274C" stroke-width="1.5" stroke-linecap="round"/>
<path d="M4 6.00049L4 18.0005" stroke="#1C274C" stroke-width="1.5" stroke-linecap="round"/>
</svg>
