<svg width="24" height="24" viewBox="0 0 24 24" fill="none" xmlns="http://www.w3.org/2000/svg">
<path d="M8.25 15.5005C8.25 15.9147 8.58579 16.2505 9 16.2505C9.41421 16.2505 9.75 15.9147 9.75 15.5005H8.25ZM11.6643 8.75298L12.1624 8.19235L12.1624 8.19235L11.6643 8.75298ZM11.25 10.4255C11.25 10.8397 11.5858 11.1755 12 11.1755C12.4142 11.1755 12.75 10.8397 12.75 10.4255H11.25ZM11.7475 8.83624L12.3081 8.33805L12.3081 8.33805L11.7475 8.83624ZM6.33575 8.75298L5.83756 8.19235L5.83756 8.19235L6.33575 8.75298ZM5.25 10.4255C5.25 10.8397 5.58579 11.1755 6 11.1755C6.41421 11.1755 6.75 10.8397 6.75 10.4255H5.25ZM6.25249 8.83624L5.69186 8.33805L5.69186 8.33805L6.25249 8.83624ZM7 14.7505C6.58579 14.7505 6.25 15.0863 6.25 15.5005C6.25 15.9147 6.58579 16.2505 7 16.2505V14.7505ZM11 16.2505C11.4142 16.2505 11.75 15.9147 11.75 15.5005C11.75 15.0863 11.4142 14.7505 11 14.7505V16.2505ZM7.925 9.25049H9V7.75049H7.925V9.25049ZM9 9.25049H10.075V7.75049H9V9.25049ZM9.75 15.5005V8.50049H8.25V15.5005H9.75ZM10.075 9.25049C10.5295 9.25049 10.8007 9.25186 10.9965 9.27628C11.1739 9.29841 11.1831 9.32879 11.1661 9.31361L12.1624 8.19235C11.8612 7.92468 11.5109 7.82881 11.1822 7.78782C10.8719 7.74912 10.4905 7.75049 10.075 7.75049V9.25049ZM12.75 10.4255C12.75 10.0099 12.7514 9.62855 12.7127 9.31831C12.6717 8.98963 12.5758 8.63926 12.3081 8.33805L11.1869 9.33443C11.1717 9.31735 11.2021 9.32657 11.2242 9.50396C11.2486 9.6998 11.25 9.97096 11.25 10.4255H12.75ZM11.1661 9.31361C11.1734 9.32013 11.1804 9.32708 11.1869 9.33443L12.3081 8.33805C12.2625 8.28666 12.2138 8.23801 12.1624 8.19235L11.1661 9.31361ZM7.925 7.75049C7.50946 7.75049 7.12806 7.74912 6.81782 7.78782C6.48914 7.82881 6.13878 7.92468 5.83756 8.19235L6.83394 9.31361C6.81686 9.32879 6.82608 9.29841 7.00348 9.27628C7.19931 9.25186 7.47047 9.25049 7.925 9.25049V7.75049ZM6.75 10.4255C6.75 9.97096 6.75137 9.6998 6.77579 9.50396C6.79792 9.32657 6.8283 9.31735 6.81312 9.33443L5.69186 8.33805C5.42419 8.63926 5.32832 8.98963 5.28733 9.31831C5.24863 9.62855 5.25 10.0099 5.25 10.4255H6.75ZM5.83756 8.19235C5.78617 8.23801 5.73752 8.28666 5.69186 8.33805L6.81312 9.33443C6.81965 9.32708 6.8266 9.32013 6.83394 9.31361L5.83756 8.19235ZM7 16.2505H11V14.7505H7V16.2505Z" fill="#1C274C"/>
<path d="M12 4.00049H10C6.22876 4.00049 4.34315 4.00049 3.17157 5.17206C2 6.34363 2 8.22925 2 12.0005C2 15.7717 2 17.6573 3.17157 18.8289C4.34315 20.0005 6.22876 20.0005 10 20.0005H12M15 4.00142C18.1143 4.01053 19.7653 4.10897 20.8284 5.17206C22 6.34363 22 8.22925 22 12.0005C22 15.7717 22 17.6573 20.8284 18.8289C19.7653 19.892 18.1143 19.9904 15 19.9996" stroke="#1C274C" stroke-width="1.5" stroke-linecap="round"/>
<path d="M15 2.00049V22.0005" stroke="#1C274C" stroke-width="1.5" stroke-linecap="round"/>
</svg>
