<svg width="24" height="24" viewBox="0 0 24 24" fill="none" xmlns="http://www.w3.org/2000/svg">
<path d="M15.25 9.22271C15.25 9.63692 15.5858 9.97271 16 9.97271C16.4142 9.97271 16.75 9.63692 16.75 9.22271H15.25ZM7.25 9.22271C7.25 9.63692 7.58579 9.97271 8 9.97271C8.41421 9.97271 8.75 9.63692 8.75 9.22271H7.25ZM11.25 9.50049C11.25 9.9147 11.5858 10.2505 12 10.2505C12.4142 10.2505 12.75 9.9147 12.75 9.50049H11.25ZM11.25 17.0005C11.25 17.4147 11.5858 17.7505 12 17.7505C12.4142 17.7505 12.75 17.4147 12.75 17.0005H11.25ZM12.75 14.5005C12.75 14.0863 12.4142 13.7505 12 13.7505C11.5858 13.7505 11.25 14.0863 11.25 14.5005H12.75ZM15.7071 7.32593L15.1496 7.82765L15.1496 7.82765L15.7071 7.32593ZM9.5 16.2505C9.08579 16.2505 8.75 16.5863 8.75 17.0005C8.75 17.4147 9.08579 17.7505 9.5 17.7505V16.2505ZM14.5 17.7505C14.9142 17.7505 15.25 17.4147 15.25 17.0005C15.25 16.5863 14.9142 16.2505 14.5 16.2505V17.7505ZM8 11.2505C7.58579 11.2505 7.25 11.5863 7.25 12.0005C7.25 12.4147 7.58579 12.7505 8 12.7505V11.2505ZM16 12.7505C16.4142 12.7505 16.75 12.4147 16.75 12.0005C16.75 11.5863 16.4142 11.2505 16 11.2505V12.7505ZM10 7.75049H12V6.25049H10V7.75049ZM12 7.75049H14V6.25049H12V7.75049ZM12.75 9.50049V7.00049H11.25V9.50049H12.75ZM12.75 17.0005V14.5005H11.25V17.0005H12.75ZM14 7.75049C14.4949 7.75049 14.7824 7.75245 14.9865 7.78294C15.0783 7.79666 15.121 7.81229 15.1376 7.81989C15.148 7.82464 15.1477 7.82552 15.1496 7.82765L16.2646 6.8242C15.96 6.48579 15.579 6.35481 15.2081 6.2994C14.8676 6.24853 14.4479 6.25049 14 6.25049V7.75049ZM16.75 9.22271C16.75 8.71806 16.7513 8.27158 16.708 7.91343C16.6629 7.54109 16.559 7.1513 16.2646 6.8242L15.1496 7.82765C15.1523 7.83064 15.1609 7.83988 15.1731 7.8727C15.1873 7.91097 15.2048 7.97774 15.2188 8.09361C15.2487 8.3406 15.25 8.6798 15.25 9.22271H16.75ZM10 6.25049C9.55208 6.25049 9.13244 6.24853 8.79192 6.2994C8.42102 6.35481 8.04 6.48579 7.73542 6.8242L8.85036 7.82765C8.85228 7.82552 8.85204 7.82464 8.86242 7.81989C8.87904 7.81229 8.92168 7.79666 9.01354 7.78294C9.21765 7.75245 9.50511 7.75049 10 7.75049V6.25049ZM8.75 9.22271C8.75 8.6798 8.75129 8.3406 8.78118 8.09361C8.7952 7.97774 8.81273 7.91097 8.8269 7.8727C8.83905 7.83988 8.84767 7.83064 8.85036 7.82765L7.73542 6.8242C7.44103 7.1513 7.3371 7.54109 7.29204 7.91343C7.24871 8.27158 7.25 8.71806 7.25 9.22271H8.75ZM9.5 17.7505H14.5V16.2505H9.5V17.7505ZM8 12.7505H16V11.2505H8V12.7505Z" fill="#1C274C"/>
<path d="M2 12.0005C2 7.28644 2 4.92942 3.46447 3.46495C4.92893 2.00049 7.28595 2.00049 12 2.00049C16.714 2.00049 19.0711 2.00049 20.5355 3.46495C22 4.92942 22 7.28644 22 12.0005C22 16.7145 22 19.0716 20.5355 20.536C19.0711 22.0005 16.714 22.0005 12 22.0005C7.28595 22.0005 4.92893 22.0005 3.46447 20.536C2 19.0716 2 16.7145 2 12.0005Z" stroke="#1C274C" stroke-width="1.5"/>
</svg>
