<svg width="24" height="24" viewBox="0 0 24 24" fill="none" xmlns="http://www.w3.org/2000/svg">
<path d="M2 12.0005C2 6.47764 6.47715 2.00049 12 2.00049C17.5228 2.00049 22 6.47764 22 12.0005C22 17.5233 17.5228 22.0005 12 22.0005C6.47715 22.0005 2 17.5233 2 12.0005Z" stroke="#1C274C" stroke-width="1.5"/>
<path d="M11.25 17.0005C11.25 17.4147 11.5858 17.7505 12 17.7505C12.4142 17.7505 12.75 17.4147 12.75 17.0005H11.25ZM15.25 9.75049C15.25 10.1647 15.5858 10.5005 16 10.5005C16.4142 10.5005 16.75 10.1647 16.75 9.75049H15.25ZM7.25 9.75049C7.25 10.1647 7.58579 10.5005 8 10.5005C8.41421 10.5005 8.75 10.1647 8.75 9.75049H7.25ZM15.7071 7.32593L16.2646 6.8242V6.8242L15.7071 7.32593ZM9.5 16.2505C9.08579 16.2505 8.75 16.5863 8.75 17.0005C8.75 17.4147 9.08579 17.7505 9.5 17.7505V16.2505ZM15 17.7505C15.4142 17.7505 15.75 17.4147 15.75 17.0005C15.75 16.5863 15.4142 16.2505 15 16.2505V17.7505ZM10 7.75049H12V6.25049H10V7.75049ZM12 7.75049H14V6.25049H12V7.75049ZM12.75 17.0005V7.00049H11.25V17.0005H12.75ZM15.25 9.22271V9.75049H16.75V9.22271H15.25ZM7.25 9.22271V9.75049H8.75V9.22271H7.25ZM14 7.75049C14.4949 7.75049 14.7824 7.75245 14.9865 7.78294C15.0783 7.79666 15.121 7.81229 15.1376 7.81989C15.148 7.82464 15.1477 7.82552 15.1496 7.82765L16.2646 6.8242C15.96 6.48579 15.579 6.35481 15.2081 6.2994C14.8676 6.24853 14.4479 6.25049 14 6.25049V7.75049ZM16.75 9.22271C16.75 8.71806 16.7513 8.27158 16.708 7.91343C16.6629 7.54109 16.559 7.1513 16.2646 6.8242L15.1496 7.82765C15.1523 7.83064 15.1609 7.83988 15.1731 7.8727C15.1873 7.91097 15.2048 7.97774 15.2188 8.09361C15.2487 8.3406 15.25 8.6798 15.25 9.22271H16.75ZM10 6.25049C9.55208 6.25049 9.13244 6.24853 8.79192 6.2994C8.42102 6.35481 8.04 6.48579 7.73542 6.8242L8.85036 7.82765C8.85228 7.82552 8.85204 7.82464 8.86242 7.81989C8.87904 7.81229 8.92168 7.79666 9.01354 7.78294C9.21765 7.75245 9.50511 7.75049 10 7.75049V6.25049ZM8.75 9.22271C8.75 8.6798 8.75129 8.3406 8.78118 8.09361C8.7952 7.97774 8.81273 7.91097 8.8269 7.8727C8.83905 7.83988 8.84767 7.83064 8.85036 7.82765L7.73542 6.8242C7.44103 7.1513 7.3371 7.54109 7.29204 7.91343C7.24871 8.27158 7.25 8.71806 7.25 9.22271H8.75ZM9.5 17.7505H15V16.2505H9.5V17.7505Z" fill="#1C274C"/>
</svg>
