<svg width="24" height="24" viewBox="0 0 24 24" fill="none" xmlns="http://www.w3.org/2000/svg">
<path d="M17.0955 10.0002L18.396 11.3008M13.896 13.1997L15.1966 14.5002M10.6868 16.4089L11.9873 17.7095M5.57866 20.5578L5.96229 20.1742C6.39492 19.7415 7.00076 19.529 7.60886 19.5966L8.40799 19.6854C9.32013 19.7867 10.2289 19.468 10.8778 18.819L19.8202 9.87667C21.3933 8.30359 21.3933 5.75313 19.8202 4.18005C18.2471 2.60697 15.6967 2.60698 14.1236 4.18005L5.18123 13.1224C4.53228 13.7714 4.2135 14.6801 4.31485 15.5923L4.40364 16.3914C4.47121 16.9995 4.25869 17.6053 3.82606 18.038L3.44243 18.4216C2.85252 19.0115 2.85252 19.9679 3.44243 20.5578C4.03233 21.1477 4.98875 21.1477 5.57866 20.5578Z" stroke="#000000" stroke-width="1.5" stroke-linecap="round" stroke-linejoin="round"/>
<path d="M9 15.0002L15.5 8.50024" stroke="#000000" stroke-width="1.5" stroke-linecap="round"/>
</svg>
