<svg width="24" height="24" viewBox="0 0 24 24" fill="none" xmlns="http://www.w3.org/2000/svg">
<path d="M14.005 4.00049H9.99502C6.21439 4.00049 4.32407 4.00049 3.14958 5.17206C2.34091 5.97872 2.08903 7.12388 2.01058 8.98996C1.99502 9.36003 1.98724 9.54506 2.05634 9.66851C2.12545 9.79196 2.40133 9.94602 2.95308 10.2541C3.56586 10.5963 3.98007 11.2502 3.98007 12.0005C3.98007 12.7508 3.56586 13.4046 2.95308 13.7468C2.40133 14.0549 2.12545 14.209 2.05634 14.3325C1.98724 14.4559 1.99502 14.6409 2.01058 15.011C2.08903 16.8771 2.34091 18.0223 3.14958 18.8289C4.32407 20.0005 6.21439 20.0005 9.99502 20.0005H14.005C17.7856 20.0005 19.6759 20.0005 20.8504 18.8289C21.6591 18.0223 21.911 16.8771 21.9894 15.011C22.005 14.6409 22.0128 14.4559 21.9437 14.3325C21.8746 14.209 21.5987 14.055 21.0469 13.7468C20.4341 13.4046 20.0199 12.7508 20.0199 12.0005C20.0199 11.2502 20.4341 10.5963 21.0469 10.2541C21.5987 9.94602 21.8746 9.79196 21.9437 9.66851C22.0128 9.54506 22.005 9.36003 21.9894 8.98996C21.911 7.12388 21.6591 5.97872 20.8504 5.17206C19.6759 4.00049 17.7856 4.00049 14.005 4.00049Z" stroke="#1C274C" stroke-width="1.5"/>
<path d="M9 15.0005L15 9.00049" stroke="#1C274C" stroke-width="1.5" stroke-linecap="round"/>
<path d="M15.5 14.5005C15.5 15.0528 15.0523 15.5005 14.5 15.5005C13.9477 15.5005 13.5 15.0528 13.5 14.5005C13.5 13.9482 13.9477 13.5005 14.5 13.5005C15.0523 13.5005 15.5 13.9482 15.5 14.5005Z" fill="#1C274C"/>
<path d="M10.5 9.50049C10.5 10.0528 10.0523 10.5005 9.5 10.5005C8.94772 10.5005 8.5 10.0528 8.5 9.50049C8.5 8.9482 8.94772 8.50049 9.5 8.50049C10.0523 8.50049 10.5 8.9482 10.5 9.50049Z" fill="#1C274C"/>
</svg>
