<svg width="24" height="24" viewBox="0 0 24 24" fill="none" xmlns="http://www.w3.org/2000/svg">
<path d="M14 11.0005C14 10.4482 14.4477 10.0005 15 10.0005C15.5523 10.0005 16 10.4482 16 11.0005V13.0005C16 13.5528 15.5523 14.0005 15 14.0005C14.4477 14.0005 14 13.5528 14 13.0005V11.0005Z" stroke="#1C274C" stroke-width="1.5"/>
<path d="M14.0079 19.0034L13.2579 19.0012V19.0012L14.0079 19.0034ZM14.0137 17.0005L14.7637 17.0027V17.0005H14.0137ZM3.14958 18.8289L2.61991 19.3599H2.61991L3.14958 18.8289ZM3.14958 5.17206L2.61991 4.64107L2.61991 4.64107L3.14958 5.17206ZM2.95308 10.2541L2.58741 10.909H2.58741L2.95308 10.2541ZM2.01058 8.98996L1.26124 8.95846L2.01058 8.98996ZM2.95308 13.7468L2.58741 13.092L2.58741 13.092L2.95308 13.7468ZM2.01058 15.011L2.75992 14.9795L2.01058 15.011ZM21.0469 10.2541L21.4126 10.909L21.0469 10.2541ZM21.9894 8.98996L22.7388 8.95846V8.95845L21.9894 8.98996ZM20.8504 5.17206L21.3801 4.64107L21.3801 4.64107L20.8504 5.17206ZM21.0469 13.7468L20.6812 14.4016V14.4016L21.0469 13.7468ZM21.9894 15.011L22.7388 15.0425V15.0425L21.9894 15.011ZM20.8504 18.8289L21.3801 19.3599L21.3801 19.3599L20.8504 18.8289ZM21.9437 14.3325L22.5981 13.9661L22.5981 13.9661L21.9437 14.3325ZM21.9437 9.66851L22.5981 10.0349L22.5981 10.0349L21.9437 9.66851ZM2.05634 14.3325L1.4019 13.9661L1.4019 13.9661L2.05634 14.3325ZM2.05634 9.66851L2.71079 9.30217L2.71078 9.30217L2.05634 9.66851ZM14.0137 7.00049H14.7637L14.7637 6.99831L14.0137 7.00049ZM14.0064 4.49904L13.2564 4.50122V4.50122L14.0064 4.49904ZM16.5278 4.01939L16.5471 3.26964L16.5278 4.01939ZM17.0336 19.9646L17.0653 20.714H17.0653L17.0336 19.9646ZM13.8595 19.8546L13.3299 19.3235L13.3299 19.3235L13.8595 19.8546ZM14.7579 19.0056L14.7637 17.0027L13.2637 16.9983L13.2579 19.0012L14.7579 19.0056ZM15.0162 16.7505C15.1574 16.7505 15.2687 16.8642 15.2687 17.0005H16.7687C16.7687 16.0322 15.9823 15.2505 15.0162 15.2505V16.7505ZM15.0162 15.2505C14.0501 15.2505 13.2637 16.0322 13.2637 17.0005H14.7637C14.7637 16.8642 14.875 16.7505 15.0162 16.7505V15.2505ZM9.99502 4.75049H13.5052V3.25049H9.99502V4.75049ZM13.0079 19.2505H9.99502V20.7505H13.0079V19.2505ZM9.99502 19.2505C8.08355 19.2505 6.72521 19.2489 5.69469 19.1107C4.68554 18.9754 4.10384 18.7215 3.67925 18.2979L2.61991 19.3599C3.3698 20.1079 4.32051 20.4398 5.4953 20.5974C6.64871 20.7521 8.12585 20.7505 9.99502 20.7505V19.2505ZM9.99502 3.25049C8.12585 3.25049 6.64871 3.2489 5.4953 3.40359C4.32051 3.56114 3.3698 3.89304 2.61991 4.64107L3.67925 5.70305C4.10384 5.27951 4.68554 5.02562 5.69469 4.89028C6.72521 4.75207 8.08355 4.75049 9.99502 4.75049V3.25049ZM2.58741 10.909C2.97311 11.1244 3.23007 11.5335 3.23007 12.0005H4.73007C4.73007 10.9669 4.1586 10.0683 3.31876 9.59933L2.58741 10.909ZM2.75992 9.02146C2.83795 7.16543 3.09146 6.28937 3.67925 5.70305L2.61991 4.64107C1.59036 5.66806 1.34012 7.08233 1.26124 8.95846L2.75992 9.02146ZM3.23007 12.0005C3.23007 12.4675 2.97311 12.8766 2.58741 13.092L3.31876 14.4016C4.1586 13.9326 4.73007 13.0341 4.73007 12.0005H3.23007ZM1.26124 15.0425C1.34012 16.9186 1.59036 18.3329 2.61991 19.3599L3.67925 18.2979C3.09146 17.7116 2.83795 16.8355 2.75992 14.9795L1.26124 15.0425ZM20.7699 12.0005C20.7699 11.5335 21.0269 11.1244 21.4126 10.909L20.6812 9.59933C19.8414 10.0683 19.2699 10.9669 19.2699 12.0005H20.7699ZM22.7388 8.95845C22.6599 7.08233 22.4096 5.66806 21.3801 4.64107L20.3207 5.70305C20.9085 6.28937 21.1621 7.16543 21.2401 9.02146L22.7388 8.95845ZM21.4126 13.092C21.0269 12.8766 20.7699 12.4675 20.7699 12.0005H19.2699C19.2699 13.0341 19.8414 13.9326 20.6812 14.4016L21.4126 13.092ZM21.2401 14.9795C21.1621 16.8355 20.9085 17.7116 20.3207 18.2979L21.3801 19.3599C22.4096 18.3329 22.6599 16.9186 22.7388 15.0425L21.2401 14.9795ZM20.6812 14.4016C20.9652 14.5602 21.1507 14.6641 21.2761 14.7432C21.3379 14.7822 21.3653 14.8029 21.3735 14.8098C21.388 14.8218 21.3375 14.7851 21.2892 14.6988L22.5981 13.9661C22.5153 13.8181 22.4043 13.7159 22.3304 13.6546C22.2503 13.5883 22.1613 13.5281 22.0764 13.4746C21.9087 13.3688 21.6804 13.2416 21.4126 13.092L20.6812 14.4016ZM22.7388 15.0425C22.746 14.871 22.7541 14.6941 22.7476 14.5463C22.741 14.3964 22.7178 14.1799 22.5981 13.9661L21.2892 14.6988C21.2386 14.6084 21.2461 14.5462 21.249 14.6122C21.2503 14.6409 21.2505 14.6827 21.2488 14.7469C21.2472 14.8109 21.244 14.8852 21.2401 14.9795L22.7388 15.0425ZM21.4126 10.909C21.6804 10.7594 21.9087 10.6322 22.0764 10.5264C22.1613 10.4729 22.2503 10.4127 22.3304 10.3463C22.4043 10.2851 22.5153 10.1828 22.5981 10.0349L21.2892 9.30217C21.3375 9.21592 21.388 9.1792 21.3735 9.19121C21.3653 9.19805 21.3379 9.21881 21.2761 9.25774C21.1507 9.33686 20.9652 9.44077 20.6812 9.59933L21.4126 10.909ZM21.2401 9.02146C21.244 9.11577 21.2472 9.19009 21.2488 9.25406C21.2505 9.31827 21.2503 9.36013 21.249 9.38876C21.2461 9.45476 21.2386 9.39255 21.2892 9.30218L22.5981 10.0349C22.7178 9.82103 22.741 9.60457 22.7476 9.45468C22.7541 9.30683 22.746 9.12994 22.7388 8.95846L21.2401 9.02146ZM2.58741 13.092C2.31959 13.2416 2.0913 13.3688 1.92358 13.4746C1.83872 13.5281 1.74971 13.5883 1.66957 13.6546C1.59566 13.7159 1.48474 13.8181 1.4019 13.9661L2.71078 14.6988C2.6625 14.7851 2.61198 14.8218 2.62648 14.8098C2.63474 14.8029 2.66215 14.7822 2.72387 14.7432C2.84929 14.6641 3.03482 14.5602 3.31876 14.4016L2.58741 13.092ZM2.75992 14.9795C2.75595 14.8852 2.75285 14.8109 2.7512 14.7469C2.74954 14.6827 2.74973 14.6408 2.75099 14.6122C2.75389 14.5462 2.76137 14.6084 2.71078 14.6988L1.4019 13.9661C1.28221 14.1799 1.25903 14.3964 1.25244 14.5463C1.24593 14.6941 1.25403 14.871 1.26124 15.0425L2.75992 14.9795ZM3.31876 9.59933C3.03482 9.44077 2.84929 9.33686 2.72386 9.25774C2.66214 9.21881 2.63474 9.19805 2.62648 9.19121C2.61198 9.1792 2.66251 9.21592 2.71079 9.30217L1.4019 10.0349C1.48473 10.1828 1.59565 10.2851 1.66956 10.3463C1.74971 10.4127 1.83872 10.4729 1.92357 10.5264C2.0913 10.6322 2.31959 10.7594 2.58741 10.909L3.31876 9.59933ZM1.26124 8.95846C1.25403 9.12994 1.24593 9.30683 1.25244 9.45468C1.25903 9.60457 1.28221 9.82103 1.4019 10.0349L2.71078 9.30217C2.76137 9.39254 2.75389 9.45476 2.75099 9.38876C2.74973 9.36013 2.74954 9.31828 2.7512 9.25406C2.75285 9.19009 2.75595 9.11577 2.75992 9.02146L1.26124 8.95846ZM14.7637 6.99831L14.7564 4.49686L13.2564 4.50122L13.2637 7.00267L14.7637 6.99831ZM15.0162 7.25049C14.875 7.25049 14.7637 7.1368 14.7637 7.00049H13.2637C13.2637 7.96874 14.0501 8.75049 15.0162 8.75049V7.25049ZM15.2687 7.00049C15.2687 7.1368 15.1574 7.25049 15.0162 7.25049V8.75049C15.9823 8.75049 16.7687 7.96874 16.7687 7.00049H15.2687ZM15.2687 4.51667V7.00049H16.7687V4.51667H15.2687ZM16.5084 4.76914C18.6966 4.82558 19.6778 5.06173 20.3208 5.70305L21.3801 4.64107C20.2676 3.53133 18.6939 3.32501 16.5471 3.26964L16.5084 4.76914ZM16.7687 4.51667C16.7687 4.65649 16.6534 4.77288 16.5084 4.76914L16.5471 3.26964C15.8429 3.25148 15.2687 3.81884 15.2687 4.51667H16.7687ZM13.5052 4.75049C13.3698 4.75049 13.2568 4.64075 13.2564 4.50122L14.7564 4.49686C14.7544 3.80617 14.1931 3.25049 13.5052 3.25049V4.75049ZM17.0653 20.714C18.9399 20.6348 20.353 20.3845 21.3801 19.3599L20.3208 18.2979C19.7336 18.8836 18.8563 19.137 17.002 19.2153L17.0653 20.714ZM15.2687 17.0005V18.977H16.7687V17.0005H15.2687ZM13.2579 19.0012C13.2575 19.1215 13.2572 19.2141 13.255 19.2931C13.2528 19.3725 13.249 19.4197 13.245 19.4486C13.2411 19.4769 13.2396 19.4674 13.2513 19.4392C13.2654 19.405 13.2911 19.3622 13.3299 19.3235L14.389 20.3857C14.6246 20.1507 14.701 19.8714 14.7311 19.6525C14.7582 19.4553 14.7573 19.2195 14.7579 19.0056L13.2579 19.0012ZM13.0079 20.7505C13.2218 20.7505 13.4576 20.7521 13.6549 20.7256C13.8739 20.6962 14.1534 20.6206 14.389 20.3857L13.3299 19.3235C13.3687 19.2848 13.4116 19.2592 13.4458 19.2452C13.4741 19.2336 13.4836 19.2351 13.4553 19.2389C13.4264 19.2428 13.3792 19.2464 13.2998 19.2484C13.2208 19.2504 13.1282 19.2505 13.0079 19.2505V20.7505ZM17.002 19.2153C16.8812 19.2204 16.7889 19.2243 16.7101 19.2255C16.631 19.2267 16.5849 19.2249 16.5575 19.2222C16.5309 19.2196 16.5426 19.218 16.5734 19.2297C16.6103 19.2438 16.6536 19.269 16.6917 19.3055L15.6536 20.3883C15.8978 20.6224 16.183 20.6926 16.4108 20.715C16.6127 20.7348 16.8518 20.723 17.0653 20.714L17.002 19.2153ZM15.2687 18.977C15.2687 19.1958 15.267 19.4378 15.295 19.6401C15.3263 19.8659 15.407 20.1519 15.6536 20.3883L16.6917 19.3055C16.7313 19.3435 16.7584 19.3868 16.7737 19.4226C16.7863 19.4521 16.7848 19.4627 16.7808 19.4341C16.7768 19.4051 16.7729 19.3571 16.7708 19.2758C16.7687 19.195 16.7687 19.1002 16.7687 18.977H15.2687Z" fill="#1C274C"/>
</svg>
