<svg width="24" height="24" viewBox="0 0 24 24" fill="none" xmlns="http://www.w3.org/2000/svg">
<path d="M14.0037 4.00049H9.9963C6.21809 4.00049 4.32899 4.00049 3.15525 5.17206C2.27661 6.04907 2.0557 7.32621 2.00016 9.49493C1.99304 9.77297 2.22121 9.99516 2.49076 10.0657C3.35074 10.2906 3.98521 11.0716 3.98521 12.0005C3.98521 12.9294 3.35074 13.7104 2.49076 13.9353C2.22121 14.0058 1.99304 14.228 2.00016 14.5061C2.0557 16.6748 2.27661 17.9519 3.15525 18.8289C4.32899 20.0005 6.21809 20.0005 9.9963 20.0005H14.0037C17.7819 20.0005 19.671 20.0005 20.8448 18.8289C21.7234 17.9519 21.9443 16.6748 21.9998 14.5061C22.007 14.228 21.7788 14.0058 21.5092 13.9353C20.6493 13.7104 20.0148 12.9294 20.0148 12.0005C20.0148 11.0716 20.6493 10.2906 21.5092 10.0657C21.7788 9.99516 22.007 9.77297 21.9998 9.49493C21.9443 7.32621 21.7234 6.04907 20.8448 5.17206C19.671 4.00049 17.7819 4.00049 14.0037 4.00049Z" stroke="#000000" stroke-width="1.5"/>
<path d="M11.1459 10.023C11.5259 9.34133 11.7159 9.00049 12 9.00049C12.2841 9.00049 12.4741 9.34133 12.8541 10.023L12.9524 10.1994C13.0603 10.3931 13.1143 10.4899 13.1985 10.5538C13.2827 10.6177 13.3875 10.6415 13.5972 10.6889L13.7881 10.7321C14.526 10.8991 14.895 10.9825 14.9828 11.2648C15.0706 11.5471 14.819 11.8412 14.316 12.4295L14.1858 12.5817C14.0429 12.7488 13.9714 12.8324 13.9392 12.9358C13.9071 13.0392 13.9179 13.1507 13.9395 13.3738L13.9592 13.5768C14.0352 14.3617 14.0733 14.7541 13.8435 14.9286C13.6136 15.103 13.2682 14.944 12.5773 14.6258L12.3986 14.5435C12.2022 14.4531 12.1041 14.4079 12 14.4079C11.8959 14.4079 11.7978 14.4531 11.6014 14.5435L11.4227 14.6258C10.7318 14.944 10.3864 15.103 10.1565 14.9286C9.92674 14.7541 9.96476 14.3617 10.0408 13.5768L10.0605 13.3738C10.0821 13.1507 10.0929 13.0392 10.0608 12.9358C10.0286 12.8324 9.95713 12.7488 9.81418 12.5817L9.68403 12.4295C9.18097 11.8412 8.92945 11.5471 9.01723 11.2648C9.10501 10.9825 9.47396 10.8991 10.2119 10.7321L10.4028 10.6889C10.6125 10.6415 10.7173 10.6177 10.8015 10.5538C10.8857 10.4899 10.9397 10.3931 11.0476 10.1994L11.1459 10.023Z" stroke="#000000" stroke-width="1.5"/>
</svg>
