<svg width="24" height="24" viewBox="0 0 24 24" fill="none" xmlns="http://www.w3.org/2000/svg">
<path d="M4 10.0005C4 6.22925 4 4.34363 5.17157 3.17206C6.34315 2.00049 8.22876 2.00049 12 2.00049C15.7712 2.00049 17.6569 2.00049 18.8284 3.17206C20 4.34363 20 6.22925 20 10.0005V12.0005C20 15.7717 20 17.6573 18.8284 18.8289C17.6569 20.0005 15.7712 20.0005 12 20.0005C8.22876 20.0005 6.34315 20.0005 5.17157 18.8289C4 17.6573 4 15.7717 4 12.0005V10.0005Z" stroke="#1C274C" stroke-width="1.5"/>
<path d="M4 13.0005H20" stroke="#1C274C" stroke-width="1.5" stroke-linecap="round" stroke-linejoin="round"/>
<path d="M15.5 16.0005H17" stroke="#1C274C" stroke-width="1.5" stroke-linecap="round" stroke-linejoin="round"/>
<path d="M7 16.0005H8.5" stroke="#1C274C" stroke-width="1.5" stroke-linecap="round" stroke-linejoin="round"/>
<path d="M7 20.0005L6 22.0005" stroke="#1C274C" stroke-width="1.5" stroke-linecap="round" stroke-linejoin="round"/>
<path d="M17 20.0005L18 22.0005" stroke="#1C274C" stroke-width="1.5" stroke-linecap="round" stroke-linejoin="round"/>
<path d="M10 2.00049V2.50049C10 3.60506 10.8954 4.50049 12 4.50049C13.1046 4.50049 14 3.60506 14 2.50049V2.00049" stroke="#1C274C" stroke-width="1.5" stroke-linecap="round" stroke-linejoin="round"/>
</svg>
