<svg width="24" height="24" viewBox="0 0 24 24" fill="none" xmlns="http://www.w3.org/2000/svg">
<path d="M16.2426 16.243C17.3284 15.1572 18 13.6572 18 12.0004C18 8.68666 15.3137 6.00037 12 6.00037C8.68629 6.00037 6 8.68666 6 12.0004C6 13.6572 6.67157 15.1572 7.75736 16.243" stroke="#1C274C" stroke-width="1.5" stroke-linecap="round"/>
<path d="M19.0711 19.0714C20.8807 17.2618 22 14.7618 22 12.0004C22 6.47752 17.5228 2.00037 12 2.00037C6.47715 2.00037 2 6.47752 2 12.0004C2 14.7618 3.11929 17.2618 4.92893 19.0714" stroke="#1C274C" stroke-width="1.5" stroke-linecap="round"/>
<circle cx="12" cy="12.0004" r="2" stroke="#1C274C" stroke-width="1.5"/>
<path d="M9.88736 17.3445C10.8467 16.4687 11.3264 16.0308 11.9187 16.0023C11.9729 15.9997 12.0271 15.9997 12.0813 16.0023C12.6736 16.0308 13.1533 16.4687 14.1126 17.3445C16.2001 19.25 17.2439 20.2028 16.9517 21.0249C16.9266 21.0956 16.8954 21.1643 16.8584 21.2305C16.4282 22.0004 14.9522 22.0004 12 22.0004C9.04784 22.0004 7.57176 22.0004 7.14161 21.2305C7.10463 21.1643 7.07344 21.0956 7.04832 21.0249C6.75612 20.2028 7.79987 19.25 9.88736 17.3445Z" stroke="#1C274C" stroke-width="1.5"/>
</svg>
