<svg width="24" height="24" viewBox="0 0 24 24" fill="none" xmlns="http://www.w3.org/2000/svg">
<path d="M19.1414 5.0004C20.9097 6.80415 22 9.27495 22 12.0004C22 14.7582 20.8836 17.2553 19.0782 19.0644M5 19.1418C3.14864 17.3269 2 14.7978 2 12.0004C2 9.23537 3.12222 6.73244 4.93603 4.92224" stroke="#1C274C" stroke-width="1.5" stroke-linecap="round" stroke-linejoin="round"/>
<path d="M16.2849 8.04434C17.3458 9.05914 18 10.4492 18 11.9826C18 13.5341 17.3302 14.939 16.2469 15.9568M7.8 16.0004C6.68918 14.9793 6 13.5564 6 11.9826C6 10.4269 6.67333 9.01879 7.76162 8.00037" stroke="#1C274C" stroke-width="1.5" stroke-linecap="round" stroke-linejoin="round"/>
<circle cx="12" cy="12.0004" r="2" stroke="#1C274C" stroke-width="1.5"/>
</svg>
