<svg width="24" height="24" viewBox="0 0 24 24" fill="none" xmlns="http://www.w3.org/2000/svg">
<path d="M6 4.00049C6 5.10506 5.10457 6.00049 4 6.00049C2.89543 6.00049 2 5.10506 2 4.00049C2 2.89592 2.89543 2.00049 4 2.00049C5.10457 2.00049 6 2.89592 6 4.00049Z" stroke="#1C274C" stroke-width="1.5"/>
<path d="M6 20.0005C6 21.1051 5.10457 22.0005 4 22.0005C2.89543 22.0005 2 21.1051 2 20.0005C2 18.8959 2.89543 18.0005 4 18.0005C5.10457 18.0005 6 18.8959 6 20.0005Z" stroke="#1C274C" stroke-width="1.5"/>
<path d="M14 20.0005C14 21.1051 13.1046 22.0005 12 22.0005C10.8954 22.0005 10 21.1051 10 20.0005C10 18.8959 10.8954 18.0005 12 18.0005C13.1046 18.0005 14 18.8959 14 20.0005Z" stroke="#1C274C" stroke-width="1.5"/>
<path d="M14 4.00049C14 5.10506 13.1046 6.00049 12 6.00049C10.8954 6.00049 10 5.10506 10 4.00049C10 2.89592 10.8954 2.00049 12 2.00049C13.1046 2.00049 14 2.89592 14 4.00049Z" stroke="#1C274C" stroke-width="1.5"/>
<path d="M22 4.00049C22 5.10506 21.1046 6.00049 20 6.00049C18.8954 6.00049 18 5.10506 18 4.00049C18 2.89592 18.8954 2.00049 20 2.00049C21.1046 2.00049 22 2.89592 22 4.00049Z" stroke="#1C274C" stroke-width="1.5"/>
<path d="M4 6.00049V18.0005" stroke="#1C274C" stroke-width="1.5" stroke-linecap="round"/>
<path d="M12 6.00049V18.0005" stroke="#1C274C" stroke-width="1.5" stroke-linecap="round"/>
<path d="M20 6.00049V8.00049C20 9.88611 20 10.8289 19.4142 11.4147C18.8284 12.0005 17.8856 12.0005 16 12.0005H4" stroke="#1C274C" stroke-width="1.5" stroke-linecap="round"/>
<path d="M18 15.0005V14.2505C17.5858 14.2505 17.25 14.5863 17.25 15.0005H18ZM17.25 22.0005C17.25 22.4147 17.5858 22.7505 18 22.7505C18.4142 22.7505 18.75 22.4147 18.75 22.0005H17.25ZM21.3604 22.3921C21.5766 22.7454 22.0384 22.8564 22.3916 22.6401C22.7449 22.4238 22.8559 21.9621 22.6396 21.6089L21.3604 22.3921ZM18 15.7505H20.2857V14.2505H18V15.7505ZM18.75 18.5005V15.0005H17.25V18.5005H18.75ZM21.25 16.7505C21.25 17.3174 20.8038 17.7505 20.2857 17.7505V19.2505C21.6612 19.2505 22.75 18.1165 22.75 16.7505H21.25ZM20.2857 15.7505C20.8038 15.7505 21.25 16.1835 21.25 16.7505H22.75C22.75 15.3844 21.6612 14.2505 20.2857 14.2505V15.7505ZM20.2857 17.7505H19.8571V19.2505H20.2857V17.7505ZM19.8571 17.7505H18V19.2505H19.8571V17.7505ZM19.2175 18.8921L21.3604 22.3921L22.6396 21.6089L20.4968 18.1089L19.2175 18.8921ZM17.25 18.5005V22.0005H18.75V18.5005H17.25Z" fill="#1C274C"/>
</svg>
