<svg width="24" height="24" viewBox="0 0 24 24" fill="none" xmlns="http://www.w3.org/2000/svg">
<circle cx="15" cy="4.00049" r="2" stroke="#1C274C" stroke-width="1.5"/>
<path d="M11 16.0005V14.3669C11 13.8179 10.7561 13.2972 10.3344 12.9457L9.33793 12.1154C8.61946 11.5167 8.57018 10.4303 9.2315 9.76896L10.8855 8.11498C11.4193 7.58115 11.2452 6.67695 10.5513 6.37956C9.26627 5.82885 7.79304 5.9423 6.60752 6.68325L4.5 8.00045" stroke="#1C274C" stroke-width="1.5" stroke-linecap="round"/>
<path d="M7 14.0005L6.67157 14.3289C6.09351 14.907 5.80448 15.196 5.43694 15.3482C5.0694 15.5005 4.66065 15.5005 3.84315 15.5005H3" stroke="#1C274C" stroke-width="1.5" stroke-linecap="round"/>
<path d="M12.5 10.0005H15.5" stroke="#1C274C" stroke-width="1.5" stroke-linecap="round"/>
<path d="M19.4888 22.0006H3.08684C2.48659 22.0006 2 21.514 2 20.9138C2 20.3858 2.37943 19.9342 2.89949 19.8432L19.0559 17.0158C20.5926 16.7469 22 17.9294 22 19.4894C22 20.8763 20.8757 22.0006 19.4888 22.0006Z" stroke="#1C274C" stroke-width="1.5" stroke-linejoin="round"/>
<path d="M19.2916 8.88951L18.5499 8.77826V8.77826L19.2916 8.88951ZM20.8773 7.22503L21.0244 7.96047L20.8773 7.22503ZM22.1471 7.73592C22.5533 7.65469 22.8167 7.25957 22.7354 6.8534C22.6542 6.44723 22.2591 6.18382 21.8529 6.26505L22.1471 7.73592ZM18.7417 17.6117L20.0333 9.00077L18.5499 8.77826L17.2583 17.3892L18.7417 17.6117ZM21.0244 7.96047L22.1471 7.73592L21.8529 6.26505L20.7302 6.4896L21.0244 7.96047ZM20.0333 9.00077C20.0862 8.64831 20.1178 8.44536 20.1568 8.29898C20.1744 8.23301 20.1885 8.19932 20.1965 8.18337C20.2002 8.17598 20.2024 8.17267 20.2029 8.17193C20.2034 8.17131 20.2034 8.17123 20.2037 8.1709L19.1177 7.13628C18.8906 7.37461 18.7782 7.64735 18.7076 7.91221C18.6418 8.15874 18.5978 8.45933 18.5499 8.77826L20.0333 9.00077ZM20.7302 6.4896C20.414 6.55284 20.1159 6.61134 19.8728 6.68901C19.6117 6.77246 19.3447 6.89794 19.1177 7.13628L20.2037 8.1709C20.2041 8.17058 20.2041 8.17049 20.2047 8.17003C20.2054 8.16948 20.2086 8.16709 20.2159 8.16305C20.2314 8.15434 20.2644 8.13862 20.3294 8.11783C20.4737 8.07172 20.6749 8.03036 21.0244 7.96047L20.7302 6.4896Z" fill="#1C274C"/>
</svg>
