<svg width="24" height="24" viewBox="0 0 24 24" fill="none" xmlns="http://www.w3.org/2000/svg">
<circle cx="15" cy="4.00049" r="2" stroke="#1C274C" stroke-width="1.5"/>
<path d="M11 16.0006V15.0268C11 14.9083 11 14.8491 10.9979 14.7924C10.9672 13.9816 10.6095 13.2178 10.0062 12.6752C9.96408 12.6373 9.91852 12.5993 9.8275 12.5235C9.69411 12.4123 9.62741 12.3568 9.5758 12.3071C8.80944 11.5694 8.75462 10.3608 9.45104 9.55679C9.49795 9.50263 9.55934 9.44124 9.68211 9.31847L10.0113 8.98923C10.9639 8.03671 10.6532 6.42336 9.41502 5.89273C8.84181 5.64707 8.18464 5.69767 7.65581 6.0282L4.5 8.00058" stroke="#1C274C" stroke-width="1.5" stroke-linecap="round"/>
<path d="M3 15.5005H3.37868C4.73694 15.5005 6.03957 14.9609 7 14.0005" stroke="#1C274C" stroke-width="1.5" stroke-linecap="round"/>
<path d="M12.5 10.0005C13.4737 10.325 14.5263 10.325 15.5 10.0005" stroke="#1C274C" stroke-width="1.5" stroke-linecap="round"/>
<path d="M19.4888 22.0006H3.08684C2.48659 22.0006 2 21.514 2 20.9138C2 20.3858 2.37943 19.9342 2.89949 19.8432L19.0559 17.0158C20.5926 16.7469 22 17.9294 22 19.4894C22 20.8763 20.8757 22.0006 19.4888 22.0006Z" stroke="#1C274C" stroke-width="1.5" stroke-linejoin="round"/>
<path d="M19.1218 10.0218L18.3801 9.91053L19.1218 10.0218ZM22.1471 7.73592C22.5533 7.65469 22.8167 7.25957 22.7354 6.8534C22.6542 6.44723 22.2591 6.18382 21.8529 6.26505L22.1471 7.73592ZM18.7417 17.6117L19.8635 10.133L18.3801 9.91053L17.2583 17.3892L18.7417 17.6117ZM19.8635 10.133C20.0436 8.93266 20.9568 7.97397 22.1471 7.73592L21.8529 6.26505C20.0428 6.62707 18.6539 8.08501 18.3801 9.91053L19.8635 10.133Z" fill="#1C274C"/>
</svg>
