<svg width="24" height="24" viewBox="0 0 24 24" fill="none" xmlns="http://www.w3.org/2000/svg">
<path d="M19 22.0001V21.5001M5 22.0001V21.5001" stroke="#000000" stroke-width="1.5" stroke-linecap="round"/>
<path d="M12 21.0001V15.0001" stroke="#000000" stroke-width="1.5" stroke-linecap="round"/>
<path d="M2.87867 20.1214L2.34834 20.6518H2.34834L2.87867 20.1214ZM2.00172 16.0002L1.25174 16.0044L2.00172 16.0002ZM21.1213 20.1214L21.6516 20.6518L21.1213 20.1214ZM21.9982 16.0002L22.7482 16.0044V16.0044L21.9982 16.0002ZM16 20.2501H7.99999V21.7501H16V20.2501ZM7.99999 20.2501C6.56457 20.2501 5.56346 20.2485 4.80811 20.147C4.07433 20.0483 3.68576 19.8679 3.409 19.5911L2.34834 20.6518C2.95025 21.2537 3.70813 21.5126 4.60824 21.6336C5.48677 21.7517 6.60698 21.7501 7.99999 21.7501V20.2501ZM1.25174 16.0044C1.25776 17.0859 1.28364 17.9872 1.41894 18.7238C1.55817 19.4818 1.82341 20.1268 2.34834 20.6518L3.409 19.5911C3.16554 19.3477 2.99837 19.0196 2.89425 18.4528C2.7862 17.8646 2.7578 17.0895 2.75171 15.996L1.25174 16.0044ZM16 21.7501C17.393 21.7501 18.5132 21.7517 19.3917 21.6336C20.2918 21.5126 21.0497 21.2537 21.6516 20.6518L20.591 19.5911C20.3142 19.8679 19.9256 20.0483 19.1919 20.147C18.4365 20.2485 17.4354 20.2501 16 20.2501V21.7501ZM21.2483 15.996C21.2422 17.0895 21.2138 17.8646 21.1057 18.4528C21.0016 19.0196 20.8344 19.3477 20.591 19.5911L21.6516 20.6518C22.1766 20.1268 22.4418 19.4818 22.581 18.7238C22.7163 17.9872 22.7422 17.0859 22.7482 16.0044L21.2483 15.996ZM2.99999 15.7501H21V14.2501H2.99999V15.7501ZM22.7482 16.0044C22.7536 15.0326 21.9644 14.2501 21 14.2501V15.7501C21.1401 15.7501 21.249 15.8633 21.2483 15.996L22.7482 16.0044ZM2.75171 15.996C2.75097 15.8633 2.85986 15.7501 2.99999 15.7501V14.2501C2.03555 14.2501 1.24633 15.0326 1.25174 16.0044L2.75171 15.996Z" fill="#000000"/>
<path d="M20.5 15.0001V6.13759C20.5 5.74965 20.5 5.55568 20.4822 5.42302C20.359 4.50707 19.8459 3.94522 18.9449 3.73964C18.8144 3.70987 18.5429 3.68518 18 3.63583C16.9981 3.54475 15.8169 3.19603 14.7687 2.81468C13.2754 2.2714 12.5288 1.99976 12 1.99976C11.4712 1.99976 10.7246 2.2714 9.23133 2.81468C8.18314 3.19603 7.00193 3.54475 6 3.63583C5.45709 3.68519 5.18562 3.70987 5.05512 3.73964C4.15409 3.94522 3.64099 4.50707 3.51784 5.42302C3.5 5.55568 3.5 5.74965 3.5 6.13759V15.0001" stroke="#000000" stroke-width="1.5"/>
<path d="M15 18.0001L17 18.0001" stroke="#000000" stroke-width="1.5" stroke-linecap="round"/>
<path d="M7 18.0001L9 18.0001" stroke="#000000" stroke-width="1.5" stroke-linecap="round"/>
<path d="M14.5 11.0001L13.5 12.0001M13.5 8.00012L10.5 11.0001M10.5 7.00012L9.5 8.00012" stroke="#000000" stroke-width="1.5" stroke-linecap="round"/>
</svg>
