<svg width="24" height="24" viewBox="0 0 24 24" fill="none" xmlns="http://www.w3.org/2000/svg">
<path d="M14 14.5005C14 12.8436 15.3431 11.5005 17 11.5005C18.6568 11.5005 20 12.8436 20 14.5005C20 16.1573 18.6568 17.5005 17 17.5005C15.3431 17.5005 14 16.1573 14 14.5005Z" stroke="#1C274C" stroke-width="1.5"/>
<path d="M3.99998 9.50049C3.99998 11.1573 5.34312 12.5005 6.99998 12.5005C8.65683 12.5005 9.99998 11.1573 9.99998 9.50049C9.99998 7.84363 8.65683 6.50049 6.99998 6.50049C5.34312 6.50049 3.99998 7.84363 3.99998 9.50049Z" stroke="#1C274C" stroke-width="1.5"/>
<path d="M16.9585 9.00049L16.9585 2.00049" stroke="#1C274C" stroke-width="1.5" stroke-linecap="round"/>
<path d="M6.9585 15.0005L6.9585 22.0005" stroke="#1C274C" stroke-width="1.5" stroke-linecap="round"/>
<path d="M16.9585 22.0005L16.9585 20.0005" stroke="#1C274C" stroke-width="1.5" stroke-linecap="round"/>
<path d="M6.9585 2.00049L6.9585 4.00049" stroke="#1C274C" stroke-width="1.5" stroke-linecap="round"/>
</svg>
