<svg width="24" height="24" viewBox="0 0 24 24" fill="none" xmlns="http://www.w3.org/2000/svg">
<path d="M2 12.0005C2 7.28644 2 4.92942 3.46447 3.46495C4.92893 2.00049 7.28595 2.00049 12 2.00049C16.714 2.00049 19.0711 2.00049 20.5355 3.46495C22 4.92942 22 7.28644 22 12.0005C22 16.7145 22 19.0716 20.5355 20.536C19.0711 22.0005 16.714 22.0005 12 22.0005C7.28595 22.0005 4.92893 22.0005 3.46447 20.536C2 19.0716 2 16.7145 2 12.0005Z" stroke="#1C274C" stroke-width="1.5"/>
<path d="M10 14.0005C11.1046 14.0005 12 14.8959 12 16.0005C12 17.1051 11.1046 18.0005 10 18.0005C8.89543 18.0005 8 17.1051 8 16.0005C8 14.8959 8.89543 14.0005 10 14.0005Z" stroke="#1C274C" stroke-width="1.5"/>
<circle cx="2" cy="2" r="2" transform="matrix(-4.37114e-08 -1 -1 4.37114e-08 16 10.0005)" stroke="#1C274C" stroke-width="1.5"/>
<path d="M14 16.0005L19 16.0005" stroke="#1C274C" stroke-width="1.5" stroke-linecap="round"/>
<path d="M10 8.00049L5 8.00049" stroke="#1C274C" stroke-width="1.5" stroke-linecap="round"/>
<path d="M5 16.0005L6 16.0005" stroke="#1C274C" stroke-width="1.5" stroke-linecap="round"/>
<path d="M19 8.00049L18 8.00049" stroke="#1C274C" stroke-width="1.5" stroke-linecap="round"/>
</svg>
