<svg width="24" height="24" viewBox="0 0 24 24" fill="none" xmlns="http://www.w3.org/2000/svg">
<path d="M12 22.0001C7.28595 22.0001 4.92893 22.0001 3.46447 20.5357C2 19.0712 2 16.7142 2 12.0001C2 7.28608 2 4.92905 3.46447 3.46459C4.92893 2.00012 7.28595 2.00012 12 2.00012C16.714 2.00012 19.0711 2.00012 20.5355 3.46459C21.7764 4.70541 21.9658 6.587 21.9948 10.0001" stroke="#1C274C" stroke-width="1.5" stroke-linecap="round"/>
<path d="M19 20.0001V16.0001V12.0001" stroke="#1C274C" stroke-width="1.5" stroke-linecap="round"/>
<circle cx="17" cy="20.0001" r="2" stroke="#1C274C" stroke-width="1.5"/>
<path d="M22 15.0001C20.3431 15.0001 19 13.657 19 12.0001" stroke="#1C274C" stroke-width="1.5" stroke-linecap="round"/>
<path d="M9 12.0001C9 10.3433 10.3431 9.00012 12 9.00012C13.6569 9.00012 15 10.3433 15 12.0001C15 13.657 13.6569 15.0001 12 15.0001C10.3431 15.0001 9 13.657 9 12.0001Z" stroke="#1C274C" stroke-width="1.5"/>
</svg>
