<svg width="24" height="24" viewBox="0 0 24 24" fill="none" xmlns="http://www.w3.org/2000/svg">
<path d="M2 12.0001C2 7.28608 2 4.92905 3.46447 3.46459C4.92893 2.00012 7.28595 2.00012 12 2.00012C16.714 2.00012 19.0711 2.00012 20.5355 3.46459C22 4.92905 22 7.28608 22 12.0001C22 16.7142 22 19.0712 20.5355 20.5357C19.0711 22.0001 16.714 22.0001 12 22.0001C7.28595 22.0001 4.92893 22.0001 3.46447 20.5357C2 19.0712 2 16.7142 2 12.0001Z" stroke="#1C274C" stroke-width="1.5"/>
<path d="M14 10.5001L16.5547 8.79699C16.8329 8.61152 17 8.29929 17 7.96494V2.50012" stroke="#1C274C" stroke-width="1.5" stroke-linecap="round"/>
<path d="M17 12.0001C17 14.7615 14.7614 17.0001 12 17.0001C9.23858 17.0001 7 14.7615 7 12.0001C7 9.2387 9.23858 7.00012 12 7.00012C12.5226 7.00012 13.0265 7.0803 13.5 7.22902" stroke="#1C274C" stroke-width="1.5" stroke-linecap="round"/>
<path d="M12 14.0001C10.8954 14.0001 10 13.1047 10 12.0001" stroke="#1C274C" stroke-width="1.5" stroke-linecap="round"/>
</svg>
