<svg width="24" height="24" viewBox="0 0 24 24" fill="none" xmlns="http://www.w3.org/2000/svg">
<path d="M2 12.0001C2 7.28608 2 4.92905 3.17157 3.46459C4.34315 2.00012 6.22876 2.00012 10 2.00012H14C17.7712 2.00012 19.6569 2.00012 20.8284 3.46459C22 4.92905 22 7.28608 22 12.0001C22 16.7142 22 19.0712 20.8284 20.5357C19.6569 22.0001 17.7712 22.0001 14 22.0001H10C6.22876 22.0001 4.34315 22.0001 3.17157 20.5357C2 19.0712 2 16.7142 2 12.0001Z" stroke="#000000" stroke-width="1.5"/>
<path d="M15 17.0001L15.8944 16.5529C16.572 16.2141 17 15.5216 17 14.7641V10.5001" stroke="#000000" stroke-width="1.5" stroke-linecap="round"/>
<rect x="6" y="8.00012" width="8" height="8" rx="4" stroke="#000000" stroke-width="1.5"/>
<path d="M15.5 9.00012C15.5 8.17169 16.1716 7.50012 17 7.50012C17.8284 7.50012 18.5 8.17169 18.5 9.00012C18.5 9.82855 17.8284 10.5001 17 10.5001C16.1716 10.5001 15.5 9.82855 15.5 9.00012Z" stroke="#000000" stroke-width="1.5"/>
</svg>
