<svg width="24" height="24" viewBox="0 0 24 24" fill="none" xmlns="http://www.w3.org/2000/svg">
<path d="M22 16.0001C22 18.8286 22 20.2428 21.1213 21.1214C20.2426 22.0001 18.8284 22.0001 16 22.0001L8 22.0001C5.17157 22.0001 3.75736 22.0001 2.87868 21.1214C2 20.2428 2 18.8286 2 16.0001L2 12.0001C2 9.1717 2 7.75748 2.87868 6.8788C3.75736 6.00012 5.17157 6.00012 8 6.00012L16 6.00012C18.8284 6.00012 20.2426 6.00012 21.1213 6.8788C22 7.75748 22 9.17169 22 12.0001V16.0001Z" stroke="#1C274C" stroke-width="1.5"/>
<path d="M9 2.00012L12 5.50012L15 2.00012" stroke="#1C274C" stroke-width="1.5" stroke-linecap="round"/>
<path d="M16 6.00012V22.0001" stroke="#1C274C" stroke-width="1.5" stroke-linecap="round"/>
<path d="M20 16.0001C20 15.4478 19.5523 15.0001 19 15.0001C18.4477 15.0001 18 15.4478 18 16.0001C18 16.5524 18.4477 17.0001 19 17.0001C19.5523 17.0001 20 16.5524 20 16.0001Z" fill="#1C274C"/>
<path d="M20 12.0001C20 11.4478 19.5523 11.0001 19 11.0001C18.4477 11.0001 18 11.4478 18 12.0001C18 12.5524 18.4477 13.0001 19 13.0001C19.5523 13.0001 20 12.5524 20 12.0001Z" fill="#1C274C"/>
</svg>
