<svg width="24" height="24" viewBox="0 0 24 24" fill="none" xmlns="http://www.w3.org/2000/svg">
<path d="M18.9219 12.1491C20.5252 14.7729 20.9934 17.1486 19.9011 18.241C18.2711 19.8709 13.784 18.0264 9.87877 14.1212C5.97353 10.2159 4.12901 5.72878 5.75892 4.09887C6.85128 3.00651 9.22702 3.47475 11.8508 5.07801" stroke="#1C274C" stroke-width="1.5"/>
<path d="M11.4847 5.44435C13.3314 3.59765 16.3255 3.59765 18.1722 5.44435L18.5558 5.82794C20.4025 7.67463 20.4025 10.6687 18.5558 12.5154C18.4304 12.6408 18.2697 12.7249 18.0952 12.6935C17.5987 12.6044 16.3769 12.1343 14.1213 9.87878C11.8658 7.62322 11.3957 6.40138 11.3066 5.90492C11.2752 5.73046 11.3594 5.56969 11.4847 5.44435Z" stroke="#1C274C" stroke-width="1.5"/>
<circle cx="12" cy="11.9999" r="1" transform="rotate(45 12 11.9999)" fill="#1C274C"/>
<circle cx="9.17157" cy="7.75748" r="1" transform="rotate(45 9.17157 7.75748)" fill="#1C274C"/>
<circle cx="16.2426" cy="14.8285" r="1" transform="rotate(45 16.2426 14.8285)" fill="#1C274C"/>
<path d="M3.63606 20.364L7.75739 16.2427" stroke="#1C274C" stroke-width="1.5" stroke-linecap="round"/>
<path d="M9.99982 21.9995L12.7071 19.7781" stroke="#1C274C" stroke-width="1.5" stroke-linecap="round"/>
<path d="M2.00012 14L4.2218 11.293" stroke="#1C274C" stroke-width="1.5" stroke-linecap="round"/>
</svg>
