<svg width="24" height="24" viewBox="0 0 24 24" fill="none" xmlns="http://www.w3.org/2000/svg">
<circle cx="12" cy="17.0004" r="1" stroke="#1C274C" stroke-width="1.5"/>
<circle cx="8" cy="9.00037" r="1" stroke="#1C274C" stroke-width="1.5"/>
<path d="M11.25 16.0004C11.25 16.4146 11.5858 16.7504 12 16.7504C12.4142 16.7504 12.75 16.4146 12.75 16.0004H11.25ZM12 6.00037L12.5303 5.47004C12.2374 5.17714 11.7626 5.17714 11.4697 5.47004L12 6.00037ZM12.4697 7.5307C12.7626 7.82359 13.2374 7.82359 13.5303 7.5307C13.8232 7.2378 13.8232 6.76293 13.5303 6.47004L12.4697 7.5307ZM10.4697 6.47004C10.1768 6.76293 10.1768 7.2378 10.4697 7.5307C10.7626 7.82359 11.2374 7.82359 11.5303 7.5307L10.4697 6.47004ZM11.4697 6.5307L12.4697 7.5307L13.5303 6.47004L12.5303 5.47004L11.4697 6.5307ZM11.4697 5.47004L10.4697 6.47004L11.5303 7.5307L12.5303 6.5307L11.4697 5.47004ZM12.75 16.0004V14.1254H11.25V16.0004H12.75ZM12.75 14.1254V6.00037H11.25V14.1254H12.75Z" fill="#1C274C"/>
<path d="M8 10.0004V11.03C8 11.9048 8.5685 12.678 9.40345 12.9389L10.8069 13.3775C11.5167 13.5993 12 14.2567 12 15.0004" stroke="#1C274C" stroke-width="1.5" stroke-linecap="round"/>
<path d="M16 11.0004V12.03C16 12.9048 15.4315 13.678 14.5966 13.9389L13.1931 14.3775C12.4833 14.5993 12 15.2567 12 16.0004" stroke="#1C274C" stroke-width="1.5" stroke-linecap="round"/>
<path d="M15 10.0004C15 9.52896 15 9.29326 15.1464 9.14681C15.2929 9.00037 15.5286 9.00037 16 9.00037C16.4714 9.00037 16.7071 9.00037 16.8536 9.14681C17 9.29326 17 9.52896 17 10.0004C17 10.4718 17 10.7075 16.8536 10.8539C16.7071 11.0004 16.4714 11.0004 16 11.0004C15.5286 11.0004 15.2929 11.0004 15.1464 10.8539C15 10.7075 15 10.4718 15 10.0004Z" stroke="#1C274C" stroke-width="1.5"/>
<path d="M2 12.0004C2 7.28632 2 4.9293 3.46447 3.46483C4.92893 2.00037 7.28595 2.00037 12 2.00037C16.714 2.00037 19.0711 2.00037 20.5355 3.46483C22 4.9293 22 7.28632 22 12.0004C22 16.7144 22 19.0714 20.5355 20.5359C19.0711 22.0004 16.714 22.0004 12 22.0004C7.28595 22.0004 4.92893 22.0004 3.46447 20.5359C2 19.0714 2 16.7144 2 12.0004Z" stroke="#1C274C" stroke-width="1.5"/>
</svg>
