<svg width="24" height="24" viewBox="0 0 24 24" fill="none" xmlns="http://www.w3.org/2000/svg">
<path d="M14.4603 18.7455L14.9906 19.2758L14.9906 19.2758L14.4603 18.7455ZM15.2274 17.9783L14.6971 17.448L14.6971 17.448L15.2274 17.9783ZM18.4821 13.3755L19.2321 13.3755L18.4821 13.3755ZM6.02184 8.77274L6.55217 9.30307L6.55217 9.30307L6.02184 8.77274ZM10.6246 5.51807L10.6246 6.26807L10.6246 5.51807ZM5.2547 9.53987L4.72437 9.00954L4.72437 9.00954L5.2547 9.53987ZM2.00003 14.1427L1.25003 14.1427L2.00003 14.1427ZM5.78503 13.6123C5.49214 13.3195 5.01727 13.3195 4.72437 13.6123C4.43148 13.9052 4.43148 14.3801 4.72437 14.673L5.78503 13.6123ZM9.32718 19.2758C9.62007 19.5687 10.0949 19.5687 10.3878 19.2758C10.6807 18.9829 10.6807 18.508 10.3878 18.2152L9.32718 19.2758ZM5.78503 10.0702L6.55217 9.30307L5.49151 8.24241L4.72437 9.00954L5.78503 10.0702ZM14.6971 17.448L13.93 18.2152L14.9906 19.2758L15.7578 18.5087L14.6971 17.448ZM13.93 18.2152C12.8301 19.315 12.0574 20.0855 11.3959 20.5902C10.7516 21.0818 10.3017 21.2502 9.85751 21.2502L9.85751 22.7502C10.7615 22.7502 11.528 22.3761 12.3057 21.7828C13.0661 21.2026 13.9207 20.3457 14.9906 19.2758L13.93 18.2152ZM4.72437 19.2758C5.79427 20.3457 6.64892 21.2026 7.40929 21.7828C8.18696 22.3761 8.95352 22.7502 9.85751 22.7502L9.85751 21.2502C9.41336 21.2502 8.96341 21.0818 8.31916 20.5902C7.65761 20.0855 6.88492 19.315 5.78503 18.2152L4.72437 19.2758ZM14.6971 9.30307C15.797 10.403 16.5674 11.1756 17.0722 11.8372C17.5637 12.4814 17.7321 12.9314 17.7321 13.3755L19.2321 13.3755C19.2321 12.4716 18.8581 11.705 18.2647 10.9273C17.6846 10.167 16.8277 9.31231 15.7578 8.24241L14.6971 9.30307ZM15.7578 18.5087C16.8277 17.4388 17.6846 16.5841 18.2647 15.8238C18.8581 15.0461 19.2321 14.2795 19.2321 13.3755L17.7321 13.3755C17.7321 13.8197 17.5637 14.2696 17.0722 14.9139C16.5674 15.5754 15.797 16.3481 14.6971 17.448L15.7578 18.5087ZM6.55217 9.30307C7.65205 8.20319 8.42474 7.43275 9.08629 6.928C9.73054 6.43646 10.1805 6.26807 10.6246 6.26807L10.6246 4.76807C9.72066 4.76807 8.9541 5.14212 8.17642 5.73547C7.41605 6.31561 6.56141 7.17251 5.49151 8.24241L6.55217 9.30307ZM15.7578 8.24241C14.6879 7.17251 13.8332 6.31561 13.0729 5.73547C12.2952 5.14212 11.5286 4.76807 10.6246 4.76807L10.6246 6.26807C11.0688 6.26807 11.5187 6.43646 12.163 6.928C12.8245 7.43275 13.5972 8.20319 14.6971 9.30307L15.7578 8.24241ZM4.72437 9.00954C3.65447 10.0794 2.79757 10.9341 2.21743 11.6945C1.62409 12.4721 1.25003 13.2387 1.25003 14.1427L2.75003 14.1427C2.75003 13.6985 2.91842 13.2486 3.40997 12.6043C3.91471 11.9428 4.68515 11.1701 5.78503 10.0702L4.72437 9.00954ZM5.78503 18.2152C4.68515 17.1153 3.91471 16.3426 3.40996 15.681C2.91842 15.0368 2.75003 14.5868 2.75003 14.1427L1.25003 14.1427C1.25003 15.0467 1.62409 15.8132 2.21743 16.5909C2.79757 17.3513 3.65447 18.2059 4.72437 19.2758L5.78503 18.2152ZM4.72437 14.673L9.32718 19.2758L10.3878 18.2152L5.78503 13.6123L4.72437 14.673Z" fill="#000000"/>
<path d="M19.8301 10.4411L20.3647 10.9672L19.8301 10.4411ZM17.7613 11.4741C17.4708 11.7693 17.4746 12.2441 17.7698 12.5347C18.065 12.8252 18.5399 12.8214 18.8304 12.5262L17.7613 11.4741ZM19.8301 4.20493L19.2956 4.731L19.8301 4.20493ZM21.9999 7.32301H22.7499H21.9999ZM13.6931 4.20493L14.2276 4.731H14.2276L13.6931 4.20493ZM16.7616 2.00012V2.75012V2.00012ZM11.4654 5.39932C11.1748 5.69454 11.1786 6.1694 11.4739 6.45994C11.7691 6.75048 12.244 6.74668 12.5345 6.45145L11.4654 5.39932ZM19.2956 9.91502L17.7613 11.4741L18.8304 12.5262L20.3647 10.9672L19.2956 9.91502ZM19.2956 4.731C20.0336 5.48097 20.5333 5.99097 20.8577 6.42303C21.1688 6.8373 21.2499 7.09263 21.2499 7.32301H22.7499C22.7499 6.64013 22.4695 6.07136 22.0572 5.52237C21.6584 4.99118 21.0732 4.39878 20.3647 3.67887L19.2956 4.731ZM20.3647 10.9672C21.0732 10.2472 21.6584 9.65484 22.0572 9.12365C22.4694 8.57466 22.7499 8.00589 22.7499 7.32301H21.2499C21.2499 7.55339 21.1688 7.80872 20.8577 8.22299C20.5333 8.65505 20.0336 9.16505 19.2956 9.91502L20.3647 10.9672ZM14.2276 4.731C14.9658 3.98087 15.4675 3.47336 15.8923 3.14405C16.3002 2.82777 16.5459 2.75012 16.7616 2.75012V1.25012C16.0786 1.25012 15.5132 1.53995 14.9732 1.9586C14.45 2.36423 13.8668 2.95912 13.1585 3.67887L14.2276 4.731ZM20.3647 3.67887C19.6564 2.95912 19.0732 2.36423 18.55 1.9586C18.01 1.53994 17.4446 1.25012 16.7616 1.25012V2.75012C16.9773 2.75012 17.223 2.82777 17.6309 3.14405C18.0557 3.47336 18.5574 3.98087 19.2956 4.731L20.3647 3.67887ZM13.1585 3.67887L11.4654 5.39932L12.5345 6.45145L14.2276 4.731L13.1585 3.67887Z" fill="#000000"/>
<path d="M14.4603 18.7456L14.9906 19.2759H14.9906L14.4603 18.7456ZM15.2274 17.9785L14.6971 17.4481H14.6971L15.2274 17.9785ZM18.4821 13.3757H19.2321H18.4821ZM6.02181 8.77286L6.55214 9.30319V9.30319L6.02181 8.77286ZM5.25467 9.54L4.72434 9.00967V9.00967L5.25467 9.54ZM5.785 13.6125C5.49211 13.3196 5.01724 13.3196 4.72434 13.6125C4.43145 13.9054 4.43145 14.3802 4.72434 14.6731L5.785 13.6125ZM9.32715 19.2759C9.62004 19.5688 10.0949 19.5688 10.3878 19.2759C10.6807 18.983 10.6807 18.5082 10.3878 18.2153L9.32715 19.2759ZM5.785 10.0703L6.55214 9.30319L5.49148 8.24253L4.72434 9.00967L5.785 10.0703ZM14.6971 17.4481L13.9299 18.2153L14.9906 19.2759L15.7577 18.5088L14.6971 17.4481ZM13.9299 18.2153C12.8301 19.3152 12.0574 20.0856 11.3958 20.5903C10.7516 21.0819 10.3016 21.2503 9.85748 21.2503V22.7503C10.7615 22.7503 11.528 22.3762 12.3057 21.7829C13.0661 21.2027 13.9207 20.3458 14.9906 19.2759L13.9299 18.2153ZM4.72434 19.2759C5.79424 20.3458 6.64889 21.2027 7.40926 21.7829C8.18693 22.3762 8.95349 22.7503 9.85748 22.7503V21.2503C9.41333 21.2503 8.96338 21.0819 8.31913 20.5903C7.65758 20.0856 6.88489 19.3152 5.785 18.2153L4.72434 19.2759ZM14.6971 9.30319C15.797 10.4031 16.5674 11.1758 17.0722 11.8373C17.5637 12.4816 17.7321 12.9315 17.7321 13.3757H19.2321C19.2321 12.4717 18.858 11.7051 18.2647 10.9274C17.6845 10.1671 16.8276 9.31243 15.7577 8.24253L14.6971 9.30319ZM15.7577 18.5088C16.8276 17.4389 17.6845 16.5843 18.2647 15.8239C18.858 15.0462 19.2321 14.2796 19.2321 13.3757H17.7321C17.7321 13.8198 17.5637 14.2698 17.0722 14.914C16.5674 15.5756 15.797 16.3483 14.6971 17.4481L15.7577 18.5088ZM6.55214 9.30319C7.65202 8.20331 8.42471 7.43287 9.08626 6.92812C9.73051 6.43658 10.1805 6.26819 10.6246 6.26819V4.76819C9.72063 4.76819 8.95407 5.14224 8.17639 5.73559C7.41602 6.31573 6.56138 7.17263 5.49148 8.24253L6.55214 9.30319ZM15.7577 8.24253C14.6878 7.17263 13.8332 6.31573 13.0728 5.73559C12.2952 5.14224 11.5286 4.76819 10.6246 4.76819V6.26819C11.0688 6.26819 11.5187 6.43658 12.163 6.92812C12.8245 7.43287 13.5972 8.20331 14.6971 9.30319L15.7577 8.24253ZM4.72434 9.00967C3.65444 10.0796 2.79754 10.9342 2.2174 11.6946C1.62406 12.4723 1.25 13.2388 1.25 14.1428H2.75C2.75 13.6987 2.91839 13.2487 3.40993 12.6045C3.91468 11.9429 4.68512 11.1702 5.785 10.0703L4.72434 9.00967ZM5.785 18.2153C4.68512 17.1154 3.91468 16.3427 3.40993 15.6811C2.91839 15.0369 2.75 14.5869 2.75 14.1428H1.25C1.25 15.0468 1.62406 15.8133 2.2174 16.591C2.79754 17.3514 3.65444 18.206 4.72434 19.2759L5.785 18.2153ZM4.72434 14.6731L9.32715 19.2759L10.3878 18.2153L5.785 13.6125L4.72434 14.6731Z" fill="#000000"/>
<path d="M18.7175 7.40393L18.0104 8.11104" stroke="#000000" stroke-width="1.5" stroke-linecap="round"/>
<path d="M16.5962 5.28259L15.8891 5.9897" stroke="#000000" stroke-width="1.5" stroke-linecap="round"/>
</svg>
