<svg width="24" height="24" viewBox="0 0 24 24" fill="none" xmlns="http://www.w3.org/2000/svg">
<circle cx="12" cy="20.0004" r="2" stroke="#1C274C" stroke-width="1.5"/>
<circle cx="6" cy="6.00037" r="1" stroke="#1C274C" stroke-width="1.5"/>
<path d="M11.25 18.0004C11.25 18.4146 11.5858 18.7504 12 18.7504C12.4142 18.7504 12.75 18.4146 12.75 18.0004H11.25ZM12 2.00037L12.624 1.58434C12.4849 1.37569 12.2508 1.25037 12 1.25037C11.7492 1.25037 11.5151 1.37569 11.376 1.58434L12 2.00037ZM13.376 5.41639C13.6057 5.76104 14.0714 5.85417 14.416 5.6244C14.7607 5.39464 14.8538 4.92899 14.624 4.58434L13.376 5.41639ZM9.37596 4.58434C9.1462 4.92899 9.23933 5.39464 9.58397 5.6244C9.92862 5.85417 10.3943 5.76104 10.624 5.41639L9.37596 4.58434ZM11.376 2.41639L13.376 5.41639L14.624 4.58434L12.624 1.58434L11.376 2.41639ZM11.376 1.58434L9.37596 4.58434L10.624 5.41639L12.624 2.41639L11.376 1.58434ZM12.75 18.0004V15.0004H11.25V18.0004H12.75ZM12.75 15.0004V2.00037H11.25V15.0004H12.75Z" fill="#1C274C"/>
<path d="M6 7.00037V9.55885C6 10.4197 6.55086 11.184 7.36754 11.4562L10.6325 12.5445C11.4491 12.8167 12 13.581 12 14.4419V15.0004" stroke="#1C274C" stroke-width="1.5" stroke-linecap="round"/>
<path d="M18 10.0004V12.5588C18 13.4197 17.4491 14.184 16.6325 14.4562L13.3675 15.5445C12.5509 15.8167 12 16.581 12 17.4419V18.0004" stroke="#1C274C" stroke-width="1.5" stroke-linecap="round"/>
<path d="M17 9.00037C17 8.52896 17 8.29326 17.1464 8.14681C17.2929 8.00037 17.5286 8.00037 18 8.00037C18.4714 8.00037 18.7071 8.00037 18.8536 8.14681C19 8.29326 19 8.52896 19 9.00037C19 9.47177 19 9.70747 18.8536 9.85392C18.7071 10.0004 18.4714 10.0004 18 10.0004C17.5286 10.0004 17.2929 10.0004 17.1464 9.85392C17 9.70747 17 9.47177 17 9.00037Z" stroke="#1C274C" stroke-width="1.5"/>
</svg>
