<svg width="24" height="24" viewBox="0 0 24 24" fill="none" xmlns="http://www.w3.org/2000/svg">
<circle cx="9" cy="9.00049" r="2" stroke="#000000" stroke-width="1.5"/>
<path d="M13 15.0005C13 16.1051 13 17.0005 9 17.0005C5 17.0005 5 16.1051 5 15.0005C5 13.8959 6.79086 13.0005 9 13.0005C11.2091 13.0005 13 13.8959 13 15.0005Z" stroke="#000000" stroke-width="1.5"/>
<path d="M2 12.0005C2 8.22925 2 6.34363 3.17157 5.17206C4.34315 4.00049 6.22876 4.00049 10 4.00049H14C17.7712 4.00049 19.6569 4.00049 20.8284 5.17206C22 6.34363 22 8.22925 22 12.0005C22 15.7717 22 17.6573 20.8284 18.8289C19.6569 20.0005 17.7712 20.0005 14 20.0005H10C6.22876 20.0005 4.34315 20.0005 3.17157 18.8289C2 17.6573 2 15.7717 2 12.0005Z" stroke="#000000" stroke-width="1.5"/>
<path d="M19 12.0005H15" stroke="#000000" stroke-width="1.5" stroke-linecap="round"/>
<path d="M19 9.00049H14" stroke="#000000" stroke-width="1.5" stroke-linecap="round"/>
<path d="M19 15.0005H16" stroke="#000000" stroke-width="1.5" stroke-linecap="round"/>
</svg>
