<svg width="24" height="24" viewBox="0 0 24 24" fill="none" xmlns="http://www.w3.org/2000/svg">
<circle cx="10" cy="6.00049" r="4" stroke="#000000" stroke-width="1.5"/>
<path d="M18 17.5005C18 19.9858 18 22.0005 10 22.0005C2 22.0005 2 19.9858 2 17.5005C2 15.0152 5.58172 13.0005 10 13.0005C14.4183 13.0005 18 15.0152 18 17.5005Z" stroke="#000000" stroke-width="1.5"/>
<path d="M18.0429 12.3661L18.4865 11.7614L18.4865 11.7614L18.0429 12.3661ZM19 8.69184L18.4813 9.23356C18.7713 9.51126 19.2287 9.51126 19.5187 9.23356L19 8.69184ZM19.9571 12.3661L19.5135 11.7614L19.5135 11.7614L19.9571 12.3661ZM19 12.828L19 13.578H19L19 12.828ZM18.4865 11.7614C18.0686 11.4547 17.6081 11.0717 17.2595 10.6686C16.8912 10.2428 16.75 9.9118 16.75 9.69722H15.25C15.25 10.4671 15.6912 11.1483 16.1249 11.6498C16.5782 12.174 17.1391 12.6332 17.5992 12.9708L18.4865 11.7614ZM16.75 9.69722C16.75 9.12117 17.0126 8.87051 17.2419 8.79013C17.4922 8.70238 17.9558 8.73035 18.4813 9.23356L19.5187 8.15011C18.6943 7.36077 17.6579 7.05481 16.7457 7.37458C15.8125 7.70172 15.25 8.60004 15.25 9.69722H16.75ZM20.4008 12.9708C20.8609 12.6332 21.4218 12.174 21.8751 11.6498C22.3088 11.1483 22.75 10.4671 22.75 9.69721H21.25C21.25 9.9118 21.1088 10.2428 20.7405 10.6686C20.3919 11.0717 19.9314 11.4547 19.5135 11.7614L20.4008 12.9708ZM22.75 9.69721C22.75 8.60003 22.1875 7.70172 21.2543 7.37458C20.3421 7.05481 19.3057 7.36077 18.4813 8.15011L19.5187 9.23356C20.0442 8.73035 20.5078 8.70238 20.7581 8.79013C20.9874 8.87051 21.25 9.12116 21.25 9.69721H22.75ZM17.5992 12.9708C17.9678 13.2412 18.3816 13.578 19 13.578L19 12.078C18.9756 12.078 18.9605 12.078 18.9061 12.0493C18.8202 12.0039 18.7128 11.9274 18.4865 11.7614L17.5992 12.9708ZM19.5135 11.7614C19.2872 11.9274 19.1798 12.0039 19.0939 12.0493C19.0395 12.078 19.0244 12.078 19 12.078L19 13.578C19.6184 13.578 20.0322 13.2412 20.4008 12.9708L19.5135 11.7614Z" fill="#000000"/>
</svg>
