<svg width="24" height="24" viewBox="0 0 24 24" fill="none" xmlns="http://www.w3.org/2000/svg">
<path d="M14.5 3.00342C17.2939 3.0238 18.8237 3.1669 19.8284 4.17161C21 5.34318 21 7.2288 21 11V13C21 16.7713 21 18.6569 19.8284 19.8285C18.8237 20.8332 17.2939 20.9763 14.5 20.9966M9.49991 20.9966C6.70609 20.9763 5.17627 20.8332 4.17157 19.8285C3 18.6569 3 16.7713 3 13V11C3 7.2288 3 5.34318 4.17157 4.17161C5.17627 3.16691 6.70609 3.0238 9.49991 3.00342" stroke="#1C274C" stroke-width="1.5" stroke-linecap="round" stroke-linejoin="round"/>
<path d="M17 4V20" stroke="#1C274C" stroke-width="1.5" stroke-linecap="round"/>
<path d="M12 2V22" stroke="#1C274C" stroke-width="1.5" stroke-linecap="round" stroke-dasharray="3 3"/>
<path d="M7 4V20" stroke="#1C274C" stroke-width="1.5" stroke-linecap="round"/>
<path d="M3.5 8.5H7M20.5 8.5H17" stroke="#1C274C" stroke-width="1.5" stroke-linecap="round"/>
<path d="M3.5 15.5H7M20.5 15.5H17" stroke="#1C274C" stroke-width="1.5" stroke-linecap="round"/>
</svg>
