<svg width="24" height="24" viewBox="0 0 24 24" fill="none" xmlns="http://www.w3.org/2000/svg">
<path d="M12.0565 19C15.9224 19.0312 19.031 15.9226 18.9998 12.0567C18.9686 8.19087 15.8094 5.03167 11.9435 5.00048C8.07765 4.96928 4.96904 8.07789 5.00023 11.9438C5.03143 15.8096 8.19062 18.9688 12.0565 19Z" stroke="#1C274C" stroke-width="1.5" stroke-linecap="round"/>
<path d="M18 6.00024L16.95 7.05028" stroke="#1C274C" stroke-width="1.5" stroke-linecap="round"/>
<path d="M5 5.00024L7 7.00024" stroke="#1C274C" stroke-width="1.5" stroke-linecap="round"/>
<path d="M17.0498 18.05L16.5 17.5002" stroke="#1C274C" stroke-width="1.5" stroke-linecap="round"/>
<path d="M6 19.05L7.05003 18" stroke="#1C274C" stroke-width="1.5" stroke-linecap="round"/>
<path d="M16.5 13.0002C16.5 14.1048 15.6046 15.0002 14.5 15.0002C13.3954 15.0002 12.5 14.1048 12.5 13.0002C12.5 11.8957 13.3954 11.0002 14.5 11.0002C15.6046 11.0002 16.5 11.8957 16.5 13.0002Z" stroke="#1C274C" stroke-width="1.5"/>
<path d="M11 9.00024C11 9.55253 10.5523 10.0002 10 10.0002C9.44772 10.0002 9 9.55253 9 9.00024C9 8.44796 9.44772 8.00024 10 8.00024C10.5523 8.00024 11 8.44796 11 9.00024Z" stroke="#1C274C" stroke-width="1.5"/>
<circle cx="9" cy="13.0002" r="1" fill="#1C274C"/>
<circle cx="19.5" cy="4.50024" r="1.5" stroke="#1C274C" stroke-width="1.5"/>
<circle cx="1.5" cy="1.5" r="1.5" transform="matrix(-1 0 0 1 5 2.00024)" stroke="#1C274C" stroke-width="1.5"/>
<path d="M2 12.0002C2 12.8287 2.67157 13.5002 3.5 13.5002C4.32843 13.5002 5 12.8287 5 12.0002C5 11.1718 4.32843 10.5002 3.5 10.5002C2.67157 10.5002 2 11.1718 2 12.0002Z" stroke="#1C274C" stroke-width="1.5"/>
<circle cx="1.5" cy="1.5" r="1.5" transform="matrix(1 0 0 -1 17.0498 21.05)" stroke="#1C274C" stroke-width="1.5"/>
<circle cx="4.5" cy="20.5002" r="1.5" transform="rotate(180 4.5 20.5002)" stroke="#1C274C" stroke-width="1.5"/>
<path d="M13.5 3.50024C13.5 4.32867 12.8284 5.00024 12 5.00024C11.1716 5.00024 10.5 4.32867 10.5 3.50024C10.5 2.67182 11.1716 2.00024 12 2.00024C12.8284 2.00024 13.5 2.67182 13.5 3.50024Z" stroke="#1C274C" stroke-width="1.5"/>
<path d="M19.5 13.5001C20.3284 13.5001 21 12.8285 21 12.0001C21 11.1717 20.3284 10.5001 19.5 10.5001C19.3247 10.5001 19.1564 10.5302 19 10.5855V13.4148C19.1564 13.47 19.3247 13.5001 19.5 13.5001Z" stroke="#1C274C" stroke-width="1.5"/>
<path d="M10.5852 19.0002C10.7911 19.5829 11.3468 20.0003 11.9999 20.0003C12.653 20.0003 13.2086 19.5829 13.4146 19.0002L10.5852 19.0002Z" stroke="#1C274C" stroke-width="1.5"/>
</svg>
