<svg width="24" height="24" viewBox="0 0 24 24" fill="none" xmlns="http://www.w3.org/2000/svg">
<path d="M11.5697 12.5537L12.1617 13.0142V13.0142L11.5697 12.5537ZM11.3142 3.64634L12.0065 3.93481V3.93481L11.3142 3.64634ZM21.2426 10.7431L21.7773 10.2171L21.773 10.2128L21.2426 10.7431ZM21.4531 12.0265C21.7436 12.3217 22.2184 12.3256 22.5137 12.0351C22.809 11.7446 22.8129 11.2698 22.5224 10.9745L21.4531 12.0265ZM5.7327 19.0433C5.31848 19.0433 4.9827 19.3791 4.9827 19.7933C4.9827 20.2075 5.31848 20.5433 5.7327 20.5433V19.0433ZM3.5 15.7505C3.08579 15.7505 2.75 16.0863 2.75 16.5005C2.75 16.9147 3.08579 17.2505 3.5 17.2505V15.7505ZM8.19231 3.35624C8.35162 2.97389 8.17081 2.53478 7.78846 2.37547C7.40611 2.21616 6.96701 2.39697 6.80769 2.77932L8.19231 3.35624ZM19.876 16.9165C20.1057 17.2612 20.5714 17.3543 20.916 17.1245C21.2607 16.8948 21.3538 16.4291 21.124 16.0845L19.876 16.9165ZM5.85306 12.1451C5.93291 12.5515 6.32712 12.8163 6.73357 12.7364C7.14001 12.6566 7.40477 12.2624 7.32492 11.8559L5.85306 12.1451ZM15.4334 17.323C15.7715 17.0836 15.8515 16.6155 15.6121 16.2774C15.3727 15.9394 14.9046 15.8594 14.5666 16.0988L15.4334 17.323ZM14.1553 6.08076C13.7501 5.99497 13.3521 6.25392 13.2663 6.65915C13.1805 7.06438 13.4394 7.46244 13.8447 7.54823L14.1553 6.08076ZM12 21.2505C6.89137 21.2505 2.75 17.1091 2.75 12.0005H1.25C1.25 17.9375 6.06294 22.7505 12 22.7505V21.2505ZM21.25 12.0005C21.25 17.1091 17.1086 21.2505 12 21.2505V22.7505C17.9371 22.7505 22.75 17.9375 22.75 12.0005H21.25ZM12 2.75049C17.1086 2.75049 21.25 6.89185 21.25 12.0005H22.75C22.75 6.06343 17.9371 1.25049 12 1.25049V2.75049ZM12 1.25049C6.06294 1.25049 1.25 6.06343 1.25 12.0005H2.75C2.75 6.89185 6.89137 2.75049 12 2.75049V1.25049ZM12 12.7505H12.0917V11.2505H12V12.7505ZM11.408 11.54L10.9777 12.0933L12.1617 13.0142L12.592 12.4609L11.408 11.54ZM11.3077 1.71203L10.6219 3.35788L12.0065 3.93481L12.6923 2.28895L11.3077 1.71203ZM20.708 11.2691L21.4531 12.0265L22.5224 10.9745L21.7773 10.2172L20.708 11.2691ZM10.6219 3.35788C9.39039 6.31356 9.66695 9.68271 11.364 12.398L12.636 11.603C11.1965 9.29978 10.9619 6.44193 12.0065 3.93481L10.6219 3.35788ZM10.9777 12.0933C9.18293 14.4008 6.42334 15.7505 3.5 15.7505V17.2505C6.88622 17.2505 10.0828 15.6871 12.1617 13.0142L10.9777 12.0933ZM12.0917 12.7505C15.2197 12.7505 18.1408 14.3138 19.876 16.9165L21.124 16.0845C19.1107 13.0645 15.7213 11.2505 12.0917 11.2505V12.7505ZM6.80769 2.77932C5.55819 5.77813 5.23917 9.02031 5.85306 12.1451L7.32492 11.8559C6.76831 9.02269 7.05663 6.08186 8.19231 3.35624L6.80769 2.77932ZM14.5666 16.0988C11.9692 17.9382 8.82244 19.0433 5.7327 19.0433V20.5433C9.1695 20.5433 12.6141 19.3195 15.4334 17.323L14.5666 16.0988ZM13.8447 7.54823C16.4265 8.09486 18.8177 9.37884 20.7123 11.2735L21.773 10.2128C19.6714 8.11123 17.0191 6.68706 14.1553 6.08076L13.8447 7.54823Z" fill="#000000"/>
</svg>
