<svg width="24" height="24" viewBox="0 0 24 24" fill="none" xmlns="http://www.w3.org/2000/svg">
<circle cx="12" cy="12.0001" r="5" stroke="#000000" stroke-width="1.5"/>
<path d="M12 7.00012V11.0001" stroke="#000000" stroke-width="1.5" stroke-linecap="round"/>
<path d="M13 3.50012C13 4.05241 12.5523 4.50012 12 4.50012C11.4477 4.50012 11 4.05241 11 3.50012C11 2.94784 11.4477 2.50012 12 2.50012C12.5523 2.50012 13 2.94784 13 3.50012Z" fill="#000000"/>
<path d="M20.5 13.0001C19.9477 13.0001 19.5 12.5524 19.5 12.0001C19.5 11.4478 19.9477 11.0001 20.5 11.0001C21.0523 11.0001 21.5 11.4478 21.5 12.0001C21.5 12.5524 21.0523 13.0001 20.5 13.0001Z" fill="#000000"/>
<path d="M3.5 13.0001C2.94772 13.0001 2.5 12.5524 2.5 12.0001C2.5 11.4478 2.94772 11.0001 3.5 11.0001C4.05228 11.0001 4.5 11.4478 4.5 12.0001C4.5 12.5524 4.05228 13.0001 3.5 13.0001Z" fill="#000000"/>
<path d="M6.69661 5.28264C7.08713 5.67316 7.08713 6.30633 6.69661 6.69685C6.30608 7.08738 5.67292 7.08738 5.2824 6.69685C4.89187 6.30633 4.89187 5.67316 5.2824 5.28264C5.67292 4.89212 6.30608 4.89212 6.69661 5.28264Z" fill="#000000"/>
<path d="M18.7176 17.3035C19.1081 17.694 19.1081 18.3272 18.7176 18.7177C18.3271 19.1083 17.6939 19.1083 17.3034 18.7177C16.9129 18.3272 16.9129 17.694 17.3034 17.3035C17.6939 16.913 18.3271 16.913 18.7176 17.3035Z" fill="#000000"/>
<path d="M18.7176 6.69685C18.3271 7.08738 17.6939 7.08738 17.3034 6.69685C16.9129 6.30633 16.9129 5.67316 17.3034 5.28264C17.6939 4.89212 18.3271 4.89212 18.7176 5.28264C19.1081 5.67316 19.1081 6.30633 18.7176 6.69685Z" fill="#000000"/>
<path d="M6.69661 18.7176C6.30608 19.1081 5.67292 19.1081 5.2824 18.7176C4.89187 18.3271 4.89187 17.6939 5.2824 17.3034C5.67292 16.9129 6.30608 16.9129 6.69661 17.3034C7.08713 17.6939 7.08713 18.3271 6.69661 18.7176Z" fill="#000000"/>
</svg>
