<svg width="24" height="24" viewBox="0 0 24 24" fill="none" xmlns="http://www.w3.org/2000/svg">
<path d="M9 19.0005C6.19108 19.0005 4.78661 19.0005 3.77772 18.3264C3.34096 18.0345 2.96596 17.6595 2.67412 17.2228C2 16.2139 2 14.8094 2 12.0005C2 9.19156 2 7.7871 2.67412 6.77821C2.96596 6.34145 3.34096 5.96644 3.77772 5.67461C4.78661 5.00049 6.19108 5.00049 9 5.00049L15 5.00049C17.8089 5.00049 19.2134 5.00049 20.2223 5.67461C20.659 5.96644 21.034 6.34145 21.3259 6.77821C22 7.7871 22 9.19156 22 12.0005C22 14.8094 22 16.2139 21.3259 17.2228C21.034 17.6595 20.659 18.0345 20.2223 18.3264C19.2134 19.0005 17.8089 19.0005 15 19.0005H9Z" stroke="#1C274C" stroke-width="1.5"/>
<path d="M9 9.00049C7.34315 9.00049 6 10.3436 6 12.0005C6 13.6573 7.34315 15.0005 9 15.0005" stroke="#1C274C" stroke-width="1.5"/>
<path d="M15 9.00049C16.6569 9.00049 18 10.3436 18 12.0005C18 13.6573 16.6569 15.0005 15 15.0005" stroke="#1C274C" stroke-width="1.5"/>
<path d="M9 5.00049V18.5005" stroke="#1C274C" stroke-width="1.5" stroke-linecap="round"/>
<path d="M15 5.00049V18.5005" stroke="#1C274C" stroke-width="1.5" stroke-linecap="round"/>
</svg>
