<svg width="24" height="24" viewBox="0 0 24 24" fill="none" xmlns="http://www.w3.org/2000/svg">
<circle cx="11.5" cy="4.50049" r="2.5" stroke="#1C274C" stroke-width="1.5"/>
<path d="M10.3413 11.5874L11.0876 11.662V11.662L10.3413 11.5874ZM11.8255 17.9045L11.1906 18.3036L11.8255 17.9045ZM13.7654 22.3996C13.9859 22.7503 14.4489 22.8559 14.7995 22.6354C15.1502 22.415 15.2558 21.952 15.0354 21.6013L13.7654 22.3996ZM6.30394 13.1328L7.03608 13.2955L6.30394 13.1328ZM5.26786 14.3378C5.178 14.7421 5.43295 15.1428 5.8373 15.2326C6.24165 15.3225 6.64228 15.0675 6.73214 14.6632L5.26786 14.3378ZM17.2702 13.2438L17.033 12.5323V12.5323L17.2702 13.2438ZM18.2372 13.712C18.6301 13.581 18.8425 13.1563 18.7115 12.7633C18.5805 12.3704 18.1558 12.158 17.7628 12.289L18.2372 13.712ZM12.5815 10.0056L12.5278 10.7537H12.5278L12.5815 10.0056ZM14.4196 11.679L13.692 11.8609L13.692 11.8609L14.4196 11.679ZM14.3391 11.3779L13.6263 11.6114L13.6263 11.6114L14.3391 11.3779ZM7.35289 10.4404L7.82218 11.0254L7.82218 11.0254L7.35289 10.4404ZM14.5269 12.0757L15.2355 11.8298L15.2355 11.8298L14.5269 12.0757ZM16.8779 13.3662L16.7049 12.6364L16.7049 12.6364L16.8779 13.3662ZM9.75372 9.92586L9.59503 11.5128L11.0876 11.662L11.2463 10.0751L9.75372 9.92586ZM11.1906 18.3036L13.7654 22.3996L15.0354 21.6013L12.4605 17.5053L11.1906 18.3036ZM10.5 9.25049H10.2087V10.7505H10.5V9.25049ZM5.5718 12.9701L5.26786 14.3378L6.73214 14.6632L7.03608 13.2955L5.5718 12.9701ZM10.5 10.7505H12.2698V9.25049H10.5V10.7505ZM17.5073 13.9553L18.2372 13.712L17.7628 12.289L17.033 12.5323L17.5073 13.9553ZM12.2698 10.7505C12.442 10.7505 12.4897 10.751 12.5278 10.7537L12.6351 9.25753C12.5304 9.25002 12.4179 9.25049 12.2698 9.25049V10.7505ZM15.1472 11.4971C15.1113 11.3534 15.0845 11.2442 15.0518 11.1444L13.6263 11.6114C13.6382 11.6477 13.6503 11.6938 13.692 11.8609L15.1472 11.4971ZM12.5278 10.7537C13.0342 10.79 13.4683 11.1289 13.6263 11.6114L15.0518 11.1444C14.7041 10.0831 13.7491 9.3374 12.6351 9.25753L12.5278 10.7537ZM10.2087 9.25049C9.45815 9.25049 8.82796 9.2492 8.31924 9.31094C7.79022 9.37514 7.30738 9.51542 6.88359 9.85537L7.82218 11.0254C7.9468 10.9255 8.12273 10.8458 8.49995 10.8C8.89746 10.7518 9.42096 10.7505 10.2087 10.7505V9.25049ZM7.03608 13.2955C7.20696 12.5265 7.32178 12.0157 7.4551 11.6382C7.58162 11.2799 7.69756 11.1254 7.82218 11.0254L6.88359 9.85537C6.45981 10.1953 6.21812 10.6362 6.04069 11.1387C5.87007 11.6219 5.73461 12.2374 5.5718 12.9701L7.03608 13.2955ZM13.692 11.8609C13.7401 12.0532 13.7755 12.1978 13.8184 12.3215L15.2355 11.8298C15.2201 11.7853 15.2034 11.7216 15.1472 11.4971L13.692 11.8609ZM17.033 12.5323C16.8135 12.6054 16.7507 12.6256 16.7049 12.6364L17.0509 14.096C17.1783 14.0658 17.3193 14.018 17.5073 13.9553L17.033 12.5323ZM13.8184 12.3215C14.2809 13.6548 15.6777 14.4216 17.0509 14.096L16.7049 12.6364C16.0807 12.7844 15.4458 12.4359 15.2355 11.8298L13.8184 12.3215ZM9.59503 11.5128C9.43093 13.1538 9.32238 14.1452 9.54827 15.1066L11.0085 14.7635C10.853 14.1018 10.9135 13.4024 11.0876 11.662L9.59503 11.5128ZM12.4605 17.5053C11.5296 16.0245 11.164 15.4253 11.0085 14.7635L9.54827 15.1066C9.77416 16.068 10.3128 16.9074 11.1906 18.3036L12.4605 17.5053Z" fill="#1C274C"/>
<path d="M9 17.5005L6 22.0005" stroke="#1C274C" stroke-width="1.5" stroke-linecap="round"/>
</svg>
