<svg width="24" height="24" viewBox="0 0 24 24" fill="none" xmlns="http://www.w3.org/2000/svg">
<circle cx="12.5" cy="4.50049" r="2.5" stroke="#000000" stroke-width="1.5"/>
<path d="M7 22.0005L7.50917 21.5932C8.79506 20.5644 9.67705 19.1153 10 17.5005" stroke="#000000" stroke-width="1.5" stroke-linecap="round"/>
<path d="M11.1582 13.4182L11.9045 13.4928L11.1582 13.4182ZM11.9713 16.2595L12.5652 15.8014L11.9713 16.2595ZM15.8066 22.4586C16.0596 22.7866 16.5306 22.8473 16.8585 22.5943C17.1865 22.3413 17.2472 21.8703 16.9942 21.5424L15.8066 22.4586ZM10.9698 10.0166L10.9292 9.26768L10.9698 10.0166ZM13.0872 10.132L12.9805 10.8744H12.9805L13.0872 10.132ZM17.1969 13.301L17.0736 12.5612L17.1969 13.301ZM19.1233 13.7403C19.5319 13.6722 19.8079 13.2858 19.7398 12.8772C19.6717 12.4686 19.2853 12.1926 18.8767 12.2607L19.1233 13.7403ZM15.6163 12.3493L16.3278 12.1122V12.1122L15.6163 12.3493ZM6.25 14.5005C6.25 14.9147 6.58579 15.2505 7 15.2505C7.41421 15.2505 7.75 14.9147 7.75 14.5005H6.25ZM10.7537 9.92586L10.412 13.3436L11.9045 13.4928L12.2463 10.0751L10.7537 9.92586ZM11.3775 16.7177L15.8066 22.4586L16.9942 21.5424L12.5652 15.8014L11.3775 16.7177ZM11.5 9.25049C11.3217 9.25049 11.129 9.25685 10.9292 9.26768L11.0104 10.7655C11.1912 10.7557 11.3558 10.7505 11.5 10.7505V9.25049ZM11.5 10.7505C11.9543 10.7505 12.476 10.8019 12.9805 10.8744L13.1938 9.38961C12.6539 9.31206 12.0541 9.25049 11.5 9.25049V10.7505ZM17.3202 14.0408L19.1233 13.7403L18.8767 12.2607L17.0736 12.5612L17.3202 14.0408ZM12.9805 10.8744C13.8619 11.001 14.5975 11.6647 14.9048 12.5865L16.3278 12.1122C15.8674 10.7309 14.7153 9.60815 13.1938 9.38961L12.9805 10.8744ZM10.9292 9.26768C8.1638 9.41755 6.25 11.8598 6.25 14.5005H7.75C7.75 12.5248 9.16607 10.8654 11.0104 10.7655L10.9292 9.26768ZM14.9048 12.5865C15.2424 13.5995 16.2669 14.2163 17.3202 14.0408L17.0736 12.5612C16.7484 12.6154 16.4321 12.425 16.3278 12.1122L14.9048 12.5865ZM10.412 13.3436C10.3396 14.0668 10.2713 14.6266 10.4253 15.1649L11.8674 14.7523C11.8107 14.5542 11.8205 14.3325 11.9045 13.4928L10.412 13.3436ZM12.5652 15.8014C12.0497 15.1332 11.9241 14.9503 11.8674 14.7523L10.4253 15.1649C10.5794 15.7033 10.9335 16.1422 11.3775 16.7177L12.5652 15.8014Z" fill="#000000"/>
</svg>
