<svg width="24" height="24" viewBox="0 0 24 24" fill="none" xmlns="http://www.w3.org/2000/svg">
<path d="M6 10.0005H10" stroke="#1C274C" stroke-width="1.5" stroke-linecap="round" stroke-linejoin="round"/>
<path d="M20.8333 11.0005H18.2308C16.4465 11.0005 15 12.3436 15 14.0005C15 15.6573 16.4465 17.0005 18.2308 17.0005H20.8333C20.9167 17.0005 20.9583 17.0005 20.9935 16.9983C21.5328 16.9655 21.9623 16.5666 21.9977 16.0659C22 16.0332 22 15.9945 22 15.9172V12.0838C22 12.0064 22 11.9678 21.9977 11.9351C21.9623 11.4343 21.5328 11.0355 20.9935 11.0026C20.9583 11.0005 20.9167 11.0005 20.8333 11.0005Z" stroke="#1C274C" stroke-width="1.5"/>
<circle cx="18" cy="14.0005" r="1" fill="#1C274C"/>
<path d="M20.965 11.0005C20.8873 9.12819 20.6366 7.98023 19.8284 7.17206C18.6569 6.00049 16.7712 6.00049 13 6.00049H10C6.22876 6.00049 4.34315 6.00049 3.17157 7.17206C2 8.34363 2 10.2293 2 14.0005C2 17.7717 2 19.6573 3.17157 20.8289C4.34315 22.0005 6.22876 22.0005 10 22.0005H13C16.7712 22.0005 18.6569 22.0005 19.8284 20.8289C20.6366 20.0207 20.8873 18.8728 20.965 17.0005" stroke="#1C274C" stroke-width="1.5"/>
<path d="M6 6.00049L9.73549 3.52362C10.7874 2.82611 12.2126 2.82611 13.2645 3.52362L17 6.00049" stroke="#1C274C" stroke-width="1.5" stroke-linecap="round"/>
</svg>
