<svg width="24" height="24" viewBox="0 0 24 24" fill="none" xmlns="http://www.w3.org/2000/svg">
<path d="M7 15.0005L7 9.00049" stroke="#000000" stroke-width="1.5" stroke-linecap="round" stroke-linejoin="round"/>
<path d="M20.8333 9.00049H18.2308C16.4465 9.00049 15 10.3436 15 12.0005C15 13.6573 16.4465 15.0005 18.2308 15.0005H20.8333C20.9167 15.0005 20.9583 15.0005 20.9935 14.9983C21.5328 14.9655 21.9623 14.5666 21.9977 14.0659C22 14.0332 22 13.9945 22 13.9172V10.0838C22 10.0064 22 9.96775 21.9977 9.93509C21.9623 9.43433 21.5328 9.03545 20.9935 9.00263C20.9583 9.00049 20.9167 9.00049 20.8333 9.00049Z" stroke="#000000" stroke-width="1.5"/>
<circle cx="18" cy="12.0005" r="1" fill="#000000"/>
<path d="M20.965 9.00049C20.8873 7.12819 20.6366 5.98023 19.8284 5.17206C18.6569 4.00049 16.7712 4.00049 13 4.00049L10 4.00049C6.22876 4.00049 4.34315 4.00049 3.17157 5.17206C2 6.34363 2 8.22925 2 12.0005C2 15.7717 2 17.6573 3.17157 18.8289C4.34315 20.0005 6.22876 20.0005 10 20.0005H13C16.7712 20.0005 18.6569 20.0005 19.8284 18.8289C20.6366 18.0207 20.8873 16.8728 20.965 15.0005" stroke="#000000" stroke-width="1.5"/>
</svg>
