<svg width="24" height="24" viewBox="0 0 24 24" fill="none" xmlns="http://www.w3.org/2000/svg">
<path d="M3 10.0001C3 6.22889 3 4.34327 4.17157 3.17169C5.34315 2.00012 7.22876 2.00012 11 2.00012H13C16.7712 2.00012 18.6569 2.00012 19.8284 3.17169C21 4.34327 21 6.22889 21 10.0001V14.0001C21 17.7714 21 19.657 19.8284 20.8285C18.6569 22.0001 16.7712 22.0001 13 22.0001H11C7.22876 22.0001 5.34315 22.0001 4.17157 20.8285C3 19.657 3 17.7714 3 14.0001V10.0001Z" stroke="#000000" stroke-width="1.5"/>
<path d="M17 14.0001C17 16.7615 14.7614 19.0001 12 19.0001C9.23858 19.0001 7 16.7615 7 14.0001C7 11.2387 9.23858 9.00012 12 9.00012C14.7614 9.00012 17 11.2387 17 14.0001Z" stroke="#000000" stroke-width="1.5"/>
<path d="M8 6.00012H16" stroke="#000000" stroke-width="1.5" stroke-linecap="round"/>
<path d="M7.23418 14.3626C8.08868 14.7896 9.06745 15.5211 10.724 15.8196C13.0859 16.2454 12.8501 14.1707 15.2121 14.5962C15.9323 14.726 16.4181 14.9453 16.7616 15.1807" stroke="#000000" stroke-width="1.5" stroke-linecap="round"/>
</svg>
