<svg width="24" height="24" viewBox="0 0 24 24" fill="none" xmlns="http://www.w3.org/2000/svg">
<path d="M6 22.0001V21.0001" stroke="#000000" stroke-width="1.5" stroke-linecap="round"/>
<path d="M18 22.0001V21.0001" stroke="#000000" stroke-width="1.5" stroke-linecap="round"/>
<path d="M3 10.0001C3 6.22889 3 4.34327 4.17157 3.17169C5.34315 2.00012 7.22876 2.00012 11 2.00012H13C16.7712 2.00012 18.6569 2.00012 19.8284 3.17169C21 4.34327 21 6.22889 21 10.0001V13.0001C21 16.7714 21 18.657 19.8284 19.8285C18.6569 21.0001 16.7712 21.0001 13 21.0001H11C7.22876 21.0001 5.34315 21.0001 4.17157 19.8285C3 18.657 3 16.7714 3 13.0001V10.0001Z" stroke="#000000" stroke-width="1.5"/>
<path d="M3 9.00012H21" stroke="#000000" stroke-width="1.5" stroke-linecap="round"/>
<path d="M15 15.0001C15 16.657 13.6569 18.0001 12 18.0001C10.3431 18.0001 9 16.657 9 15.0001C9 13.3433 10.3431 12.0001 12 12.0001C13.6569 12.0001 15 13.3433 15 15.0001Z" stroke="#000000" stroke-width="1.5"/>
<path d="M6.5 5.50012H9.5" stroke="#000000" stroke-width="1.5" stroke-linecap="round"/>
<path d="M15.5 5.50012C15.5 6.05241 15.0523 6.50012 14.5 6.50012C13.9477 6.50012 13.5 6.05241 13.5 5.50012C13.5 4.94784 13.9477 4.50012 14.5 4.50012C15.0523 4.50012 15.5 4.94784 15.5 5.50012Z" fill="#000000"/>
<path d="M18.5 5.50012C18.5 6.05241 18.0523 6.50012 17.5 6.50012C16.9477 6.50012 16.5 6.05241 16.5 5.50012C16.5 4.94784 16.9477 4.50012 17.5 4.50012C18.0523 4.50012 18.5 4.94784 18.5 5.50012Z" fill="#000000"/>
</svg>
