<svg width="24" height="24" viewBox="0 0 24 24" fill="none" xmlns="http://www.w3.org/2000/svg">
<path d="M5 12.0005C5 9.19156 5 7.7871 5.67412 6.77821C5.96596 6.34145 6.34096 5.96644 6.77772 5.67461C7.78661 5.00049 9.19108 5.00049 12 5.00049C14.8089 5.00049 16.2134 5.00049 17.2223 5.67461C17.659 5.96644 18.034 6.34145 18.3259 6.77821C19 7.7871 19 9.19156 19 12.0005C19 14.8094 19 16.2139 18.3259 17.2228C18.034 17.6595 17.659 18.0345 17.2223 18.3264C16.2134 19.0005 14.8089 19.0005 12 19.0005C9.19108 19.0005 7.78661 19.0005 6.77772 18.3264C6.34096 18.0345 5.96596 17.6595 5.67412 17.2228C5 16.2139 5 14.8094 5 12.0005Z" stroke="#1C274C" stroke-width="1.5"/>
<path d="M12 9.00047V12.0774L14 14.0005" stroke="#1C274C" stroke-width="1.5" stroke-linecap="round" stroke-linejoin="round"/>
<path d="M16.7778 5.50049L16.6961 5.13277C16.3624 3.63114 16.1955 2.88032 15.6471 2.4404C15.0987 2.00049 14.3296 2.00049 12.7913 2.00049H11.2087C9.67042 2.00049 8.90129 2.00049 8.35289 2.4404C7.80448 2.88032 7.63763 3.63114 7.30394 5.13277L7.22222 5.50049" stroke="#1C274C" stroke-width="1.5"/>
<path d="M16.7777 5.50049L16.696 5.13277C16.3623 3.63114 16.1955 2.88032 15.6471 2.4404C15.0987 2.00049 14.3295 2.00049 12.7913 2.00049H11.2086C9.67037 2.00049 8.90124 2.00049 8.35283 2.4404C7.80443 2.88032 7.63758 3.63114 7.30388 5.13277L7.22217 5.50049" stroke="#1C274C" stroke-width="1.5"/>
<path d="M16.7778 18.5005L16.6961 18.8682C16.3624 20.3698 16.1956 21.1207 15.6472 21.5606C15.0988 22.0005 14.3296 22.0005 12.7914 22.0005H11.2087C9.67048 22.0005 8.90135 22.0005 8.35294 21.5606C7.80453 21.1207 7.63769 20.3698 7.30399 18.8682L7.22227 18.5005" stroke="#1C274C" stroke-width="1.5"/>
</svg>
