<svg width="24" height="24" viewBox="0 0 24 24" fill="none" xmlns="http://www.w3.org/2000/svg">
<path d="M17 6.50049L16.6961 5.13277C16.3624 3.63114 16.1955 2.88032 15.6471 2.4404C15.0987 2.00049 14.3296 2.00049 12.7913 2.00049H11.2087C9.67043 2.00049 8.9013 2.00049 8.35289 2.4404C7.80448 2.88032 7.63763 3.63114 7.30394 5.13277L7 6.50049" stroke="#1C274C" stroke-width="1.5"/>
<path d="M17 17.5005L16.6961 18.8682C16.3624 20.3698 16.1955 21.1207 15.6471 21.5606C15.0987 22.0005 14.3296 22.0005 12.7913 22.0005H11.2087C9.67043 22.0005 8.9013 22.0005 8.35289 21.5606C7.80448 21.1207 7.63763 20.3698 7.30394 18.8682L7 17.5005" stroke="#1C274C" stroke-width="1.5"/>
<path d="M19.5 12.0005C19.5 16.1426 16.1421 19.5005 12 19.5005C7.85786 19.5005 4.5 16.1426 4.5 12.0005C4.5 7.85835 7.85786 4.50049 12 4.50049C16.1421 4.50049 19.5 7.85835 19.5 12.0005Z" stroke="#1C274C" stroke-width="1.5"/>
<path d="M12 8.92381V12.0007L14 13.9238" stroke="#1C274C" stroke-width="1.5" stroke-linecap="round" stroke-linejoin="round"/>
</svg>
