<svg width="24" height="24" viewBox="0 0 24 24" fill="none" xmlns="http://www.w3.org/2000/svg">
<path d="M5 12.0005C5 9.19156 5 7.7871 5.67412 6.77821C5.96596 6.34145 6.34096 5.96644 6.77772 5.67461C7.78661 5.00049 9.19108 5.00049 12 5.00049C14.8089 5.00049 16.2134 5.00049 17.2223 5.67461C17.659 5.96644 18.034 6.34145 18.3259 6.77821C19 7.7871 19 9.19156 19 12.0005C19 14.8094 19 16.2139 18.3259 17.2228C18.034 17.6595 17.659 18.0345 17.2223 18.3264C16.2134 19.0005 14.8089 19.0005 12 19.0005C9.19108 19.0005 7.78661 19.0005 6.77772 18.3264C6.34096 18.0345 5.96596 17.6595 5.67412 17.2228C5 16.2139 5 14.8094 5 12.0005Z" stroke="#000000" stroke-width="1.5"/>
<path d="M12.8571 9.00049L10 12.0005H14L11.1429 15.0005" stroke="#000000" stroke-width="1.5" stroke-linecap="round" stroke-linejoin="round"/>
<path d="M7 2.00049H17" stroke="#000000" stroke-width="1.5" stroke-linecap="round"/>
<path d="M7 22.0005H17" stroke="#000000" stroke-width="1.5" stroke-linecap="round"/>
</svg>
