<svg width="24" height="24" viewBox="0 0 24 24" fill="none" xmlns="http://www.w3.org/2000/svg">
<path d="M22 8.78643C20.4123 8.43458 19.5955 7.57018 18.9199 6.60883C18.4965 6.00639 17.5655 6.04301 17.1055 6.62125C16.0541 7.94317 14.4844 9.00049 12 9.00049C9.49345 9.00049 7.91806 7.6552 6.86651 6.38926C6.42721 5.8604 5.58617 5.86746 5.20168 6.43281C4.50078 7.46337 3.68402 8.41323 2 8.78643" stroke="#000000" stroke-width="1.5" stroke-linecap="round" stroke-linejoin="round"/>
<path d="M22 18.7864C20.4123 18.4346 19.5955 17.5702 18.9199 16.6088C18.4965 16.0064 17.5655 16.043 17.1055 16.6212C16.0541 17.9432 14.4844 19.0005 12 19.0005C9.49345 19.0005 7.91806 17.6552 6.86651 16.3893C6.42721 15.8604 5.58617 15.8675 5.20168 16.4328C4.50078 17.4634 3.68402 18.4132 2 18.7864" stroke="#000000" stroke-width="1.5" stroke-linecap="round" stroke-linejoin="round"/>
<path d="M22 13.7864C20.4123 13.4346 19.5955 12.5702 18.9199 11.6088C18.4965 11.0064 17.5655 11.043 17.1055 11.6212C16.0541 12.9432 14.4844 14.0005 12 14.0005C9.49345 14.0005 7.91806 12.6552 6.86651 11.3893C6.42721 10.8604 5.58617 10.8675 5.20168 11.4328C4.50078 12.4634 3.68402 13.4132 2 13.7864" stroke="#000000" stroke-width="1.5" stroke-linecap="round" stroke-linejoin="round"/>
</svg>
