<svg width="24" height="24" viewBox="0 0 24 24" fill="none" xmlns="http://www.w3.org/2000/svg">
<path d="M10 17.8334C10 20.1346 8.20914 22.0001 6 22.0001C3.79086 22.0001 2 20.1346 2 17.8334C2 16.3936 3.56593 14.4719 4.73823 13.235C5.43222 12.5027 6.56778 12.5027 7.26177 13.235C8.43407 14.4719 10 16.3936 10 17.8334Z" stroke="#1C274C" stroke-width="1.5"/>
<path d="M22 17.8334C22 20.1346 20.2091 22.0001 18 22.0001C15.7909 22.0001 14 20.1346 14 17.8334C14 16.3936 15.5659 14.4719 16.7382 13.235C17.4322 12.5027 18.5678 12.5027 19.2618 13.235C20.4341 14.4719 22 16.3936 22 17.8334Z" stroke="#1C274C" stroke-width="1.5"/>
<path d="M16 7.83343C16 10.1346 14.2091 12.0001 12 12.0001C9.79086 12.0001 8 10.1346 8 7.83343C8 6.39361 9.56593 4.47189 10.7382 3.23497C11.4322 2.50273 12.5678 2.50273 13.2618 3.23497C14.4341 4.47189 16 6.39361 16 7.83343Z" stroke="#1C274C" stroke-width="1.5"/>
</svg>
