<svg width="24" height="24" viewBox="0 0 24 24" fill="none" xmlns="http://www.w3.org/2000/svg">
<path d="M3 10.0001C3 6.22889 3 4.34327 4.17157 3.17169C5.34315 2.00012 7.22876 2.00012 11 2.00012H13C16.7712 2.00012 18.6569 2.00012 19.8284 3.17169C21 4.34327 21 6.22889 21 10.0001V14.0001C21 17.7714 21 19.657 19.8284 20.8285C18.6569 22.0001 16.7712 22.0001 13 22.0001H11C7.22876 22.0001 5.34315 22.0001 4.17157 20.8285C3 19.657 3 17.7714 3 14.0001V10.0001Z" stroke="#000000" stroke-width="1.5"/>
<path d="M8 18.0001H16" stroke="#000000" stroke-width="1.5" stroke-linecap="round"/>
<path d="M16.4115 9.97127L17.0772 8.3072C17.5513 7.12174 16.8084 5.80153 15.549 5.59163L15.1236 5.52072C13.0554 5.17604 10.9445 5.17604 8.87641 5.52072L8.45098 5.59163C7.19157 5.80153 6.44864 7.12174 6.92282 8.3072L7.58845 9.97127C7.82422 10.5607 8.45915 10.8853 9.07502 10.7314C10.9954 10.2513 13.0045 10.2513 14.925 10.7314C15.5408 10.8853 16.1758 10.5607 16.4115 9.97127Z" stroke="#000000" stroke-width="1.5" stroke-linecap="round"/>
<path d="M10.1796 9.92905L9.50461 8.04639" stroke="#000000" stroke-width="1.5" stroke-linecap="round"/>
</svg>
