<svg width="24" height="24" viewBox="0 0 24 24" fill="none" xmlns="http://www.w3.org/2000/svg">
<path d="M12.8991 15.1274L6.85993 21.1663C5.74815 22.2781 3.94561 22.2781 2.83383 21.1663C1.72206 20.0546 1.72206 18.2521 2.83383 17.1404L8.87298 11.1014M20.5484 3.45166C21.7565 4.65973 19.0984 8.12301 17.3278 9.89349C15.5573 11.664 11.2887 15.1272 10.0806 13.9192M20.5484 3.45166C19.3403 2.2436 15.8775 4.90224 14.1069 6.67272C12.3364 8.44319 8.87246 12.7111 10.0806 13.9192M20.5484 3.45166C22.772 5.67514 22.3733 9.67878 19.8158 12.2361C17.2584 14.7935 12.3041 16.1427 10.0806 13.9192M20.5484 3.45166C18.3249 1.22819 14.3211 1.62685 11.7636 4.1842C9.2062 6.74154 7.85702 11.6957 10.0806 13.9192" stroke="#000000" stroke-width="1.5"/>
</svg>
