<svg width="24" height="24" viewBox="0 0 24 24" fill="none" xmlns="http://www.w3.org/2000/svg">
<path d="M2.5 6.50049C2.5 4.29135 4.29086 2.50049 6.5 2.50049C8.70914 2.50049 10.5 4.29135 10.5 6.50049V9.16715C10.5 9.47715 10.5 9.63214 10.4659 9.75931C10.3735 10.1044 10.1039 10.3739 9.75882 10.4664C9.63165 10.5005 9.47666 10.5005 9.16667 10.5005H6.5C4.29086 10.5005 2.5 8.70963 2.5 6.50049Z" stroke="#000000" stroke-width="1.5"/>
<path d="M13.5 14.8338C13.5 14.5238 13.5 14.3688 13.5341 14.2417C13.6265 13.8966 13.8961 13.627 14.2412 13.5346C14.3683 13.5005 14.5233 13.5005 14.8333 13.5005H17.5C19.7091 13.5005 21.5 15.2913 21.5 17.5005C21.5 19.7096 19.7091 21.5005 17.5 21.5005C15.2909 21.5005 13.5 19.7096 13.5 17.5005V14.8338Z" stroke="#000000" stroke-width="1.5"/>
<path d="M2.5 17.5005C2.5 15.2913 4.29086 13.5005 6.5 13.5005H8.9C9.46005 13.5005 9.74008 13.5005 9.95399 13.6095C10.1422 13.7054 10.2951 13.8583 10.391 14.0465C10.5 14.2604 10.5 14.5404 10.5 15.1005V17.5005C10.5 19.7096 8.70914 21.5005 6.5 21.5005C4.29086 21.5005 2.5 19.7096 2.5 17.5005Z" stroke="#000000" stroke-width="1.5"/>
<path d="M13.5 6.50049C13.5 4.29135 15.2909 2.50049 17.5 2.50049C19.7091 2.50049 21.5 4.29135 21.5 6.50049C21.5 8.70963 19.7091 10.5005 17.5 10.5005H14.6429C14.5102 10.5005 14.4438 10.5005 14.388 10.4942C13.9244 10.442 13.5585 10.0761 13.5063 9.61245C13.5 9.55665 13.5 9.49031 13.5 9.35763V6.50049Z" stroke="#000000" stroke-width="1.5"/>
</svg>
