<svg width="24" height="24" viewBox="0 0 24 24" fill="none" xmlns="http://www.w3.org/2000/svg">
<path d="M2.5 6.50049C2.5 4.61487 2.5 3.67206 3.08579 3.08627C3.67157 2.50049 4.61438 2.50049 6.5 2.50049C8.38562 2.50049 9.32843 2.50049 9.91421 3.08627C10.5 3.67206 10.5 4.61487 10.5 6.50049V17.5005C10.5 19.3861 10.5 20.3289 9.91421 20.9147C9.32843 21.5005 8.38562 21.5005 6.5 21.5005C4.61438 21.5005 3.67157 21.5005 3.08579 20.9147C2.5 20.3289 2.5 19.3861 2.5 17.5005V6.50049Z" stroke="#1C274C" stroke-width="1.5"/>
<path d="M13.5 15.5005C13.5 13.6149 13.5 12.6721 14.0858 12.0863C14.6716 11.5005 15.6144 11.5005 17.5 11.5005C19.3856 11.5005 20.3284 11.5005 20.9142 12.0863C21.5 12.6721 21.5 13.6149 21.5 15.5005V17.5005C21.5 19.3861 21.5 20.3289 20.9142 20.9147C20.3284 21.5005 19.3856 21.5005 17.5 21.5005C15.6144 21.5005 14.6716 21.5005 14.0858 20.9147C13.5 20.3289 13.5 19.3861 13.5 17.5005V15.5005Z" stroke="#1C274C" stroke-width="1.5"/>
<path d="M13.5 5.50049C13.5 4.56861 13.5 4.10266 13.6522 3.73512C13.8552 3.24507 14.2446 2.85572 14.7346 2.65273C15.1022 2.50049 15.5681 2.50049 16.5 2.50049H18.5C19.4319 2.50049 19.8978 2.50049 20.2654 2.65273C20.7554 2.85572 21.1448 3.24507 21.3478 3.73512C21.5 4.10266 21.5 4.56861 21.5 5.50049C21.5 6.43237 21.5 6.89831 21.3478 7.26586C21.1448 7.75591 20.7554 8.14526 20.2654 8.34825C19.8978 8.50049 19.4319 8.50049 18.5 8.50049H16.5C15.5681 8.50049 15.1022 8.50049 14.7346 8.34825C14.2446 8.14526 13.8552 7.75591 13.6522 7.26586C13.5 6.89831 13.5 6.43237 13.5 5.50049Z" stroke="#1C274C" stroke-width="1.5"/>
</svg>
