<svg width="24" height="24" viewBox="0 0 24 24" fill="none" xmlns="http://www.w3.org/2000/svg">
<path d="M2.5 6.50049C2.5 4.29135 4.29086 2.50049 6.5 2.50049C8.70914 2.50049 10.5 4.29135 10.5 6.50049C10.5 8.70963 8.70914 10.5005 6.5 10.5005C4.29086 10.5005 2.5 8.70963 2.5 6.50049Z" stroke="#1C274C" stroke-width="1.5"/>
<path d="M13.5 17.5005C13.5 15.2913 15.2909 13.5005 17.5 13.5005C19.7091 13.5005 21.5 15.2913 21.5 17.5005C21.5 19.7096 19.7091 21.5005 17.5 21.5005C15.2909 21.5005 13.5 19.7096 13.5 17.5005Z" stroke="#1C274C" stroke-width="1.5"/>
<path d="M21.5 6.50049C21.5 4.61487 21.5 3.67206 20.9142 3.08627C20.3284 2.50049 19.3856 2.50049 17.5 2.50049C15.6144 2.50049 14.6716 2.50049 14.0858 3.08627C13.5 3.67206 13.5 4.61487 13.5 6.50049C13.5 8.38611 13.5 9.32892 14.0858 9.9147C14.6716 10.5005 15.6144 10.5005 17.5 10.5005C19.3856 10.5005 20.3284 10.5005 20.9142 9.9147C21.5 9.32892 21.5 8.38611 21.5 6.50049Z" stroke="#1C274C" stroke-width="1.5"/>
<path d="M10.5 17.5005C10.5 15.6149 10.5 14.6721 9.91421 14.0863C9.32843 13.5005 8.38562 13.5005 6.5 13.5005C4.61438 13.5005 3.67157 13.5005 3.08579 14.0863C2.5 14.6721 2.5 15.6149 2.5 17.5005C2.5 19.3861 2.5 20.3289 3.08579 20.9147C3.67157 21.5005 4.61438 21.5005 6.5 21.5005C8.38562 21.5005 9.32843 21.5005 9.91421 20.9147C10.5 20.3289 10.5 19.3861 10.5 17.5005Z" stroke="#1C274C" stroke-width="1.5"/>
</svg>
