<svg width="24" height="24" viewBox="0 0 24 24" fill="none" xmlns="http://www.w3.org/2000/svg">
<path d="M13.5 15.5005C13.5 13.6149 13.5 12.6721 14.0858 12.0863C14.6716 11.5005 15.6144 11.5005 17.5 11.5005C19.3856 11.5005 20.3284 11.5005 20.9142 12.0863C21.5 12.6721 21.5 13.6149 21.5 15.5005V17.5005C21.5 19.3861 21.5 20.3289 20.9142 20.9147C20.3284 21.5005 19.3856 21.5005 17.5 21.5005C15.6144 21.5005 14.6716 21.5005 14.0858 20.9147C13.5 20.3289 13.5 19.3861 13.5 17.5005V15.5005Z" stroke="#000000" stroke-width="1.5"/>
<path d="M2 8.50049C2 10.3861 2 11.3289 2.58579 11.9147C3.17157 12.5005 4.11438 12.5005 6 12.5005C7.88562 12.5005 8.82843 12.5005 9.41421 11.9147C10 11.3289 10 10.3861 10 8.50049V6.50049C10 4.61487 10 3.67206 9.41421 3.08627C8.82843 2.50049 7.88562 2.50049 6 2.50049C4.11438 2.50049 3.17157 2.50049 2.58579 3.08627C2 3.67206 2 4.61487 2 6.50049V8.50049Z" stroke="#000000" stroke-width="1.5"/>
<path d="M13.5 5.50049C13.5 4.56861 13.5 4.10266 13.6522 3.73512C13.8552 3.24507 14.2446 2.85572 14.7346 2.65273C15.1022 2.50049 15.5681 2.50049 16.5 2.50049H18.5C19.4319 2.50049 19.8978 2.50049 20.2654 2.65273C20.7554 2.85572 21.1448 3.24507 21.3478 3.73512C21.5 4.10266 21.5 4.56861 21.5 5.50049C21.5 6.43237 21.5 6.89831 21.3478 7.26586C21.1448 7.75591 20.7554 8.14526 20.2654 8.34825C19.8978 8.50049 19.4319 8.50049 18.5 8.50049H16.5C15.5681 8.50049 15.1022 8.50049 14.7346 8.34825C14.2446 8.14526 13.8552 7.75591 13.6522 7.26586C13.5 6.89831 13.5 6.43237 13.5 5.50049Z" stroke="#000000" stroke-width="1.5"/>
<path d="M2 18.5005C2 19.4324 2 19.8983 2.15224 20.2659C2.35523 20.7559 2.74458 21.1453 3.23463 21.3482C3.60218 21.5005 4.06812 21.5005 5 21.5005H7C7.93188 21.5005 8.39782 21.5005 8.76537 21.3482C9.25542 21.1453 9.64477 20.7559 9.84776 20.2659C10 19.8983 10 19.4324 10 18.5005C10 17.5686 10 17.1027 9.84776 16.7351C9.64477 16.2451 9.25542 15.8557 8.76537 15.6527C8.39782 15.5005 7.93188 15.5005 7 15.5005H5C4.06812 15.5005 3.60218 15.5005 3.23463 15.6527C2.74458 15.8557 2.35523 16.2451 2.15224 16.7351C2 17.1027 2 17.5686 2 18.5005Z" stroke="#000000" stroke-width="1.5"/>
</svg>
