<svg width="24" height="24" viewBox="0 0 24 24" fill="none" xmlns="http://www.w3.org/2000/svg">
<path d="M2.5 6.50049C2.5 4.61487 2.5 3.67206 3.08579 3.08627C3.67157 2.50049 4.61438 2.50049 6.5 2.50049C8.38562 2.50049 9.32843 2.50049 9.91421 3.08627C10.5 3.67206 10.5 4.61487 10.5 6.50049C10.5 8.38611 10.5 9.32892 9.91421 9.9147C9.32843 10.5005 8.38562 10.5005 6.5 10.5005C4.61438 10.5005 3.67157 10.5005 3.08579 9.9147C2.5 9.32892 2.5 8.38611 2.5 6.50049Z" stroke="#1C274C" stroke-width="1.5"/>
<path d="M13.5 17.5005C13.5 15.6149 13.5 14.6721 14.0858 14.0863C14.6716 13.5005 15.6144 13.5005 17.5 13.5005C19.3856 13.5005 20.3284 13.5005 20.9142 14.0863C21.5 14.6721 21.5 15.6149 21.5 17.5005C21.5 19.3861 21.5 20.3289 20.9142 20.9147C20.3284 21.5005 19.3856 21.5005 17.5 21.5005C15.6144 21.5005 14.6716 21.5005 14.0858 20.9147C13.5 20.3289 13.5 19.3861 13.5 17.5005Z" stroke="#1C274C" stroke-width="1.5"/>
<path d="M2.5 17.5005C2.5 15.6149 2.5 14.6721 3.08579 14.0863C3.67157 13.5005 4.61438 13.5005 6.5 13.5005C8.38562 13.5005 9.32843 13.5005 9.91421 14.0863C10.5 14.6721 10.5 15.6149 10.5 17.5005C10.5 19.3861 10.5 20.3289 9.91421 20.9147C9.32843 21.5005 8.38562 21.5005 6.5 21.5005C4.61438 21.5005 3.67157 21.5005 3.08579 20.9147C2.5 20.3289 2.5 19.3861 2.5 17.5005Z" stroke="#1C274C" stroke-width="1.5"/>
<path d="M13.5 6.50049C13.5 4.61487 13.5 3.67206 14.0858 3.08627C14.6716 2.50049 15.6144 2.50049 17.5 2.50049C19.3856 2.50049 20.3284 2.50049 20.9142 3.08627C21.5 3.67206 21.5 4.61487 21.5 6.50049C21.5 8.38611 21.5 9.32892 20.9142 9.9147C20.3284 10.5005 19.3856 10.5005 17.5 10.5005C15.6144 10.5005 14.6716 10.5005 14.0858 9.9147C13.5 9.32892 13.5 8.38611 13.5 6.50049Z" stroke="#1C274C" stroke-width="1.5"/>
</svg>
