<svg width="24" height="24" viewBox="0 0 24 24" fill="none" xmlns="http://www.w3.org/2000/svg">
<path d="M2.5 6.50049C2.5 4.29135 4.29086 2.50049 6.5 2.50049C8.70914 2.50049 10.5 4.29135 10.5 6.50049C10.5 8.70963 8.70914 10.5005 6.5 10.5005C4.29086 10.5005 2.5 8.70963 2.5 6.50049Z" stroke="#1C274C" stroke-width="1.5"/>
<path d="M13.5 17.5005C13.5 15.2913 15.2909 13.5005 17.5 13.5005C19.7091 13.5005 21.5 15.2913 21.5 17.5005C21.5 19.7096 19.7091 21.5005 17.5 21.5005C15.2909 21.5005 13.5 19.7096 13.5 17.5005Z" stroke="#1C274C" stroke-width="1.5"/>
<path d="M21.5 6.50049C21.5 4.29135 19.7091 2.50049 17.5 2.50049C15.2909 2.50049 13.5 4.29135 13.5 6.50049C13.5 8.70963 15.2909 10.5005 17.5 10.5005C19.7091 10.5005 21.5 8.70963 21.5 6.50049Z" stroke="#1C274C" stroke-width="1.5"/>
<path d="M10.5 17.5005C10.5 15.2913 8.70914 13.5005 6.5 13.5005C4.29086 13.5005 2.5 15.2913 2.5 17.5005C2.5 19.7096 4.29086 21.5005 6.5 21.5005C8.70914 21.5005 10.5 19.7096 10.5 17.5005Z" stroke="#1C274C" stroke-width="1.5"/>
</svg>
