<svg width="24" height="24" viewBox="0 0 24 24" fill="none" xmlns="http://www.w3.org/2000/svg">
<path d="M2 15.0004C2 12.2389 4.23858 10.0004 7 10.0004H17C19.7614 10.0004 22 12.2389 22 15.0004C22 17.7618 19.7614 20.0004 17 20.0004H7C4.23858 20.0004 2 17.7618 2 15.0004Z" stroke="#000000" stroke-width="1.5"/>
<path d="M18.3292 22.3358C18.5144 22.7063 18.9649 22.8564 19.3354 22.6712C19.7059 22.4859 19.8561 22.0354 19.6708 21.665L18.3292 22.3358ZM17.3292 20.3358L18.3292 22.3358L19.6708 21.665L18.6708 19.665L17.3292 20.3358Z" fill="#000000"/>
<path d="M5.67082 22.3358C5.48558 22.7063 5.03507 22.8564 4.66459 22.6712C4.29411 22.4859 4.14394 22.0354 4.32918 21.665L5.67082 22.3358ZM6.67082 20.3358L5.67082 22.3358L4.32918 21.665L5.32918 19.665L6.67082 20.3358Z" fill="#000000"/>
<path d="M8.5 15.0004C8.5 15.8288 7.82843 16.5004 7 16.5004C6.17157 16.5004 5.5 15.8288 5.5 15.0004C5.5 14.1719 6.17157 13.5004 7 13.5004C7.82843 13.5004 8.5 14.1719 8.5 15.0004Z" stroke="#000000" stroke-width="1.5"/>
<path d="M12 15.0004H18.5" stroke="#000000" stroke-width="1.5" stroke-linecap="round"/>
<path d="M21.5833 5.39739C20.7574 3.40322 18.7924 2.00037 16.4996 2.00037C14.2069 2.00037 12.2419 3.40322 11.416 5.39739" stroke="#000000" stroke-width="1.5" stroke-linecap="round"/>
<path d="M19.3806 6.65847C19.0167 5.41143 17.865 4.50037 16.5004 4.50037C15.1358 4.50037 13.984 5.41143 13.6201 6.65847" stroke="#000000" stroke-width="1.5" stroke-linecap="round"/>
<path d="M17.5 7.00037C17.5 7.55265 17.0523 8.00037 16.5 8.00037C15.9477 8.00037 15.5 7.55265 15.5 7.00037C15.5 6.44808 15.9477 6.00037 16.5 6.00037C17.0523 6.00037 17.5 6.44808 17.5 7.00037Z" fill="#000000"/>
</svg>
