<svg width="24" height="24" viewBox="0 0 24 24" fill="none" xmlns="http://www.w3.org/2000/svg">
<path d="M7 15.0004C7 15.5527 6.55228 16.0004 6 16.0004C5.44772 16.0004 5 15.5527 5 15.0004C5 14.4481 5.44772 14.0004 6 14.0004C6.55228 14.0004 7 14.4481 7 15.0004Z" fill="#000000"/>
<path d="M10 15.0004C10 15.5527 9.55228 16.0004 9 16.0004C8.44772 16.0004 8 15.5527 8 15.0004C8 14.4481 8.44772 14.0004 9 14.0004C9.55228 14.0004 10 14.4481 10 15.0004Z" fill="#000000"/>
<path d="M2 15.0004C2 13.1147 2 12.1719 2.58579 11.5862C3.17157 11.0004 4.11438 11.0004 6 11.0004H18C19.8856 11.0004 20.8284 11.0004 21.4142 11.5862C22 12.1719 22 13.1147 22 15.0004C22 16.886 22 17.8288 21.4142 18.4146C20.8284 19.0004 19.8856 19.0004 18 19.0004H6C4.11438 19.0004 3.17157 19.0004 2.58579 18.4146C2 17.8288 2 16.886 2 15.0004Z" stroke="#000000" stroke-width="1.5"/>
<path d="M7 11.0004L3 4.00037" stroke="#000000" stroke-width="1.5" stroke-linecap="round"/>
<path d="M17 11.0004L21 4.00037" stroke="#000000" stroke-width="1.5" stroke-linecap="round"/>
<path d="M14 15.0004L18 15.0004" stroke="#000000" stroke-width="1.5" stroke-linecap="round"/>
<path d="M17.1673 5.39739C16.3414 3.40322 14.3763 2.00037 12.0836 2.00037C9.79092 2.00037 7.82586 3.40322 7 5.39739" stroke="#000000" stroke-width="1.5" stroke-linecap="round"/>
<path d="M14.9646 6.65847C14.6007 5.41143 13.4489 4.50037 12.0844 4.50037C10.7198 4.50037 9.568 5.41143 9.2041 6.65847" stroke="#000000" stroke-width="1.5" stroke-linecap="round"/>
<path d="M13.084 7.00037C13.084 7.55265 12.6363 8.00037 12.084 8.00037C11.5317 8.00037 11.084 7.55265 11.084 7.00037C11.084 6.44808 11.5317 6.00037 12.084 6.00037C12.6363 6.00037 13.084 6.44808 13.084 7.00037Z" fill="#000000"/>
</svg>
