<svg width="24" height="24" viewBox="0 0 24 24" fill="none" xmlns="http://www.w3.org/2000/svg">
<path d="M21.5833 7.39739C20.7574 5.40322 18.7924 4.00037 16.4996 4.00037C14.2069 4.00037 12.2419 5.40322 11.416 7.39739" stroke="#1C274C" stroke-width="1.5" stroke-linecap="round"/>
<path d="M19.3806 8.65847C19.0167 7.41143 17.865 6.50037 16.5004 6.50037C15.1358 6.50037 13.984 7.41143 13.6201 8.65847" stroke="#1C274C" stroke-width="1.5" stroke-linecap="round"/>
<path d="M7 16.0004C7 16.5527 6.55228 17.0004 6 17.0004C5.44772 17.0004 5 16.5527 5 16.0004C5 15.4481 5.44772 15.0004 6 15.0004C6.55228 15.0004 7 15.4481 7 16.0004Z" fill="#1C274C"/>
<path d="M10 16.0004C10 16.5527 9.55228 17.0004 9 17.0004C8.44772 17.0004 8 16.5527 8 16.0004C8 15.4481 8.44772 15.0004 9 15.0004C9.55228 15.0004 10 15.4481 10 16.0004Z" fill="#1C274C"/>
<path d="M2 16.0004C2 14.1147 2 13.1719 2.58579 12.5862C3.17157 12.0004 4.11438 12.0004 6 12.0004H18C19.8856 12.0004 20.8284 12.0004 21.4142 12.5862C22 13.1719 22 14.1147 22 16.0004C22 17.886 22 18.8288 21.4142 19.4146C20.8284 20.0004 19.8856 20.0004 18 20.0004H6C4.11438 20.0004 3.17157 20.0004 2.58579 19.4146C2 18.8288 2 17.886 2 16.0004Z" stroke="#1C274C" stroke-width="1.5"/>
<path d="M16.5 12.0004L16.5 9.00037" stroke="#1C274C" stroke-width="1.5" stroke-linecap="round"/>
</svg>
