<svg width="24" height="24" viewBox="0 0 24 24" fill="none" xmlns="http://www.w3.org/2000/svg">
<path d="M12.75 15.2858C12.75 14.8716 12.4142 14.5358 12 14.5358C11.5858 14.5358 11.25 14.8716 11.25 15.2858H12.75ZM15.75 21.7501C16.1642 21.7501 16.5 21.4143 16.5 21.0001C16.5 20.5858 16.1642 20.2501 15.75 20.2501V21.7501ZM8.25 20.2501C7.83579 20.2501 7.5 20.5858 7.5 21.0001C7.5 21.4143 7.83579 21.7501 8.25 21.7501V20.2501ZM11.25 15.2858V21.0001H12.75V15.2858H11.25ZM15.75 20.2501H12V21.7501H15.75V20.2501ZM12 20.2501H8.25V21.7501H12V20.2501ZM6.89474 3.75012H17.1053V2.25012H6.89474V3.75012ZM18.25 4.89486V8.00012H19.75V4.89486H18.25ZM5.75 8.00012V4.89486H4.25V8.00012H5.75ZM12 14.2501C8.54822 14.2501 5.75 11.4519 5.75 8.00012H4.25C4.25 12.2803 7.71979 15.7501 12 15.7501V14.2501ZM18.25 8.00012C18.25 11.4519 15.4518 14.2501 12 14.2501V15.7501C16.2802 15.7501 19.75 12.2803 19.75 8.00012H18.25ZM17.1053 3.75012C17.7375 3.75012 18.25 4.26264 18.25 4.89486H19.75C19.75 3.43421 18.5659 2.25012 17.1053 2.25012V3.75012ZM6.89474 2.25012C5.43409 2.25012 4.25 3.43421 4.25 4.89486H5.75C5.75 4.26264 6.26252 3.75012 6.89474 3.75012V2.25012Z" fill="#1C274C"/>
<path d="M5.5 9.00013C5.5 9.00013 7.58115 8.08739 9 8.00013C11.4652 7.84851 12.5348 10.1517 15 10.0001C16.4188 9.91286 18.5 9.00013 18.5 9.00013" stroke="#1C274C" stroke-width="1.5" stroke-linecap="round"/>
</svg>
