<svg width="24" height="24" viewBox="0 0 24 24" fill="none" xmlns="http://www.w3.org/2000/svg">
<path d="M12.0646 17.9999C16.4827 18.0355 20.0354 14.4828 19.9997 10.0647C19.9641 5.64655 16.3536 2.03604 11.9354 2.00039C7.51731 1.96474 3.96461 5.51744 4.00027 9.93557C4.03592 14.3537 7.64642 17.9642 12.0646 17.9999Z" stroke="#1C274C" stroke-width="1.5" stroke-linecap="round"/>
<path d="M11.25 22.0001C11.25 22.4143 11.5858 22.7501 12 22.7501C12.4142 22.7501 12.75 22.4143 12.75 22.0001H11.25ZM11.25 21.0001V22.0001H12.75V21.0001H11.25Z" fill="#1C274C"/>
<path d="M12.8569 7.00012L9.99972 10.0001H13.9997L11.1426 13.0001" stroke="#1C274C" stroke-width="1.5" stroke-linecap="round" stroke-linejoin="round"/>
<path d="M13.5 18.0001V19.5001C13.5 19.9661 13.5 20.199 13.4239 20.3828C13.3224 20.6278 13.1277 20.8225 12.8827 20.924C12.6989 21.0001 12.4659 21.0001 12 21.0001C11.5341 21.0001 11.3011 21.0001 11.1173 20.924C10.8723 20.8225 10.6776 20.6278 10.5761 20.3828C10.5 20.199 10.5 19.9661 10.5 19.5001V18.0001" stroke="#1C274C" stroke-width="1.5"/>
</svg>
