<svg width="24" height="24" viewBox="0 0 24 24" fill="none" xmlns="http://www.w3.org/2000/svg">
<path d="M9.50006 17.75C9.08585 17.75 8.75006 18.0858 8.75006 18.5C8.75006 18.9142 9.08585 19.25 9.50006 19.25V17.75ZM14.5001 19.25C14.9143 19.25 15.2501 18.9142 15.2501 18.5C15.2501 18.0858 14.9143 17.75 14.5001 17.75V19.25ZM11.2501 22.0001C11.2501 22.4143 11.5859 22.75 12.0001 22.75C12.4143 22.75 12.7501 22.4142 12.7501 21.9999L11.2501 22.0001ZM11.2498 16V18.5H12.7498V16H11.2498ZM11.9998 17.75H9.50006V19.25H11.9998V17.75ZM14.5001 17.75H11.9998V19.25H14.5001V17.75ZM11.2498 18.5001L11.2501 22.0001L12.7501 21.9999L12.7498 18.4999L11.2498 18.5001Z" fill="#1C274C"/>
<path d="M19 9C19 12.866 15.866 16 12 16C8.13401 16 5 12.866 5 9C5 5.13401 8.13401 2 12 2C15.866 2 19 5.13401 19 9Z" stroke="#1C274C" stroke-width="1.5"/>
</svg>
