<svg width="24" height="24" viewBox="0 0 24 24" fill="none" xmlns="http://www.w3.org/2000/svg">
<path d="M3 10.0002C3 6.22901 3 4.34339 4.17157 3.17182C5.34315 2.00024 7.22876 2.00024 11 2.00024H13C16.7712 2.00024 18.6569 2.00024 19.8284 3.17182C21 4.34339 21 6.22901 21 10.0002V14.0002C21 17.7715 21 19.6571 19.8284 20.8287C18.6569 22.0002 16.7712 22.0002 13 22.0002H11C7.22876 22.0002 5.34315 22.0002 4.17157 20.8287C3 19.6571 3 17.7715 3 14.0002V10.0002Z" stroke="#1C274C" stroke-width="1.5"/>
<path d="M9.5 15.5002V15.3752C9.5 14.892 9.89175 14.5002 10.375 14.5002H13.625C14.1082 14.5002 14.5 14.892 14.5 15.3752V15.5002C14.5 16.881 13.3807 18.0002 12 18.0002C10.6193 18.0002 9.5 16.881 9.5 15.5002Z" stroke="#1C274C" stroke-width="1.5" stroke-linecap="round"/>
<path d="M9.5 3.00024C9.5 2.52884 9.5 2.29314 9.64645 2.14669C9.79289 2.00024 10.0286 2.00024 10.5 2.00024H11C11.4714 2.00024 11.7071 2.00024 11.8536 2.14669C12 2.29314 12 2.52884 12 3.00024V3.50024C12 3.97165 12 4.20735 11.8536 4.3538C11.7071 4.50024 11.4714 4.50024 11 4.50024H10.5C10.0286 4.50024 9.79289 4.50024 9.64645 4.3538C9.5 4.20735 9.5 3.97165 9.5 3.50024V3.00024Z" stroke="#1C274C" stroke-width="1.5"/>
<path d="M9.5 8.00024C9.5 7.52884 9.5 7.29314 9.64645 7.14669C9.79289 7.00024 10.0286 7.00024 10.5 7.00024H11C11.4714 7.00024 11.7071 7.00024 11.8536 7.14669C12 7.29314 12 7.52884 12 8.00024V8.50024C12 8.97165 12 9.20735 11.8536 9.3538C11.7071 9.50024 11.4714 9.50024 11 9.50024H10.5C10.0286 9.50024 9.79289 9.50024 9.64645 9.3538C9.5 9.20735 9.5 8.97165 9.5 8.50024V8.00024Z" stroke="#1C274C" stroke-width="1.5"/>
<path d="M12 5.50024C12 5.02884 12 4.79314 12.1464 4.64669C12.2929 4.50024 12.5286 4.50024 13 4.50024H13.5C13.9714 4.50024 14.2071 4.50024 14.3536 4.64669C14.5 4.79314 14.5 5.02884 14.5 5.50024V6.00024C14.5 6.47165 14.5 6.70735 14.3536 6.8538C14.2071 7.00024 13.9714 7.00024 13.5 7.00024H13C12.5286 7.00024 12.2929 7.00024 12.1464 6.8538C12 6.70735 12 6.47165 12 6.00024V5.50024Z" stroke="#1C274C" stroke-width="1.5"/>
<path d="M12 10.5002C12 10.0288 12 9.79314 12.1464 9.64669C12.2929 9.50024 12.5286 9.50024 13 9.50024H13.5C13.9714 9.50024 14.2071 9.50024 14.3536 9.64669C14.5 9.79314 14.5 10.0288 14.5 10.5002V11.0002C14.5 11.4716 14.5 11.7074 14.3536 11.8538C14.2071 12.0002 13.9714 12.0002 13.5 12.0002H13C12.5286 12.0002 12.2929 12.0002 12.1464 11.8538C12 11.7074 12 11.4716 12 11.0002V10.5002Z" stroke="#1C274C" stroke-width="1.5"/>
</svg>
